<mxfile host="Electron" modified="2024-03-22T10:03:30.182Z" agent="Mozilla/5.0 (Windows NT 10.0; Win64; x64) AppleWebKit/537.36 (KHTML, like Gecko) draw.io/24.0.4 Chrome/120.0.6099.109 Electron/28.1.0 Safari/537.36" etag="-B3kKSfAnTTOimGR30Hu" version="24.0.4" type="device">
  <diagram name="Basis" id="uddQdUUTpWUz8P_7sTQQ">
    <mxGraphModel dx="1131" dy="828" grid="1" gridSize="10" guides="1" tooltips="1" connect="1" arrows="1" fold="1" page="1" pageScale="1" pageWidth="850" pageHeight="1100" math="0" shadow="0">
      <root>
        <mxCell id="0" />
        <mxCell id="1" parent="0" />
        <mxCell id="UOm5S9cRh1k_9BCrAcBq-1" value="" style="shape=image;verticalLabelPosition=bottom;labelBackgroundColor=default;verticalAlign=top;aspect=fixed;imageAspect=0;image=data:image/png,iVBORw0KGgoAAAANSUhEUgAABr0AAANbCAYAAAD/l1RxAAAAAXNSR0IArs4c6QAAAARnQU1BAACxjwv8YQUAAAAJcEhZcwAADsMAAA7DAcdvqGQAAP+lSURBVHhe7J0HeFNH2rY/eu+9dwgEQhJCCCGh9xB6h1BCC7333nvvxTa9GDDFFNsYd2xsUwJJNrubbP13N8nul012U0n53l/PWHOQ7GPhbun4ua/rvmTNmTPnSDq25Hk0M/8jOYz/+7//s/9ECCGEEEIIIYQQQgghhBBCrAJDL0IIIYQQQgghhBBCCCGEEOLxMPQihBBCCCGEEEIIIYQQQgghHg9DL0IIIYQQQgghhBBCCCGEEOLxMPQihBBCCCGEEEIIIYQQQgghHg9DL0IIIYQQQgghhBBCCCGEEOLxMPQihBBCCCGEEEIIIYQQQgghHg9DL0IIIYQQQgghhBBCCCGEEOLxMPQihBBCCCGEEEIIIYQQQgghHg9DL0IIIYQQQgghhBBCCCGEEOLxMPQihBBCCCGEEEIIIYQQQgghHg9DL0IIIYQQQgghhBBCCCGEEOLxMPQihBBCCCGEEEIIIYQQQgghHg9DL0IIIYQQQgghhBBCCCGEEOLxMPQihBBCCCGEEEIIIYQQQgghHg9DL0IIIYQQQgghhBBCCCGEEOLxMPQihBBCCCGEEEIIIYQQQgghHg9DL0IIIYQQQgghhBBCCCGEEOLxMPQihBBCCCGEEEIIIYQQQgghHg9DL0IIIYQQQgghhBBCCCGEEOLxMPQihBBCCCGEEEIIIYQQQgghHg9DL0IIIYQQQgghhBBCCCGEEOLxMPQihBBCCCGEEEIIIYQQQgghHg9DL0IIIYQQQgghhBBCCCGEEOLxMPQihBBCCCGEEEIIIYQQQgghHg9DL0IIIYQQQgghhBBCCCGEEOLxMPQihBBCCCGEEEIIIYQQQgghHg9DL0IIIYQQQgghhBBCCCGEEOLxMPQihBBCCCGEEEIIIYQQQgghHg9DL0IIIYQQQgghhBBCCCGEEOLxMPQihBBCCCGEEEIIIYQQQgghHg9DL0IIIYQQQgghhBBCCCGEEOLxMPQihBBCCCGEEEIIIYQQQgghHg9DL0IIIYQQQgghhBBCCCGEEOLxMPQihBBCCCGEEEIIIYQQQgghHg9DL0IIIYQQQgghhBBCCCGEEOLxMPQihBBCCCGEEEIIIYQQQgghHg9DL0IIIYQQQgghhBBCCCGEEOLxMPQihBBCCCGEEEIIIYQQQgghHg9DL0IIIYQQQgghhBBCCCGEEOLxMPQihBBCCCGEEEIIIYQQQgghHg9DL0IIIYQQQgghhBBCCCGEEOLxMPQihBBCCCGEEEIIIYQQQgghHg9DL0IIIYQQQgghhBBCCCGEEOLxMPQihBBCCCGEEEIIIYQQQgghHg9DL0IIIYQQQgghhBBCCCGEEOLxMPQihBBCCCGEEEIIIYQQQgghHg9DL0IIIYQQQgghhBBCCCGEEOLxMPQihBBCCCGEEEIIIYQQQgghHg9DL0IIIYQQQgghhBBCCCGEEOLxMPQihBBCCCGEEEIIIYQQQgghHg9DL0IIIYQQQgghhBBCCCGEEOLxMPQihBBCCCGEEEIIIYQQQgghHg9DL0IIIYQQQgghhBBCCCGEEOLxMPQihBBCCCGEEEIIIYQQQgghHg9DL0IIIYQQQgghhBBCCCGEEOLxMPQihBBCCCGEEEIIIYQQQgghHg9DL0IIIYQQQgghhBBCCCGEEOLxMPQihBBCCCGEEEIIIYQQQgghHg9DL0IIIYQQQgghhBBCCMkEfv31V3ny5Il8//338t///lf+/ve/yx/+8Af59NNPKc0wcV19++236jrD9YbrjpCcCkMvQgghhBBCCCGEEEIIyUB++ukniY6OlosXL8rJkyfFy8tLDh06JAcPHqQ0U8T1hesM19uFCxckMjJShWCE5DQYehFCCCGEEEIIIYQQQkgG8J///EeFXQgfzIIJSrNSHx8fdT1+88039iuUEOvD0IsQQgghhBBCCCGEEELSAfocv/jiCzl69GiS4OHw4cMqBDt27JicPn1azp07R2mGiusK1xeuM1xvia9B+Le//Y194yRHwNCLEEIIIYQQQgghhBBC0sHdu3eTTF94/PhxCQwMlKioKImNjZX4+Hi5d+8epZkmrjNcb7juEgewCMMw5SH7x4nVYehFCCGEEEIIIYQQQgghaQTTxzmGC97e3hIQEMCQi2a7icMvBLO4Xn/55Rf71UuI9WDoRQghhBBCCCGEEEIIIakE/Yy///3vnQIvTDGH0TZmAQSl2WFMTEySUV8ffvih/SomxHow9CKEEEIIIYQQQgghhJBU8ve//91p/aTz58+raQ7NggdKs9O4uDh1feprFWt//fGPf7RfyYRYC4ZehBBCCCGEEEIIIYQQkgqePHkip06dMkKEkydPqmDBLHCg1B3E9XnmzBnjmsXPnOaQWBGGXoQQQgghhBBCCCGEEJIKECDo8ABreHFKQ+oJYqrDI0eOGNfuw4cP7Vc0IdaBoRchhBBCCCGEEEIIIYSkEIyOOX78uBEcBAUFmQYMlLqjISEhxrWL6Tm/+uor+5VNiDVg6EUIIYQQQgghhBBCCCEp5NGjR0ZocPToUU5rSD1Ox6k5P/jgA/uVTYg1YOhFCCGEEEIIIYQQQgghKQB9i46BAUbNmIUKlLqzAQEBxjV848YN+9VNiDVg6EUIIYQQQgghhBBCCCEp4JtvvhEvLy8VFuCWa3lRTxRre+nQC2t8/fzzz/YrnBDPh6EXIRkM5sH961//Kp988ol89NFH8uGHH1Kaof7ud7+TP/3pT/KPf/xDfdgmhBBCCCGEEEJI1vCvf/1LrYOEsADresXHx5uGCpS6uydOnDCCr88++8x+hRPi+TD0IiSd4Jr68ccf5f79+05vFpRmlRcvXlQh65MnT+xXJSGEEEIIIYQQQjIDfAH10KFD6v9xTHNoFiZQ6gn6+voafUuffvqp/QonxPNh6EVIOvj3v/8tly5dEm9vb+NNgtLsEt8wu3Pnjvz000/2K5QQQgghhBBCCCEZCWZe0f+Hnzt3zjRMoNQTvHz5snEtv//++/YrnBDPh6EXIWnk8ePHpmEXyk6fPi3nz59XI3D8/PwozVBxbZ05c0aFXPrbZY7i+sMUiIQQQgghhBBCCMlY8P+2/v/7woULpmECpZ7gtWvXjGsZa9MRYhUYehGSSjCKxt/f33hTgAgeEEJgEUizNxFKM8u7d+/K1atXTQPYhw8f8m8eIYQQQgghhBCSgfz2t781/u9m6EU9WcfQC/1LhFgFhl6EpAKs3YVRNvoNAR47dkzCw8O5cCnNVvGNnKCgIPHy8nK6PvmhhRBCCCGEEEIIyTgYelGryNCLWBWGXoSkEFw7169fN94MMLrrypUrpm8alGaXcXFxcvbsWeM6hR999JH9KiaEEEIIIYQQQkh6YOhFrSJDL2JVGHoRkgJw3YSFhRlvBDA4ONj0DYNSdxAfvPW1euTIEfnqq6/sVzMhhBBCCCGEEELSCkMvahUZehGrwtCLkBTw2WefGW8CMCAgwPTNglJ3EdMdHj9+3LhmT5w4IU+ePLFf0YQQQgghhBBCCEkLDL2oVWToRawKQy9CngGuGcc3AazpZfZGQam7ieDLx8fHuHbxwZwQQgghhBBCCCFpJ7NCr5iYGLlz5466TbwN/99jW3R0tFHPTL0vAgzHciyFkLjN5ERdx321um3H7Yn31eV63XtdF+et66T13PRzoMV9s3o4NpYk2bFjh0RGRprWoQky9CJWhaEXIc/g97//vfEGgDdNvAmYvVFQ6o46foDx9vaWn3/+2X5lE0IIIYQQQgghJLVkVui1a9cuefvtt2XcuHFJgqC1a9eqbYsWLZKpU6eqn82cPXu2qr9mzRqn8p49e8rkyZPFz8/PCKSS8/Tp0077apcsWaK2Yx1x3B86dKgKnxz37du3rzIoKEjdx1r4qDthwgSjzpYtW5zaxbnNmjXrmbMq6efH0bFjx6rzdQzAsDwJ2sR2zHrj2EZmGRUVlWwI584y9CJWhaEXIc/gxo0bxhuAv7+/6ZsEpe4qPigfO3bMuIZ/97vf2a9sQgghhBBCCCGEpJbMCr0wGqpfv34ycOBAiYiIcNo2fvx4FeRcvXpV5s2bJ0OGDDEcPHiwEfIg7EJ9HXqhvWHDhqkgCvd79+6tgjNXAY1j6IV9tQjesD2jQi/Uw7nrY+Fxu1o/X4deeKw4n/79+xv7IjTT9RDqnTlzRry8vJxGmGWWCI7wWHA8s+3uLEMvYlUYehHiAlwvp06dMt4AOCyaeqLXr183rmF8gCSEEEIIIYQQQkjayMw1vWbMmKFCHIQ2uuz27dvSq1cvFfQkDpkgZiVCEIQRYnp2Ih16LVu2TN1HyHX48GEZMGCAagvBlmMbjurQC22abc+o0AvhG+6HhobKiBEjVNm6deuMeonVoReCMgRb+JLvuXPnjOBM74vHunPnTqUO0fCYsD/2w7Il69evN0aB6XY2bdokq1atkj179qjnXB8XhoeHq+cPzyuOg9ceZWh/0qRJ6vjz589Xx7x06ZKxH/pjULZy5UrZtm2bXL582dimzxNhGaaOPHLkiDo+ril9/o6zTeG8UYZ+Sl2WXhl6EavC0IsQF3z77bfGH398iHjWEHBK3VEM7dfXsa+vr/3qJoQQQgghhBBCSGrJzNBLBzuYwlCX6akNZ86c6VQXIlTBNgRUjueSOPTSrl69WpU7hlCJTU3oheAH4Y02LaEX+tomTpyoylasWGHUS2zi0EuXY+0ulCPQwzSDCOJwH6IPBHVwLNw/cOCACv3wM/bDtt27d6v7GAWHc8fjxigyhHHYjkBq5MiRqg72RT3UwWN77733VLnjNt0uZo7q06ePqqv3gZiNR7eL/VBHv14QAZw+x+PHj6u6EKEmyhC+6bL0ytCLWBWGXoS44JNPPjH++Os3Sko9TXyQ0tcxPlwRQgghhBBCCCEkbWRm6IWwCMEGwhGMNsL/88OHDzfCkMT1sU4XtulRTLo8udALgYluHyGV4zat4/SGGzZsMNSjlHTohWBm1KhRMnr0aEO0m9LQC0EXQqjly5er4AfBkKt1vZILvRDcoBzHvXXrlsvQC+e3YMECFSahLoIt7Idj47VEiLd582ZVF+eFfTH6CvdxXIziQtCINdPx2mCkF9rE9u3bt6vzx9SUOAdM14hy7H/z5k3Zt2+fuo9jYT8dekFMQ4n9MYoL5QsXLlTlmMpSP0Z9HP3cZoQMvYhVYehFiAvwBqD/+GPe5MRvDpR6gvgwqK9jfMAlhBBCCCGEEEJI2sjM0AvqIOvo0aMSGBioQpl33nnHqQ7+z8cUfaiH0UYIShy3Jxd6IaxBOcQ+mEYRZRBBEIIPx9DL0f3796s2HEMvjIBC8KVNTejlKEZWYXo/XefkyZPGeeF4KEsu9MJzhHIEZziuq9ALU0Q6Plc4JsoRRGFaQwRTmEIQZVOmTFFTH+rRXNim93NUh1GOI7B0EAf1iDGoA0w8JsfQC6+lrgOxDx4PXnc8VoSOqIepFB3rpVeGXsSqMPQixAUhISHGH3+8iZq9QVDqCWKOaH0t//jjj/YrnBBCCCGEEEIIIakhs0MvrDWFgANT/eF/efyMaQkd6/j7+6tQBAET+q4ct8HkQi+MJkL5kCFD1P0xY8ao+3DQoEFqpJPj9Ib4ArgW27CP4/SG6VnTC2ES1rnCcaDjCCYdDjnum1zohbAO5RgthbDIVeiFdbf0flBPjQj1uWsxxSRCL/0c+fn5Oe2rNQu9MCIMZdjmWFev/4VZeBxDL4R8jvUc62KUmJ7+ESFV4nrpkaEXsSoMvQhxAebf1X/8Ey9iSakniW+I6Wv5q6++sl/hhHg2P/70k/zr31/LPymllFJKLeT/fvUf+eXXX+2feAgh7kZmh16Y+g4BzrvvviuzZ89WYQeCKL0d0+dhBBDKkxt9ZBZ6IQzCaCyUI/xC2cWLF1XbENMnYspDx9BL7+toRoVeek0vHcTNmjXLqIOwSp+XDpvMQi8ENXokFkIilLsKvTC1oT4G1CPfcM6Y7hBromvxPDuO9MLxHffV6vW3HEMvBFUog/q5wLkhbERZ4pFemNZQ76vdu3ev2rZ06VK1XhleO5xP4nrpkaEXsSoMvQhxAebp1X/8GXpRTxbfItLX8r///W/7FU6I5/LdDz/KnYe/oZRSSim1pLGPfys///KL/ZMPIcSdyOzQS48uQuiE8AuBTFRUlLF95cqVKgxBOdbEQtiixYghhCs69MJUiYcOHVJBE6b2QxmmJESg43hMR7M69IqOjlbrgaEsuRAP6tALUyHiuUdYNn78eFWGMAmhFeqlJvSKjIxUIRoeK0adYQQd1i7z8fExwja9pheOiy8UY0rIrVu3GuuP4XnAdhwD1wPaQHiI0BLlc+bMUeexbt06dR8j9DA671mhF15zhF04LuroNcYyUoZexKow9CLEBQy9qFVk6EWsxr//841pBxGllFJKqVX8/gdOS06IO5LZoRdEgKUDkcRTG+rRWmYiLHMMvbQIdbBuFUZDIWRybC+xWR16QYwy0yGf4zSHjurQS6sf04gRI4wACqYm9IIICtGO3geibby+2I5wCsdw3I7RXXrtfwR1qK+36dcLzzOCRsdteG7Onz9vtKvLzUIvqIMyiDDNrE56ZOhFrApDL0JcwNCLWkWGXsRqJA29PqKUUkoptYAMvQhxd7Ii9EIAgXAJ6rW0tBiBpLclFmtJoQ5CIF2GQAnTGGKt+pRMj4fj6X3NtmOUGLbhsSduDyETRKCD+wigUBejp3QdhFooQ5+bLoM4R5Qn1/+GaR+xHeIx4fiYRhCjqhzr4Zx0PT2iDcfC/eTWxMIoMaylhikFMTIOz7FjOIgRYXhcCLjwuuN51sdFyIggC9swXaIecQYxTSKOi23ol3EM9BzPM/FrrNXrlWFNL7Pt6ZWhF7EqDL0IcQFDL2oVGXoRq8GRXpRSSim1ugy9CHFPsiL0ojlXhGgI2RCQIexC6OW4XlhGytCLWBWGXoS4gKEXtYoMvYjVYOhFKaWUUqvL0IsQ94ShF81MMTrOcUpErOuVeBrJjJKhF7EqDL0IcQFDL2oVGXoRq8HQi1JKKaVWl6EXIe4JQy+amWJqyOnTp6t10DZu3Jjs1IcZIUMvYlUYehHiAquHXlFRUerNU8+1DDGEGmUQ2zGs2nEfLeYe1vUgvnWSXF0t5kN23AdvqGb1MC/ysmXLZNasWaqeWR2aOhl6EavB0ItSSimlVpehFyHuCUMvahUZehGrwtCLEBdYPfR688035X/+539k5syZRlmdOnVUmbZQoULSp08fp8U24alTpyRPnjxOdWvUqCE7duxINvx69913nerDxo0bi5eXl9Pip/7+/pIrVy61fc+ePU5tZLYI3BD2mW3zZBl6EavB0ItSSimlVpehFyHuCUMvahUZehGrwtCLEBfk5NCrbNmyUqZMGcmdO7e6X7JkSVmzZo1RT4desFy5clKgQAFVL1++fE71HNWhV968eaV8+fIqUMN92KVLF6MeArANGzbI0qVL1cgzxzYyW5xH/vz5JSIiwnS7p8rQi1gNhl6UUkoptboMvQhxTxh6UavI0ItYFYZehLggJ4dely9fVvdv3bolPXr0UGUIwUJCQlS5Dr0qVKig7iOo6tatm6pXvXp1oz1HdehVv359NRoMb6gIt4oUKaLKJ0+erOphGkRMbQgDAgKM/f38/GTu3LkyePBgmTRpknh7exsjxBCOLViwQHbt2qVGimH+46FDh8r8+fONc4Z4HVesWCHDhw+XYcOGyaJFi+TMmTNq2759+4wRZlOmTFHHctzXk2XoRawGQy9KKTX3zOUbsmTV+mzT+/QF0/PKLiPufSBHTvqanmtWu3HHHgmIuGt6npSaydCLEPeEoRe1igy9iFVh6EWICxh6Pa1bq1YtVY5FNHE/cegFFy9erOpgpJQuczRx6KXLR4wYocqrVaum1gYLDQ1V96GPj4+qc/XqVSlcuLAKpTCaDCPQcHyEXNh+8+ZNKVasmFSqVEmNOsM2HWC98MIL6ngI0/Tjw2gziDodO3ZUH1T1qDaI/TESzSofYBl6EavB0ItSSs19rlFj4/NMdhkcfd/03LLDhctXm55jdtnyjdYS9eAj03OlNLEMvQhxTxh6UavI0ItYFYZehLiAodfTuh06dFDlAwYMUPd16IVpChFSnThxQp5//nlV5/XXX3faV5tc6HX06FFVXrp0aQkODk4SesXExEjDhg3VfbSB0Wdbt25V94sXL67W4NKhF8rwuHB+8+bNM9o5d+6cWpesRIkS6rwxugtv7lgzDK8zArHVq592iuCcfH19VbnjY/BUGXoRq8HQi1JKza1StZrxeSa7PH3puum5ZYfu8Hwkdvm6zabnSmliGXoR4p4w9KJWkaEXsSoMvQhxAUOvp3W7du2qynv27Knu69BL//OuxVpgFy9edNpXm1zohUAK5Vg3DIFW4tArMDBQbcP9adOmqRFlCxcuNOqcPXvWKfTCqDC0i7Z0nUOHDkl4eLgaTYb7COswfaKuCzFdoq6PurrcCjL0IlaDoRellJrL0OupG7bvMT2/7Lb+cw0lPP6x6TlT6ihDL0LcE4Ze1Coy9CJWhaEXIS5g6PW0brNmzVQ5Qifc16EXpgTElIIIssaMGaNGXTnu52hyoRfW2EI5pkoMCwtLEnrhTViv+6WnJXQUo8x06IVz0u0iuNLtIPRCGdb7qlGjhjGVIaZiRNiFbQy9CPEcGHpRSqm5jqEXPhdllfqY0B1Cr+A794yprt3NPHnyyrmrAabnTamjDL0IcU8YelGryNCLWBWGXoS4gKFXQtnu3btVOIS1sq5cuaLKzNb0epZmoRdCrpo1a6ryNm3aSFxcXJLQC9MS6pFeCKZu3LjhJN6YdeiFEEwfzyz0glg3DPcbN05Y8wKjvzCNIUMvQjwHhl4p8/CJs3LkpK/T+jFnr9yQPYePyq2oeKe6lFJr6Bh6bd9/RM5cup4lVqpcxTiuO4ReG3fsNc7HHa1brwFHe9FnytCLEPeEoRe1igy9iFVh6EWIC3Jy6IWyZcuWqTW88uXLp8q6d+8usbGxql56Qq+KFSvKypUrZerUqVK3bl1Vhnb0VIOJQy+88b7yyivqfvPmzdV6W6dPn1brcWGUGPZJSeiF+3hMCLf8/PzU9IbYhvNBEIZ1vnR9nN/+/fvVuej2PFmGXsRquAq99h45JrsPH5Uok22OIgw6fPys6TarWK1GDaldt56Exb1vlPUZMFj9ncPjd6ybXZ69fFM279ov10PumG6nlKZOx9ArK0cTVa+R8CUmmN2hV8S9D6RJ05eM83FXdx30Nj3/5Ay9+1B9YQFiJFtWhGZrNm2XUePek5Xrt5huT84V6zer/fYcPma63ZUXrt+S96bOlEMWf49OiQy9CHFPGHpRq8jQi1gVhl6EuCAnh15aTAuDcGvUqFFO+6Yn9HJsW0+PqEeQwcShF8owbWKVKlWSTFPzxhtvqO0pCb2wNliJEiWc9sfx582bp+oj0MNaX3obHh8ep27Pk2XoRayGq9ALI1PxO4xOT7PtECOf6tZvINVr1jLdnp2iE9NxZFZ69ITQS3fQ9x04xHQ7pTR1MvT6jRrNis9x7m73t3ubnn9y9ujdz3iOIdp4o007uRwYalo/I+zYtbs6Vuv2HU23J+eb7Tqo/cZNmma6XRse/yhJeDd4+Mg0HdOKMvQixD1h6EWtIkMvYlUYehHiAquHXhgxtXXrVqepDA8cOKDK4I4dO+Tw4cPqeXBcgwtiWsJt27ap0VaO5a48f/680Tb23bt3r5w7d069sTrWw31dLyQkxCjHa7Br1y6ZM2eOGqW1ZcsWdW7YhpFaO3fuVO3q+gixdDvYF/cxymvRokVqbTKM+jp58qRRH2IqRYweQ/ubNm2SyMhIp+2eKkMvYjWsGnqdvxYk5cpXkBPnr5huT63uHnr5B0eqc8FrVq5CBQmMjDWtRylNuQy9fiM3QqPVObi7+Jtvdv7JqUOvQoUKSekyZY01astXqJhpo2UzM/TCiLVqtuumXacuTuV+N2/LlFnzxPv0BafynChDL0LcE4Ze1Coy9CJWhaEXIS6weuhFc44MvYjVsGrotWnnPjWi9ehZP9PtqdXdQ6/Vm7arc+nZd4AasbDf56RpPUppymXoZV116NW7/0B139c/UIoWLabKpsyaq8o2bN8ji1eutf3df6TeU4aNfFcuBYSobXgv2Lb3kLw7YbKtfIwsX7tRrt2ONNqHCJwmz5gjw0eNVW291bOPal+HXldvhcvM+YuUYbFP31vmLFom85askFt3EtaLNAu9sM4a9ttqO4eQmAfqPDFLQ5169Y02Uc/n9AX18479R4x98Z6+1+u4jJ88XYbaHhOOpR8XvB19X+2zZfcBOeV3TYVmg4aNlEW2Y9wMjzHq4csWi1asVW3gMS5etU49j3q7u8nQixD3hKEXtYoMvYhVYehFiAsYelGryNCLWI3MDr2wPSA8RnX89RkwSKbOmic3w552mjm658gxtS4Vfr51555MnT1fdUyu37rLqBN5/0PxOXNR3hk9Tnr27S+jx0+U/T6nnKZ0Qkfj801eUOc+e+FS1SkIsbaJrgNxbpcCQmXc5GnSu/8g1fEXFBXnVEeb2tALbeN4706YIn0HDZEFy1ZLyN0HSeqFxz2SXYd8jFEKaH/63IXqcWMdl8T1zcSxqlarLkWKFJErQWEq7Gv5RmvTupTSlJvTQy/8vfU0zR6HmYlDL1i5alVVNmj4SHW/RctWUrRYMRkw9B3j9bhw7Zb6m/tWr77qPv7e6inDK9uuFx1e3Qi9I4ULF3GqU71mbXVfh14Hj51W92FgxNPRuQUKFpQiRYsaQVTi0AsBF+4XK15CTceIkE6fA8SoNYi6k2fMVmVde/Q02p8wZYYqczx3rDusR0YjjENZQdt5FCtePKGOvV6Hzl2Ndp5r+Lwq08fDz5Omzza2u5sMvQhxTxh6UavI0ItYFYZehLiAoRe1igy9iNXIzNAL64t079lHjTzCN9BLly6j2kNn3six76l9HetXrFRZevTuK9v3H5EyZcuqunDsxKlqO6acamDvZCtcuLCakgpt436Dho1Ue/hWOjoM9b6OTpuzwDgWOhhbtW6rOury5y8gpWznho69EiVLqm+1Jz631IReobY6WBsmoe38UrJUKVUPbc9bstKpLh4Ttg8ZMVqFXzgPfb7vjB7rVDc5ERai/qIVa9T9bm/3Vsc+bXsuEtellKbcnB561ahV2+MMCL9r+lgSq0OvHr36qhFay9ZskAIFCqiyNZu2qzoIvfTr0KvfAFm1cavcjrmvRlmhDH9n123dJYePnzXemzp06abePzCKCvcRmu066K3e1/R7QVpDrwlTZ8jmXfulYMFC6v3U50zClIXXbkfJxOmzVJ2XX3lVjp27pMS2xKEXvuiBKR3z5cuvRm55nTpvBHh4T0QdHXrBfoOGivfp87LQ9v6Cx4v3sYQ6EWp7gQIF5YDPKTnvHyhb9xxUo7+w3R1l6EWIe8LQi1pFhl7EqjD0IsQFDL2oVWToRaxGZoZe/YcMU2HXgCHvyM2waFV2NThCmrdoqcp3HPByqo/Qq2atOuq4A4e+ozrRgu/ck6DIOHWcF158WXX2rdm8wwil0AGJKZjWbtnp1BZGbuHck5vesFO3tyR/gQIqUMOoMpSdvXJDGjV+QXUIHve97FQ/paEXvuWPjlK0jU7PkLsPVfnJC1elVp26qlMVnYy6vg69Xmz2igq8+g0eqjrXMa1VgEMnqCv7Dx4mBW3nrJ+To+f81PM7fnLy679QSp9tTg+99Dl4khhhZfZYEqtDr8S+1upNY8SYDr26dH/bad/B74xS5a+/2cYoQ+CDskqVq6i/31hbC/cxGlnX6TtwiCpLa+jVrUcvNSILX9BA8Kbrw5Ubtqg6b7Zt71SeOPTC6GfcL1uuvPH+dOVWeMKormLF1X0deuE8zl6+ocoQJpYoWUp90QT3Mbq6XPnyqh7CxrmLl6uRxtiG0dwIA7UHj55W5dktQy9C3BOGXtQqMvQiVoWhFyEuYOhFrSJDL2I1UhJ6NWn6kksRuCQOvRDA4Bvur7z6mlM5RKckvjFeqFBhibj3dFpChF443sixE5zqQ3TOITDCiK7E28x0FXrhW/04fut2HY2gSIsASz9mx/KUhl7HfC+pwGnQsBFGmfZyYMLUg2g76kFCp6oOvdAO1uNKvM+z/UjKlivn9PwjxMNzWf+5hg71KKWplaHX0zBIi3PD+lRLVq93en5SK/4W5rL9HU6PZu2mNvTCFynw9/LFl1+RVRu3Ob0n6NBr4449zvv2SdgX61zpMkxRi7IyZcup0KfF62+o+6ttbeo6U2fPU2XPCr3w3msWejm6dfcBoz5Maeg1aux76n7lKlWNOjdCo9UILpTjSy469MI5YPpE1AmMjJXSZcoYoRfESDO8z6vpD23189nOGyPMDh07o+5r3WW6XYZehLgnDL2oVWToRawKQy9CXMDQi1pFhl7EaqQk9CparLhLESAlDr1Wbdiq9sW3vx3Ltc83aaq2Oy56j45HBDihDgv6a9ER+XLzFqrD7d0Jk5+5dour0GuI/Vv6Ow96J9mGdvFtd3TiOXZCpjT0wvpgKMNUVrrM0Wo1ahojAXBfh15YN0WXpUZMaYjjzV3k/DxjTRq8Lvt9TjqVU0pTLkOvp8EFLF+hotO6hwh68Hcmcb1nWbhIETUtK6ajTY9YXypx26kNvRzX9EqsDr027dznVD5izHhVjvckXbZ+225VVqkK/r7fs51bN3V/1LjkR3o5hkMImlCmwzOz0AvvQTPnL1bvg7g2AyKeTuW40v6e+6zQC2El7iOcC46+r8oQbOFLJcWLl1D3nUOvhNFbZqEXxBdS8H7X8PnGah+MfkOIhvPR7vU65rRPdsnQixD3hKEXtYoMvYhVYehFiAsYelGryNCLWI3Mmt6w+9u91b4vNWsu7Tt3TSI63LDdMZRC6IWOs+QCLYRQjZu+qParULGSWjD/+PkrSUZrQVehV70Gz6ltWL/E7Nwwcg3bL94INvZJaeiFDj+UobPUrG2EW6XLlpWb4TGqvg69nn+hqdFGSsW51K5TT/Lmyyfrtu5Ua71oFyxbpc6j+WuvPzMgpJSay9DraZgE23Xs4rQd6zYiBElc71m2btfBqZ20qoMmR7Mi9NrvfdJ43POXrlKhT63addR9TJ2L9yS9xhaCow3bd6u/yyVLlVZlOvTytV1TuA/HvDdFBYHNmrcw9ksceo2bNM32d/+R8T7z0iuvSsjdB6rO9n1HVFnNWrXVlx0w3SLeIxKHXrei4tV7DkYkY+TZ7kM+0rZ9J1Un8ZperkIvvIfNWbRcvE75qt8NnBv2wZpi2O6OMvQixD1h6EWtIkMvYlUYehHiAoZe1Coy9CJWI7NCLz21EzrJMDogOU+cv2Lsg9ALoVbUM0IadEAWK17CmFLp1ddedxqVBV2FXjpwMzsfR/1u3jb2SWnopUew4RhmbcL6zzUyvqGvQ6+Xm6e+oxAjArAOC46XnHie9DorlNLUydDL+e9JxcqVnbbjb0taRnqVLFlKjWzF+0d61GtrOZoVoRecPHOu8R6kxdpW+v0SIRHWwNLbEBa1atNW/axDL/hmW+epCzF6Gu0kF3rhPo6B9xKUzV6wRJVdvRWh9nVsC89F4tALLluzMcm5Y5rHM/b1u1ISel0OCHXaH+JaMHuu3EWGXoS4Jwy9qFVk6EWsCkMvQlzA0ItaRYZexGpkVuj1Vq++al9829yx3JUpDb0gzunQ8TPS5a23Vecd1q/CN+D1dlehF0InbLtwLSjJtuRMaeiFb8qjzOfsRaPMlekJvUa8mzDF1ox5i2TH/iNJHPLOaPXcLFm1znR/SqlrGXo5hxoQI5l2Hz4q2/YekjfatDOtkxKLlyihRiXVrF0nTVatXsN0lFlKQy/v0xdk7Zad4nMm+b/VGDGFOnrqQUfxHuR16rwa6TVl1jwV9ugRvFr/4EhZvHKtTJ+7UA4ePS3B0fdUewePnTHq3I6+r0asTZ4xR5av3ST+tyNt53ZeNu7Ya4ziwtpf2O/0pWvGfvjCCMpQLzz+sXovxmOZtWCJTJu9QI0swzmevXxD1XN8n0Ldkxeu2t4b1suUmXNl7eYd6lz19tC7D422MX0hynAMtIlRxbiP9TgxRTCmW3xv2kxZuHyNek7deWQxQy9C3BOGXtQqMvQiVoWhFyEuYOhFrSJDL2I1Miv02rB9j9p3+OixTuWuTE3opY28/4GaNhDHcgzYdCB11CR8Gjlmgto2Z9GyJNuSM6Wh1yT7t+qXrt5glLkyraFXQPhdKVSosFSoWNEp7HP0wvVbagqratVrJFuHUpq8DL2cAyVPMKWhF815MvQixD1h6EWtIkMvYlUYehHiAoZe1Coy9CJWI7NCL1i6TFmpVLmKrU7KQqy0hF5w+brN6jzxbXldNmTkaFWGNVIc68LbMffVY8NogdDYpyGWK1Maep32u2Zru4A0atzEKHNlWkMvjN7CsRcuX226Xdu5ew9VDyO/zLZTSpOXoZdzoOQJMvSiycnQixD3hKEXtYpZEXqhDyooKMjJW7duSXR0tPzhD39QffXP6q///vvvJSQkRO37v//7v/bSZ/Pw4UO1z+PHj+0lJKfA0IsQFzD0olaRoRexGpkZek2fs1Dtjw5cTLl03PeynLzoL5t27ldrsfQdOMSpvqvQC1MrYYH/idNnqymcAiPuin9whKzcsFXKlC2rAragyDij/obtu9XUfq+0aKnWKbl2O0quOExRhRFo2P5co+dl0cq1cuLCVTVd1LotO6XvoCG2811q1IUpDb3wXA0aNkKVN3y+iSxds0FNI4XHjumisM8k22PQ9dMaemFtmGLFij9zvS5M75gvXz7p1S/5dWsopebm9NALf7s8TVfvVzRny9CLEPeEoRe1ilkReiGs0p8RzcR6z/Xq1ZPRo0fLX//6V/tezvzxj3+UokWLqvoBAQH20mfTo0fClykHDhxoLyE5BYZehLiAoRe1igy9iNXIzNALzlm0XCpXqaoWuNcfxiHWcxk0bKRT3WeFXtimz0mLNV1q1akrOw54OdUPjIhVIZnjmi8jx04wtmPdkbETp0i58hWSLOiPxfrnL1np1F5KQy/tuxMmqbb/J1HbCOimzVlg1EtL6HX1VoQUKFBAmr7U7JkdvFhDpmq16lK2XPkUj2qjlCaY00MvSq0kQy9C3BOGXtQqZmXohS81tmvXTjp37qzEz82aNZPy5csbnyHL2P6nNTsPhl4ktTD0IsQFDL2oVczM0OvJkycSHByshqc7GhYWJh999JEahp4S7t+/r/b7+OOP7SXP5rPPPlP7REREyC+//GIvJTkBV6FXRnrxerBaFD/xYvypFYvq7/M+Kas2bJXNuw/I9WdMZeV387YavbXP+0Sy61qduxKgpkZcv22X+F4LMq2TVk9d9Jd1W3epNc6wxpZZHUqpe8rQi1LryNCLEPeEoRe1ilkZepUqVUr+9a9/2Uufgr6cTZs2GV/8xPrOX375pX1rAgy9SGph6EWICxh6UauYmaHX559/nmQ0jKP44FK5cmXp1KmTyw8n+JYP6r/33nv2kmdz/PhxtU+VKlXk22+/tZeSnEBWhV6UUupp5vTQC6NoPc2AiLuydssOad+5K6VO9u3XT3XUUUrdy27duslbb70lu3btYuhFPVp3CL00+/fvNz5L4nwcYehFUgtDL0JcwNCLWsWsCr3q1q2rwi3YoUMHef3116VWrVpOodjy5ctN/xYz9CKpgaEXpZSam9NDL30OnuT1kCgpVry46TZKKaXu69ixYxl6UY/WnUKvH374QYoVK6bqjh8/3l6aAEMvkloYehHiAoZe1CpmVei1Zs0ae2kC+JsLMXVh4cKFVR3UffTokb3GUxh6kdTA0ItSSs1l6OXcIQmxRiCmjF20Yq1UrFzFtE52eiMU6ySWNt1GKaXUfR03bhxDL+rRulPoBVq0aKHq9unTx16SAEMvkloYehHiAoZe1CpmV+jlCNbfql69uqpXr169JH+PGXqR1MDQi1JKzWXo5dwhWa58BQmMjDO2+/oHOo1AT6mFCxeRnQe85cT5K+myXccuSdpG6OVz5qKs3LDF0g4d+a56vFjI3mw7TexWOXb8hJw5c4ZS6mZu27ZNZsyYIbt372boRT1adwu9nnvuOVV31KhR9pIEGHqR1MLQixAXMPSiVtEdQi8wevRoVQ/+4x//sJcmwNCLpAaGXpRSai5Dr6dhEkTI5Lg9PP6RsVB6amzdroNTO2l1/bbdSdpG6GVW12pu3LFXPd4CBQqabqdJ/f6HH+2ffAgh7sRvf/tb4/9rhl7Uk3Wn0OvPf/6z8dlo/fr19tIEGHqR1MLQixAXMPSiVtFdQq+NGzcaH2Lwj4IjDL1IamDoRSml5jL0SjgHbaXKVZy2XwkKT9NIL0w/GBx9z6mttDhkxNMvAGkzKvQKCL8rlwJCbO1FG2W3Yx4klIU9LbsSFGYc8+zlG7Jp5z65FRWv7kc9+Ei8z1yQLXsOSvCdpI/XPzhChVd7Dh8Tv5u3VdvQsc7pS9dkw/Y9Scp16FWkSBF13+vUedl50Fsi7n1g1AmLe2S0GXn/Q6P8cmCYzVCjLh6PrhMe/1i27TskR06cM+o7esb2GNdt3aWOp9u+GRZjWtfdZOhFiHvC0ItaRXcKvcaMGWN8NsK5OcLQi6QWhl6EuIChF7WK7hJ6LV261PgQ89e//tVemgBDL5IaGHpRSqm5DL0SzsHRrj16yR6v47Jj/xFp076jaZ2UWKJkSaldt16arV6zluTJmzdJuxkVevXo3U+15zgqbeX6LaqsTftORlmRokWlfIWK0vSlZsZnuLy28xo49B2p1+A5yZUrlyorVKiQrN2yU+2DwO+NNu1UPUz16DhaDs8LwqgTF65KzVq1jXLY+IUX5aY9cNOhV6nSpaVx0xeNOhUrVZZTF/1VHa9Tvkb5zfCnwVRB27lAfU23tU8T2eWtnlLIvm4sxHWIUAt18Lzqx4PQMleup2Fnn4FDjLbdWYZehLgnDL2oVczO0At99J9++qkcPnxY2rRpoz6T4PPFunXrkvTfM/QiqYWhFyEuYOhFraK7hF7dunVT9UqUKCE//uj8TzxDL5IaGHpRSqm5DL0SzsGTzI7QC2V16tWX2QuXSstWrY1zadS4icxdvFyeb9JU3a9SrbraB2EUPu9hOwKug8fOqBCpQsVKakRYaOxDqVa9htpn0PCRctz3snTq+pa6/2bb9moEmQ69IM5xju3Y1WvUUvcbPp/QbmpDLwRzQ94ZJdNmz5dSpcuoslkLlqg6w0ePU/d79h2gjq9H2bV8o7W6r9t2Zxl6EeKeMPSiVjErQy98CQV9QSVLlpRixYoZX7LRli5dWhYsWCA///yzfc+nMPQiqYWhFyEuYOiVMZ46dUrmz58vI0aMkF69eqlvcLRq1Uq6du0qgwYNkokTJ6oFYENDQ033p+nXHUKvhw8fqoXLUW/z5s320qcw9CKpgaEXpZSay9DraeeJp5gdoRe+Se1rvz5O+12TfPnzq3p62r9VG7cZ5xd5/wPZvHOf+rn7272NdgoWLCglS5WSayFRcuDoKaM+RlrduhMv122PC/fLla8gQZFxTqEXpmJEG3u9Ej7LYbTYtduRqQ69OnbtbtQZPHykKutrH8XVpkMndX/63AXqPqY4xP3SZcoy9CKEpAuGXtQqZmXolZwIsxYuXChfffWVfY+kMPQiqYWhFyEuYOiVOo8ePSrTp0+XTp06SePGjaVcuXJJvrnhStTFtz1q166tQjGEZFu3blVvkGbHoyk3u0IvDF2/ceOGjBo1SgoUKKDqvPrqq/LTTz/ZazyFoRdJDQy9KKXU3JweemGEkaep16lKr2ah1/K1m1RZ4tAL62pdvRWu7uM6QYBVrFhxo87mXfuN1xPnd+H6LSls2wdTE85ZtEyNnsI2jNDCOlw6UDKzdJkyag0uHXrly5ffOE5AxF1VhnPCGmHJhV4FChQ0Db0wekvXeXfCJFXWu/8gdX/zrn22z6h51BSHS1evN0avjRw7wdjH3WXoRYh7wtArbUZGRsqlS5fU//H79u2TLVu2yNq1a2X58uWyaNEidYv7KMf2EydOqPoRERGm7dH0m5WhV/HixSUsLEwePXokjx8/lt/97nfyj3/8Q3755Rd7zeRB6IX+QrSTltALX7gnOQuGXoS4gKGXa6Ojo8XHx0f69u2rphbBG0lmiECladOm6sMP3tzMzoW6NqtCL/WN35Il1ZB1PapLi1Czc+fOqr4ZDL1IamDoRSml5ub00Csn+3af/ur5x/R9uuy9qTNVWeLQq2jRYnI1OELd16FX8RIljTqJQy+MjBo17j31+Q7rgWHaQ6yP5h8cqepv23tI1cXnve37jsg+rxOGh4+flYj4x0bohTq3Y+6r/U6cv6LKihUvLleCwsTr1HnjuBj5hToIv7CPWej1zuhx6j5MHHohjGveoqXt/5TCarRZzdp1ZOCwEUZ9T5ChFyHuCUOvZxsTE6P61Ly9vdXa3vgi7Ntvv51mR44cKUuWLBEvLy/VLto3Oy5Nndm5pldqwJrw6GdCO35+fvbSZ4Mv5WOf8ePH20tIToGhFyEuYOiVvPh2Rv369dU/oHgDySoxnBkfmszOiSZvVoVeZmIbprL85JNPXP4NZuhFUgNDL0opNZehV8512Kgx6vnH2lq3Yx6oqQoxlR/K0ht6IdwqWaq0CrpwXwdhuv71kCjj/4JFK9ca5eHxj1WwhZ8dpzfEyCvs36Fzwnqv5StUUOd88uJVo876bbtVnX6Dhqr7qQ29fP0DJXeePDLmvSnqfCPvf2jU9RQZehHinjD0Sl58OXrTpk3Sr18/6dmzp2mAlV7RLr58vWfPHtNzoCnXU0KvL774QsqWTfhMs2HDBnvps2nSpInaB1+iJzkLhl6EuIChl7kHDhxQUxfijSM7xBoE48aNMz03am5WhV6TJ0+W999/X/nRRx+pIejfffedvaZrGHqR1MDQi1JKzc3poVfdevU9TkzxZ/ZYUitCHj37QpmyZaVI0WJSqXIV9dk5vaHXrTv3pEGj5yVXrtxqukKMnKpYqbK81Ky5nLmc8HovW7NRjQTD9IW169ZTI6uKFismg4YnjK7SoVep0mXUeZa1/T+Bz5Bw2ZoNqg5CMkyZiHoFbOeEUWUIuxCKpTb0unY7Sh0L51S2XHl1zmqEWodOciM02tjPnWXoRYh7wtArqbGxsWpaQkwjZxZUZZaDBw+Wbdu2qeObnRd1raeEXj///LM0bNhQtdOiRQvTJTMSg99TfAbA56D79+/bS0lOgaEXIS5g6GWu/qZEdnvu3DnT86NJza41vVIDvq2FNjDtQUrZuzeh86RmzZopDteINWDoRSml5jqGXnMXL5cN2/dkiQgV9HGzM/TS5+BJ3gi9Y/pY0iJeixavvyEvvfKqWu/q0s0Q6dT1LXlv2iyjTseu3VVZQHhC2Ia1vdp37ipdur9t1MHaWm+2ba/ECKktu/erkAvh5svNW6iwS19rr7RombDfg49k10Fv6dilm7xo2/5y81elV78BcvLCVbX98Ilzqj2EX1gDrPlrr9v2fU0WO4wMgxih1r1XH3UM1Pc66auuZZyjXods4vTZatvS1QlhGVyxfosqw5pjmNpwwtSZKnR7rtHz6pybvtzMGPm2cPlqYz93lqEXIe4JQy9n79y5I5MmTTINpbLKadOmSVxcnOn50eT1lNALYGpLjCrHF2cCAwPtpeagf6h169bquDVq1JCvvvrKvoXkFBh6EeIChl5JxbzJ+fPnV28c2S2+QWR2jjSpnhB6YYQX2mjfvr295NlMmDBB7dOoUSP58Ud2CuQkGHpRSqm5jqFXduluoReek9Wbtsv8ZatUcGNWJzvNyNALYkpAx6kH02vI3Yfqs16ePHltPz8w2j/ue0mdf42atZLsk5JzeFadZ+3vyn1eCbMBdO7eQ4V2+lgYUYby8VOmm+7nbjL0IsQ9YejlLKYZNAuistrNmzebnh9NXk8KvdCnj1FeaAujt7D0iRlff/21EXjB06dP27eQnARDL0JcwNDL3DZt2hhvHtkl1vYKDg42PT+aVE8IvXx9fVUb+NbO3//+d3tp8vz3v/+VChUqqH0wSox/33MWDL0opdRchl7O51KuXHkJjIg1tmN6PP25JTUWLlxYtu09JMfOXUqXmGYwcdsZHXpltGFx70uJkiXVuQ4cNkKNzHpv2kxp1LiJei4XrVhjul926n36gjrfUmXKyISpM9Q5Dhs5RqpUq6a+wOdz5qLpfu4mQy9C3BOGXs4uWbLENITKaseOHWt6fjR5PSn0Ah9//LExzSFGfdWtW1e6desmAwcOVOvIvfHGG1LS/pkFYn05kjNh6EWICxh6mXvlyhUpX/7pFDZZLd7YFi9ebHpu1FxPCL2w/hfWk0A7w4YNk19++cW+xRx8qyfhW8d55ObNm/ZSklNg6EUppeamJ/QqXryEtGrdVq19ZLY9pbpT6NWuYxen7eHxj9Rnh8T1nmXrdh2c2kmrG7bvTtK2u4de8OCx0/J8k6ZqGssSJUqqa+S55xvLtNnz1ZpfZvtkt9PnLFBri2FdrxIlS0nFylXUlIvb9x02re+OMvQixD1h6OXsvn37TEOorBRfhN29e7fp+dHk9bTQC2CqQiyLUbVqVdU/mPhzVbFixVT4FRQUZN+D5EQYehHiAoZeyRsZGSmdO3dO8uaS2ZYpU0aFbvHx8abnRc31hNALIMxEO/jg0qtXL/n222/tW5xZv3690WGFhWtJzoOhF6WUmpue0GvD9r2qDb+bt023p1R3Cr0qV6nqtB1rQqVlpBeCk+Doe05tpcWhI99N0rYnhF4Q0wRirSyM/Aq33eK+WT13EoGccc7xjyXKA87ZUYZehLgnDL2cRf/MzJkzTcOorHLWrFnsJ0qDWRF6/frrr/L999/LDz/8kKH98k+ePJE///nPavrCLVu2yKFDhyQ8PFwdC8ckORuGXoS4gKHXsz137pxMnjxZatasmeQf+IyySJEi0r17d9m7d69aINXsPKhrPSX0wt/oMWPGGK992bJl1VzM/fv3V2u4de3aVWrXrm18m6djx47q+CTnwdCLUkrNTU/oteugt2ojMDJWff4yq5MS3W1Nr7d69ZV93ifU42vfqYtpnZRYslQpqVu/QZqtWbuO5M2bN0m7nhJ60ayXoRch7glDr6QiMNm/f7+MGDHCNJTKLPv06aNGmrGvKG1mRehFSHbA0IsQFzD0Mje5D3Uof++991RI0bRpUxWElStXTq2/9axpZLCOU+nSpdXw5Oeee04tTtm7d2/ZuXOnxMbGJjkWXg+8PonLqbmeEnppsBDu888/LwUKFEhyraCzqEGDBrJ8+XL5+eef7XuQnAZDL0opNTc9oVetOnVlxfrN0vTlZqbbU6q7hV7uLkMvmpwMvQhxTxh6JW9MTIzs2rVLxo8fr768ahZUpVes3TRu3DjZtm2bREdHm54HTZkMvYhVYehFiAsYepmL0GHIkCEuP1zExcWpN0x84EG9qKgoNZ/u+fPn5ciRI3LgwAE5deqU+Pv7q6kS8a0c1MM+CLlcDUvfvn27VKpUSebPn2+6nSY1M0Mv/F397rvvlD/99JO9NP0g0MK5Xr16VYWfO3bskEuXLsnXX3+docchnglDL0opNTc9oVdGydArdTL0osnJ0IsQ94Shl7Po70lchj4h9AedOHFCfTnaLLxKrWgHfRvoN0L7iY+JtaMSl1HXMvQiVoWhFyEuYOhlrv4HHYtQYnq5tWvXqg8zZnUzQgRg+KCEYfKNGjUyRhUx9Eq5mRl6EZIdMPSilFJz69Srb3xWyy6vh0SZnltWWKJkSdNzclfz588vN8NjTB8LpQy9CHFPGHo5i/W05s6dK5cvXzbdrsWXnW/duqWClosXL8qZM2dUX4+Pj494eXmpW9xHObajHuo/a+pC1EX/EJZEMNtOk5ehF7EqDL0IcQFDL3PN/mGHr732mvqwg/mUz549q948w8LCTNswE9/UwTdz8EHJ29tbNm3aJH379pUKFSqYHo+hV8pl6EWsBkMvSik1d8f+I9LyjdbZ4utvtpGlq9ebnldWed4/UNp16mJ6fu7oxGmzJPL+h6aPhVKGXoS4Jwy9nJ02bZoxGmvq1Kly8uRJNdMPQhSz+ukVswOhfQRkOF7Pnj3VsRl6pV6GXsSqMPQixAUMvcw1C6AczZUrl1rDK1++fGpNJqzXVa1aNXn99deTtUSJElKwYEFVH/vp0VyuZOiVchl6EavB0ItSSimlVpehFyHuCUMvZx1DLy3WaB8wYIAsWbJEjdxKbwCGL0mfO3dOVq9erb4cjfYTH5OhV+pl6EWsCkMvQlzA0MvcWrVqmYZQWSnWFdu/f7/p+dGkMvQiVoOhF6WUUkqtLkMvQtwThl7OmoVeicVorKFDh8rYsWNlypQpMnPmTFm8eLEsXbo0iSjH9hkzZsi4cePUmvJmbSaWoVfqZehFrApDL0JcwNDLXMyXjKkMsQaBWSCV0WIE2MsvvyyLFi1S3+zJzPXDrCpDL2I1GHpRSiml1Ooy9CLEPWHo5eyaNWtMQ6isFmGa2fnR5GXoRawKQy9CXMDQK3kxtDwgIEC6d+9uGlRllDVq1JBLly5JfHy86XnQlMnQi1gNhl6UUkoptboMvQhxTxh6OYv+oQ0bNhhra2WHGB2G8zA7P5q8DL2IVWHoRYgLGHqZm3haweDgYDlw4IAaet6mTRspXbq0aYCVGjF9YadOnSQwMNDpWDRtMvQiVoOhF6WUUkqtLkMvQtwThl7m3rx5U3bt2iXjx483DaYy2lGjRsm2bdtUcGN2PvTZMvQiVoWhFyEuYOhlbr58+WTy5MkSFBRkuh1iFBiCMHzbZsSIEdK1a1dp2bKlqe3atVN1MBR906ZNcuXKlSTtRUZGqjmdmzVrpo5fqFAhNeXhypUr1bbE9amzDL2I1WDoRSmllFKry9CLEPeEoZez6MNJPMoK/Wlbt25VX44ePXq0Wm/LLLhKiRhBNnDgQBk5cqTqN9q4cWOSoCsqKkp27tzpVEafLUMvYlUYehHiAoZe5urRWAUKFJDBgwdLRESEab2M8tatW1KpUiXJlSuX02gwiLIGDRpk+jl4ugy9iNVg6EUppZRSq8vQixD3hKGXs7NmzZKxY8dKeHi46fbY2Fi1NjuCKTxfe/fuVdMhTp8+XSZNmmQqgq0tW7bImTNn5M6dO2p/tGO29AX6jDDqC8Fa4m3UtQy9iFVh6EWICxh6mZs4eMLIq+eff1769+8vq1evFl9fX9P90mJYWJhqO/ExE9u0aVP1QcisDcrQi1gPhl6UUkoptboMvQhxTxh6OYtZeTAiq0+fPjJv3jzV/4AAxaxuRoqlNhCKIRw7dOiQeHt7m9ajycvQi1gVhl6EuIChl7lmoVNiS5QoIU2aNJHu3burb+8sW7ZM9uzZk6yzZ8+WIUOGSIcOHdR9fSxMo6jbLFmypPoGEb7hgykNsQ2jzbANI742b97sdJ70qQy9iNVg6EUppZRSq8vQixD3hKGXszr0chSjrtatW6eeH/St4QvNZvumRHzBGeu9oy0EW6dOnVL9QmZ1aepk6EWsCkMvQlzA0MtcHUJllufPnzeOhTW8dPmSJUuczgPD2idMmGBsb9u2rdN2+lSGXsRqMPSilFJKqdVl6EWIe8LQy1mz0EuL9bh69+4tffv2VctjzJ8/X4Vh+LLz8ePH5eLFi+Ln56c8efKk7Nu3T9avXy8LFy5U0xwOGzZM+vXrp0aRYcpDhl0ZK0MvYlUYehHiAoZe5tasWdMImjJDzMesj1W5cmWjHIujOp4HDA0NNbYXK1YsyXaaIEMvYjUYelFKKaXU6jL0IsQ9YejlrKvQKyMcOnSonDhxQuLi4pyOi7XdEZTt2rVLNm3apIK0S5cuOdWhrmXoRawKQy9CXMDQy1x8E6d58+aSP39+I3DKSB2PlVy5oympk9Nl6EWsBkMvSimllFpdhl6EuCcMvZzFyCyzsCojxAgvx9mAIKY6xGgxrCtvts/IkSPl8OHDWbKumKfL0ItYFYZehLiAoVfy4hs2eH66du3qFDplhI7HSa7c0ZTUyeky9CJWg6EXpZRSSq0uQy9C3BOGXs6if2j37t1qGkOzECo9IrxyPBbW80IQZlY3sePGjVOzAznuT51l6EWsCkMvQlzA0Mvc5cuXO90PDg5W8y5PnTpVWrduLaVLl3YKolKrY9vJlTuakjo5XYZexGow9KKUUkqp1WXoRYh7wtDLXIzA2rt3r4wZM8Y0hEqtgwYNkqioKKP9AwcOqLXB9HaEXwi2Vq5cKZs3b5ZZs2apNcAc2xg/fjxHfLmQoRexKgy9CHEBQy9zES51795dfbhLPKey9ubNm7J//35ZsGCB+tDRsWNHNSVicg4cOFDNA40PK47tpCTQSkmdnC5DL2I1GHpRSiml1Ooy9CLEPWHo5ay/v79T31B8fLwqw7SH+HL02LFjZfDgwU5hVErEl6t1m0FBQTJgwABjG6YwTDztIURws3r1aqfRYAjGYmNjk9SlDL2IdWHoRYgLGHqZqwMmrOnVtGlT8fb2Nq2XEaYk0EpJnZwuQy9iNRh6UUoppdTqMvQixD1h6OXsjBkzVLh1584d0+0InKKjoyU8PFxOnjypRmUtWbJEpk+fLpMmTVJOnjxZtTN//nxZtmyZqoPwTLeB9nWIhS9WR0REOB3DUezn5+cnvXr1UvV79uwpvr6+pnVzugy9iFVh6EWICxh6mesYMsFcuXJJxYoVpU2bNjJhwgTZunWr+haO2b6p1fE4ZtthSurkdBl6EavB0ItSSimlVpehFyHuCUMvZ6dNm6bCJUxHuHjxYhUwJTcrUFq8evWqEXhhtBdmFjKr5yiOv2jRImM/hGZm9XK6DL2IVWHoRYgLGHqZ6xgyubJgwYJSv3596dGjh/omDuZXTuy8efOMb+jgQ4mXl5eaFlHr2J5juaPJ1TEb6p5TZehFrAZDL0oppZRaXYZehLgnDL2c1aGXo+gDWrNmjXp+AgIC1Cgvs31T4p49e4x2Fy5caFrHzMjISKdzcjU6LKfK0ItYFYZehLiAoZe5JUqUcAqa0mPhwoXlxo0bql18AKlQoYJpvbSIdccSn3tOlaEXsRoMvSillFJqdRl6EeKeMPRy1iz0chTra/Xv31+t64UpDFetWiW7d+9WI8IwDaGjp06dkl27djmN5sIaXbqt7du3Ox37WY4YMcLY98yZM6Z1crIMvYhVYehFiAsYepnbtm1b05ApLTL0yhoZehGrwdCLUkoppVaXoRch7glDL2dnz55tBEsZ5dmzZ03bT+2a8gjZ9L4I1Mzq5GQZehGrwtCLEBcw9DI3ODhYGjVqpNbyMgubUiNDr6yRoRexGgy9KKWUUmp1GXoR4p4w9HJ2586dRrCUUe7du9dof8WKFUY51pB3PPazHD58uLHvuXPnTOvkZBl6EavC0IsQFzD0St7o6GhZunSpCq3MAqeUmtrQK3/+/GpYPNYJM9vuKEOvpzL0IlaDoRellFJKrS5DL0LcE4ZezsbGxqo123W4lBGuW7fOaB9rtuvyRYsWOR3blVhHzLFN9GOZ1cvJMvQiVoWhFyEuYOj1bIOCgtS3brp06ZKmACy1oVe3bt0kPj5e1e/QoYNpHS1Dr6cy9CJWg6EXpZRSSq0uQy9C3BOGXklF8HXgwAEZNmyYU9CUVhcuXGi0jWBGl+NL0I7rfSUn+o0QkOn9pkyZYlovp8vQi1gVhl6EuIChV+qMiYmRPXv2qOHjTZs2lTp16kilSpWkWLFiUqBAAdNgKrWh1/z5843jDRgwwLSOlqHXUxl6EavB0ItSSimlVpehFyHuCUOv5MVoKkx3OG7cONVno0On1Dp06FAVwuh23333XWMbgrWwsDCn4zoaFxcnp0+flt69e6v6PXv2lPPnz5vWzeky9CJWhaEXIS5g6JV28a0ahGCRkZESGhqqnj+MCkvsrVu31AcS7MPQK/Nk6EWsBkMvSimllFpdhl6EuCcMvZ4tRn5FRUXJpUuXZNmyZTJ48GAjtEqp+/btM9oLCQlRo7z0NvycXJC1cuVK6dWrl1EXIRnOx6xuTpehF7EqDL0IcQFDr6yVoVfmydCLWA2GXpRSSim1ugy9CHFPGHqlTayxhZAFYdWJEyfU84dgKzmPHz9u7IsvVqO+Y5iFkVwTJ05UUyFi2Y05c+bIiBEjjO1a7OPj4+N0LjRBhl7EqjD0IsQFDL2y1pSEXljHCyPDYOfOnU3raBl6PZWhF7EaDL0opZRSanUZehHinjD0yj4PHTqUomkTMaXhwIEDncoYfCWVoRexKgy9CHEBQ6+sNSWhV/78+aVVq1by4osvSu7cuU3raBl6PZWhF7EaDL0opZRSanUZehHinnzyySfG/9dcKyrrxYgxzALkGGg52q9fPzl16pSaXnH8+PFGOUaGYYSZWZs5VX9/f+Naxmg6QqwCQy9CXMDQK2tNSeiVGhl6PZWhF7EaDL0opZRSanUZehHinvztb38z/r8+ffq06f/gNPPFOvGYAnHv3r1KTIl48eJFFXbpOlgLzDH44lSHzuL50tfyRx99ZL/CCfF8GHoR4gKGXlkrQ6/Mk6EXsRoMvSillFJqdRl6EeKefPHFF2qaPfx/ffLkSTVCxuz/cOoeYtq+CRMmGMEXZPCV4NmzZ42+or/85S/2K5wQz4ehFyEuYOiVtTL0yjwZehGrwdCLUkrNvRIUJlNnzc0Wp82eL77+gabnlZ36B0fYzm9ekvPNarfs3m96fpQmJ0MvQtyTL7/8Ug4fPqz+v8b/2lhz3Oz/cOo+RkdHc6pDE728vIy+IlzXhFgFhl6EuIChV9aKD4r4ltTRo0czxMuXL5seJyfK0ItYDYZelFJqbpOmL5p+GSirLFq0mARE3DU9t+xwzqJlkjdvXtNzzQ5fa/Wm6XlSaiZDL0Lckx9++EG8vb3V/9cY8RUTE2P6fzh1LxNPddi3b18JDQ01rZsTDAsLM/qJEACyz5xYCYZehLiAoRe1igy9iNVg6EUppeZWqVrNNGzJSk9fum56btmhOzwfiV22ZoPpuVKaWIZehLgv/v7+xv/YV69eNf0/nLqfmOrwvffekz59+siMGTNy9Cg9fFFcX8OYeYkQK8HQixAXMPSiVpGhF7EaDL0opcm5ccdemTp7nlt64sJV03POSBl6PXX1pm2m55fdNmjYSMLjH5meM6WOMvQixH35xz/+YfyPjdFed+7cMf1fnLqfmOoQo5xy+rSUerQi/MMf/mC/sgmxBgy9CHEBQy9qFRl6EavB0ItSmpxtO3QyDRrcwUUr1piec0bK0CvBm2ExUqRoUdPzy27z588v3qcvmJ43pY4y9CLEvfHz8zP+z+byCtSTvHjxonHtor/oyZMn9quaEGvA0IsQFzD0olaRoRexGgy9KKXJ6Rh65c6dR6pWryEVKlWSXLlyqbISJUtKrTp1pVChQk51KlaqbNTJLLM69Dp3NcC0TmZYvUZN47juEHphxJ8+H3e0br0GEhbH0V7UtQy9CHFvPv30U+P/bJiT14einiOuU4xOxDV7+PBh+eyzz+xXNCHWgaEXIS5g6EWtIkMvYjUYelFKk9Mx9OrVb6DcjnkgARF3pUzZcmqEjd/N2xIa+75aVwl1evYdYKtzX9UpV6GCsW9myNAr62zYqLFxPu7qzgNepudOqZahFyHuDfoYg4ODjf+1vby81JpRZv+TU+oOYhpOBF36mkW/J/vKiRVh6EWICxh6UavI0ItYDYZelNLkdAy9lq7ZYJS/+trrUqFiJeP+8fOXVZ3FK9cZZa+1etPYNzNk6JU17jjgZZyLO9up21um559RhsW9L9dD7ihvhEarANisXko87x8ofQYMllat20r7zl3VSDqzejRjZehFiPvz/fffy+nTp43/t318fNR6UWb/l1OanUZERMjRo0eNa/XChQvyww8/2K9kQqwFQy9CXMDQi1pFhl7EajD0opQmp2PoVaduffE65Ss7D3gb6zvNW7JCTl70lz4DB6v7tevWkyMnfWXXIR8pWqy4sW9myNCLZqVrt+wwXhOI6TvxOi1ZvV4i7j023cfMiHsfSNVq1VUbRYsVkzJly8ruQ0dN69KMlaEXIZ7Bd9995/Q/N6aOwwiw+Ph40//PKc1K4+Li5NatW8aUhhCjEr/44gv7FUyI9WDoRYgLGHpRq8jQi1gNhl6U0uR0DL1g3rx5JXfu3MZ9dPzny5/fZZ3MkqEXzUodQ6+KlSoZ1z2u9XGTppnuY+b5a0FGO7sPH1VTgUbe+8C0Ls1YGXoR4jn885//VEGC/r8bAQNG1WB0jdn/6JRmhZjO8MSJE06BF65L9gsRq8PQixAXMPSiVpGhF7EaDL0opcmZOPRyJxl60azUMfQKi3skIXcfqikVcb9OvfoSHp8w2gvbFi5fLZ2795DW7TrIwKHvyKmL/sa2CVOmG+107NJdho8aIyExDyTy/oeyZtN26dqjl9qv74DB4nP6gnH8o2f9pFe/AbLP+4QcOHpKuvfso9bZw34Q59ft7d5q3z4DBqlRmXrf476X1L7b9h6SNZu3S5fub0ub9h1l7MSpEhQVp+qgTdRJ7I791lkrjaEXIZ7F119/raaM0/97Q4QNCB0uX76s+pXCw8MlMjJShRGUZqRRUVHq+goJCZErV67IyZMnna5FeOnSJfnyyy/tVywh1oWhFyEuCAgIMN4YMDTdLEyg1BN0nLf5P//5j/0KJ8RzYehFKaXm5vTQS5+DJ3kj9I7pY0mviUOvqAcfyejxk9T9uvUbqNAL4dOwUWNUWanSpdXrmCdvXildpoxcuRWmpv4sUbKk0U6JkqWkXoOGKniaNG1WQlmJklK9Zi3JX6CAGkW23+ekOv6G7bvV9peaNZdixROmDq1Vp67aNnXWPHW/eIkSTvvu9Tqutm/auVdtL1+hohQqVEhKliptjMbsP2SYqrNi3WYpaTsfLUZxYvusBUvUdivI0IsQz+Tu3btOXzylNLtFnxCCsZ9//tl+lRJibRh6EeKCmJgY4w0Co77MwgRKPUHHDzv8O0isAEMvSik1l6FXwjl4klkRemGEVJe3ekqBAgXV/ZnzF6s6h0+cM8KiM5evS8jdB2okF+6379RVred1+MRZox3v0+clMOKuhMc9Uut7FSpUWI77XlajyNZt3aXaat+5q2pbh16wSdOX5MDR0+LrHyQR8Y9VCFawYEFbexfUvpt27rftm1uN5sK+OvTKkyePrN60TW6ERcss2zmjDOvwoU5o7Pu25y5auXT1erUN53Q5MFRtt4IMvQjxXLDOV2hoqNP/4pRmh7gOf/jhB/uVSUjOgKEXIS74zW9+Y7xJXLx40TRMoNTdjY2NNa5jHx8f+9VNiGfD0ItSSs1l6JVwDo42b9FS5i1ZoWz6UjPTOtlpVoRejk6ZOdeog1FRKCtUuLAMGPqOsl2nLqqsZu06EnHvsZyxvZ56X1/7NYURWXq/3gMGqf3e6tVHhVT1n2uo6ujQq3iJknL1VoRxTEx3iPICBQtKr/4D1b49evdTa+thBBrq6NALI7gQaqHsUkCoqlOpchWjLXgtJEoqVKyoQrQd+4+osoPHzqigT+t347bTPp4iQy9CPJ9vv/1W/vSnP6nRX5hByN/fX86fPy9nzpyhNEPFdYXrC9dZXFyc/PGPf5RvvvnGfiUSkrNg6EWICz7//HOnsMAsUKDU3cV84fo6PnXqlP3qJsSzYehFKU3ON9q0V53l7ujyNRtNzzkjZejl/JxXqFhJjSTS2/Gc6GnyUmPBgoXk4NFTtjY+MtpKi61at0vSdlaEXivWb5aateqonxH+6TrvTZ2hyvLlz2+7dqo72fy119UUiGahF9bywv08efJK5SpVnfZ7rdUbqo4OvSpWqiy3Yx4Yx1y3dad93zxJ9n21ZStVR4deZcqWk+Do+6rscmCY5Ledp2Pohde2WfMWqu7w0WONcgR7KNPqaRM9TYZehBBCCCGph6EXIS749ddfndZCunPnjmmoQKk7GxQUZFzDmKaTECvA0ItSmpxvmIQKWSU68F97/U018uW1Vq2larXqTgHLMoZema4+B62eLk8bdf9DFbYkrvcsW7Vu69ROWl2/7emUf9qsWtPL5/QFFRoVL15CTReIOotWrFHbMRrrVlS8Cpi0Ifagyiz0OnrWT90vXaasXAoIcd7vbsJ+yYVex3wvq3KsFXbxRrDzvvZ6jqHXbVs5ysxCr4nTE9YVa/zCi2q6Q11+MyxGXYdax+N7kgy9CCGEEEJSD0MvQlyA6+XSpUtGYIDwwCxUoNSdPXv2rHEN379/3351E+LZMPSilCZnVo70qlOvnkycNktN16Y76xOLsAHb0Tm/z+uEaZ2MlKGX82tUo1Zt9Rro7ZeDwtI00qtc+Qoq/HE8Vlp8u0//JG1nVeiF9bm6vd1L3X+lRUsJi31frX9VpGgxVdZv0FDZecBLhVVj3ptsu25PqnbMQq+oBx9JvfrPSS7bc/lWr76ybe8h2bRzn0yyXecbd+xVdZILvbBvg4aN1Ppf3Xr0errvjNmybstOVSclodeew0fV9IoIMd95d5zMX7pSuffIMeNYni5DL0IIIYSQ1MPQi5BnEB0dbQQGx44dk/j4eNNggVJ3NCwszLh+Dx06JP/+97/tVzYhng1DL0ppcr7RJvNHeiEAWbZ2o0Te/9D0HLJThl7OrxXsM2CwHPe9rOzcvYdpnew0q0IvlIXfe6xCIwR/qzZsVWW7Dx+V8hUqOoWBhQoVks27DqjtZqEXPOBzSipWruy0X/4CBWTOomVqe3KhFzx8/KxxHsa++QvIjLkL1faUhF5tO3Y29nUUIZw+jqfL0IsQQgghJPUw9CLkGfz0009qPS8dHGB6OLNwgVJ3EwEt1vDS1254eLj9qibE82HoRSlNzsye3rDvwCESGBFremyfsxdVgICO++37j8gx30um9TJThl7Or5cWo4HSMq1hVphZoRfCogvXgpQYXaXLr92OUmVXgsKNssCIu2rKQgRVuw56y6WAUIm491htw7peuh38rPeBmBLx1EV/Nbpr+77DarpCPc3g7ZiE41+6GeJ0fGPfO0/3xWivhH0T1l9DSIZ9/W7eNvbFSLUL12+p6RRx/9rtSOO8HL0ekjnPZ3bI0IsQQgghJPUw9CIkBTx+/NgIDry9vdXoL7OQgVJ30t/fX43uwnXLUV7EajD0opQmZ2ZNb1i0WDE1dRo63h2Pt2rjNrXeU8lSpUz3wyiXjl27y5bdByTyvvO+mSFDL+fn3xPMrNCLer4MvQghhBBCUg9DL0JSwPfffy9Hjx41gq8jR45ITEyMadBAqTsYHBxsXK8wNDTUfjUTYg0YelFKkzMzQi+MEFq+dpPTcXzOXJSateqY1k/Ol155NdODqJweelFqJRl6JfDZZ5/Jo0eP5Ntvv7WXEEIIIYQkD0MvQlIIPmA7TnOI9b3u3r1rGjhQmp0GBATI4cOHjWsVI75+/fVX+5VMiDVg6EUpTc6MDr1y5coli1euk6gHT9fvWrBslRQsVMi0/rMsVbq0mgbO8ZwzUoZelGa+kfc+kJCYBxIcfU+CouLU9JA3w2PUqD1MH3n1VrhcDgxVUzH63QhW0zL6Xg2Us1duqjXSMK3jyQtX1TpzmFbS+8wF8Tp1Xg6fOCf7fU7KPq/jsufwMblxM0Bu3bqlPt/fuHFDrl27JleuXJFLly7JxYsXxdfXV86ePaumND9x4oT6HxX/s3p5eamZHg4cOCB79+6V3bt3y86dO2Xbtm2yZcsW2bhxo6xfv17Wrl0rq1atkhUrVsiyZctk8eLFsnDhQpk3b57MmTNHZs2aJdOnT5epU6fK5MmTZeLEiTJ+/HgZO3asvPvuuzJy5Eh55513ZOjQoTJ48GAZOHCg9O/fX/r06SO9evWSHj16SPfu3aVr167SqVMn6dChg7Rt21Zat24tb7zxhrRs2VJatGghzZs3l2bNmsmLL74oL7zwgjRu3Fjq168vderUUZa2/d3Elw/QBiGEEELIs2DoRUgq+PTTT53CBIz+CgkJMQ0eKM1qEcJevnzZmNIQnj9/nt+IJJaEoRelNDkzOvR64cWXjTWKsLbQrAVLXK4NVaBAAXm7Tz+XdRCY7TjgleTcM0KGXp7ref8gGT95mgwfPVaGjRwjQ0e+K0NHjJbB74ySQcNHyqBhI2Tg0HdkwJDh0n/wMOk3aKhaY67PgMHSu/8g6dV/oPTsO0De7ttf3u7dT3r07itv9eor3Xv2lm5v95KuPXpKl7fels7d35ZO3d6STl27S8cu3aRD567SvlNXadexi7Tt0EnatO8krdt1lDfbdZA327a3/U61k1ZvtpXX32wjLd9oLa+1elNavP6GvNqylTR/7XV5pUVLafbqa/Jy8xby8iuvykvNmsuLL78iTV9qpn5/mrz4kjR+4UV5/oWm0qjJC9KocRNp+Hxjea7R89KgYSOp/1xDqdfgOalbv4HUqVdfatetJ7Xq1JVatetIzVq1pUbN2ur6qla9hlStVl1d45VtVqpSVSpWriwVK1WS8hUrSrkKFaRc+QpStlw5KVO2nJQuU1ZKlS4jJUuVlpIlS0rxEjaLl5BixYtL0aLFpEjRolK4cBEpVLiw+p0sUKCg5Lf9/ubLn1/y5csnefPmVb/HuXPnVuG3vr5p9onXgxBCCCHkWTD0IiSV/P73v1fTG+pQAeJbdnfu3JH4+HjTMILSzBRhF6YzxDc6Ha9LfOvzv//9r/3KJcRaMPSilCZnRoZe+fMXEF//QKNtjMIo5GKEFzrNEYqh7oQpM1RnuVk9iHZOXrxqtJ1Rck0v5+fZE8ToIASqjRq/YLqdUvpUQgghhJBnwdCLkFSCa+jf//630xpfECPAMJXEhQsXVACBECwuLs40pKA0PcbGxqrrC6MMT58+nSTsgoGBgfLzzz/br1pCrAdDL0ppcmZk6NWxa3ejXYz2KluuvGk97aIVa436Efc+kLmLl7sMvlq2am3UzygZejk/x56gDr0wMspsO3VPMSqsYMGCaqRYkSJFpVixYmo0WclSpaR0mTJqtFm58uWlfMVKUrFSZalctaoaqVbN9rtSo1YtqVm7jhrVhhFu9Rs0VKPennu+sRoVhxFyTV9+RU0D2L59ezWtX5cuXaRbt25qysCePXtK7969pW/fvjJgwAAZNGiQDBkyRIYPHy4jRoyQUaNGyZgxY2TcuHEyYcIEmTRpkkyZMkVNVThz5kyZPXu2msJwwYIFsmjRIlm6dKksX75cVq5cKatXr5Z169bJhg0bZNOmTbJ161bZvn27mh5xz549sm/fPuP/X/wfgv+Ljx8/LidPnpQzZ87IuXPn1GwTfn5+ahaKq1evqmkZb968qf5Hwf/K+D8mLCxMIiMj1f81+BKf/t/5wYMHav2uDz74QD755BOl4/NOCCGEEPIsGHoRkka+/vpr9UE9cdhAaXaKefwfPnwov/zyi/1KJcSaMPSilCZnRoZeazbvMNqds3CZaR2IKQ0XrXwaeGkRfL03dWayUx2iHOv2JN4vPTL0cn6OYbPmLdQIvNkLlsoLL75kWic7ReiFc/e7eVumz1mgRglqJ8+YI1NmzpUps+bJ1NnzZZpt+/S5C2XGvEUyc/7ihMe1cKnMWbRMhazzlqywuVLmL10lC5atloXL16gwFuvSLVm1Xpau3iDL1myU5WttrtssK9ZvlpUbtsqqjVtl9abttmt+u6zdskPWbd0l67ftkg3b98jGHTZ37pVNO/fL5l37Zcvug7J1z0HZtveQWp9ux/4jsvOAt+w66C27D/nYrumjsufIMdnrdVz2eZ9Qa1QdOHpKDh49LYeOn5HDJ87KkZPnxOuUr1rHyvv0BfE5c1GtbXXs3CW1ztWJ81fUmldY++q03zW1DtaZyzfUmli+tusaIzDPXwtSa2VdvBGsnrtLN0PUOlqXA8PkSlCYXL0VIf7BEWqNreshd2zPc7TcDIuRgHCbEbESFBknt6Li5dade2ptrtsx9yXk7gMJjX0oYXGPJDz+kUTef7qWX3b4/Q8/2j/55Gwcf18IIYQQQp4FQy9C0slXX30l169fV6O8zEIISjNbfMMSI77wLclff/3VfmUSYm0YelFKkzMjQy90nOt2kxuF4zilYXK+NzX5qQ4xogOjfMz2S4sMvZyf3/IVKqogQ28/dyXA5ei75MTrjPDmzsP0vVZYFytx2zr0ymrD4x9LWOz7EmG7NdtOs1+GXgk4/r4QQgghhDwLhl6EZAC4rr777jv53//9XzUdA0IwTO2AKR/MQgpK0yOmD7l06ZKaGuTjjz+Wb775Rn766Sf71UhIzoChF6U0OTMq9Hqu0fNGmxgJkidvXtN6jlMaJmfCVIfLTMOWkqVKy7WQKNP90iJDL+fnt3W7jk7bMXInuZF3rkRY5dhOWsUIqsRtZ1fo1eWtt6VS5SoyaNgI0+00+2XolYDj7wshhBBCyLNg6EUIIYQQj4OhF6U0OTMq9Oo/eJjRJoItszrDRr7rdGxM6aZ/vh4SpaZ90/cxXdrLr7yapI28efPKKT9/o156Zejl/PzWrFVHPfd6O0bvpWWkF0aMnb1yw+lYabFXv4FJ2s6u0OuVFi3V8bt072G6Pa2OeW+Ker6uBIWbbqcpl6FXAo6/L4QQQgghz4KhFyGEEEI8DoZelNLkzKjQC+sj6TbfmzrLtA7WT8J2jB7CGkcIfvQ+WGuocJEicvjEOXudD6Rdx86m7WBdI71femXo5fzcwn6Dhsopv2vKrm/1NK2TnbpL6IXpDrFGF65ZrHe186C3WkMMZVj7Su8XHvdIrcE113b9z5y3WIW9/sGRappOrKeFoLFQ4cKyYt1mtW9gZKzaD+tpYT0vrEWGtcq27j0kgREJ2yCCYtT3u3FbLgWEysr1W2TWgsXic/aiOjfUQfuok1is66XbsZIMvRJw/H0hhBBCCHkWDL0IIYQQ4nEw9KLUcwyOvmd0emeFGRV6bdyx12izc7cepnXyFyggI8aMl8HvjJJ8+fKrqeL0Pgi9UAed/++MHidDRoyWPHnMp0hcvGqdsV96Zejl/NxqMaIOmm3Lbt0l9AoIv6vuF7Bd141feNH2cy51P1euXGpNu9DY91W9t3r1TTJF5Fu9+qhRdOUrVHAqhwi6sB9+T9CWLsfPlapUMab33GT7nUN5g4bPS6nSZYx6efPmkykz56g6i1asMcodnTprntpuNRl6JeD4WhPi6WAd7q+//lq++OILSjNUXFeEkAQYehFCCCHE42DoRan7evDYGek/ZLg836SplCpd2uioLFGipFonq3P3t2XHAS/TfTPCjAq9Fq18ulbXsFFjTOsk1iz0Son7fU4a+6VXhl7Oz60n6G6hF3z+haZq/bEZ8xapgKtAwYJqNBVGgOngCqMhj527pEY87vM6ISF3H6opPbEdYe/ytRvVCEgdeqMuRnlhJNmh42elXPnyqp15ixNGTOrQC9NP9hs8VDbt3GcEzo0aN1F1/G7elg3b9yonTJmh6ha0ndvRs35qu9Vk6JUArgEtIZ7EkydP5I9//KNERUXJhQsXxMfHx3TdbkozykOHDqnrDNcbrrs//OEP6jokJKfB0IsQQgghHgdDL0rdy6gHH4r36QvSRI0Oedo56cp6DZ6TvV7HjWnLMsqMCr0QdOk25yxaZlonsWkJvRAQHD9/2dgvveb00IumXFeh15rNO4x61WvWUtfpmcs3JML2+6rD7Mq2a23tlp1yMzzGqAtRt1ix4nI5MNSpHKHYef9ANZ3n9n1HpEnTl1Q7YydOUdt16FWiZEm5djtSlSHkQuhWqUpVp7ZuR9+X2nXqqm1TZs512mYlGXoloK9LSIgn8NNPP6mw68iRI6bBBKVZ6bFjx+STTz5R1yUhOQWGXoQQQgjxOBh6Uepe9h04RE2J5tgxmRIxSqPLWz3ldsx903bTYkaFXvWfa2i0efVWuGmdxKYl9CpevIRcCQo39kuvDL1oSnUVeh04esqoh4A6IfRKeF1PXrhqTGOI8tJlyqoRXbq+WeiFcLvJiy+pEWPYz3G6yTHvOYdeZcuVV9Oiogxt5M/vPHUo7N1/kDpOh87d1FpijtusJEOvBHBdaAlxd7777jvx9fVVI27MAgjo7e0tJ06coDRDdTWSENfjqVOn5Msvv7RfqYRYG4ZehBBCCPE4GHpR6h5iqrO2HTo7dUhiqrFub/eSLbsPiK9/oFEXwc6ugz7Sf/AwNdWh4z6NGr8ggREZs+5XRoVeMDDirtEuQjCzOo6mJfSq36ChGj2j90uvDL1oSnUVeh06fsaolzj0gljfa8X6LdL4haaqPm71tly5cycJvSbPmKPqlS5TRk75+Uvk/Q/l9TfbqLLEoVe58hXUSC6UmYVeqzZuVfUqV6kqlwJCjHIrytArAbzeWkLcmb/85S9Jggfc9/Pzk1u3bsmdO3ckPj5e7t27R2mmiOsrOjpagoKC1HWHgNXxekQ49qc//cl+xRJiXRh6EUIIIcTjYOhFafaLqcq6vvW20RGJacaea9RYjYoyq+9oQMRd6dClm22fhJEesGr1GnIjLNq0fmrMyNBr/bZdRrvvTphsWsfR1IZeCBKWrdlo7JMRck0v5+fYE3THNb2SC70wKhNrfSFsuhkWo0aE5cuXT02BqOsj+MbIz71HjstF2+9BUFScDB4+UrVbtXp1uRYSpab0zJ8/YXRoakIv/H3B9Ir4e7Nm83b1ewaz6znMbBl6JaCvS0iIu/Lb3/7WKVw4fPiwXLp0SeLi4kzDCUqzysuXLztNtYlr89NPP2UfObE0DL0IIYQQ4nEw9KI0+x0yYrRTR+SIMRMk4t4HpnXNjLj3WDbv2mdMcQbf7tPftG5qnLtouZpuMSPEekW6XXTwFyxYyOkxJza1oVfD55uoES96n4zQMfRCmDB74dIssVTpMsZxGXqlTk8KvW6GRaufixQtKmXKlpUiRYqq+kNtfw90/WavtlBlCL4KFSqswqlj5y6poAr74lopVLiwmpoQ9VITemE6VNT5H1s7CNcKFSqk7DNgsHF8K8nQKwH1mtslxB3561//6hQqeHl5SUREhGkAQWl2iOsRYZe+RjHdIYIvQqwKQy9CCCGEeBwMvSjNXv2DI6RkyVJGJ+SIMeNN66VEBCa6HQRg2/YeMq3nDi5bu1Hy5ctvnG9i8xcoIPu8T6g1hmbOX2xaR4vRMdv3HTY9Tnp0DL2yS3cLvV5q1lymzVkg023q6fjcyewKvZauXq9GMK7bmhDuYvQm7sNLAU+nJpy7eLkKpm6ERqu1uTA6cdCwESqkHmi7XbFus4Ta9tX1fa8GqL8JvfoNlNHjJ4rfzduqHFOeIkzGFKcbtu+RW1HxMmHqDNlz+JjafubyDXXsqbPm2Y7zSJVhlNi4ydNk+tyF6v7qjduMc3QU7WG71WTolYDj7wsh7sa//vUvFXLpMAHrJkVFRZkGD5RmpzExMXL69GnjWsXUm59//rn9SibEWjD0IoQQQojHwdCL0uwVnd26A7JS5aqqI9ysXkrt0buv0V6Tpi9l+OinjBLn9XafAWq0ij7ftIgRL4tXrjU9Rnpl6OV8Lhg1FHL3gbH93JWbkjt37iT1nqUONO88/MhoKy2+1urNJG1bdWo+mn4ZeiXg+PtCiDvx888/y/nz540Q4fjx45zOkLq1uD5xneprFtfvL7/8Yr+iCbEODL0IIYQQ4nEw9KI5TUwb2L1nH3n9zTbSpn1HGTVuohptpbcPHzVWbdPiPsqx7k67Tl2kQcNG0rl7DzlyyleNrHKsq/U+fd5oz5XXQ++oact0B+TBY0+nQUurR8/6Sd58+VR7GEGGESBm9dxBBHxDR75rPP7UihFesxcuSdVUkKkxPaFXwUKFpHf/QVKiZEnT7SnVnUKv1u06Om1HcInQMXG9Z4nfEcd20irWw0rcNkMvmpwMvRJw/H0hxJ1AgKDDA0wdh5E0ZkEDpe7knTt3jKkOMc1hfHy8/YomxDow9CIkg/jiiy/k8ePHEhQUJOfOnZNjx46pNw/9AYjSjNLb21sNSffz85OQkBD5+OOP5euvv7ZfiYTkDBh60ZwmgpbyFSpK2XLl5bXX31Dr6FSqUtUITpq+/IoafdSqdVt5s217NbVYSMwDFYAgwOjQpZtaPwpT7s2yidEmterUVR2IjV94Ud33OpWy0Ovw8bPGSJlqNWqme5QXxLRqFSpWMjo1HdcTclcXLl8jZcqWM845JVavWUs27thr2l5GmZ7Qa+WGraoNjIYqbF+rKS26U+hVs3YdY6o8eCUoLE0jvXB9nrsa4HSstNh7wKAkbTP0osnJ0CsBx98XQtwF9C+ePHnS+D89ICDANGCg1B1F36W+dtF3+d///td+ZRNiDRh6EZIOMJT973//u9NwdkqzS3zI/uabb/h3juQIGHrRnKYOvdp17KzuY30idP55n76g7iP0wuiV0Nin6+qcuuiv6mC9G6wxpcu1cxYtV9sPHjudZJsrN+3cZ3Q+vtKipWnbabFD565Gu8NGjjGt445iVB1em+TW+ipYsJBUqFRJJs2YkyEB4bNMT+i13+ekaiM4+p6ULlPGtE5KdLc1vQYMfUcFVlhrqnvP3qZ1slOGXjQ5GXol4Pj7Qoi78Lvf/c74X/zIkSOc1pB6nCdOnDCuYXyZmhArwdCLkDSCb0FgpI1+g6DUHcQCusHBwfLDDz/Yr1RCrAlDL5rT1KFXyzdayyk/f3nltZZSsGBBCY6+r7brkV4IxRAebdlzQO2D0VxYi6jPgMESFBnn1GZaQ685i5YZnY9de/QyrZMWJ06bZbSL8zWr464GRcWr0VFrNm9X00f2GTBEZsxbKCs3bJEL128Zr1NWmJ7Qq3KVqjJh6kyp1+A50+0p1d1CL5g3bz6l2bbslqEXTU6GXgk4/r4Q4g78+uuvcurUKeP/cPwPbhYqUOrO3rx507iG/f397Vc3IdaAoRchqQTX0CeffKKmL9RvDhBTzl2+fFkCAwMlIiJC7t69q+bFNXtjoTQ94tqKiopSUxteuXJFTamQeCpNTH/4z3/+037VEmI9GHrRnKYOvXSnX65cuWXBslXGdh16NW/RUl5t2UrWb9utyhHEdOjcTQVfmJ7t+PnLxj5pDb0mTJlhnMc7o8eZ1kmLOw94G+02afqSaR36bNMTemWU7hh6ubMMvWhyMvRKwPH3hRB3ADOs4Aun+N8bt7Gxsab/u1PqzmINOt2HhDW+MJsVIVaBoRchqQDXz/379403Bf3GgBFfHMpOs9Pw8HA1NN0x/MLP//jHP+xXLyHWgqEXzWnq0OvNdh3k8Imzki9fPpk+Z4Gx3Wx6Q0f3+5ySfPnzS5169Y2ytIZei1euMzofu73d27ROWnQc6eVJ0xu6m3qttuwyb968cvVWuOm5ZYVFiqZ9LbLsML/t9/JmeIzpY6GUoVcCjr8zhLgD//rXv1RfEP7vPn78OL/wTD1Wxy/0f/bZZ/YrnBDPh6EXIakAbwiOoQLeHO7cuZPkTYPS7BAftBF+YT5xfY36+PjIl19+ab+CCbEODL1oTlOHXpi+EGtote3QWUqWKuU0vWHu3LlVuHXkpK+c9rsu+7xPysgxE+TEhSviffq8FCpcWOrWf85oM62h1479R9SoMuybkWt6dezSzejUXLF+s2kd+mwPnzgnvfsPzhb7Dhwi2/YdMj2vrPJSQIgKTc3Ozx3FiM3I+x+aPhZKGXoloN8bICHuAL5cqv/nxjSHZv+fU+oJ+vr6Gtfy73//e/sVTojnw9CLkBTyl7/8xRi+Ds+fP88h7NQtRfDl+G0dfIh58uSJ/UomxBow9KI5TcfQC/f9bt6W0mXKSqPGL0hw9D0Vejl2Cr5ou48RYaiD+wipGjRsJKf9/I020xp6HTl5TgVs2LdGrdrq3MzqpcbQuw+lYqXKxvmn9pwopdSKMvRKQL83QELcAfQP6f+3z549a/p/OaWe4KVLl4xr+f3337df4YR4Pgy9CEkBmK9ZvwlATCPH4evUncW6cnq6BXjt2jX+/SOWgqEXpSkTo7D8gyPl1p140+1p8XrIHSlYsJDRAYlwzaxeajx61k/y5s2n2itZspTcisq486WUUk+VoVcC+v0GEuIO/O53vzP+18YXos3+J6fUE0Rfkb6W8cV+QqwCQy9CUsDdu3eNNwHM18z1u6gniBFfejpO3H7++ef2K5oQz4ehF6XZ6+Dho4wOyCpVq6d7tFenbj2M9lq0bJVhUyZSSqkny9ArAf3+AAlxB377298afUQXLlww/X+cUk/QMfRC3ychVoGhFyHPAOshOa6RFBISYvpGQak7im+d6Wv36tWr/BtILANDL0qz14CIu1KseHGjE3LEmPGm9VLirPmLnTo0dx7wNq1HKaU5TYZeCTi+RxDiDjD0olaRoRexKgy9CHkGt2/fNt4AOFcz9TRjYmKcpjn829/+Zr+yCfFsGHpRmv0OGTHaqSNy+tyFEnHvA9O6ZkbEP5Ytu/cb0xrC/oOHmdallNKcKEOvBBzfawhxBxh6UavI0ItYFYZehLgA14vjSJnQ0FDTNwlK3VnHhUnv3Lljv7oJ8WwYelGa/YbFPZLO3Z9OS5gnTx5p/MKLcvVWhGl9R0NjH0rnbj0kV65cxv6YJvFmeIxpfUopzYky9EpAv09AQtwBhl7UKjL0IlaFoRchLnjy5InT1IZ4AzB7k6DUnXUcrXj58mX71U2IZ8PQi1L38OqtcHm5eQunDsmSpUpJr34DZe+RY3I9JMqoezMsRo6c9JXho8dKmbLlnPZp1LiJasuxbUopzeky9ErA8f2CEHeAoRe1igy9iFVh6EWIC/785z8bf/xPnjxp+gZBqbsbHR1tXMcnTpywX92EeDYMvSh1L4eNfFfy58/v1DGpLVSosBQtWsx0W+7cueWtXn1N26SU0pwuQ68EHN83CHEHMiv0iouLk9jYWHWbeFt8fLyxTdczU++r6+sy3E/cZnI67uto4rb1fUdR5lhuVjet55b4vFztd+PGDbl48aKqZ7adJsjQi1gVhl6EuODx48fGH3+MkDF7g6DU3cWHSH0de3l52a9uQjwbhl6UupeR9z+UA0dPSaPGLzh1TrqyavUasuugt4THPzZtk1JKc7oMvRJwfO8gxB3IrNAL7b377rsyf/78JIHOrl271La1a9fK0qVL1c9mrlq1StXfsWOHUTZmzBgZP368rFixQgIDA53aNRNhkWOb2o0bN6rtfn5+6v7UqVPVl2wd98VxIGacwf3r16+rugsWLDDq7N+/32hTnxseV3h4uFHHTMzEpPeDY8eOlUWLFom/v79TPbTTu3dvefvtt+XUqVNO26izDL2IVWHoRYgLIiMjjT/+N2/eNH2DoNQTPHz4sHEt//LLL/YrnBDPhaEXpe7r3iPHpUefflKnXn0pWuzpCK/CRYpItRo1pWOX7rJxxx7TfSmllD6VoVcCDL2Iu5FZoVdYWJj06dNHBg8erPqjHLdNnjxZevbsKb6+vjJ79mwZMGCAYf/+/VXAA5ctW6bqr1mzRt1HewMHDjRCoL59+8rOnTudRl4l9vTp00Z72FerA7WzZ8+qbUOHDlXrhjvui/ZhUFCQun/lyhVVd8KECUadLVu2qDKck+O5jxgxQiIiIox6iUXwh3p4HnA+eGx6XzxeXQ+PbdOmTSrkw3Pq2EZmGBwcrM7H29vbdLs7y9CLWBWGXoS4AMOh9R9//S0VSj3Ro0ePGtfy119/bb/CCfFcGHpR6jkGRsSK383bptsopZQmL0OvBBh6EXcjM9f0QriFEMdxtiEES7169ZIhQ4YkCcMggjC9XY+80qGXDsEQaKxfv14FTaiLMMqxDUd16IVwyWx7RoVeGKWF+6iLc0fZ5s2bjXqJ1aEXQkE91eGhQ4fU8VC+d+9eVQ+h16VLl5RRUVGqDCPc9HOKkWDoI9H30RbCMYwKQ3sYORYTE6O2afH84Twxe46Pj48EBASo46MeRubh+AjacEzH/kMcH2UHDhxQr5Pj64fjYhv6HnHOOEccH23r83cc8Yd2UYbtuiy9MvQiVoWhFyEuwDBs/cefoRf1ZI8dO2Zcy//+97/tVzghngtDL0oppZRaXYZeCTD0Iu5GZoZeOhCaN2+eUbZt2zZVNmXKFKcQBGKUEUZ7YTv+79fliUMv7eLFi1X5jBkznModzerQC06aNEmVJT5fRxOHXrocYZ4uR+iHc8J9iKAJdXAs3MdjQz38jOcV2xCA6edQO3bsWCMwQyA1c+ZMFRbq7fgZodmsWbOc9oO63dDQUDV6zXEbwj1MD4ntCMxQhmPjsen2sRY7nnv8rM8f4vVH2e7du42y9MrQi1gVhl6EuIChF7WKDL2I1WDoRSmllFKry9ArAYZexN3IzNALIQSCDQQgmOoPQcTIkSNVmWOopZ07d67atnz5cqcgKLnQC+es209uikPH6Q0RCGl1kKVDL0wviNBnzpw5hghrUhp6TZ8+Xc6fP69GQWF6QJyTq+czudAL4RPKcdxbt265DL1wfu+99556fjBqCsHWoEGD1LGxZhiWNsH6Y6i7bt06ta8+X0zFiOcP0xhiqkfsi/PVx0LZyZMn1YgtvG468MJzhHJMt4j7OE+MLNOhF8RziRFjWNsMo8GwXhrKlyxZos4Bj0sHYeir1I89vTL0IlaFoRchLmDoRa0iQy9iNRh6UUoppdTqMvRKgKEXcTcyM/SCY8aMUeEGpttD2NGvXz8VCiUe5YWwCPUQiiUecZVc6IWp+VAOMSoK4Qv6u2BISIg6hmPo5ej+/ftVGzr0QgiDc3MU5SkNvRxF6LRx40ajDkZJ6fPS63IlF3rhOUI5giMETq5CLzyPjs8VwjyU45wxrSGmGsRILJQheMJxJk6cqO7v2LHD2M9RHUZhLXVdhnZQBnF+KENbehrHc+fOOYVeCC31vhDPH9odPXq02m/79u2q3jvvvOP02NMrQy9iVRh6EeIChl7UKjL0IlaDoRellFJKrS5DrwQYehF3I7NDL4QnCDgw6gdT3eHnpUuXOtVBKIKRR1ijy3H9L21yoRemxkM5ptTD/XHjxqnACSKQwXpXjtMb4ly0ei0pHXohfEK/GaZY1CJ4SmnohUAH54efsR+CLl0Ho6T0eSF0QllyodeZM2dUOUI3BHeuQi+MRtP7wZ07dxp1E4spFzEaToeQyb3WZqEXRpGhDNscz1UHaOijcQy9jh8/btTRjh8/Xj1+9EfqkV8IyxLXS48MvYhVYehFiAsYelGryNCLWA2GXpRSSj3JqIcfJdw+SLiNvP+B+jni3gfqPm5xPyzukf32ffv2x0bd0LsPVd1bUfHqfnD0PXU/xFYeef9DdRse/1jdhsa+r9oKjU3YFhQVp+r6B0eq22shUfa24ox90B6OERBxV8Js+wdGxKp9b4bFqONdvRWu7l8OCFX73giNTjiOzRuhd9RjuBQQos4Zt6iL46H8SlC4OsYl274hdx/IdVv94Dv3VBnaRXsnzl9Rt8fPX1bH87t5W52bf3CEOhe0de12lO18otU+aAd1UPfYuUtq3/0+J9XtmUvX1ePHOV69FSG37sTL2cs31HN38qK/el7OXrmpzhHHxeM4fOKcuj3lh+3vy3Xbc3T+WpBq79Dxs+pc9hw+qm6P+V5S+572u6bODff9b0fKOVubOE88PhwP++4+5KNul63ZaJwj9sXx8Tgu3giW07bzxfOKxxEQftd266fqMvRKwDH0KlmypNN9be7cuSVfvnySP39+KVCggBQsWFAKFSqkLFy4sBQpUkSKFi0qxYoVUxYvXlxKlCih2itVqpSULl1aypQpI2XLlpVy5cpJ+fLlpUKFCsqKFStKpUqVpHLlysoqVapI1apVpVq1alK9enWpUaOG1KxZU2rVqiW1a9eWOnXqKOvWrSv16tWT+vXrS4MGDeS5555TNmzYUBo1aiTPP/+8NG7cWJo0aSIvvPCCNG3aVPniiy/KSy+9JC+//LI0a9ZMXnnlFWnevLny1VdflRYtWshrr70mLVu2lNdff11atWolb7zxhvLNN9+U1q1bS5s2baRt27bSrl07ad++vbJDhw7SqVMn6dy5s3Tp0kW6du2q7Natm3Tv3l3eeust6dGjh9FRD9HhjlBFBxkIFRC0IDCBGDWDqeEQQkCEJljnadiwYTJ8+HAlRqYgwMBopFGjRqmg491331UiTBg7dqwKXtDBj2AEU89BhAMIHSZPnqzWMkKnP5w2bZqaFg9rUmGdJYjp42bPnq0CDUz3B7EmFqaLw1R1CxcuVKEH1rOCmDIOIRICF4ywwbRzK1euVNPTwdWrV6vQCKETxAikTZs2GaJtnNPevXszJfRCYITnG88Hzl2HJHo7RmjpNbBwPo77as1CL4QaOnTB40IZgiT9ODdv3qzazso1vRAI6eBLT+UHsS6WPq89e/aoMrPQC6GUXlcL11NsbKzL0AvXgz4GRFCFcpwzzhUhkBajxtA+zh11MLLOcV+tWejlONILQRzKcM74fUAZgjrH0Auj+vS+Wv084TnA7xl+n5KbkjKtMvQiVoWhFyEuYOhFrSJDL2I1GHrRzBKdp8nffmS7/VD97Cg6L1FHd16jQ9TxPrarurZb/bPu4E68Dzq6He+jfqS9LspwqzvDw+Mf2evaO8ljUf6hhNs7zdE2Op9RBx3LuNWd5OjwxS06hXEM3KIu2sJxsC/K1L4xD9RtYGSsvY37xr7YB3XRQYxb1EV7+ni3bfdxLuhwxy06uVGO4+vzvG1rD7doH+d/y17ndsx91Rb2ibCdE+rh3PA4cTw8n+jARl3dgY/OetziHNX52M4Dx0JHPtrDOet29TldD7mj9tG36BzHcSCOjVt0QuOxBtrax764j9trIZFqOzqucTyEAzg3HAed82jP1z9Q1T1/LVA9vitBYcY+aB+3OG90zqMzH+eMjnzs63XKV90ePHpa3Z67GqDaR+c6OtYRNKBT/qbtfNCBjucfnf043pGT59RxdIf70bN+KiTA40THPNo5dPyMuib2eh1X933OXFSPw+vUefV67PU6oR7T0bMX1bEQHpy4kBBMrN+6S90uWrFGHU+HAWgDjxG36Mg/ddFfjvteVueLUAHP+erN29W+4ydNU7drbPfxGqMezh/777KdN4KT9dt3yw3b87Jt3yG177qtO9XzNn3uQvX6r9q4VZX7nLlgPF+LV65Vz8W4SVPVdbNsbULYsGnHXvV8r1i3Sc5cviGbd+9Xtwga8BzgsaNd1G3XsbO6fW/aTNvtR7Jp1371HKMezg3PHc7l9KVrsnbLTttr/r7MXrhU3Xbp/rbad9Dwkep2o+24OAYez/K1m+RyYKhMnDZLncvC5avV9bJ09QYVnkybPV89z/OXrlTPOY6FYAXX3ELbc432ho0ao/aZNX+xOme0j9d1295D6jnfecBbvd4IYvBa4lpfv2232nfsxKnqdvKMOep25wEvda3iecdrhut196Gj6hz32B4rfl92HfRWr+3qTdvU7xMeA/bd73NKnSOuXVxvuHbxPOH3b/u+I+ocdZCE5+tmeIwcPHZa1cd5XrNdE7j28bqjvS27D6jbrXsOqtcU5dgX1zjOEb8XfgG31fPjd+O2em1xvqjrffqC2nef9wl1i8AJx8fvFP4+4JwQLuH2wvVbahseI/b1s70ueHznbG3h9xzt43lFXf03BdckrnOEdtgH1yRugyITQkP8vuBvU8LfmfdVmf47iL8puNV/Q/XfXxwDbaBdiJ8htmkZeiWAIClPnjwqwDILvCjNLhG+ZUboheAG4QjCFISLCB8xAktvRziFMATbMPrKcaSVHi2lQy8EfwigELIgdEQZAhTHUVWJzcrQC/exNhaCUpS5GsmkQy+ErWgfzz3CT5QhmMX0hKiXmtALzwOCXTzHWHcL54I1tTAlIdb3Qh0dPOJ5QxCG6RbxHOjHiNcB2xGOYh02tIEACQExyhGi4vXTARueV7TzrNALx8G54fGiDl7LxHXSK0MvYlUYehHiAoZe2Sc+EOgPEDT9MvQiVkOHXrpzCB1HCbcJHfzobEIHEjqgEBig0wx1IH5GHXRU4RadW7gNCItRt+hwR2cYOq7QsRpiuw2IiFWdWOh0RB186xzHPnsl4Vvc6EBTbdi2B0XFq878y4FhqqPd92qA2ld/Gx2dbmj/zKUbqgPa96rtHyfb/YQO7Gh17icvXlXt7fM6rh4HOi+xLzq8cU5o89rtSDnvH6Q64nA+F+2deOi0xL7ohMUtOg9xe/LCVdV5jU6+hE7lcNVBjI5SdBbiHBO+yf5INmzfrTrlNu7Yo/ZFZ6b6pn1krOqwREfems071LmgExmPFx3e6IDcvu+w6pDHLY7hffq8+PoHJHRa7z2k2ps4fZa6nTl/kXGO6Ow9eOyM6iBH5yg6+XHO+71PqvNGpy6ei8kz5qp9ho4YrW5XbdiqvlGP/fYeOaae32VrNqjne8mq9SqkQKc4roW5i5ertiZMnaFeq9Ubt6kOUTwfm3ftV+1NnjFbvW7jJ09Xj3Pl+i3qPrZfvB4s67buktN+tmPZXhuMDkDZjv1H1L5TZ89XtwOHvqNuV2Bf2/OIx3PK75rqwEWHLDrZd+xHR3Ok6tDGa7tywxZ1jugIV4/Lds54LdR+5y+rYAIdwjj/Fes2q05UdFZjX9zitVm7dae6hvYcPqY6avG8o7Mc7emAYtaCJer3YJvt9cF9L9vrg2sAoQY6j3E8BCJXboWrx4fnHOeIuuiEx62+ps5cvq6uC4jXCo/H69Q59VrisWJfXI+4LtEJj8eH1xj74ljYD9tQF9cQnhv8fuJ6x754nhBcoG08PgQOaBtBAY6FfdFxjvb2HDmubvXvCq4DBG769wqP0d/2u47f+6u24+JvBeqgrg5xcBzc4m8CfjdxbIz0wOuPjm6cG65pjLrBueMWIzPwOiHMwO8ujoV6UIde+PsQ+eBDuXQzRB0P54LXAK8lrjH8buD1RYCD3yk8F7gusa8Ov/TfGLSPfVEPHfJ4jHhOcI64xTZc8zgOOvpVyGZ7vrCvDurwOmB//IwQAvvgHHAfzw/2xS3KcR0hjFLnZbvFc45joj2cP27xeLCPHn2E5013+ON5wPHwe4D2EocAOD5u8fgxEgrtY1/UfbpPQpCKtlAX5TiODlRxH+U6gMXPOKY6F9vxcIvnFOVoW9233aJN1Md9/AwT2rG3Yd9H38d21E0stiV3S2l6ZeiVwF//+ld58OCB6pzGSCmz8IHS7BCjzjIj9IKO0+4hdHHchlFyeltiMdoJI4p06JVYBF8IOhzbS2xWh15QB0IYxZVcIKdDr8QiFEKop+ulJvSC+/btU9sQMOEx4Rzwsx7Zhf5ABF6og8eGMAvPDR4btiPswjYEZzgXPPcoR2iGQMwxvMTPaBev0bNCL4gRibrO+fPnTeukR4ZexKow9CLEBVYPvTCEHx94jhw5YpRhWDjKID4s4T4+AGCIu+O+ePPGBy1dF9MR4M3Y1YcnDEnX9SGG4+PDQOJwC881pqDIlSuX6bzGNPUy9CJW425cQofppp37VOcmviGPjk8ELxj9ob5RHhYt+7xOqFAIHeEIe9BxjU597Ku/UY5v5uN218GEjn1Me4QO9QvXguTs5Zvq2+THz19RncLYhs5MtI8wbf22hCABIQNu8W10dJgj/EFHOjp2ESShcxYd+9gX4Qw6bxE4odNaTat096E6P3QeozMWddEezh8drcfs+6LjG2353QhWHc4I1rAPOo7RuY9OX4QJ2PfwibPqVk8XhaAA+6IzGx356KDGMRHuIQTA40EdHA+PA/cRCmBfhEroPEbHMTrdVWe/7djoDMZxcW44B5TjFp3F+had5brzGoGgas8+Kkd3musOeH0M1VFuu8Vzgft4TfE6o67ucNe3uhMb++tOaZwHtuE+blGGW0oppdSTZOiVMn7++Wf56aef5MmTJ/Ljjz/KDz/8IN9//71899138u2338o333wj//3vf5X/+c9/5Ouvv5avvvpK/V8Ev/zyS/nf//1f+de//iX//Oc/5YsvvpDPP/9cPvvsM/nHP/4hf//73+Vvf/ub8v/9v/+nQri//OUv8uc//1n5pz/9Sf74xz/KH/7wB/n000/lk08+kd///vfyu9/9Tq399PHHHyt/85vfyEcffSQffvihfPDBB/L48WN59OiR8v3335eHDx+qcO/+/fvqfzh0ikNMZ4aRP+iQRic5/jdHp74ekQIxugRfHMXIEAQGmE4N4n9rjP7BqBX8341RQfhfHlOvob8D/79jdAy8evWq6sTH+lBYjwj6+fnJxYsXVbCDDneIEAGjcRB8IGhAQALRaY+RMliDCv/H43/Qo0ePKn18fMTb21u8vLxU/wMCjkOHDhn/oyIE2L9/v+p7wJSB6DuAWH8KQQcCoB07dii3b9+upr7bunWrEgEKRj5hmj+EDxs2bJD169fLunXrlJgaDv0OGG2DqQsxjSH6QiCmNsTUeujLwNR6mPoQ4QhE0ISABFMmJhZ9JZiOMbOmN4R4jfE4oB5xpMXzobclFs8Zrhu8HroMzwmeOz2lnmNbZuJ4el+z7biOsA3PP65Lx214DfSIJ9zHNYi6eK50HVw/KMN1ocsgzhHluO4cy7V4rrFdi2sB11vi4A3npOtgRBXKcCzcx3XoWBfi+cK1jWsF1wCuB1x/+H3SdfA7hOtMb8fzrI+L31GcC7bhunIMp/C7hmsT23ANOo5kw++1Ps/Er7FWr+mG/jecp1md9MjQi1gVhl6EuMDqoRfm+8a3kzAHti7D3OMow/QRUH+DCXOK63mIIT5A6e158+ZVARV+xtzo+tsuicWbNOqgruM+uHWchxofHDD/OeZPT66tzBIhH+Zyxz8OZts9VYZexGpwekNKKaWUWl2GXoS4Jwgz9f/XmRV60ZwtAjEE3AhZEXrpdc0yWoZexKow9CLEBTk59MK3VBBsIYzCor4owwK7+pssOvRCQIRvdeFbMw0aNFD1sKiubs9RHXphoV/sj2/YYHg3Qi8sNKyHjuPbK/g2DN58E39rCK8DvhGWOAzDN2vwzRv9bSLsi2+Q4VttjvUg6uhvmTl+cwdBFxY3xjni221oDx80HPf1VBl6EavB0ItSSimlVpehFyHuCUMvmpki7Bo7dqyMGDFCBV6YatHVGmzpkaEXsSoMvQhxQU4OvRD66DJMUYBgKl++fOo5QZkOvTAaS9dDO9i3SJEiRpmjOvSqX7++MSwbUzJUrlxZlbdo0UKV480c96HjcHcMIc+dO7exDW/8emg+hoIXK1ZMunTpoobS58+fX9XBYscI5XQbeCzlypUz2sD2iRMnquMigNPlEG1kxpzJ2SFDL2I1GHpRSiml1Ooy9CLEPWHoRTNTfNkca3/pwAtTiZrVywgZehGrwtCLEBcw9Hpat1WrVqp85MiR6r5j6IVRVnhTxmKfqFOtWjWnfbVmoRfEfNQoL1u2rHqeE4deqIswC/fr1aun5v/GGz/uN2rUSG3XoRfKMMXisGHD5MUXXzTawXaM3CpVqpQKzjBHN+b1bt68uZojHNvwgULXxzdqMEc3yh0fg6fK0ItYDYZelFJKKbW6DL0IcU8YelGryNCLWBWGXoS4gKHX07rdunVT5W+99Za6r0MvjP5q2LCh1KxZU63ThUAJC8k67qtNLvTCh0SUlyxZUi2umzj0wlpimEYR9zFSC6PDEEbpNcFwro6hl14gFQvx6nb0VIeYqhH7derUSU2hiMBOnwumPNT1sQiwPj8ryNCLWA2GXpRSSlNqzJmrEj94ksQPmpitxi3dLHdiHpieI6VmMvQixD1h6EWtIkMvYlUYehHiAoZeSeuOGjVK3dehFwIkTBGI0VUYdTV79uxk18FKLvTCgpwox0gvBFyJQy+8DnqtLTNPnDhhhF44H318BFe6DtYBQ8CFqQwx/SLKENJhdFdgYKCqz9CLEM+BoRellJobP3iivJ+7SvaYp6rcb9lT7sR/YHpu2WHs0s3m55pN3m/V2/b8PDY9V0oTy9CLEPeEoRe1igy9iFVh6EWICxh6JZRFRkYaI6QQDKHMbE2vZ2kWeiGIatu2rSrH1IV4k00cejmO4lq/fr1s3brVSdTXdRBk6eMlDr10OUZ4YaRXgQIF1Lbnn39enQdDL0I8B4ZelFJq7oPqr5iGLVlpzKVA03PLch98JA+qZf/zkdjYNbvMz5fSRDL0IsQ9YehFrSJDL2JVGHoR4oKcHnpFR0erqQJr1aqlyjCFIaYWRL30hl4ImTD94MCBA40RYzt27FD1EodeOGblypXV/bFjxxqBGW4vXbqkfk5J6BUTE6NGkul9V69erbaVK1dOBXsIhnR9vPa6HSvI0ItYDYZelFJqLkOvp8Yu3aRGn5mdY3b6oHF7uRPH0V702TL0IsQ9YehFrSJDL2JVGHoR4oKcHHolFut2nTlzxqiXntArsZgeccaMGUa9xKEXyjZt2iSFCxdWx2zatKm89tprUq1aNWnVqpXanpLQC9MYlipVSo3s6tixo1SpUkVt69ChgwrBsE5YwYIFVRkeV+3atZ0esyfL0ItYDYZelFJXlitfwfgM4G5euH7L9JwzSoZeCUaHx8nDQrVNzy/bzV9dYo5dND1vSh1l6EWIe8LQi1pFhl7EqjD0IsQFVg+9evTooUY5LVq0yCh75ZVXVBmsXr26CsYQOGFkluO+vr6+UrFiRRWGOZa7curUqUbbCJUaN24s48aNk7CwMKd6uK/rYb0uXY7gBuuGIbiCNWrUUOeGbQi0MCKtUqVKRv2IiAijHYRnuI9pDTFVY8mSJdXt4MGDjfoQrzXaQPsI1a5cueK03VNl6EWsBkMvSqkrHUMvjCbPmy+fU/CUJ09eyZ07t8s6mWVWhl5xY2ZJ7KyVWeLD0o2M47pD6BW79ZBxPu7owwovyJ37H5qeuyvDYt+XQ8fOyAGfk6ae9rtmul9mGR73SA4fP6uOHZmGx0Ndy9CLEPeEoRe1igy9iFVh6EWIC6weenmiGJGFqQhh4iAupWLaRowCw3SHZttRnp723VGGXsRqMPSilLrSMfQaPW6iHDt3ScZNmqrul69QUQ4ePS37vU+qn1E2cuwEVWf85OnGfpllVoZeMVeDTetkhg9qtnh6XDcIvR40bGOcj7t699Bp03N35cUbwWr2A7NrC7Zp39F0v9SKYK19p65y7XaU6XbtlaAwKVa8uDr27Zj7pnXSatcevWT52s2m23KKDL0IcU8YelGryNCLWBWGXoS4gKEXtYoMvYjVYOhFKXWlY+jlGDKVLFlK3urV17g/cfosVef8taCndUqVNvbNDBl6Zb53vc/Jg4pN3d74wZNMz9+VgRGxKpwdPX6S9Ow7QHLlyi3FihVX9+HKDVuc6geE3xVf/0AJiopzKodRDz6Sy4GhavutqHinbX0HDpF8+fPLyQtX5dadexIeb74G2RWT0Auj0YKj76n2I+59IH43gtVxcD/x/oERCeeHdhxHim3Ytke1OXTkaHX80LsPjW1o59rtSDlz6braT5drb0ffl5C7D4yfL9h+vwPCY5LUQbuO6nN2rJfdMvQixD1h6EWtIkMvYlUYehHiAoZe1Coy9CJWg6EXpdSVjqHXjgNeqhMeYRPuv/Diy6rDG77Ztr0q27bvsFOdzJShF80ovc9cUOvdVq5SNcm2sLhH0n/wMOO6Q73R4ydKxL2E8Oqi7TqsXqOm07X5Vq8+KqQaO2maqu+4bc6iZUmOAc1Cr0HDR0r+AgXk4LEz8lyjxkYb7Tp2McIz3I4YM17y5M1rbK9UuYptH4zCPCFFixUzymGHLt3Ufn43b8tzzz9tEzZp+qJcD0kYkYZzqFq9htRr8Jzss7VTpGhRVQePZ8GyVSrUCrb97uNYjm1A1L0ZFq3acRcZehHinjD0olaRoRexKgy9CHEBQy9qFRl6EavB0ItS6krH0KtEiZJSu249o/M7d548Ur1mTalSrbpRp3iJEk51MlOGXjSjTC70irz/gRHo1qlbX2bMXSS169RV69hNm7NA1WnS9CW1/bVWb6owrEHDRtJn4GAJjIyV7m/3loIFC6n6LV5/Q9q07yTb9h5yOoY2udAL9/H7VKVqNWn5RmvJaw+3xk2epuqs2rBV3Ue4NWrce9JNHbOgmr4RI9aKFy+htuN3FcefOmue2g8juGrUqi3tO3eVMe9NkTr16qt6nbv1UNt16IXnpWChQtL0pWYqAEMdnIP36fMSGvtQPUY8dli6TFm1vVz58sZjcBcZehHinjD0olaRoRexKgy9CHEBQy9qFRl6EavB0ItS6krH0MvdZOiVucYERnicdxym9UuNyYVeat2vIkXU9ISYVjA8/pHsOuSjrr9ixUuo0Vx6pFOfAYPV6CnshzBIt4Ht2P9Z16ur0KtchQpqekWMrtIhXKPGL6g685asSKhj+13dc+SYRD740GmKRdTD9pFjxhtlWoxiw+3tmAeyfN0mVQ9TlyaUJYReKMOaYJG2xxoQcdcI3TDay7EtTH1YqnRpFbJhXT/Hbe4gQy9C3BOGXtQqMvQiVoWhFyEuYOhFrSJDL2I1GHpRSl05d/FymTxjrlsaGJl0baWMNKeHXvocPMnoUOf1plJqcqHX0bN+qhwhj5lY3wqhkw6CcDt4+Ein0Mks9MIaYljzTrvf+6TL0Ktnn/7Gvu9OmKTKMKIS99Eu1iJDGaxRs7YcP3/ZWFMrudDrZvhd6TdoqBQukjAqM1euXOq2UKHCartj6IUwTe9XsVJlVTZ74VKjzHGaw/emzjTK3UmGXoS4Jwy9qFVk6EWsCkMvQlzA0ItaRYZexGow9KKUUnMZejkHSp5gxodeF1V50WLF5d3xk5IYEvNAjfY6ctJXWrVuq0If2Py11402zEKvDp27GnUhRo+5Cr0GvzPK2PfdCZNVmQ694NXgCJk0fbaUKFlSbStQoIBstU+jaBZ6oX09VeFLzV6RTTv3qekacd8s9EL4p/etaA+3HEOvoSPfVWVYL0yPHnM3GXoR4p4w9KJWkaEXsSoMvQhxAUMvahUZehGrwdCLUkrNZejlHCjBe2/0lti5ayR28Ua537ybaZ0UmaeqPCj/gjyokDYfFqxl2m5Gh14IqgoXLiL58uWT476XjfLI+x9KYESs+tk/OMIo37hjr+TPX0CN+NJlWIsL989evmGUYa2w8PjHhhiVldbQKygq3hjV5X87Uuo1aKi2jxr7nirTa471HzzMaONaSJQ6FkZ3BUffU2WYrhD1Uht6rd2yQz13ZcqWU1NA6nruJkMvQtwThl7UKjL0IlaFoRchLmDoRa0iQy9iNRh6UUpdOXbiVBk64l23FOsLmZ1zRsnQyzlQeliusdP26Jvh8n7eaknqPcuHRetJzMUAp7bS4r23RiRpO6NDL4RJLVq9qcKhwoULy8Ch76gpARE4jZs8XdVB2PNqy1YyYcoM6d6zj61ubqlarbrRxgsvJoROFStXlhavt5Ix700xtjma1tBr5vzF6hxQB7+vCK2wff7SlWr72336qfv58+eXN9q0k7d69VGBnV6vr+WbbdRIrSJFE6Y5TE3ohcCtbLly6j7CvRdfaqZs3uJ1uRoUbuzjDjL0IsQ9YehFrSJDL2JVGHoR4gKGXtQqMvQiVoOhF6XUlbpD2x29dDPE9JwzSoZezoHSvXZP15VS3v9Q3s9XPUm9Z3mvdR/ndtLo3W2HkrSd0aEXxBSGYyZMNsIkWKp0Gdm656Da/mbbDpI7d25jG9bU2ud90th/8679KjDDtjx58qqQSm9zNK2hF6YmLF68hCqDGGmGOiF3H6jtGImmpzKEnbv3UGHe0tUbjPMqXqKErN64TWrXqZuq0OtG6B01laJuW1uwYEE5fy3I2McdZOhFiHvC0ItaRYZexKow9CLEBQy9qFVk6EWsBkMvSqkrMYIkcYd2ZomO+9ffbCPjJk2V7fsOy6mL/mpECkKHc1cDZJ/3CZm1YIm07dBJyleoKH43b5uec0bJ0Ms5UMLzcefuQ2N7dEAaR3qVaywxZ65ITFBEurzXb1ySttMaeqVETEOIaw7hFKY3dNwWGBmrpkL0D440php0FOtcXbwRLLfuxCfZlhFiusRLAaHid+O26ZpaavvNELkecsep/Hb0fds+wRJx77FTuRVl6EWIe8LQi1pFhl7EqjD0IsQFDL2oVWToRawGQy9KqSuzYqRXocKF1XpDQZFxpueQXTL0cg6U4L0uQyU6JFqib4TK/fYDTetkp5kZelHPlqEXIe4JQy9qFRl6EavC0IsQFzD0olaRoRexGgy9KKWuzOzQq037TuJ7NcB0dEx2y9DLOVDyBBl60eRk6EWIe8LQi1pFhl7EqjD0IsQFDL2oVWToRawGQy9KqSszK/TCmj8Tps6QiHsfOB3v6Dk/mTFvkbzaspVUq1FT8uXLJwVsdfHzq6+9LtPmLJCDx04nmV4uM8zpodeD8i94nNFhsaaPhVKGXoS4Jwy9qFVk6EWsCkMvQlzA0ItaRYZexGow9KKUujIzQq+8efPJ7sNHHY7zkZrasEOXbqb1zWz5Rmuu6UUpTbEMvQhxTxh6UavI0ItYFYZehLiAoRe1igy9iNVg6EUpNTX2fYm+cy9TQq/5S1c6HWvtlh1SrHhx07quLFasuK2tVZk26ouhlzWMjr4v8ePmyv3Xeph6740+cu/N3jZtt2362uwn99r2l3vtB9gcKPc6DJJ7HW12Giz3Og9R65rd6zpM7nWz2f2dBN8aIfd6jJT4t0fJvZ42e42W+N7vyr0+Y2yOlfi+Y+Ve/3ES33+8xA+YIPGD3pN7gybabidJ/BCbQydL/LApEj98qsS/M03iR0xPcOQMiRs1U+JHz5K4d2dL3Jg5Ejd2rsTZHg+MnzBf4iYskLj3bE5aJHGT4WKJm2Jz6hKJm7ZU4qYvl7gZyyRu5gqJnbUywdmrJHbOaomdu0Zi562V2Pk2F6yX2IU2F21IcMlGiV26OcHlWyR2xVab2yR2pc3V223ukNg1uyR27W6JXbdHYtfb3LBPYjfC/RK76YDEbj4osVtsbj0ksdsOS+z2I3LXZuwOL4nd5S13d/lI7O6jErv3mNzde1xi952Q2P0n5O6Bk3L34CmJPXRa7h4+I3ePnJW7XvCc3PU5JzE+vnL36AW5e+yixBy/KHdP+Mndk5ck5tRl5d0zVyTmrL/cPWfT95rEnL8uX917JD988LHN38oPH/5OfvzI5m9+n+DHn8iPv/00wd/9IcFP/mjzT/Ljp3+SJ5/+WZ78weYf/5Lgn/4qT/78/+Qn+Je/JfjXv8tP/+8f8tPfPpOf4d9t/uNzm1/Iz5/Z/Pyf8vMX/0rwn/9r80v5+V82//dL+eXLf9v8Sn75N/xafvnqa/n16//Kr/+B38iv/7X7zbfy67ffyf99B7+X//v+B/m/H+CP8n8/2nzyRP7v55/tn/AI8QwYelGrmFWh19dffy33799P4qNHj+TPf/6z/PTTT/aarvnkk0/Ufn/605/sJc/mP//5j3EsknNg6EWICxh6UavI0ItYDYZelFIn79yXuOnL5GHJBvIwf3VpWqy0aeCUVrv26OV0vCmz5prW0+bNm1eKFitmug3msW0fO3FqkmkSM8KcHnrFBEV6nHdMAtCY01fkfdu1rJ9TSnOyv6n3unwTEmX/FEhI9sPQi1rFrAq9rl69avqZWIvPzk2bNpVly5bJp59+at8rKd26JcywMHjwYHvJs0HfLvYpW7asvYTkBBh6EeIChl7UKjL0IlaDoRelniNGNN2KipfLgaGyetN2eefdcbJi/RbxC7gtQbbydAU/trYxOuJhieecOkhH5Srq9I90eixTtpzcDIu2H/Mj2XXIx7SeNm++fLJl9wHZvGu/mhLRrI520Yo1zo8nA8zpoZc+B08yOjQmyePAc/iweH3T+pTmRD+s8IJ8F/vA/kmQkOyFoRe1itkRehUpUkSKFy9uWLRoUSlQoIDkypXLqBMcHGzf0xmGXiSlMPQixAUMvahVZOhFrAZDL0o9Q4Q/zV59TYqXKGn8E+soRkM1famZLFuzUaIefGTaRnJGh91VU7e9X6CmU8fow9KNpHHxjBvpNXTku8YxsR5Xco8FIuRas3m7MXXhzoPeUqhwYdO6sIjtn/yMXuOLodfTa8FTNAu9EOhGXw5S0+XdPYhp8+zuPyGxu30Sptjb6S2xOzDtns3thxOm4sOUfJiab/MBid2E6fr2SeyGvQliKr91uyV27S6JXbMzYaq/VTZXbk+YAnD5VoldtkXilm6WuCWbJXbJJolbvFHiMG3gwg0St2CdxM1fp6YWjJsL10jcnFUSNwuuVFMRxs1YrkZdxmOKQkxVOGWJxE9ZLPGTFkvcxIUSP3GBxE+wOX6+xI+bp6ZwjB9rc8wciX93lpoSMX6UzZEzlPcwXeLwaXJv+FS5h6kUh06We0NsDp6kplq8N/C9BPtPkHv9xtscq6ZmVFM0YqrGXjZ7jk6YvrHHCLn3FqZ1tE/viKkeuw5NmPqx82Db3xP7lJCww0C5165/gm37yb3WfROmkoRv9Jb7rXrJ/dd7yr2Wb8v91+Bbcq/FW3L/1e5yv3k3uf+KzWZd5P7LXeTBS53l/oudbHaU+y90kAc27zdpLw+eb2ezrdxv1EYeNGwtD56z2eBNeVCvld3X5Te27R83ttkItpGPG8LW8rGt7se2uh83eEM+rt9KPrbV/7iurb62Tkv5Te3X5De1Wig/qvmqfFSjeYK2vxEfVWsmH1a1W+XlBCu/JB9WejHBik1VyPRhhSbyYXmb5ZrIB2Ub23xePigDG8kHtr+1H5RqKI9LPSePSzaQxyXsFq+vfFS0ns268qgIrCOPCteWR4VgLXlU0Gaiv90pEedPiDvA0ItaxewIvUJDQ9V0h/Crr76Szz//XH7zm9/Inj17pGDBgqpO5cqV1bSEiWHoRVIKQy9CXMDQi1rFzAy9MPfy3/72tyT+/e9/ly+//FKePHlir+kafODBfv/617/sJc/ml19+MY7166+/2ktJToChF6Xu7aHjZ6Xh842Nf25TYp269WTrnoOm7TkZdU/iFq6Xh8XqOXWGPqz0oloT6E7Mgwxb06t4iRISEHHXOPbg4SNN60FMy7Jk1Trnc7W5fttuKeEiKHulRUsJj3+cZL+0ytDr6TWhvd/y7YQ1oeavUyGEWZ0UmaeqPCjXRB6UT5sPk+nkNw29KLX5/Q8/2j/55GB+/vnp70v+GvZCQrIXhl7UKmZH6BUfH28vTUpgYKDkz59f1cNUh4lh6EVSCkMvQlzA0ItaxcwMvT744AOnYeiJRSfgm2++qT7k/PDDD/a9kjJt2jRVv23btvaSZ/OHP/xB7VO4cGH1DSGSc2DoRal7ihFOU2fPd3ofgJjyr2jRYvLSK6/KuMnTpcXrb6pRXvkLFEhSd/A7I81DoAcfSfT1EHlQ81WnwOD9fNXl/ms9JDoq3qibUaGX41peJ85fMa0DE6Y03G/UTezm3QfU+6HZvoUKFZbz/hkXEjH0crg2bD4s+7zT9uibYfJ+3mpJ6j3Lh0XqSsyFm05tpUWMMErcNkMvmpwMvUT+z/Yc6N8VjBYjxB1g6EWtoruFXt9++61UqlRJ1WvWrFmSfnyGXiSlMPQixAUMvahVzM7Qy9G6detKSEiIfU9nGHqR1MDQi1L3E2tzvf5mG6dwp0iRojJ6/EQ57ns5ydpdCMguXLslU2fNk2LFihv75M6dW15q1lyCIuOMutEh0XKv23B5v6DzSJn7Dd6Uuz6+aio4x7YzKvSatWCJ0eas+UtM66gpDTc9ndIwOV1NdThrwWLTfdIiQ6+n1we8166fcx3b64SgNHG9Z3mvdR/ndtLo3a0Hk7TN0IsmJ0MvkV//+43xu4LpEwlxBxh6UavobqEXqF+/vqrXpEkTNbOQIwy9SEph6EWICxh6ZYxYgNLX11eOHj0qhw4dkt27d8vOnTtl//794uXlJSdPnlTPdUxMjOn+NP1mVeiF9hFEwU8++UQePnwoZ8+elVGjRqmFSVGnatWqairDxDD0IqmBoRel7ueMuQuN9wPcvvDSy3LywlXTuon1D46UVq3bqsAL+8Pho8fKnZiHErtquzys2NQpJMC6XfET5kv0nfum7WVU6LV932GjzXYdO5vWQWjneOyL128ZP98Ii3YK+xYuX23aRuOmLxp10itDr6fXCXxQvbncufu+sT06MCJtI73KNZGYc/4ScysyXcYPGJ+kbYZeNDkZeon88u+vjd8VrCVGiDvA0ItaRXcLvX7++WepXr26qvfKK68kWcaCoRdJKQy9CHEBQ6/UiTfIqKgo9aY5b948adGiRbJT+ZiJjq46derI8OHDVRgWEREh0dHR6g3R7Hg05WZV6HX58mV7aVLu379vXA+zZs2ylz6FoRdJDQy9KHUvdx/yUX+PtW+2bf/MkU9mjho30bZ/wntKlf/JI2FlGzqFAwgrsD5TdLR52KXNqNDrmO8lo80XXnzZtM6VoDCjzsr1W6R7z6cjgpasXi8r1m+WqAcfqfu4rVAxYcqWxOp90itDL4frxe69bsMkOjJeom9Fyf2Og0zrZKcMvWhyMvQS+fmLfxm/Kx9WaGovJSR7YehFraK7hV5Yr71UqVKqHvqIEsPQi6QUhl6EuIChV8rctm2btG/fXg1BxptTSqe6e5aFChVS3/Bo3ry5TJo0ia9BOnSH0Asg0EK9YsWKJfnGDkMvkhoYelHqXrZ4/Q319xji55CYB6b1nmVo7EPp0+UtWZmrpETlruQUDDyo2kzuHjgpd+Ieme7raEaFXn43bxttVqlazbTO4HdGqYBv0vTZUrhIEafQa9HKtZInTx6ZMGWGqjNizHjTNuDVWxHGfumRodfTa8ZTZOhFk5Ohl8jPf//M+F350PY+QIg7wNCLWkV3Cr2ePHmivgSP/qXSpUvL559/bt/yFIZeJKUw9CLEBQy9khdTES5fvlyt0aTfuDJbBCVDhgyRwMBA03OiyesuodeIESOM1/Obb76xlybA0IukBoZelCZ45MQ5WbN5u80dsmX3AaeQ5tzVAPu2BDfu2KvKMdrI65SvLFm1Tlas2yw+Zy6o8nVbdznVhzv2HzHaS86bYTFSsFAh4+/70bN+pvWe6f0PJXb9XnlY5WWnQOBe4VoSN2aOREenPEjLqNDr/LUgo82q1RKmWjEzf/6EKXxh4tBLl+tpfpPzeugdY7/0mNNDrwflmnic0WGxpo+FUoZeIj/9+f8Zf1s+sv2dIcQdYOhFrWJ2hF779u1Ty6DAoKAguXLliuzYsUNeeukltR39O1gGxQyGXiSlMPQixAUMvcwNDQ1VUxfqN6ysFp1Ghw8fNj03aq67hF7Dhg0zXsfvvvvOXpoAQy+SGhh6UZpg17d6qr+DCF0whSymCt510Edtmzl/sbEN753lK1RQ5bMXLlN/twsULCj5beUYwRR1/0MpVry45MufX+2D0UnY77lGTZyOZ2aP3v3UPrBBw+dN67j0wUdqnaWHtV8zOjbhA5uncpWTNi1amu/nwowKvU5d9DfabPpSM9M6iU0u9HIlXg+9T3rN6aEXpVaSoZfIk0//ZPxt+U291+2lhGQvDL2oVcyO0Cs58f8Hvlj/xz/+0b5XUhh6kZTC0IsQFzD0Mrd79+5Ob0zZYZkyZSQkJMT0/GhS3SX0atWqlaqHb/AkhqEXSQ0MvShNUIdeJy9cFZ+zF6VkqVLyRpt2apsOvXzOXJTLgaFy9Va4Kn/l1dekWvUa4h8coUaGnbhwRZXj5/3eJ1Vw9lavvnLxRrCxjytL296TcRx47spN0zrJGf3gQ4kfPlUelnzO6NSED0s9J+3+p6Dks6/vZbavKzMq9Nq656DRZscuKfv8k5bQ68VmzY190itDL0qtI0MvkR8//sT42/Jxwzb2UkKyF4Ze1CpmR+iFYKtJkyaGFStWVOVY3uT777+372EOQy+SUhh6EeIChl5JjYuLU4GTfrPKTufMmWN6jjSp2R16Yf0uDFnPnz+/5MuXTwWWiWHoRVIDQy9KE9Shl9+NYDlx4aqUKl1aOnTuprbp0AvTGG7csUf2HDmmyhFoYZTX1Nnz5UqQc6iF6fwQeg0c+o5TeXLejrlvTNuHv/G3U7qW170P5O62Q/Ig0VSGD4vXl/ihkyXa1m7ZcuVVuxChnWk7yZhRodfE6bONNucsWmZaJ7FpCb3mL1tp7JNec3roFX0ryuPE1J5mj4VShl4iPzz+2Pjb8tsXOthLCcleGHqlTSyTcevWLfH391fP2+nTp+X48ePi4+MjR44cUbe4j3JsRyCD+tHR0abt0fTrDmt6PXr0SK3pj21Llixx2XfP0IukFIZehLiAoZe5DRs2NN6sskuELCdOnDA9P/r/2bsP6CiqPgrgQui9t4Tee5EuIqIogiJFQECRDoICiqICCoLwgfSOdClK70jvvacBoXcIIRACSUi/3/5fZjc7ySQkkLJJ7u+ceyCzM7ubZJPdzN33XuQkVOm1atUqvHjxwhJ5l869e/fQu3dvtY+kVatWqgSLiKUXxQZLL4YJi7n0MidbtuxYtSmscDCXXvJmg7Rp06F8xbCpCvceO4sKlauockuKqj+nzrJcX2xLLxkJZp4SMXuOHNh3/JzhfrqYbv9MnY8tJzFV7Bxw1qEmjm3Za9mvZOkyls9r8crYrRMWV6VXTaupFf9Zt0V9bYz2s05sS69MmTJj7da4K6dSeullvg9JKUf3HTP8XBiGpRfgd9bZ8rNy6c2m2laixMXS6+WRYkNKFDmXJus19enTB5988skrp1evXpg8ebJaA+rEiRPq+o1ul4ldbKH0Eq1bt1aX5cyZEw8ePNC2Rvbpp5+q/WT/mFq3bp06xt7eXttCKQFLL6JosPQyzoQJEyxPVomVjz/+2PC+McZJqNIrR44cami6JH/+/MiVK5eal1kukxOF8tiJuJaXGUsvig2WXgwTFnPpJaOQ5Pds048/tVxmLr3mL1uJNVt3YePO/ZbL9p1wxJzFy1G4SDHkzZcPh7SRJrEtvWQKxDRp06rbyV+wEPafdDLcT8V02ameP+Jc9rK6E/7n8lTCiT9nmy531u1frkIldb3qc1i6UnfZyxJXpZcUelv2HrZcb5eeXxvuZ53Yll71GzTEwdMulmNeNyy9wh9bSSUsvZiowtIL8D1xzvKzcrluc20rUeJi6RV1pDiRUVsDBgzAF198gRYtWhiWWK8aKT3keuX6+Ubo14+tlF5Pnz5F4cKF1eVNmzY1fKO06NKli9pHpkWMqXHjxsX6GEr6WHoRRYOlV9T55Zdf1LskzE9aCRWZQkmeAPn9iF0So/SSyMeyPW/evNG+W0ew9KLYYOnFMGExl147Dh7HkBGj1RsN/vhzsrrMXHr9vXK9GpG1Zc8htX3m/CVYs2WnmpqwReu2yJAh4yuXXjsOnkC6dGHTG2bJkhV7jUZ6yVSGM//G2XINdSf6z2UqgVOtuodN7xbxGFPyFyiorlci5ZrRPgkdKQ5lCknz/TJKvQYNLV/PDp27Gu5jTo4cOXVlZFzEuvRKrNha6XWmTnOcGPAbTvwwCmeqNTHcJ0axc1Al7dm8r5Zz6YsZXi9LLyaqsPQCfI6ctPysXGnwqbaVKHGx9IocWQpj2bJl+PLLLw3LqviKlCBSfsntG90vJvrYSuklxo8fb9lHfq6MWO9z584dbWvUgoKCUKNGDbV/p06dtK2UErD0IooGS6+XZ+DAgapwiMl0P68aKVRkaqaGDRtix44dhveDiT6JtaaXt7e3enzIZaNGjdK2GmPpRbHB0othwmJdeh0+ex6Vq1VHQXsHNXLIXHqZkz1HTnWM9Qgq+f1do2ZtdaxcFtvSS2Keg1+y6/Ap/eWHTc9D77XXneCXnC1SC8c2R11kyf2R537z9e4/6Wi4X2Jk/rJV0b7ukcs+NH1f3n3/A8PLzZGv/chxEw1v43XC0kt/X87lrqi7/Oi2/XBMUzjSfi/LucwlcWzNf7rrepWc/uiLSNfN0ouJKiy9gOf7j1p+Vq42aqNtJUpcLL30kekGf/zxR8NSKqEyePBgw/vGRB9bKr2koCpWrJjap0KFCggODtYuCWd9/um3337TtkZNzlGZb3fx4sXaVkoJWHoRRYOlV8xy4MABteCoFGCVKlWyPAG9bmSRybZt22LatGlqoVOj22ZilsQqvYTM3S2XpUmTRi1QGhV5kSz7vf3229qWl5M/NuSYrFmzquHwlHKw9GKYsMhaV+OnzcaBU2FTA67ctF19vGXPYTWlofzfnCmz56t9lq/bgjETp+GX4aMwfd5iXVG159hZTJg+B8vXbrZse1mq1aipfhdLOnfvHbb9pBNOfv0LzuWrrDu5fy5HOZwYPQ1HD5+OdD3W+XHocMt1ymgoo30SM4OH/W65f68SeU6UUtI8Iiwuw9JLf19ON2qj38f0NXdMWyTSfi/L6bdb6q/nFXN84l+RrpulFxNVWHoBz3cfsvysXG3SXttKlLhYeumzcOFCwyIqIdOyZUvMmzfP8P4xUceWSi8h5xdlzWHZ7/vvvzc8jy/b5XJ5453MQhUQEKBdEk6mR5Q152XZDdm3Zs2aas15SjlYehFFg6WXcaSUkJIruuHj69evV4uVyhNQz5491SKTMi1h48aN0aBBA7z11ltqRE+TJk3QvHlzdO7cWT1x/e9//1MFzf79+w2vVyLfFylSfv31V8PLmchJzNLL3d3d8kJDSsyofg+bh6mXK1dO2/Jy27ZtU8fI9InPnj3TtlJKwNKLYWwnsjaY9cinXVPm4Wz1D3Un9R3TFsbp5p1xdPsBw+uwzt7jZ5Enbz7L9f02epzhfomdiTP+Qs5cuS33M6bJlTuPGuF16GzcF16S1ym9TrXrgyNnz6tpAI0uj2lsqfQ6W7QWjhwPHyl4dMfBVxvpla8Kjq3eiqO7j7xWTrXvE+m6WXoxUYWlF/Bs217Lz8q1jzg1FdkGll76DBs2zLCISuj06NHD8P4xUcfWSi8psOS8oeyXM2dOXL9+XbsknLzh2byPpHjx4ujXr586Bzlz5kwMHToU9erVs/x9UrFiRdy7d087mlIKll5E0WDpZRzzE4s8cciczfLEaLRfXEYKtn379qknMnl3tNz+Tz/9ZLgvEzmJWXoJeZyYHzf//vuvtlVv+/btlut5/PixtjV63bt3V/uXL18e/v48KZCSsPRiGNtK8ZKlkPmNVBiXKpfuZL5aA6lQdRzdusfwOKOMnTzd8nyQO09e7DoSYcpEG8snLduYXpuET8UYVeT1S+MmTdU6aEbXE1d5ndLLUladPa+moDTaJyaxtTW9Tjf7EkeOnVXl0pkmnxvuk5hh6cVEFZZegPfmXZaflestvtK2EiUull76TJw4MVIBlRgZPXq04f1joo6tlV5C3tCcJUsWta+8WV5GbRkZMGCAGhVm/rvBOrJNpkr/7LPP2AWkUCy9iKLB0ss41k8k8s4Je3t71K9fHz/88APWrVunnsCMjottDh8+rF48ySgxKTWs1wyRsPSKeRK79JIXLUWKFFH7yEgumas5InkHj3kYe9++fV/6+/rWrVtqWkPZ/6uvvuLv9xSGpRfD2FbmvNcS21IV0J3IP5e2CE7+PAZHD8W8tJr210JksHq+lzXLzOuN2XJkLbTRE6aiSdPmKFGqtHo+k9ct8v93GjfB7/+boKaMTIjP5XVKr9OffKWmnjzZ9xfDy2MaWyu9bD0svZiowtILeLruP8vPyo3W3bWtRImLpZc+hw4dQu/evQ2LqITK119/jWPHjhnePybqJFTpJTMAybIlkpgsTSH3xby/j4+PtjWyGzduqBmAZA15eZO8PA6GDx+uSrZLly5FWZhR8sfSiygaLL2MYz4RFVWyZcuGGjVqoEWLFuqFz++//45x48ZhxowZUUaeoGS6wm7duuH999+Hg4OD4bs1rMPSK+ZJ7NJLnD171lJcyvQHRr+PZToCuTxTpkxYsmQJXrx4oV2iJwXZRx99pPbNnTs3bt68qV1CKQVLL4axjRz/ey3O1P5IdwL/VOpCmJwmL4b3/wH7T4RPKxddZE2yMROnqpFd8rtdUrZ8Bew7cc5wfybqcE0v4/tky2HpxUQVll6A16pNlp+VG+17a1uJEhdLr8iRNy3LOZ327dsbllLxlU8//VTdbnRLZDBRJ6FKL6KExtKLKBosvYyTPn16ywmpxMzPP/9seP+YyLGF0kvIqD3z909KMCO1a9e27FOqVCnMmTNHvUPnwYMH6p1b3377rWVEmIw0XL16tXYkpSQsvRgmkXPKBafa9daduJecTOOAqm+E/Y6WvNWwEbbtPxblCCfZLtP9tW7XUfdmF/n9/u+G/wyPYaLP60xLGFc5tmGn4X1LiJzLUd7wPtls0hXF0f3xO+Ulk3TD0sv0mm/5OsvPy60vvtG2EiUull5R58iRI+pNri1btlRvhDYqql43cr1y/fJGaBllZnQ/mJiFpRclVyy9iKLB0ss4MlTYXDokZBo2bIhvvvlGjRqTBSoPHjxoeP+YyLGV0uvq1atqFJfsKy9Wjciwdxnx97KRfiVKlFDrvHG4esrE0othEi8nRk3B2cL60UTnMpbAqQHDsWHtFpSvUEn3+zqj6ff+m7XrYODgXzBlzgIsXbMR0+ctxs+/jUSd+g2QNWs23f5FihXHwn/WGN428/Kc7D5I971J0Ng54PSHHXHkjKvhfUuIHN28BydNj8WT3wxLEjkxenqifr0Y2w5LL+Dx4lWW3zG3ugzUthIlLpZe+hw9ejTSNvlbXd6gOn78eHTp0iVScfUq6dq1K/7880/1Nd+7d2+k2+Q5otiHpRclVyy9iKLB0ivqyJy5siCkTENofaIqriOLV8rt7Nq1y/B+MDFLfJZed+7cQefOnfHll1/izJkz2taoLV68WO0rkRLMiPyuPnHiBL777jt88MEHqFevHmrVqqUWMe3UqZP6fAICArS9KSVi6cUwCZyz53FsxSacebulvuRIV1RtO7Z2m2Xf/Scd0ebzTkiVOrXhc3t0kTWxdhziqBeGYRgJSy/g8fx/LM85t3v+oG0lSlwsvfT58ccfMWnSJOzevdvwcnOkCJM3yi5duhSzZ89Wa7j/73//w4gRI9ToMPl3zJgxartcLvvJ/i+bunDnzp3q9mVqRaPLmajD0ouSK5ZeRNFg6WWckydP6j5evny5Wl8pbdq0sLOze+kInZhGrmvevHm622JeLfFZehElBpZeDJOAOe2CU70Hq1E81oXXuaylcXzGYuNjTFm3bQ+qv1lLPZ8bPc+bI1MZlipdFv+u32p4PQzDMCk1LL0Az9lLLM87d77+WdtKlLhYeunTv39/y2isX375RY24injeKK4j1y8lmix7Iet6yW2z9Ip9WHpRcsXSiygaLL2MU758efWOm4jbZe7mtWvXYtasWRgyZIgakfPOO++gZMmSyJZNP3WRdWSNMNmnevXqam7mQYMGYfLkyeodPdbXv3LlSgwcOBDvvfcemjZtqv6/Y8cO3T6McVh6UXLD0othEiBnz+PEn3NwtkRdXdnlmKE4Tn7zK47uOWJ8XIRImfXd4CFo0botqlSrgUyZMqNSlWpo/mkr9OzXH4tXrMPB0y6GxzIMw6TksPQCHk1fYHn+udt/mLaVKHGx9NLHuvSSSAklUxHKuZ1p06Zh48aNaiYXo2NjGim5Nm/erEaAyYwwcv2yrpf17bL0in1YelFyxdKLKBosvYwjRZWs6dWxY0c1VZ08MRrtF1eR+aF/+OEHZMiQwbAwk4Itvu9DUg9LL0puWHoxTPzm6NptON38S33ZZcqZOs1xbNl6w2MYhmGYuA1LL8Bj8lzLc9C970doW4kSF0svfSKWXkaRIqx79+7q3M7IkSPVWl8ys8+iRYsiRbbL2l1jx47F4MGD1ZrfRtcZMSy9Yh+WXpRcsfQiigZLL+NELJ5kFFe/fv3U10jefXPq1CnD4141X3zxRaTbjJi2bdsaHsuEhaUXJTcsvRgmnnLaBSe/HwnHtEV0Zde5LKVwfM4y42MYhmGYeAlLL+Dh+JnhpdfgP7StRImLpZc+MsWgUQmV0OnQoYPh/WOiDksvSq5YehFFg6WXcYxKJ0maNGlgb2+PKlWqqGkK+/btqxYhlWkJt23bZnhd5si0iDNmzMDw4cPxzz//WLZPmDBBtxZInTp11Lt9Ro0ahTfffNOyPWPGjFi1apXuOpnwsPSi5IalF8PEfY5PW4izZd/WlV2SU18NxNHtBwyPYRiGYeIvLL2Ah2OmWZ6P7g8Zq20lSlwsvfTZv3+/Kr7kPJBRGZUQkdFme/fuNbx/TNRh6UXJFUsvomiw9DKOuWiKryxYsMByW40bN7Zsb926te5+yBpitWvXtlwuL3SsL2fCw9KLkhuWXgwTdzm22fQap3WPSKO7zrz5IY4vWWt4DMMwDBP/YekFuI+cZHleejB8graVKHGx9IocmfFH3vAs5Zes7x6xlIqPfP7552rdsGXLlhneJ+blYelFyRVLL6JosPQyjqznZS6a4iOyOKn5tkqXLm3Zbj0CzBx5gWm+vFixYpEuZ8LC0ouSG5ZeDBMHOXseJ4aOhaOdg67sckxTGCdGTTU+hmEYhkmwsPQCHgwbZ3l+ch81RdtKlLhYeulz4MCBSNvk6yLrcclaXjICLC5Ggcl1yPUNHDgQq1ev1t2elG5G54yY6MPSi5Irll5E0WDpZZzffvstXosveaI135b17Rw9elR3P8yxPtbocoalFyU/LL0Y5vVyfOFKnK30riq4rAuvU2174dh/+wyPYRiGYRI2LL2A+z+PtjxHPRw7Q9tKlLhYeukjo7tkqYrDhw9HukzKqJ07d2L9+vVYunQppk6dit9//x0//fQTevXqhW7duhlGrnPIkCGYNGmSGsm1bt06bN++3fC8kEyvKAVb+/btI13GRB+WXpRcsfQiigZLr6gja3S1atVKreFlXTrFRaxvJ6rt1onJPik9LL0ouWHpxTCvlqM7DuBUh744Zz26y/T/sxXfxfE5ywyPYRiGYRInLL2Ae4N+tzxfeUz8S9tKlLhYeunz3XffqZFYn332GaZMmaKKlJMnTxruG5c5dOiQKsN+/PFH/PLLLxgxYoThfkzUYelFyRVLL6JosPQyzr59+3QfL1++HB9++CFSp06NVKlS6UqoV4n1dUe13Tox2Selh6UXJTcsvRgmljl7Hsf/nB1edJlj54ATP4w0PoZhGIZJ1LD0Au4O+NXynPVo6nxtK1HiYumlj7n0sk7Hjh0xb948NdLLHKNjYxrzdaxYsQKzZs2KciYgJnZh6UXJFUsvomiw9DKOjO4aM2ZMpHfuHDlyRM2rPH36dDVUvUOHDnj77bdRokQJZM2aVVdORUyRIkVQp04dNGnSRHed1vtYb7dOTPZJ6WHpRckNSy+GiXmOrd6KMzU/0q/dlaYwznzSBcc27TI8hmEYhkn8sPQC7vT9xfLc5Tnrb20rUeJi6aWPUellTsuWLdGpUyf06dNHTVk4efJkzJ07V011KKO0/vvvP0tkCkR5U7VcLiPGRo8eraY47N+/P7p06YKhQ4eqksboPjCvFpZelFyx9CKKBksv40i5JKO6pNCSFyy7du0y3C8uEpNCKyb7pPSw9KLkhqUXw7w8R3cexKkeP4QXXVrOln0bxyfONTyGYRiGsZ2w9AJu9/rR8vzlOXeZtpUocbH00ie60isuItMmjhs3DidOnNDdroz2krJMvgf//vuv+nf37t26fZjow9KLkiuWXkTRYOllHOuSSWJnZ4f69etbhq4bHfOqsb4do8slMdknpYelFyU3kUuv8wzDWOXYwpU4l7W0ruyS0V2nvv4FR864GB7DMAzD2EJYelm71fU7y/PY40Urta1EiYullz4yGsuorIqrLF68WHd7ct5JRoO1a9fOcP+ePXuq83nWxzDGYelFyRVLL6JosPQyjnXJFDGZM2dGsWLFUK9ePTRr1ky92Pjf//6HmTNnYtWqVZEi0yHKE6vR7Uisr9vocklM9knpYelFyQ1HejGMcY6t3Iwz9T7Rl12mnP6gA46t+c/wGIZhGMY2k5JLr9CAAHhMnIPzhapbnsvu9PoRoYGB2h5EiYellz779+/H8OHD8emnnxqWUK8TGeFl/ebqDRs2qKkOjfa1TosWLfDrr7/i4MGDuvvK6MPSi5Irll5E0WDpZZx06dLpiqbXSaZMmdRwdLleeTGSP39+w/1eJVK6RbzvKTUsvSi5eebjZ3hyiGFSao7uO4ZTA0fgXKaSurLrbLE6ODFmOo6ccTU8jmEYhrHdBAQGaa98UpbA2/dwqdZHuuczc642aoPA++7ankSJg6WXceRrIaO+OnbsaFhExTZt27bFgQMHLNe/cuVK3eguKdlkvbC+ffti4MCB6NatmzrG+joGDBgQaVpEJjwsvSi5YulFFA2WXsYpXry4Ycn0KmHplTBh6UXJ0TPfF7jj/gi3H3gwTIrO9XX/wSl72UgnBt36DTHcn2EYhrHt3H3oCf+AlDmiKfDeA7jkKBfpOc06F0rVR4iPr3YEUcJj6aXP4cOHdR/LyCyZ2UcKJ+sCKraRUV7Wt/H555/rLl+0aJHudiWyzte3336r2++bb76JtB8TFpZelFyx9CKKBksv48yaNSvORnux9EqYsPQiIkp+/K/cwLXmX8IpQ3HdycBrH3aA31kXIISve4mIKGm53WOQ7jnNMVUh/b8SOwfcHzpWO4Io4bH00mfw4MFqWYtjx45FukwKsH379mH9+vVqba7x48er0WBSiMlyGDI6y5xevXqhX79+atTWL7/8oru+oUOHWkqs9u3bq7LG+nasI+WNnLeSKQ5l/5YtW6ppEY32Telh6UXJFUsvomiw9Io68o6aatWqIU2aNIaFU0wT29IrderUKFKkCOzt7Q0vtw5Lr/Cw9CIiSj5CnvvAY9JfcM5eJvwEoCkXStTF43nLtb2IiIiSlsAHD3XPa7qiy+Bjr3/X4+maLQyT4LkwbS5W9x6osv3nETi9b7/h3+EpJf3791flUufOnTFjxgzs2LFDtw7X62bbtm2WwqtVq1ZqFJnRftY5efKkbqSZFHNG+6X0sPSi5IqlF1E0WHq9PFKmSAllVDrFJLEtvWrVqmWZj7lChQqG+5jD0is8LL2IiJIHv7POcIqwbpfkVtfv5IWuthcREVHS4zlvefhzW8TCyyipDLYxTCLkXIWGhn+Hp5SYSy/rdO3aFbNnzzbcP7aR8xjm6/3xxx8N9zHK/v37dffJaCRaSg9LL0quWHoRRYOlV8wi76CRoeJjx45Vi4aWLl3asIQySmxLL+u5mOW2jPYxh6VXeFh6ERElbcGeT3CzQ184ZSyhO8lypcGn8Dl6moUXEREleQ9GTAx/jmPpxSShnMtX2fDv8JQSo9LLHJliUEaA9e3bV01Z+Oeff6oybOnSpdi8ebMaxWUdObe0ZMkS3Tm40aNHW65vwoQJutt+WTp06GA5NiYjxFJaWHpRcsXSiygaLL1ePVJgyQsVmddZ5mmWOZcbN24cKR999JHlaxuT0uunn36y3AZLr5iHpRcRUdIkUxl6zlkCp0z6sut8sdpqikMiIqLk4u6AX3XPdS/LpWpNcOOzngyT4HH58HPsffN9lcPvtsKZv/81/Ds8peS7776zFEtxlRUrVliu/4cffrBsX7hwoe62XxbrKQ6XL19uuE9KDksvSq5YehFFg6VXwoalV/yFpRcRUdIT9OAhLhSvHekk3/XmX6oyjIiIKDnxmDY//PkuBiO9vFZs1I4kSlhubm6Wv6/XrFlj+Dd4Soq82dlcLMVVZs2aZbn+3377zbJ96tSputt+Wbp06WI5lqVX5LD0ouSKpRdRNFh6JWxiUnp16tTJsj9Lr5iHpRcRUdIR5OGJ210HwilDMd3Jvcv1Psbz/Ue1vYiIiJKXp+u3hT/vxaD04nMiJRaWXvocOHAAvXv3tpRLcZFx48ZZrl+KLvP2YcOG6W47uhw+fBiffvqp5VhZ48tov5Qcll6UXLH0IooGS6+ETUxKL3t7e8ycORNTpkxB9uzZDfcxh6VXeFh6ERHZvhAfX3it2ADXAlV1J/VcC1XDg+ETEPrCX9uTiIgo+ZFRzC45y4c/B0Ysvqw+dsldESG+ftqRRAmLpVfkHDt2DMOHD1dvTjaXTK+TX3/91XLd69evt2yXNbpiUl6dOnVKNwJNlt0w2i+lh6UXJVcsvYiiwdIrYROT0kuSKlUqw+0Rw9IrPCy9iIhsW+Dd+7hYsZH+5J4p1z/5ilMZEhFRiuEx1WqKQ4kUXeZYbffeuls7gijhsfSKOocOHVKFVYsWLSyF06ukc+fOuutt06aN5TKZsvDkyZO6yyNm9+7daNWqleUYTm1oHJZelFyx9CKKBkuvhE1MS6+YhqVXeFh6ERHZpqBHj3Gnz09wzl5WdzLPrcp7eLbzAEIDg7Q9iYiIkj95o4e84cP6OTFibnX+FqEBAdoRRAmPpdfLI1Merl69GtOmTcPAgQNfaQTYkiVLLNe3YcMGtG7dWm2XQq1v376qsLG+TXNkdiDr2/v8889x5MgRw31Telh6UXLF0osoGiy9EjYsveIvLL2IiGxLaFAQnq7divPFautO5DnnLIf7Q8dyKkMiIkrRbnf7Tj/VoTxHZi+LO98M0fYgSjwsvV4tu3btUiOuZs2apdbs+vnnn/Hjjz9GGZme0HysTFc4evRo3QgyKcGGDBmiSq7Fixdj4sSJ+Prrry2XmyMjvtatW6e7L0xYWHpRcsXSiygaLL0SNjIH9IABA9CjR484ifXCpyk9LL2IiGxH4H13XCz7NhztHHQn8640bMWyi4iISISGIsjdAy55KmhTGxZCwI3bajtRYmPplXj5888/I5VaMYmUZTJazOg6U3JYelFyxdKLKBosvZjkEpZeRESJT6ZiuvfDSLjkqagru84XfhNPN2xDaGCgticRERFJwXXe4c2w50s7B7X+JZEtuHz5suXva5nCz+hvcCZ+IiO+Vq1ahX79+hmWWxIZ2SWjvqSQ/OqrryzbZZrD9evXG15vSs3mzZstj2VZJ40ouWDpRRQNll5McglLLyKixCNTGXpv2aXKLeuyyyVXedwdOFxdTkRERBGEhOC8Q42w5800hRF494F2AVHiunv3ruXv63/++cfwb3Am/iMjt8aOHYsffvhBZfDgwZg7dy727dtn2UfO63Xs2NFSfLVs2ZJTHVpFvhbmx7Krq6v2CCdK+lh6EUWDpReTXMLSi4gocch0hVcatIw0leGFsg148o6IiCg6wcE4b6+VXmmLIPAenzfJNri7u6tyRf6+XrZsmRp9ZPR3OGMbOXz4MDp06GApvj799FNOdahl5cqVlnNFN27c0B7hREkfSy+iaLD0YpJLWHoRESWsUP8AuP8+ES65K+jKrvNFasJrxQZ1Ii9ePbsJXFsHuMwGTvwOHBxoSn+GYZJajg0DnKYCl1cAnk7aDzhRyiAjoc/bV1fPn07piiLwnrt2CVHi8vT0xLx589Tf1/K3Nksv28+2bds41aFBFi1aZDlX9OjRI+0RTpT0sfQiigZLLya5hKUXEVHCCA0MwvN9R+FW6V1d2eWcvSxudf0OwU+8tD3jmuk17tOrYSXXpmbAIgeGYZJjVtUBTo8GPM6YfuxDtJ9/ouRJ1rp0LaSVXumLIfA+Sy+yDb6+vliwYIH6+1rKr+PHjxv+Hc7YVv777z/dVIetW7fGgQMHDPdNCTl06JDlPJGUXyEhfF1ByQdLL6JosPRikktYehERxb/QgABc/7QrHNPopzK8WPZtBFy7qe0VT47/CiwuZnySnGGY5JfFRUx/rLQCAp9rvwSIkh95XnUtVC2s9MogpddD7RKixLdmzRrL39gyisjo73DG9mI91aEUYCdOnDDcLyVk8+bNlsewnPMkSk5YehFFg6UXk1zC0ouIKP7Iul3uY6ZZpmAyR9YhebJkNUJ8/bQ948GFRcCqWsYnxRfaa/83/8swTJKN5ec5QpaVBU4M134hECUv8vzqWlArvTKWQOADll5kO65fv275G3v+/Pk4duyY4d/ijO1lx44dWLp0qSrAjC5PKbE+T3T58mXtkU2UPLD0IooGSy8muYSlFxFRPAgJhc/R07hcv4Wu7HLKUBw3O32DIHcPbcd4EBIEOE03PgnOMEzKy55uHPVFyU6I3wu4FqyqnludM5VE0IN4fF4legUrVqyw/J29ZcsWw7/FGcYWYz3KS6bqlCk7iZITll5E0WDpxSSXsPQiIopbMnrr5ud94JS2iK7wulCqPgJv3ZEXndqe8USmM1xUOMKJb47oYpiUE9PPe8TRX+vfM/3uCdZ+SRAlffJc61pAK72ylIrfN5MQvQIXFxfL39lz587F0aNHDf8eZxhbioxwk7XozI/dGzduaI9oouSDpRdRNGSRS/OTAEsvJinHuvTy8vLSHuFERBRbocHBeDRtAS6UqKsru5yzlobnzEUI8X6m7RmPrq8HlpS0OtnNsothGC3Hh2m/KIiSvhAfX7jmr2J5ng16+Ei7hMg2BJteF27atMnyt/bixYtT9BpRjO1HpuFcsmSJ5TG7fv16hISEaI9oouSDpRdRNA4ePGh5IuDCpExSjswxbn4sBwYGao9wIiKKDd9TjrjaqI2u7JKF9W+2641gzwQaRfvonP4Ed1Tr/DAMk4IS4ffAxcWmXxb8u5eSvpDnPuGlV7YyLL3IJj179kz3JlNZK+rIkSOGf5czTGJGCq/ly5frHqvy+CVKjlh6EUXD0dHR8mSwYcMGwycNhrH1nDx50vI4lrmaiYgodkKDgnC7+/dwSldUV3i55CiHF+dcgYR8d+T29vqT2wzDMBGzojrgz5H9lPQFez+Ha77KYaVX9rII8vDULiGyLTKbivV0cfKmUxZfjC3l0KFDuseo5Pbt29ojmCj5YelFFI2bN29angyWLVtm+MTBMLYemVfc/DiWd/IQEVHMPV68EhfLNtCVXfJu84d/zlTvQE9QV1ZHOLnNUV4Mw1jFeuTnyd+1XxxESVfw02eW0kveaMLSi2zZ5cuXdTOsSMGwevVqll9MokZGd61du1ZXeC1cuBCXLl3iOXJK1lh6EUUjICBA98Rw/PhxwycRhrHlyHp05sfwunXrtEc3ERFFyfR68YXLRVxr2lFXdjllKI5rH3ZEwI1EeFdkaDCwoYn+BDfDMIwuEYrwJ27aLxCipCnYyxuuebXSK2d5BD16rF1CZJvc3d3VG03Nf39L5s6di1WrVmH37t04fPiwelOqnFtimPiIPL6kaJXHmzzurB+LEnlDP0d4UUrA0osoGvJ4sX6S2L9/v2GpwDC2HJma0/wYlnXqiIgoevd/Hg2n9MV0hZdzjrJ4vvdwwk5laC3wGbC4iP6ENsMwTHRxnav9AiFKmoKfPIVL3kphpVeuCiy9KEkIDg7G9u3bLX+DW0cKMIm8uZph4iPmx5jR42/Lli148eKF9kglSt5YehG9xK5duyxPEFKAGZUKDGOrkaHs1lMs3LlzR3tkExGRTkgIvFZthluld/Vll0xlOGYagjyfaDsmEscpViezOa0hwzBRxer3w+4u2i8QoqQp+LEXXPJopVeeion/XEwUQ3Lu8f79+6pkMP8tzjCJlc2bN+PevXvao5MoZWDpRfQSDx48UO+WMD9ZcLQXk5SyZs0ay2NX5hPn70AioghMvxf9L13DzQ5f68ouxzSFceXdz/DC+YK2YyIKDQGWVwo/kW29bg/DMExUWVYu7PcHURIlJZeUXar0ylsJwSy9KAl68uSJ+tt806ZN6m/yf//9F0uWLMHixYsZJk4jjyt5fMnjTB5v8rh7/PgxzwNRisTSiygGpOgyFwcy/611qcAwthoZ5WUubGV4O0d5ERFFYHpd+HDsDDhnLqkrvFxylcfzPYcQGhys7ZjIZGpDoxPaDMMwRrEuxn0faL9IiJKeIA9PuOSuoJ6bXfNVViO/iJIqOR8ZEhKipj8MCgpimHiJPL7kccbz35TSsfQiigFPT09L6SWRaQ5PnTplWDQwjC1EFi5dsGCB5TG7cuVK9eKHiIhMTK8HvTfvxKVaTXVll1P6org/ZAwC797XdrQRvqb7Y31Cm2EYJqbxOKP9IiFKeoIePgovvfJXQfATll5ERET0ciy9iGLI0dFRN82hzInL4ouxxRw9ehTLly+3PFaXLl0KPz8/7ZFMRJSyBdy4jds9f4Bj2iLhhZedA6683RIvnM5re9kYr8vGJ7MZhmEMYzXS68Zm7RcJUdIT5O4Bl1xa6VWgKoKfPNUuISIiIooaSy+iWNi7d6+lSJDIiC+j0oFhEisypeHChQt1j1MuWEpEZGJ6Dfho+gI4RZjK0CljcTxd/x9Cg4K0HW3Q4/NWJ7MZhmFikUvLtV8kRElP0IOHasphVXoVrIZgL5ZeRERE9HIsvYhiQebH3bNnj65QkIUid+/ebVhAMExCRcqutWvXqrW7zI9N+f+VK1e0Ry8RUcr1fO9hXGnwKRzTFA4vvOwccLf/MATcuqvtZcNYejEM86ph6UVJWOB9d7jkDCu9zheqjmAvb+0SIiIioqix9CKKJVkXad++fbqpDiUyhdyuXbtw8OBBVUCcPHnSsJxgmNeNTKspjy95nMljcd26dZEej8uWLYO7u7v2qCUiSpkC7z7A3f6/6ssu0/8v1WwKn2Ontb2SAJZeDMO8alh6URImz+MuOcuFlV4ONRD8lKUXERERvRxLL6JXdPXqVcyfP19XNEhkdI0UEHIZw8RnIhZd5vz777/w9fXVHqlERCnTkyVr4JylVHjZJbFzgOe85QgNCNT2SiJYejEM86ph6UVJWOCd+3DJoZVehd9E8NNn2iVEREREUWPpRfQanj9/rkbcLF682LB8YJiEzJo1a9R0hoGBSexkLhFRHPI744yr77fTje5ySlcUt7sPQsC1W9peSQxLL4ZhXjUsvSgJC7x9D845yoaVXkVqItibpRcRERG9HEsvojgQEBCAM2fOYPPmzVi5cqVa52vBggW69ZUYJq4io7ykaJUpDKXokik1OZUhEaV0QQ888GDYWEvRpWLnALfKjfFs215trySKpRcTiwROcsCzHxMnzwc7wH+c8f1KrIQuMN2nsab7ZnB/Ezq+w+wRMsf4fsZbWHpREibrbjpn10qvorUQ7P1cu4SIiIgoaiy9iOKYrPklI22kCPP392eYOI88tuQxFhQUhJCQEO2RR0SUcj3bsR8ueSvpCi8Z3eUx6S+Emn5vJnksvZhY5EoZq+I3EeKc3h4hf9kb3rfEyJM+pt8HpvtkdF8TOk5p7HGjdgJ/bVh6URIWcPMOnLOVUT8/F4rVRsgzll5ERET0ciy9iIiIiChJ8jvnguufdNafWE5TGLe++AYvXC9peyUDLL2YWORCfqufh0SK//9sp/S6WMj4PiZmnvZPwK8PSy9KwgJu3A4vvYrXQchzH+0SIiIioqix9CIiIiKiJCXI8wk8JsyGU6YSuhPJF8u9Da81W+QFn7ZnMsHSK9rsGZzXZmN0f+M7LL3C8/wn4/uX2Llcwh6h843vc5yHpRclYQHXb8E5a2n1c3OhRF2WXkRERBQjLL2IiIiIKMl4vvsQXAtV151AdkpbBA9HT0WI3wttr2SGpVe0eeONN2w2Rvc3vsPSKywhfznYzLSGEeOUzh4BExLoa8TSi5KwgKs3w0uvkvUQ4uOrXUJEREQUNZZeRERERGTz/C9exo02PeGUvqju5PH1T7vA74xz8hvdZY2lV7SxLplSp3oDJfKmQYa0qSzbsmdMjcK57KLdJ75idH/jO9al19Nv7eE73CFBcj5P+O3aQunl/X34/bHFXC5lj9AFxvc9TsPSi5Iw/ys34JyllPqZuVCqPksvIiIiihGWXkRERERks2TR+kfTFsA5W9g7vc2Rd3w/WbZO2yuZY+kVbaxLpqkds6tt277Poz4umtsOPnPs8WKuPeqWTKe2LeuVS+2z44ewfeIz1vczoWJdevmPS7jy6WJBq9u1gdLraoXw+2Oref6z8X2P07D0oiTM//J1S+l1scxbCPH10y4hIiIiihpLLyIiIiKyST5HTsG1YDU42jnoThTf+35Eynq3N0uvaGNdMnnPKqS2hSwM2z6gSRbLfuPbZ1fb5DL5OFTbJz5jvu2EDEsvB/gM0f/OsNXcfsf4/sdpWHpREuZ/6RqcM5dUPy8XyzZg6UVEREQxwtKLiIiIiGxK4N0HuNVlAJwyltCdIL7apD18j57W9kpBWHpFG+uSqXejzLg4pgDGtMmmPi6Q3Q67f8yD08PzoWS+NGrb4GZZTfvkx9jPwvaJzxjd3/gOSy8HBE5ygO9vth+/Ucb3P07D0ouSMH+3q+GlV7m3k+/anURERBSnWHoRERERkU2Q0VuP5/8Dp0xhJ7jMOV+kFh7N/lvbKwVi6RVtjMomW4nR/Y3vsPRidGHpRUmY/8UrcM4U9gaYi+UbsvQiIiKiGGHpRURERESJTtbtkHW6HNMUtpw4l9zq9j2CvZ5qe6VQLL2ijVHZZCsxur/xHZZejC4svSgJe3HhMpy00sutwjsIfeGvXUJEREQUNZZeRERERJRoZCrDO70HwylDccsJc1nD68o7rfF83xFtrxSOpVe0OfFrPpuN0f2N76T00utySfskl+CZxp9LnISlFyVhL1zd4JQx7PWBW8VGCPVn6UVEREQvx9KLiIiIiBKcTGX4dM1WONrpR3a5FqoO9zHTEBoUpO1JLL2Y2CSll17m+5CUEjTd+HOJk7D0oiTshcvF8NKr0rsI9Q/QLiEiIiKKGksvIiIiIkpQMrrrUvUP9FMZ2jngZse+CPJ8ou1FFiy9mFiEpVf4/TDnfG57eHR0gEcne7hkLWS4T2KGpReRMT/nC3DKUEz9nLhVaYzQAJZeRERE9HIsvYiIiIgoQQTed8fd/sPgnKWU7oTv5drN4P3fHoQGB2t7kg5Lr2hTu0Q6m43R/Y3vsPQKvx8S1xz2CLYqlV6MMe1jp98nJnHOYA+vvvbw/dXhtXKtcuTSjaUXkTE/p/NwSq+VXlXfQ2hAoHYJERERUdRYehERERFRvJI1OLw37VRTF1qf6HXJUxEek+ciNJAnsaLF0ivavPHGGwmeDGlToVgeO1S0T4vaxdOhXql0qFo4LUrnT4O8WVMjlbaf0f2N77D0Cr8fkhu19PcldL4DnNLo94lJrlWJm89JirOI183Si8iYn6MrnNIXVT8nbtXe5+sFIiIiihGWXkREREQUbwKu34Jb5Xf1Uxmacv2TrxD8mFMZxghLr2gTsZCKzxTMYYf5XXLi/uSCeD7HHv5z7RG8wAGhCx0QMM8evn/Zw2tmIWwflAcfVMxgeH/jOyy9wu+HxK2I/r5IweT4CqXX+Vxx8znd/zjydbP0IjLmd9YFTunCSq9L1ZsgNJDrfRIREdHLsfQiIiIiojgX8uw57g0cDpdcFXQndy+Wa4in6/5DaBBPXMUYS69oY1ROxXUalkmHrd/lQeC8xCtzYhqWXuH3w5x7H2rTEv5mj9tvR748pnHNaY/LpV4vTmkjXy9LLyJjfmecw0uvGh/wtQMRERHFCEsvIiIiIooz8i5s76274Vqomu6krkvuirj/yxhtL4oVll7Rxqikiqtkz5gawz7JisD5EUYLLXDA7YkF4TIqP078mg9HhuaDs+n/1/4soEZ8We+b0GHpFX4/kkpYehEZ8z3tBKe0RdTPyaU3P0RoENf+JCIiopdj6UVEREREcSL40WNcrtPc8q5scy7X+wSBdx/ICzFtT4oVll7RxqisiotkSpcKZ4bn092WTGU4r2tOVHZIi6wZUiF9mlRIneoNpDIlnen/mdOnQtHcdvi9VTb4J1L5xdIr/H4klbD0IjLme8oRjubSq2ZThAaz9CIiIqKXY+lFRERERK8l9IU/HgwfH2kqwwvF6+DJ8nVASIi2J70Sll7Rxqiwet3kz5YaV8cV0N2OlF1VC6dVBZfRMRFTLI8dRrbKhhdzE7YASumll8+wpJfQ+cafS5yEpRclYb4nz1nWBL1c6yO+niAiIqIYYelFRERERK8kNCAQz/cdxfmitSwnuyXO2cviVpeBCPH10/ak15KESy/fOfbwmFYI9ycXxPPZ8VOEGBVOrxMZwSVTFpqv3/cve/zQNKvhvjFJ65oZ8Wh6Id19js+k9NIrqSZwogN8hsZDVoyBz9FTDJMk4zlvORztwkZwXq7TjKUXERERxQhLLyIiIiKKtRC/F7jW7As4pddPZXixbAP4X7gsL7q0Pem1JcHSa3H3nGqaPxkxlStzauTIlBr5TP8vlS8NxrXLDp85cVeKGBVNr5NRrbPprr9JxQzRju7KlzU1SuRNY3iZObWLp9VdZ3yGpVfSzMUC4V8/hmEi53Ld5nxtQURERDHC0ouIiIiIYizExxfuo6fCJW8l3cmo84XfhOfsJWqqQ4pjSaT0ujG+AHq+k1kVXEbFj3UypE2F9rUz4swI/ZpZrxKj63/VyCgv96kFLdc9omU2w/3MkSLv5G/58GBKQVQpnNZwH3NavZkxQaY6TOml15XS9kkuwTMd4Jwx/OvHMEzkXK73MUsvIiIiihGWXkRERET0UqFBwfA77Qi3ak10J6GcMpXA9U+7IOihp7YnxbkkUHrtGJRHjeiKWPSksXsDOU3b5bK0dqkiXS5Z3CMnAue/eklidJ2vklSmLOmZy3K9sqZXujTG+0oKZrfDFat1v2T0WvWiURdfqVO9gc0Dc1v2j6+k9NLLfB+SUoKmO8Cjkz0ul46H1KiPy/VbMEySjFuVxpafk8v1P9GeFImIiIiix9KLiIiIiKIV4v0c11t0gVOGYroTtRfLvY0Xrm5cYyO+GZRea/rlxjtl06ORKS1rZFTFkfmy86Pzq8vMkX3O/Z4PoQsdsPLrXHizWFpUsk+DH5pmgef0QmhRLYNuf4mMwrK+vagSNN8eX9TLFKnQKpA9NZb3zoW7kwri0bRCak2re5MLYvePeVA8j51uX7vUb6j7EF3xFTrPAZ5d7HGpmD2efqPfz/q6Xie5s6RW64/JdQYvcED9UukM95PIlIY3x4cXXubI5xrdVIfydfGP59FeLL3C74c553Pbw+NzB1Ps4ZK1kOE+iRkpvYw+lzjJpeXaLxKipMfn6GnLml5X32unbSUiIiKKHksvIiIiIjIU6u8Pj8lzcb5oLd0JWpfcFeExcQ6CvZ9re1K8Mii9pnTMoUqUT2tkQIPS6dX/29TMoIqtY8PyqY9rFU+Hz2tnxOd1MqoibP23udX2DytlQMe6mVAkl50azdS5fia0qpEROTOlVqOy5P+93skc6TaNMuyTrGqElFyvpHjeNKqQ8/0r+tJj5w95IpVKcj/954UfFzDBAY862eN6DdNjLnP44881m/66ra/jdVKjaFoEzQ+7zmt/FkDm9MYj08xTGlrfB+u8bKrDFV+HjyaLj7D0Cr8fEtcc+lLpxWjTPnb6fWIS5wz2eNLbHj5DHV4rVytFLt1YehEZC3r4CFffb4eLpd/Cs50HtK1ERERE0WPpRURERER6ptdLfmed1aLx1idmndIXw/XmXyLo0WNtR0oQ0ZReUrDIxw3KpFMjprxmFrKUXvO7ho/+kvzeKmx9qrNRrKNVs3g61CmRThVnRpdHjIwaMxc5kmZVoh+tFTFSjLWtlRFpTPdbjk9tyrxWOfG0vwOuVTI95qIoJq6UjZ/S63+fZbNcp4xSM9qnYI6wotD69o2ipjosYlx8ybpnRsfEVVh6hd8PyY1a+vsSOt8BTmn0+8Qk16rEzefk1TfydbP0IiIiIiKKOyy9iIiIiMgixNcPNz7rCadMJXUnZV0LVYPvGWeEBgZpe1KCiab0OvVbXmzsnxtZMqRCsbx2alo+c+klo42aV82gIlML7h2cV22XKfb+7hF5tFFsS68C2cOnKZRRWq+yLleI6bb6vZMZLd/IhPWp8uOYXRRTz6Wxx6169ngxynTMX/rrMN+H14316K0mFcNGz0XMiV/zWvaRr/WBn8M/PjQkr26kmpRjRtdRsVAayz7xEZZe4fdD4lZEf1+kYJLHU8T9XpbzueLmc7r/ceTrZulFRERERBR3WHoRERERkeI5dzkulKqvOxnrnLU03EdNRrD3M20vSnDRlF7mSMF1f3LYqC9z6VWtSFq0qJ5BRS6Tgml131x4s2hapE71Bt6vmB5PZoStYSWJTek188vw28+RKbVau8tov6gSMN4Bj760x40apsdYFn0BYI6UDHfelTW8wooKo+uRmO/H68bPakrGSvaRR2llSJsKHtPCPk8p+L7/MAsGNMliOWZ6pxz41PS1Nq/Z9Wx2IVVGRrwe+5x2lmPiIyy9wu+HOfc+soffcAdT7HH7nciXxzTnc9rjSpnXi1PayNfL0ouIiIiIKO6w9CIiIiJKyUJC8MLFDZfrf6I7CeuUoRiuNm6LoAcPtR0p0URTel0dlx9tamZE4Vx28J4VVmBFNb1hqNX/f26eVe2z7fs8lm0xLb1k6r7cWcLKnFSp3lDTHBrtp4vpOgMnOsB7gAOuVTQ9xgxG2pwzZWfqAlicPg8efWOP0AUG12MQuR9xkZhcZ8Oy6dXX94t6mdTH37ynL71kW/WiaXF0aF70aJhZd6x1rG8rrsPSK/x+JJWw9CIiIiIiijssvYiIiIhSsDv9hsA5ayndCVjn7GXxbMd+TmVoK16yptejaQWRPVNq1CqeFkHz7S2l15CPs6r/S6QQG9s2O5b3zomb4wtgZMuw9b12DIp96XVmeD61fpgcXySXHV5oI5uMEjrPAY+72eOivT1cMutP9FuSxh5XahZC1XTpkPWN1GoUmvOo/IbXZxS5H3ERd219NEnxPOFTN0aM3D/z/41Kr4j7REyeLKktx8RHWHqF34+kEpZeRERERERxh6UXERERUUoTEoIny9fhYpkGuhOvztnK4MGvfyLY66m2I9mEl5Re8vG8rjmRyvTx4h45LaWXdfb9lBejWmWzlFWZ06dCr0aZ8Xx2eDkR09JL1gaTEV5yPY3KpVfTJlpfrqYu7Bw2daFLNFMXyjRzXn3tETQt7LgW1TJY7m+MRo9pMR/zujkyJHx9rnql0hnuEzFRlV7RpWQ+rukVn/EZmvQSOt/4c4mTsPQiIiIiohSGpRcRERFRShESioBrN3Gt+ZeWk9MSp3RFcbl2M/ifv6ztSDbFoPR61YQssMeDyQURbPrX6PKYZHW/3JYCp/WbGXVTF16VqQvtwh9b1pGi61ple3j3Nz7JP759dsv1fv9h1kiXRxXzMa+bBd3Cp4Mc8WnY9I8vy6uUXrLul/mY+EhKL72YCGHpRUREREQpDEsvIiIiopQgOBj3h4yFc7bSlhPTEpdcFeC9ZTdCAwO1HcnmxGHpFRf532dh5VRaUyaWyRn91IV29rhRyx5+v9sjeKbp+GhGkckIMnMxJCPIjPYxivmY1837FcNv02lkfqS1C1u3LLq8Suklo/TMx8RHWHoxurD0IiIiIqIUhqUXERERUTIWGhyMp2u24FL1JpYT0hLnTCVx74eRCLz7QNuTbJYNlV4ydeHGenkxJVUuHExVUPeYMsc1pz1uN7SH19fhUxfGJLO+DC+N+jTKbLiPUawLpddJ4Vx2eDqzkLpOWQMtunW9zIlt6ZU+zRu4Nq6A5Zj4SEovva6UtU9yUYWwwecSJ2HpRUREREQpDEsvIiIiomQq8NYd3OzQF452DpaT0fL/S7U/gt85F20vsnmJWXrFdOrCnPa4WqEQnn5j/8rrEw38IIulHJr4eXbDfYzyZrF0cZLaJdJZ1kiTLOuVy7J2WVSxLr3M66xFl2GfZLPsH1+xLr2e9reH3wiHBMn5POG3m5ill/k+JKUETTf+XOIkyaz0CgwMhL+/v0pAQABCQkK0S2Lv0aNHWLNmDcaNG4elS5fCw8NDu4SIiIiIkjKWXkRERETJTGhQENxHTYZLznK6E6vO2crAe+N2hLx4oe1JSUIilF6h8xzwuKs9LjpEPXXh2VSF8E+OPHj+qz2CZ5iOi2bqwpikbIE0lnJoY//chvskZEJMn0/Tyhl0pVXElDHdZ9k3eIEDmlWJft+COezgOT1sJFl8xrr0SqzYWukl68k9bOuAh+1Mj+eshQz3Scyw9Iq5r7/+GkWKFLGkXLly+Oabb+Dl5aXtEXPVq1fX/Yw6OjpqlxARERFRUsbSi4iIiCgZ8d66B5frfRJpdNedvr8g4MYdbS9KUhKo9JKpCx99aY8bNezhkkV/Ut4c1xyFcLluITRPnRG53kiN9GlS4dqfrz9dn9v/CiB92rA1tLJnTIWns+K/HIpJbowvgHIFw8s4o5TImwY1i6VD6mhGhRXMboczI/IZ3kZch6WX/r64ZtdPs/litGmfKEYsRhfnDPZ43NMePkMcXitXK0Yu3Vh6xVzbtm3Vz1S6dOmQPXt2pEoV9nujWLFiuH79urbXy128eFEdlyFDBqxYsQI7duzQLiEiIiKipI6lFxEREVEyEHj3Pm53Hag/mZqmMNyqvge/s87aXpQkxVfpJVMXTnr51IWuOcKmLvTqFz51YfvamSyFzkdVMiBw/quXHDKi6s922S3X16B0OjVyymjfxMjVcQV0o9Bim7xZU2P793kMrzs+8jqll3NGe1wqJqOhjC+PaWyp9LpRS39f5DHslEa/T0xyrUrcfE5efSNfN0uvmDOXXs2bN1cfy+isjBkzqm1jx45V24RMg+jq6or58+djxowZOHnyJF5oo5yDgoKwfPlydUzmzJmxatUqdbmQ8wWXL1/GokWLMHXqVOzfvx/Pnz9Xlwm5vW3btsHPzw9XrlzBnDlzcPjwYXWZHCvbzMfu27dPd+zt27fVsQ8ePFC3sWDBAnX8hQsXEBwcrPa5evWq2idiZCpGIiIiIooZll5ERERESZzH5LlwyVMx0olUz/n/IMTHT9uLkqw4Lr1iMnWho10h3HjTHr7DHRAsJ+QjTF34bHYhpLULL3YWdsupuzw2WdMvl+66Fvd49euKr3jNLISmldNb7mNMUyqfHa6Pf/2RcLHJ65ReT3qHFTsBf9rDKZ3xPjGJLZVebkX190Wm4nyV0ut87rj5nB58Evm6WXrFXMTSS9SpU0dtGzp0qLYFGDJkCNKnD/+ZTZ06Nd577z1VLm3evFmNFDNfJmncuLE6btSoUaoIsz5OplB8/PixurxDhw5q+08//WTZz1y2yb8Rjy1ZsqSlsPrrr7/U9tq1ayNTpvA3Dsj9/O+//9Q+I0aMsGy3zvbt29XlRERERPRyLL2IiIiIkqjn+4/iaqM2uqkMndIVxe0uAxFw47a2FyV5cVB6BfzpgEed7VWRFeXUhdntcestezzp5YCgKcbXY50v6oWftM2WMRVWfJ0LoQb7RZcDP+dFkdx2luv5pFoGBMxLvMIkugTNt8d/3+fBx1UzIEv6sCnVjJLGTkarpcfSXrkS5XN5ndLLZ1jY/ZViVB4PRvvEJLa2ptf9j+3hN8LBFHvcaRz58phG1ga7UtaUcq8eozKRpVfMmUsvKY6kvPrjjz9gZ2enpjncvXu32ufUqVNImzYtsmTJokZbubi4qP3lOBn55e7ujsmTJ6uPpaRavXq1OubJkyfIlSsXcubMiV27dqnRWO3atVPXPXPmTHXd5tJLCq13330Xv/32G06cOKFGdOXJkwc5cuTAzp071bEdO3ZU+06ZMkUday69pHD73//+h61bt6oiTra1atVK7SPHyecl+fnnn9Vty9SN3t7e6nIiIiIiejmWXkRERERJTNDDR7jbf5j+xGmawrhQsh6e7wmbZomSkVcpvaynLqxgenxEN3VhOXt4fR0+dWFM82KuPao4pFUnbCVpUr+BcW2zx2g9Lp859ljYPSfsTMeYj8+ZKbVaQ8tof1uL9+xCmNclB3q9kxnvVUiPuiXTodvbmTG+XXZ4TCtoeExC5XVKL5na8PlP9rhW2fjymMbWSi9bD0uvmDOXXtaREmn69OnaHkD//v3V9vLly+PIkSMqI0eOVNu6d++u9jl69Kj6WNYFM4/i2rJli9pWo0YNy3FSTsm2Fi1aqH3Mpddbb72lPjaTNcFke9WqVS3HTpgwQW0zj0ozl161atVSH4uVK1eqbXKb1mQqRPm8pLyTUs68TQo8c8zTNRIRERGRHksvIiIioiTkyfJ1cC1QVXfC1Cl9UXhM+gshPr7aXpSsxKL00k1dGMWILsfUhXC9uj18hzmEnWyPMHVhbHJxTH6ks9OPeiqYww6TOmQ3XJcryLRtzlc5UbZgGqROFX5Mrsyp1dpZEfdnYp/XKb3iKiy9YheWXjFnLr3KlCmDQYMGqf/LyCxZJ8vs008/tfxuiZhOnTqpfYxKr0mTJkXa35xGjRqpfcylV+/evdXHZtOmTYt0jDkNGzZU+5hLr6ZNm6qPxYYNG9S26tWra1vCfPLJJ2r777//bjmH0aZNGzWqzRxnZ67XSURERGSEpRcRERFREuB77AyuNe2oO1EqUxne7NgXL85f0vaiZOklpVfAeKupC6NYo0tNXVjfHk96OiAwBlMXxiYPpxZE21oZLSd4zcmXLTXeKp1OTYMokRFR1lMZmvNhpfRwG5Pf8LqZ2MetsPFjICETNCXxSi+XzIUM75OtRqY7lHXGjD6XOEkyX9OrR48e6mMpocx/68v/ZVuVKlXg6uqK8+fPW3L37l21j1HpJSOqZJtMhWh9jOTmzZtqH3Pp1bdvX/Wxmbm8khFbEY+9ceOG2sdcejVr1kx9LIxKL5myUbbJ/ffy8tK2AitWrFBrfpkj0zQSERERUWQsvYiIiIhsWJDnEzwYPkFNX2h9ovRC8bp4un6bthclaxFLL/PUhQNfMnVhdnu1/pBXH3s1Akx3HfGQ2Z1zwCGnnW4EV3TJny01+jbOjMD5iVeQJMd49XXApaL2iZNi9nj0hfH9Sqj4/mZ63JcxuG82mjvvm34+DUZFxlmSeel17do1tS6XbFuzZo3atnfvXqRJkwaZMmXC/v37VTl0584dHD58WE0RKIxKL1nTK2vWrMiQIQMOHDigjpOSzMnJCffv31f7RFV6yZpe2bJlQ/r06S23KcfKaCy5bRGT0uvKlStqLTL5nM6dO4erV6+qyH0jIiIiophh6UVERERko56u2YrzRWvpigynDMXwcOx0BD99pu1FyZ5Weklx5dnVXo3kiXbqwmqF4DPUHkHTHID4PJkeIaGmeM0shA39c6NMgTTqRK5RsqRPhQXdcuLR9ELqGKPrYhgmjpLMSy+xdu1apEqVCiVKlEBwcLD6m//7779X+0kJlSdPHlVupU6dGocOHVLHGJVectyoUaPUdpk+UI7LkSOHWldLiiwRVeklx5rX/7I+Vsq3nTt3qn1iUnpVrlxZfSz3VUo7c0aPHq0uJyIiIqKXY+lFREREZGP8zjrjRqtucLTTr09z/dMu8D3tpO1FKUHA9VvwnDQx+qkLsxXCzXr2eNzDHoGTDU56J0KC5tvj1oSC2P1jXizslhN/98iF7YPy4Pzo/Ah5jTXEGIaJZZJZ6SUFlxRTMtWfmb+/P6ZOnaq2Hz9+XG0LDAzE1q1b8csvv6BPnz5q/a9///0XPj4+6nIZfSX7jx8/Hn5+fmqbmYzyGjZsmDruu+++w8KFC+Ht7a0uW79+vTpu2zbjkdZSqlkfu2DBAssUhWfPnlXHyv0wc3NzU9vmzZunPp4xY4b6OGLkPhERERFRzLD0IiIiIrIRwU+94fHnLDhlLK4rNc4Xqw2vVZu1vShZCwlB4N0H8N68C1cbt400raU5aurCMvZ40itsBJjhyW6GYZhkVnoREREREb0MSy8iIiIiG+C9dXfYVIYRRnfd/2UMgp+EL2RPyVNoQCA85y2HW5X34JK7QqTHgTnXqtjD5xcHBE11iN91gBiGSR5h6UVEREREKQxLLyIiIqJE5O92FTc79oVT+mL6cuPDDvA9elrbi5IjNXXhnCW40bo7nHOU033/zXHJUwk3W7bD4+62M3UhwzBJKCy9iIiIiCiFYelFRERElAhCfHzxaPoCOKUrqis5XAtUhef8f7S9KDkJDQ5B4H33l05d6JK3Ei7Xb4HHf69GqH8A8Pi88clshmGYl4WlFxERERGlMCy9iIiIiBKYz7HTuFCqfqTS407fXxDk4antRclFaEAAPOcug1vV96OfuvDDDni+7wiC3D0QGhysHW3C0othmFcNSy8iIiIiSmFYehERERElkMA793G723dwSlckvOywc8CVd1rj+b6j2l6UHARci8nUhRVxs11vPJ6/HIF372tHGmDpxTDMq4alFxERERGlMCy9iIiIiOKZTGX4ZOkaOKW1KrtMcc1bGQ//nGXaga9PkroYTV1oF1Z0Xa73MR4vXIHQF/7a0S/B0othmFcNSy8iIiIiSmFYehERERHFI/+LV3CpehN9CWLngFtdBiLwnru2FyVVlqkLqzWBS+6KUU5dePX99ni2+yCCHjzUT10YEyy9GIZ51SSj0uvhw4c4c+YMbty4oW1J2u7du4dHjx5pHxERERFRXGHpRURERBQPAm/dxZ1vhkYa8SOjfLy37JYXJdqelNSoqQv/Whr91IW5KuDGZz1VISaPhdfyhKUXwzCvmEv/aL9I4p6rqyv69++vEhzbMv8VTJgwAW+88QY6deqkbUm6AgICkCVLFhQpUkTbQkRERERxhaUXERERURwKeeEP76271TR2EUsQ95GTERoU/ycGKW7JyKzA+w/Dpi589zPjqQvle5y7Ii7XaY7HC/6N+dSFMeF93fhkNsMwjGHsw/9/a4f2iyTubdq0SZVQEilx4ltSLb2mTJmCUqVKaR+FCQoKQq1atdC0aVNtCxERERHFFZZeRERERHHkhfNFXKr5UaQp7m6274PAu/e1vSipUFMX/rUMbtU/CCsxo5q6sHFbPNu+T01XGS+l5otHViezGYZhXpKFVqWXTI8aT4xKL5muz9PTU/3fy8sLBw4c0E1HKJft3btXTe1nzdfXF+7u7vD391ejxo4fP46LFy9ql4aJqvSSv/GdnZ3VbT19+lTbGsbHx0ddb0hIiNrv5MmTOH36tGVkmvx7+PBhuLi4qI8jkvsll584cQKBgYHa1rDblOt98uSJ+lg+13379uHmzZvqYzO5/jp16iBr1qxqf/PnKMffvn0b9+9Hfm0g2+S63NzcdOcv5GtsPl7Ibe3Zs0d9bt7e3uoyub9m5m3mr4kUbdb7XL58Gfv377d8Dtb8/Pxw5MgRHDp0SN1POU5i/TUgIiIislUsvYiIiIheU9DDR7g/eBScs5XRlSFuVd7D07VbOborqTC9TNRNXZi9rO77aY5LzvK40aYHPGcvQcDrTl0YE2LThQAAAP/0SURBVMH++hPaDMMw0caq9Ap8pv0iiXsRSy8pRMqUKYNs2bJh8uTJyJQpk7rMzs4OXbt2xY8//qj+L9vSpUuHH374wVI+jRs3Tm3/6quv1HXI/1OlSoXmzZur8kYYlV5SoJUtW1Ztl6RNmxa9e/dWpY34448/1PahQ4eq0Vbm/SpVqoSZM2ciT548lm1STnl4eKjj5H6NHj0aOXPmtFxesGBBLFq0SJ1TePbsmdqWN29e/PLLL0idOrX6OE2aNOjcuTNevHihSqK3335bfR7m65CsXbtWfb0yZswIe3vT90oj+7ds2VJ9DuZ95T45OTmpy+VzlW19+vTB119/rb6Wct1SZnXp0kVdNm3aNLWv6Nmzp9rWtm1b9fHZs2fV/ZTbaNGiheV+yTSLf/31l9pHPreJEyeqz1vuh3yfZB+JfOzo6Kj2IyIiIrJlLL2IiIiIXlFoUBC8/9sTaSpDKUvu/zJGXnhoe5KtCg0OQdADDzV14ZWopi60c1DTU16q2VSt0RXi90I7OgFt/MDqhDbDMEwUsR7ltaq29gskfkRVesnHGTJkwHfffacKFvM+2bNnx/fff493331XfZwjRw7cvRv2xgFz6SXFSps2bTBw4EBVxsi2ZcuWqX0ill5ym7ImlpQ/I0aMUKOezAWYlG7CXHpJwdOsWTN1++YiRwoqKX/69euH9OnTq20bNmxQx0m5I5fnz58fW7duxcKFC9X9kf1khJS59JLI5yX3V8oluR25PzKiTAq03377TZV/ctzIkSNVZASbUekl1yHX16hRIxw8eBDffvutKqneeecddbm59JJtcmyJEiVQu3bY9zg2pZdsK1asmPqayRSL8rFERuldv35dfQ8k5s9Tvga5c+e2lI9EREREto6lFxEREdErCLh+C5drfQSn9MV0Bcm1Dzsg4MZtIISvOWyZmrpw7jJcqvFhtFMXXmnUGt4bdyDw7gOEBgZpRyeCG1usTmpr/zIMw0SXw4O0XyDxI7rSS0Y7WY+IkowdO1YdJ9PzZc6cWRVjUqwIc+n13nvvWf5mHzZsmNrWpEkT9XHE0ktGTMnH+fLlU4WNTNsn0xDKNinbhLn0kpFL5mn8vvjiC7VNyiXzbbVu3VptGz9+vPrYXNb1799fXa+ke/fuatvGjRt1n5fchpBpBsuXL6+Krx07wtZSk89VRpPJ6DdrEUsvuR9SAsqxMrWh3N7z589RvHhxVTgJc+klWbFihbpuuU0R29JLSjlx4cIFy3W6urri3LlzquyzXoOsbt266n7JFI5ERERESQFLLyIiIqJYCPH1w4Ph4yNNfXexbAM8Wb5OXmxoe5JNMX1fwqcu7AHnbFFMXZijHG607IpHMxerYtNmyBSHy8pbndC2Gs3BMAxjlKtrtF8g8SO60kumDjSTUUOybfXq1doWoECBAqr0unTpkvrYXHp9+eWX6mOxYMECta1kyZLq44il1++//64+Nkrjxo3VPubSy8HBwXIuYMiQIWqblF9mvXr1UtvMxZzsb76uiJFRX9all5RgZjKdoWzbtm2b+jimpZdMbWi+voiR/YS59JIC6sGDB2qbmVHp1aNHD7UtYuklI9HM00o+fvzYcjuyLpqMTpPyTYqvOXPmqHJNPi5UqJCaspGIiIgoKWDpRURERBQDMsrn+b4jkcouWcfrTp/B8hZvbU+yFaHBwQhy16YubNTGeDSXmrqwPC7V+ACes/9OnKkLY0Jew+7oaHVCm6UXwzARY/V7YWlpwD9sZFN8ia70kmLIzDyd4Pr167UtUOtjGZVen332mfpYTJ8+XW2rUaOG+jhi6SWjsuRjGQkl92XLli2WHD9+XO1jLr1kKkAzWd9Ltsn6YWayDphsM5de5cqVUx/LiDXr65XcuXNHV3pt375dHSNetfR6+vSpKrOklJLC0Pr2zNdlXXqZR62ZmUsv87SOQsou2Rax9JKpFs0ill5CRsvJVI5Zs2ZVUzcWLVpUV+wRERER2TqWXkREREQvEfLsOa417QinDPqpDC/XboYX5y+FFRJkM0L9A9SIrktvytSFlaKeuvDtVni6bhsC79xP3KkLY+rJBWBR4fCT2gzDMFHlxmbtF0f8iY/SS7ZLESM+/PBDtU3W4RIRS6/z58+rj2XNLJmmz0zui3kk1KuWXrLelXzcsGFD9bGZjISSEU+xKb1k+kUpmvz8/NQ2EbH0EtWrV1fHTpo0SdsS5vbt2+rf6Eqvb775Rl1mntZR7qOs2yXbYlN6yQiwqlWrqqLu5s2b6rZ9fHy0vYmIiIiSBpZeRERERFEIfvYcD8dMg3PW0rqy5GKZt/B4/j8su2yF6fugpi6cuww32sjUhWV03y9zZJTe9U++wqPpC+F/9aZ2cBJzZLDxCW6GYVJ4rEZ5rW0IBPlqvzTiT3yUXlIEySgjmU5PPpZCS8otEbH0EuaySkYkyZSGsv6UjKpavHixuvxVSy9vb2/LaC+ZXvH9999H5cqV1VpksRnpFRQUhGrVqqltUn7J12fu3LmGpZeM6pKpB6XUqlOnDt599101yqpZs2bq8uhKrw0bNljuj3yu8vUwT9EY29KrefPm6mP5HpUtWxYVKlRQ92H//v3aUURERES2jaUXERERUQShQUF44eqGC6Xq60uTzCVxo11vhDzju54Tm5q68OEjeG/ZHf3UhTnKwa3q+3g0c5HtTl0YG8/vAMsrWJ3oZhiGsZ7WsBTw4Kj2CyN+SQlTunRpFSm8JB988IH6eM2a8PXEpDSRbTt37tS2APXr10elSpVw/fp19bG59JJp+vr06aPKHimZdu3apS4X8+fPV9czaNAgbYvMLByCGTNmoHz58ihcuLAa3dSmTRtcvXpVXT5r1ix1jHmNLyEjqWTb4MGDtS3AsGHD1La//vpL2xJWfMm6WHKdct1SWElhJiO2ZPST7C85ePCgdgTQoUOHSNuOHTumPhe5Drmfe/bsUV8r2dagQQNtrzBS8DVq1AhFihRRqVmzpuVrKVM2ynXL/ZDpEK3J10EKPim85GsnxaCjo6Pav3///mofV1dXVWJVrFhRfSzkesyfhxSQUujJ10qKQ/N9kLJOvjdSmEW8XSIiIiJbxNKLiIiIyEqw5xNcb9kVTumL6gqUy/U+wQvni9pelFgsUxfWbBr91IUNPsXTNVsQePseQgMDtaOTiWe3gOWVIpzwtjrpzTBMys2l5doviqTFXHqZR1/J9HwySiqmZISSr6+vmk4wrsmoLLnu2NyfiMz3T/59GTlnIcWaRMqs2JD7Kl+7V/XFF1+o74OMXpPbl+vy9PRUo75ku0x5SERERGTrWHoRERERmYT4+MJjyly4FqymK0/OF6mJR9MXJI9RQkmRmrrw5sunLjRtv/7xl3g0ZR78L4eNHEjWZL0eXfHFMEzKSoSi++/iwNk/Tb8zY1eS2Apz6dW5c2dtCyWGjh07qu/DgAEDsHXrVqxbtw7ffvutmlJRRqXJCDUiIiIiW8fSi4iIiFI202uDF84X4Fb1PV2J4pS+GG62742Q55zKMKGFT124K5qpC+3hnKMs3Ko0hse0+SmzlPR0BP6prD/xvVD+5cgvhkmeieLnemkZ4GLYGlZJ1cSJE9UaXzKdICWey5cvo3jx4mp6Q1lzTNYwy5s3L1q2bMnCi4iIiJIMll5ERESUYgU/eYobrbrBOUspXaHiVuldvHA6j9Cgl09DRHHHMnVhrY/gkjfqqQtlqkmvFRsRcPMOQgNS+Ek4v4fA5ubGJ8IZhkn+WVoaeHhK+4WQdD1+/FitKfXgwQNtCyUWmdLw1q1bqgC7du0aPDw8Yj3NIhEREVFiYulFREREKY/p9YCUKxeK19GVKS45y8FjwmyE+PlpO1K8klF2F67Ac97ysKkLs5bWfT/Mke3Xm30Bj8lz4X/pmnYwWQS/AC7/C2xqBiwqHPmkOMMwyS+r6wKOkwF/L+0XARERERERCZZeRERElHKEhOLF+Uu4WK6hrlRxylAc15p9gdCAAG1Hii9q6kIPz7CpC99prfs+WMc5e1k14k7W6OJ6arHw6Bxw6DtgZU1geYWwUSB/FzM+ac4wjO1ncVFgSUlgWTlgRXVgR0fg9g7T81mQ9kNPRERERETWWHoRERFRyhASgts9BqkyxbpccS1YDc/3H0VoEE8gxqcQ7+d4OHYG3Kq9H/3UhXWa48nydQi4wakLX0uQL+BzH/C+ATxxAzydGYZJinl8AXh6DXh+Fwh4qv2AExERERFRVFh6ERERUbIm63I9WboG54vU1JUrUry4j5yMUC7MHj9CQvDC9RIeTV+Aax91glOGYrqvvznO2crgWtOOeDhhNvwvXtEOJiIiIiIiIiKKPZZeRERElDyFhCDw3gNcadhKV7I4pS+KS7U+Ml3mru1IcSU0MAhB7o/g9e8GXKrWRPd1t44UXRfLN1Trp8m6XkREREREREREcYGlFxERESU7MlXhve9HqHLFumw5X/hNPN91EAgO1vakuBDy3AcPx82EW9X34ZKrvO5rbp2rTdqrUXcB129x/TQiIiIiIiIiinMsvYiIiCjZkJFGXqs3w61iI13Z4pKzPO7/PAbBj720Pem1yNSF5y/h0YxFuNbsiyinLpQC7HrLrmq/gFt3tIOJiIiIiIiIiOIHSy8iIiJKFgLvu+N6iy764iVNYTWVYcBNFi6vS01d+PARvFZshFv1KKYutHOAS46yuGS6/PH8fxAawPXSiIiIiIiIiCjhsPQiIiKiJC3UPwD3fxkDl9wVdAWMa6HqeLbzAEJf+Gt70qtQUxdOmI1LNT6ASy7919g6V99vh6fr/kPArbtqekkiIiIiIiIiooTG0ouIiIiSJtNzuveW3bhcu5mufHFKXwx3+/+qRiXRKwgJgf+Fy3g0azGuf/wlnDIU1319zXHJUQ7XW3yFR9MWcCQdEREREREREdkEll5ERESU5ATdf4gbbXvpi5i0hdW0enIZxY6MzAry8ITXqk1qRJfu62qOnQOcs5fFparv4/G85Zy6kIiIiIiIiIhsDksvIiIiSjpCQvFw9FS4FqiqK2ScMhaH18qNCPHx03akmAj18YXHxDm49OaHkaaHtM6Vxm3xdO1WNaJL1vYiIiIiIiIiIrJFLL2IiIgoSXi+5xCuNPhUV8Y4ZSqBO70HI9jzibYXRSskFP4Xr8BzzhJc/+SrKKcudJapCz/pDI+p8xFw47Z2MBERERERERGRbWPpRURERDYt+IkXbnUZoC9m0hTG+aK18ML5orYXRUVNXfjoMZ6u2YJLNZvqv47myNSF2crArXJjeP61FKGBnLqQiIiIiIiIiJIell5ERERkszxnLcZ5+xq6gsY5Sym1plSI3wttLzKipi6cPA+Xan0ElzwVdV9D61x99zO1lpeM6OLUhURERERERESUlLH0IiIiIttieq72OXwSVxu31ZUzMpXhrS4D1bpSZECmLnS7qkZqXW/RBU4Zium+fuY4Zy+L6x9/CY8p8xBw/ZZ2MBERERERERFR0sfSi4iIiGxGsPcz3PthZKSi5nyx2vA5eFzbi8xCg4LVemZP1/2Hy7U+ivR1UzFPXVixETxn/83RXERERERERESUbLH0IiIiosRnen5+8vdqXCheR1fYOGctrUYuSRlG4UJ9/fBoyjxcrt0MLnkr6b5m1rnyTmt4rdyoRnRxnS4iIiIiIiIiSu5YehEREVHiMT0t+55yxPVPu+gLmzSFcfPzPnhx/pK2Ywpnev3if+kaPOctx42WXaOeujBbGVxr9gU8Jv0F/2s3tYOJiIiIiIiIiFIGll5ERESUKEJ8fOE+cjKc0hXVFTfni9TkVIYmocHBCH7ihacbtuNS7Wa6r5ElMnVh1tK4WL4hHs1ajNAgTl1IRERERERERCkXSy8iIiJKWKbnYq+Vm3ChVD1dgeOUtggeTpiN4MdPtB1TplC/F/CYtgCX634cNnWhnYPu62TOlXdawevf9Qi4dpNTFxIRERERERERmbD0IiIiogTzwsUNNz//WhVclgLHzgHXW3Y1XXZR2yuFkakLL1/H4wX/4HqrbnDKUFxXbpkjI7qufdQJHhNmI+DqDe1gIiIiIiIiIiIyY+lFRERE8S7E1w8Px89Sa3VZihw7B7jmrQTvrbu1vVKOsKkLn8J74w5crtNcV25Zf32cs5TCxXJv49GMRQgNCtaOJiIiIiIiIiIiIyy9iIiIKF4927ZXFTcRC68Hv45DkIentlfKEPrCH49mLMTl+i3gmq9y1FMXvt0KXsvXqRFdoQGcupCIiIiIiIiIKCZYehEREVG8CLh2C7e7DNSXXWmL4NqHHeB7ylHbK5mTqQuv3MDjhStwo02PqKcuzFJafV0e/jnLtP917WAiIiIiIiIiIooNll5EREQUp2Q0k+e8ZZGKHZec5fBkyWptr+RLTV3o5Q3vTTtxue7Hkb4OKuapC8s0wKPpCxAaFKQdTUREREREREREr4qlVxLn5+cHNzc37Nq1C0uWLMHChQsZhmEYJtGyftRYnK/SGI5pwqftO2v6/5p6TTF3zFjDY5JLFs+dh319f4BbvU/gmq9KlFMX7ilaAwtad8LsIb9hwZy/DK+LYRiGYRiGYRiGYZj4zerVq3HixAncv39fO9tOyQFLryQmMDAQ27dvx6+//ooaNWrAzs4Ob7zxBsMwDMMkauzfsMMvqbLjXKpClnLnnCnzU+VBzTfSGR6T1JPKFIc30qDFG5kwIVUunLT63K1zLHUhzDF9HbqmyoIipv2NrothGIZhGIZhGIZhmMRLrly50LZtW8yZMweXLl3SzsZTUsTSK4kICgpSI7qKFy9u+EPJMAzDMImRtG+kwrtvZFDFjnXRczhVQbR7I7MqhoyOS6pJbUoW0+f89hvp8XeqvLrP2Rwp+06Yvh5bUuVHp1SZYRfhOhiGYRiGYRiGYRiGsd3IQJPBgwfDy8tLOztPSQlLryTAx8cHzZs3R7p0xu+UL1CgABo0aIBOnTqhS5cuDMMwDJMg+a5JM6xIV0iVPJbCx84B62u9j5+7dDc8Jqmm25df4vdKtfF3mnzYl7qA7nO2zp4i1TG/ZQf8Zvr8exhcD8MwDMMwDMMwDMMwtpGWLVuiYsWKSJPGeFYWe3t7/PXXX9pZekoqWHrZuHPnzqFkyZK6HzYZatmxY0csWrSI840SEVGCC7z7APd/Gg2nTCV0hc/lus3xbPs+ebLV9kzCTJ9DwLWbePL3Ktxs2wtOGYrrPldznDOXxLUm7fFw7HT4X7qmHUxERERERERESYV0BkePHsWwYcNQq1Yt3bl4KcSGDBkCX19fbW+ydSy9bNj+/ft1P2AyrLJFixZ4+PChtgcREVHCCQ0KhvemHXDJWU5f/GQrA4+JyeCdT8EhCPZ+jmf/7cHlt1roPkdL7BxU0XWhRF14TJ5rOiZYO5iIiIiIiIiIkoP169cje/bsunPzH3zwAQICArQ9yJax9LJR9+7dU8MnzT9U2bJlUz9swTy5RkREieCFy0VVBDmlK6IrgW517IeA67fUyKik4tmzZ2qk9JUrV9SI6sP79uHUzyNx6e2WcC1QVRVb1p+jOWuyFEVfh9JoW7s+Pm/TRi1wK1MhfPLJJ/joo4/w7rvv6tKsWTP1ZpXWrVujXbt2apR2586d0a1bN/Tq1Qt9+/ZF//791TzhI0eOxKRJkzB37lz8888/2LRpE/bu3YsTJ07g/PnzuHXrFh4/fqzW+CQiIiIiIiKi+OXh4aH+1rcuvr799lvtUrJlLL1s0KNHj1C6dGnLD5OUX3LSi4iIKKEFP3kK998nwTlLKV0BdKl6EzzdsF3bK2EEBgaq0c6XL1/GqVOnsHv3bqxbtw5Lly7FrFmzMH78eAwdOhTffPMNvvjiC3z88cd4++23UblyZRQpUkS9Syt16tRIJc+tb9ih+RsZ8WeqXDiZqpDuczPnROpCmJcqD3qkyopibxjP750YyZAhA/Lnz4+yZcuiTp06+PDDD1Wp1rNnT/z4448YPXo0Zs6cqaZBXrVqFbZt24Zjx46p8uzu3btqrVAiIiIiIiIiip50Cb/88ovl73E5pzB9+nSEhIRoe5AtYullY+T+9e7d2/KDlDVrVly9elW7lIiIKGHIVIbPdx9SU/lZF0Hy8f1h47S9Xo+8SJSpAWRebG9vbzWS6dq1a6rMkhFPP//8sypzatasidy5c1ueG18lqU3J/EYq1H8jPRanyqP7nMw5Z4oUXf+lyo8vU2WBXYTrSE7JlCmTWqxXRqkNGDAAU6dOxebNm3HhwgV4enri6dOnqhzz9/fnKHMiIiIiIiJK0WTmllSpUln+nr506ZJ2Cdkill42RkZ0ydpd5pNSf//9d5IYnUZERMlH4J37uPZhBzhlKKYrha5/2gX+F69oe8WOTAtw5MgRNfpIFoD97LPP0KBBA1StWhUlSpRA3rx51Qgm8/NfXCWtKW3eyKRGbO1JXUAVW9afkznb8pXHtMYf49cvu+LbPn0waNAgDB8+XI0ek0JoxowZmDNnDubPn4/Fixdj2bJlWLFiBdasWYMNGzZgy5YtakTVnj17VOT/MkWhjERbvXq1mrJQRqQtXLhQFXqzZ8/GtGnTMHnyZIwZM0a9c0ymOpSpD6Xok6kRGzZsiBo1aqgRXYUKFVIj1axfI8RXZJHenDlzonDhwqhQoQJq166t5i6XKRn//PNP9Tk5OztzqkUiIiIiIiJKEeRNoeXKlbP83SzLHZDtYullY7p06WL54Xn//fe1rURERPEv+LEX3EdPhXOmErpCyK1iI3j9u17bKzJ58efm5qbKHnmzhkyvJ6OWZe5rGU0k61Kan9teJ1L4SBlTrFgxVKtWTZVCMlLp888/R/fu3TFw4ECMGD4cfw4YhCkftsSmCvVxNsIaZOY4mT7Hq43bwv2PKWFFXhJ6g4mMjJO1P2W6QikSt27dqko1meJRCjRZI6xPnz5qisdWrVrhvffeU6PlZOrkfPnyIX369IZf31eJlHHyfejatav6vi9ZsgQ7d+5UpZgUnXzjDtkaGWEqIxjNI0yfPHmiphZ/8OCBWutPHreyTdb+8/PzU9OqEhERERERybrb6dKls/w9fPToUe0SsjUsvWyI3LeCBQtafnDk5CEREVF8Cw0Ohu9pJ7jkraQvhjIWx91+QxAaEKBO/MoJYDlJfOPGDSxfvlytIVWmTBnL81ZsI1MDyKgiGeGVOXNmNZKpQIECqFu3rpo6YNiwYWpk2IEDB3Dnzp2on8NDQhDy3AfPdh7Albdb6j4H68jnc75wTTycMBtI4VP2yUl9WRdNRqtJWSWlYaNGjdTaZzly5ECWLFmQMWNGpE2bVs1ZbvT9i0nket599101VaWMiLt9+7a67efPn6vigfOgkzwGZNSg/I6Rx4T8npEiXUon+X3j5eWlHjMy/alM+S2PWylWZZTlX3/9hXHjxqnHlxS97du3V28akxGkMkKyaNGiav07+d1i/cfpq0SON/+OktGpUuhLmSzrBspIyE8//VQV8DJas1+/fmp9PblvMjJ0x44dcHJyUp+DfD4yfah8fvJ5yucrn7d8/vJ14M8EEREREZHtknMV5r8RfvrpJ20r2RqWXjZE/oA3/9DIlEKcNoiIiOJb4O17uP5xZzilK6oriM7Ub45lI/5Q0+41b94cb775JooXL65O+pqfq2ITGV1UqVIlNfJIRiLJNIGydtfJkyfVKDEZYSFFSGyep0MDAuE5/x9cfa8dXAtVg6Odg+5zMOdy3Y/xeN5yvLhwWRV4FD05Cf/w4UO1vpqjoyMOHTqkpjSUqQ1lBJ+MHJMy4VXKMCk65TgZcVa+fHlVGEhBMG/ePFUKcP2w5EUKHvm+7tq1C//++6+aJnTEiBH49ttv0aFDB1VQyUjBOnXqqKJKpguR3zMyglDW8ZNRolK+Sjlu9HhKipHyTNbszZMnD+zt7VWBJp+3jF6VqUTlZ0J+xqTA69u3L3799VdMmTJFjeY8fPiwegMAERERERElDnnznfm1fb169bStZGtYetmQli1bWn5oxo4dq20lIiKKe0EyleH4WXDOXlZXEG1KlR/t02RDGu35KCaRE9LyZg0ZodWmTRu1NpWshbVq1SocP35cFVpxwvQcHnDjDrz+WY+bHfqqKQqt77s5aurCd9vAfeRkVXTJcRT3ZGSKFJYyvaKsTzZgwAC1Htk777yjRtnIiDHzQr8xjRQcso5Z586dVckm66HJeqfyGOIIGNvg6emJy5cvq59tWbtO1reTUkbKbJlSs3HjxqrEiatpTeM6UrpK8SSPNSmf5HEqBZuMCJMZF6SMMo92lFGorzPSMb4iU71KYSYjzWSKVxl1K2sQylqBMnpTRpbJz418n2TqRpbJRERERERxQ94gal5rW/6ukNkbyPaw9LIRcr/kna3yAyMniGT6FiIiorggI4dl/RqZWmvnjh3446vu2JtBv9bVqdSF8EuqHFGWXfKiTk4Ay4lgmd5LRn/J1F3Hjh2L3zLCdN0hPr54vvsQrjRspbvP1lFTFzq8iYd/zkzxUxfaEnnMbd++HSNHjlSPGTlRL48hGfkX2zJByghZ+1RKNpkeTkak8WR+3JDXofJ74sWLF2raPZlOUEoTmV5UpuyQYqVUqVKG35fXjbzuld8vMpWm/NEov2cyZcqkHidSSkl5JiWU9Xp+MmVm69at1VSCgwYNwqhRo9QoMhkNJYXP2bNnceHCBVy/fl0VpvL5yOf2OuR4eTzfvXtXlUkygk2+Rvv27cN///2HtWvXYunSpZg7dy6mTp2q3sD23XffqSkPZepQKYLlc5DRsvJ5yecnn6d8vvJ5y+cvX4fYFsUxiVynjM6UaRhllJ18rWT03a1bt9QUkvL8EBAQwGKZiIiIiCgGatWqZXmtLbPXkO1h6WUjpBWWE0HywyJ/AMuaF0RERK9CTl7KKIwJEyaokVcyNaGMxCqWPhOmpMqNk6kL6Qqj+anyoMwbaZE6wglSWaNGpiKTtZjk+q5cuaJGeSRI0RAYiMcL/sG1Jp/jvH31qKcurNMMj+cuC5u60J9TF9o6OakuI08uXryopk1cuHChKi5kdJf5j4aYREozebOQjC6U9cik7PDw8NBuhV5GSo7Tp0+rr//333+vyhAZNVSyZEnkypXL8Gv+KpHvk6z7J1P2yYwGMiJJ1t+S302y1tXmzZtVaSQLQJ85cwaurq7qjV8yhZ98P6XclPsqowptebaGmJLPQdbvkqJJPj/5POXzlc9bPn/5OsjXY8uWLViyZAkmTZqEoUOHqvXKZGpY+TmRUWlGX+tXjayn6ODggMqVK6upJr/88ks1ylLK6nv37mn3nIiIiIiIzGSGC/Pr6b///lvbSraEpZeNkBNAefPmVT8s8sesDJUkIiJ6GSmgLl26hI0bN6rprWRqMRlBYH4BJsnwRiq0eyMz9qUuqCuM9mcogrE1GqB9mzbqxKqMVJCTr3KiOcGZnp8Dbt2F14qNuNWpH5wzl9LdV3PU1IXvtIb77xPxwtVNHUfJg5S1soaYjJaR0UWfffaZWutJ1neK6agwKW1kYWGZbk+m3pOiNiWukSqj4GSU05EjR9TP9fTp0/HNN9+ockvKQvN0HK8SGXklpXj16tXV7xv5PvXq1Uv9/pFRTjIST76P8tqW4oeMOjN/f2UKUJleVMrErl27qnJMRsLJiDj5PsnIstcZPSaj7GStsU6dOuH3339Xf9TLOsQuLi7qe5wcykgiIiIiotiQmSbMr5dlHXSyPSy9bIS8k1KmPJEfFllPQKZPISIisibPYVIMyPRjBw4cUCNcIhZc1kllStk30mJXqgL64ihdUVz9rGfiF0YydaGvH57vPYwrjdro7qN1nDIUg2vBang4drrM1agdTCmJPOZl5ItMsyevl2RKuJgWNzKSpUePHmq0ooysl1FDyYX1lISHDx/GkCFDULVq1VcqOeTrKdPsyYwDUmzJdHxSoEghLut2yUgkGaVESY885s+fP68K0DFjxuCrr75ShbK80U6eQ+TnSdZmfJXHjYwMbN++vfr5lKkk5WdMnqdYhhERERFRciWzVphfD8tMCWR7WHrZCJZeCUceA07X7+PSXf07kP0CArHX8Zol/oE8sUpEtkHWj5k8ebJaE6lChQrqnfvmF1hGkZOX9SpVxswshXE8wlSGblXeg8/RU4m67lWo6fft44UrcO2DDjhvXyPKqQsv1W4GzzlL8cL1EqcuJAspXm7evKnWk5Pp+Tp37qym7zT6WbCOnNCXk/wyAkZGraxatSpxRjW+Bim4Dh48qNbTk0JKpiQsUqQIMmbMaPg5RxUpuGTaQZn+VKYwXbNmjRo1JOtgPXjwgOVWCiGvib28vNSoMSk1ZZ2vmTNnqukU69ev/9LnmoiRx5WsvSfPUzLarH///lixYoVaO4yIiIiIKLlg6WX7WHrZCJZeCUO+/90nrUGmT39F5pa/YdVBZ+0S4Lr7E7XdnDuPktaJMCJKHmTNI5muUE7I9+vXDyVKlLC8mDKKTPsm05V99NFHanqrrevW4/qEWXDJU1FXIEm59HDcTDW6KjGoqQtXbcKtL7+Fc5Yopi7MWAJXGrbCg+Hj8cKFUxdSzMnzuxRh8nPzww8/qIJYRirJyCWjnxtzZM2pBg0a4LffflPrS127dk39DCY2KSJkikCZtnTixImq2JM1l9KmTWv4eUSMFN8yLaSs5ydfCxnpNnbsWKxbt05NYSrlGdHLyM+V/I0i64zJ1JXysyWjumTtLylNZUSg0ePPKPnz58eHH36opi6VKUylvJUyzBZ+3oiIiIiIYoOll+1j6WUjWHrFHf/AYPi8CEBgUORRDMGmP6zrDpxpKbZ+XrhNu4SlFxElDnleklEVspbj6NGjYW9vb3nxZBQ56S3Tj8l6OjL6y/J8ERKKwFt3caFkPX2RlK4IrjZqgxDv52H7JRTT79sQvxd4vv9o9FMXpi8G1wJV8XDMNIRy6kKKYzKt2z///INGjRqpaQ5jUhrJz6BM6Xfjxg1VDsXnSXm5bvn59/b2xo4dO9TIGFmXzOh+GUVKbynu5HOTkm/gwIFqtE5ymsKRbJsUVzI6TN54IX/LyKjD2EyVKMW0FLOzZs3CnTt34OvrmyLX4SMiIiKipIOll+1j6WUjWHrFnU9/X4I87UZi2sYj2ha9pXvOomLvyajdfwZcbrprW1l6EVHC8vDwwIwZM9SJQjnJLScJzS+aIkZOwnfr1g2rV6/GuXPn4OnpqXs+C3nug9s9BkUaQXWx3Nt4vvtggo7uCg0IwOPFq3Dto0447/Cm8dSFpm2Xan4Ez1l/44XLRU5dSAlCpjJ0cnJS063JyClZi8jo580cOWlftGhRNG3aFHPmzFGjr+KC/OyePHkSw4cPx3vvvYdSpUqpNZWM7kPEyH2qWLGiGrm1aNEiHDp0SI0MTWrTNFLyJGXr3bt3cfbsWTVyUh7jH3zwAXLkyGH4eDZKvnz5UKNGDXTo0EGdTJB1woiIiIiIbAlLL9vH0stGsPR6ORml9bLv3pV7nsjS8jdVWk1ce1DbGjMsvYgoPsk6Odu3b1cnAWvXrh3lu+Blu4ODA5o1a6ZGfsnJw6hGmshIqidLVuO8fXVdqeSarzLuDxmLEF8/bc/4FXj7Hp6u2YJbnfvDOWtp3X0xxyljcVxp0BIPfv0TL5wvyhOydjRR4pDXhKdOnVLT/sn6WDJSSkZOGf1cSmSUmJzAl1EtUlr5+b3850tuQ0qA3bt3q5GZcjuyrpjR9VtHSjApw6QU6969O6ZOnaqmg3v27Jl2zURJhzyHydqUK1euVNPwys+BTL0p638ZPf6tIz+TskbY119/jSVLluDEiRMseYmIiIgoUbH0sn0svWxEfJZez/38VQFUpe8UZGs9HAU6jMZHQxeiw9h/LRk0d6u2dxhf/0DM3nIctb6dro4p/OX/0G/mBng89Yn0Ndxx5rLleh48fgZvX38Mnv8fCn/xP+RtNwotf1+CM1fuqX2DgkPw735HVOozWV1v9X5TsXjXGQSatkcUEBSMI+dv4svxK1Go42hVROVoMwJNhy00bb+lSjBrMqVh65FLLaVVTdN9N9+vwQvCpjGU+/778t2W7TtN990sutJLjlu+95zluC/+XMlSjIiiJb83ZGo0OUH39ttvW14QRYyUXHIyPUuWLOjatatax+elTNcd5O6BS29+qC+X0hTG5TrNEeThqe0YT0JCEfrCHz4HjuNq47b6+2AVp/RFVQH3cPRUhHK6NUoCpFSaNm0aqlatqoqn6EqwrFmzqukEZS0xmaJQfuZlWjYpw2TKNym4Zb09o2OtI6M8ZcpSWbNL1juScovTu1FKIW8ImT9/Plq2bKnWCJPpOqP7uTOnXr16+Ouvv+Du7h7v05ASEREREVlj6WX7WHrZiPgqvVxvuaNcj4m6Msco1fpO1Y4Ajl28hfI9JyGzwX4ybeD0TUe1PcNIOWa+fNC8rSjZ9U/dMRI5btaWY2g1cikyt9Rflrnlb+g47l/t2sINW7zDMmorYmR7z6nrtD0Bx2v3UarbeMN9JbX6z1D7hZi+/01+mW/ZLvfdLLrSa+mec+p+yva87Udhv9M1OedMRBRJQECAeje7rFFSuHBhywuhiJGT3O3atcO///4LV1fXGI0aEcFeT3Gn149wzlZGVzBdKFUPz7bvQ2hA/JVLMnWhjCy73uwLnC8c3dSFTfFo5iI1oivU3187mijpkNeL8trswIEDGDRoEPLmzWv4cyyxs7NDiRIl0KRJE9SqVQsFChQw3M86cn0yxaJ5ylJ53Werr1GJEoqUvVIiy7SdMrpRpv+V9eqMfobMkTeNFClSBG+99ZZaE2/r1q1c046IiIiI4hVLL9vH0stGxEfpJSOl6n83SxU1UjT1mLwGpy7fxepDLiiojZzK2mo4xqzYh0t3HqljZLRUjW+mWYqfd3+ah+FLd6G76dj8Hf6wbN/ndE3tL6xLL4lc59s/zMF7P89T/7e+TFKh1yQ0/20RinYeq9suo7qs3X3kjfyf/4Hq/aah47gV+GbWRnz822LL/lJ8nbx0R+179uo90+3NV6PYzJeX7zkR75u2SXpMWav2e5XSa8PR82qEmWyTf+dtO6m2ExGZPXr0CFu2bFHTL8l6JOYXP9aRxfqrV6+Ob775Rp2Uk5EhsSFlltfqLbhQ+i1dyeScrTTu9h+G4Mdxs95QRIF37uPp2q241WVApKLNHDV14Vuf4v7QsfBzuiBPttrRRMmDjCKREVg//PAD6tevr0pro59zo8ioFVmHq23btpgwYUK0U5YSkZ6M4pKfvTFjxqB169aoVKkSMmbMaPizZp3GjRtj/Pjx6lhOh0hEREREcYmll+1j6WUj4qP0cn/yHA5f/E+VNVJy3fP01i4B2o5ebil3Fu44rW0FJqw9aNleutt4BAYHa5cAUzcctlzWdeJqbWvk0uuPf/dql0AVRNaX1R04U01xKO4/fqamODRfNmndIbXdTL5XD72eax+Fq91/huUY69Fesv+HQxdaLjNa0ys2pdejpz5qW972Iy3b5mwN35+IUjZ5J/n169fRsWNHNT2Z+QWPdWQEiEyB1qdPH7Wuz6sKvPsg8lSGMqLKtC34URyvAWn6PRnqHwCfwydx9b1opi5MVxQueSrCfdRkNQKMKCWRESlz585VI7yk0LZeo888XeE777yDpUuXcqpCojgmz7+bNm1SJVj27Nkj/QxGjBTPso7YsWPHOBUiEREREb02ll62j6WXjYiP0uvBk2ew7zRGlTVSfrlbFUg9p6y1FDmjV4SVVMEhoWgwaI5l+9hV+9XIL3OOXrhluUxGkJlZl17FvhpnKbWElFYytaFcJtMD7j53VbskjHUBJSPKohJium+yntgN9yf4asJqyzGfDF+s7RH3pZfrTXcUsBrdNuqfvWr0HBGlbKdPn1YvasqUKaNKLfMLHevI9GbDhg1TJ9he5x3mIb5+uDvgV1UuWRdOLnkqwWvVJnV5nDH9nn1+4DhuffEtzhepGf3UhdMXwM/pPKcupBRPXnvcuHFDjfQcO3Ys1q5dCycnJ44sIUogMjXwlStXsGfPHowePRoNGzaMtgCT0dgyFeKQIUPUzyoRERERUWyx9LJ9LL1sRHyUXs/9AtQUf1LYZG8zAttOX1Lbn/n5qzW8ZLsUUf+ddFPbff0DUan3ZEvJE10qmvYzsy69Gv7wl7Y1zONnviikFW85PhuhiiRrn/2xzHLsr3/v1LaGOXftPr6fuxWVv55iWU8rYpr9tkjbO25Lr5yf/W66rgWWj61LPiJKWeR3y+XLl9WC+XXq1LG8sLGOlF/ly5dHt27dsH379td/F7np+Kfrt+Fi2Qa60skpc0m1nlfwk7g5oR7y3BfP9x3Bg2HjcLF0fd1tWW5Tpi6s3wL3h/wPfo6u8gXRjiYiIrI9UoStWrVKPSdXq1YN6dOnN3zulpQqVQrfffedKq7d3fV/pxARERERGWHpZftYetmI+Ci9hEwvKGtfmcsbKavythtl+bhs9wnw8nmh9n3u528pySSyHlf21sap3GeKOkZYl15Nhy3UtoaR0ss82ixX29/hdsdDuySM9TSL1qXXIdcblu2S7K1HIHfbkSj8xf/UOl/m7fFVehllx+nL2p5ElBLI9EnyLnB517j5xYx15J3ksq5ImzZtcPHiRe2o12R6ipK1uS7X/VhfPtk54HzRWgi4GbaO4esIDQpC0P2HuPvNUDimKay/HS1O6YrAJVcFuP8+kaO5iIgoSXv27BkmTZqEQoUKRTsVoryBRaZBdHFxQQCn7SUiIiKiKLD0sn0svWxEfJVeYuzKfZEKHBk51X3yGtz2CB8t8CIgCFW1EWASKYQu3X1kGCmIzKxLr4/iqPT64s8Vlu3v/PgXrtzztEwtOGjuFstl8Vl6Sbn225Jdpq9V2Me5PvsdLjf4DlCi5O7WrVvo168fypYtq9YBMb+QMUfeMS4vanbu3AkPD/3vtNcSEqJGXLnmq6wroJyzlYHnvOWvN5Wh6bp9Dp3A7e6D4FaxkVqPy/o2zHEtWE0VXX6OnLqQiIiSF/lbQdbi/O+///DNN9+oqYgjPsdL5Lm/ePHiaNmyJdatW8d1+YiIiIhIh6WX7WPpZSPiq/Q6dfmOml4wR5sRWLzrNDafuIh9TtfwyNtX20PPerrB9mP+0a3PZU3KI7P4KL1qD5hh2f7Hv2FrjongkBA0+nGu5bKIpZeMNDNfNmbFPu2ScLEpvbaYvlZynZ+O+NuyTQq4p75hI+OIKPmQqZC2bduGzz//HGnSpLG8eDFHii5ZA0TW7Hn48KF2VNyQkVfP/tuLixXe0RVQTplK4Ganfgh88Gq3F+Lji+f7j+LBb+Nxscxbuuu2JE1huFVohNs9Bpnuwx6EBgZqRxMRESVvMhXxkSNH8NNPP6F+/frIlClTpOd/Sd68edG3b19s3bqVUyASEREREUuvJICll42Ir9Kr8/iVqqyRKQlnbzmGWw+98ODJc7ib4vMiQI2esv6SnLlyT7d+lhRR/oFBaj/59/qDx+o61x9x1Y6In9Kr8U/zLNs//9+/6vYli3aetmyXWJdeoo1VaVeq23jccPeCt68/VhwIW6g6NqXXnUdho+A8vX2Rv0P4lIo9p6xV24ko6ZPpixYsWGB4okumP5Kyq0ePHnjyJHx0a1wKffEC1z/5Sl9E2TnAJW8l+J48p+0Vc2rqwoePcPfbqKculO2yTtfNL75F4K272pFEREQpm7e3N/744w/kzp1bTXUY8XWBREaBNW/eHG5ubhwBRkRERJRCsfSyfSy9bER8lV77na+rUV7WZY45WVr9huJdxqHvjA3wDwybOlD8smi7br+CHUejRJc/1b/mbesOx2/pNXbVfsv2zKbI7UukkKv33Sxkaz1cXRax9Fq255zlOHWsVuDJ/uJVSi8hJZ95e87Pfsf6o+GfPxElPbJWl4zqkvU9zC9UrCMntLZv345Hjx5pR8StUP8AuP8xBa75q+gKKeccZfFoxkIEez/X9owB89SFPX+AW6V3o5y68HzhN/Fg6Fj4HD6JYK/w329EREQUTkZ/nzt3DlOmTEGlSpUMXyfIqPCKFStiwIABuHr1qnYkEREREaUELL1sH0svGxEfpZdMTbjr7BW8NWi2rswxytQNR7Sjwo6bsPYgqnw9BVlbhY/6kmRrNRy1+8/Acbfb2t7xU3rJ6KqPf1usRqiZL5fjO41bgWd+/qjeb5raFrH0klKr26Q1qtAzHycp33OS5fJXKb1kWsWuk1ZbLstq+jqcvxW3U5wRUfzy9/fHrl270KJFC8uLE+sUKVIEPXv2VIVYfAkNDsbzvUdwuU5zXSHllL4orrfsCn+3mJ04k6kLfQ4ex4PhE3ChbAPddVkiUxdWbow7vQfj2c4DahQYERERxc7p06fx3XffoWbNmmoEeMTXDzIqrGnTpvj3339x9y5HUBMREREldyy9bB9LLxsRH6XX37vPInPLsJKm5rfTsfawKw653sBBl+tYfcgZDX+YYylxpHwy8tDruSrONhw9j6MXbuFFYMKeNJVpGLeccFMj1nz9Y77WjO+LQGw/fQk7zlzGtQdxM2qOiJKm4OBgHDp0CMWKFbO8KDFHpimSaYwWLlyo1vaITyHPfXDz8z6Ryik1leHR09peUZPCLOiRJ+4N+DX6qQszFMOtbt8j6D7XHSEiIopL8jdarVq1DNf/NKdTp07w8fGJ99cVRERERJQ4WHrZPpZeNiKuSy+ZrjBf+1Gq0JJRUdbTF5qduXLXUnq1G/OPtpWIKHmQ9bpmz56N6tWrRzo5Je/KbtmyJfbu3atOTMWn0MBAPPxzJs4XqakrqJwylcDD/01Xa3BFSaYuPHJKjdaSUVsyIsz6Osy5UKwOHvw2Xu0b4v1MO5iIiIjig0xpuGjRIrz55pu61xfmZMiQAQ0bNsTff//N8ouIiIgomWHpZftYetmIuC69/AICLetelez6J1xvuqup/YT8e/3BY3wzc6Ol9JI1tIiIkoNnz55hxYoVKFeunOVFiDnZsmVTa3kdP348QZ4PfA4dx5V3Wkcqqa417Qg/x/PaXnpq6sJDJ+D++0RcLNcw0rEqaYvArep7uPP1z2q6RBkFRkRERAnv2LFj6NGjB0qWLIlUqVJFeu0h0yePHz8eFy9etNm/RYmIiIgo5lh62T6WXjYiPqY37DNtvaXUkuRtPwrle05Ezs9G6LaX7jY+VlMHEhHZInkntazZlSdPHsuLD3NkZFfnzp3V6K+EEOLrh5vtekcqq5yzl8XzXQe0vawEhyD4sRfufjdcFVoRj1ORqQvTF8PtPoMR5BHN6DAiIiJKFHv27EHlypXV9MkRX4tIPvjgA1y7do3lFxEREVESxtLL9rH0shHxUXo99/PHD/O2Iudnv+tKLnOKfTUO/1u5H0+e+2lHEBElTWvXrkXt2rUjTWMoBdiUKVNw48YNbc/45zlrMS6UqBOptLr/82gE3nug7WUiUxcePa1Ga7lVeS/qqQtL1Yf7yEnwPXZarQtGREREtisoKAiOjo74+eefkTVrVt3rEolMfdioUSNs2rSJUx8SERERJUEsvWwfSy8bER+ll5mnty+2nbqEBTtOYf62k1h5wAlnr95DYBCnwyKipEtOKu3btw+NGze2vNgwx8HBAUOGDFFTHSYI03OL7/GzuNq4rb60SlNYTW/oe8pR7SYjwHwOn4T7qMm4WP4d/b5anNIVxaVqTXCn3xD4HDyuyjEiIiJKeuRvupEjR6JatWqGUx82aNAAGzZsgJ8f34RIRERElFSw9LJ9LL1sRHyWXkREyY2UWR9//LHlRYY5Mp3QgAEDVCGWYIJDcPfboZELrDSF8eTvVaq0CnnqjXuDfleFVqT9JHYO6rK7/X9V0xwSERElFPn76MWLF3EWKXAk8n9/f3/4vTB9/MJX2+4DX9/neP7suem53Fv93990ma+vL555e8Pb9PzuY/q/n6/+eiJe7+smoaY7tnbmzBkUL17csPzKnDkztm7dypFfREREREkASy/bx9LLRrD0IiJ6uefPn+P7779H3rx5LS8wJBkzZsTgwYNx5coVbc8EYHo+ebJopZp+UFdgpSmMO30Gw2vlRtzp+zPcqr4f5dSFF8u9jYdjpqlRYiE+vtoVExERJZz4KL0i/uvz3Bc+z3zw1Ospbt2+jT17dmH50qX466+/MGvWbMw1/bti+XLs27MH129cw9OnXqZjnuGZKdZll/nf101ilF5CSq2jR4/i888/j7Tul5RhFStWxLRp0xLt/hERERHRy7H0sn0svWwESy8ioqjJyK1Vq1ahdOnSlhcWkrRp06JDhw64cOGCtmcCMD2P+J1zwfVPvtKXWHYOcMlVHtc++BwXK0QxdWH6Yrj05oe423+YWqOLUxcSEVFii+vSSyLllIze8vHxUX/XnHM8h/kL5qOj6Tm7ds1aKFSwAPLlzYtSJYuhbOkSKF2yOOwL5UcRB3vUrVMXHT7viL//XoLz5y/g6dOnluIrqZde1mTkl5RfOXLk0L22kdSsWVON/ErQketEREREFCMsvWwfSy8bwdKLiMjYrVu3ULRoUcsLCnNk2927d7W9EkhICO4PHatGc1mXWedSmf6NsM0SOwc4pi+G+z+MRIh3Aq0xRkREFEPxUXpJ4eXl5QVXV1f07NkTJYqUQN5cOVGqeAkUzJsP3Tu3x6pFk3Hu4DpcOrEVjoc2YtuaeRgzfBBaNGuCnFmzIVuWjKhUoRzmzJmjrkuuMzmVXmbe3t5o27at4bSHpUqVwtWrV7U9iYiIiMgWsPSyfSy9bARLLyIiPfl9/cMPPyBbtmyWFxMSeUf0woUL1bvHE0xICLz+WYeL5RuGFVmpCkUut3RxgFuld/Fw3Ez4njiLED8uUE9ERLYprkov80gsmYrYyckJ/fr1Q5UqVfD55+3Rv/83KFemLHp364Tje1fD4+pRPL5xHF43juHJtaPwum7615THpty/dBCORzZi5sQReK9RAxTIlx+9e/VSUxjLc7/Rbcc2tjh9oJubG4YNG6ZGsVu/7smUKRPatGmD69eva3sSERERUWJi6WX7WHrZCJZeREThDh8+jAoVKlheREik/OrVqxeePUvY0VIvXN1ws30fOKZxgGMqe5xLbVx4OWUsjks1m+LuwOHwPekoTzjaNRAREdmu1y29zGWXjMSSEdjTpk1Ho0bvoFv37lizZg1mzJiOtp+1wJq/p8Hj6hE8uXYMjy4dgOfFffBw3YEH5zbhoeNmuKtshLvpY/m/p8s2XD2xEaN+6YfSxYqgXbu2uHrtGnye+1hGfJn/jW1sec0sGeHeuXNnZM2aVfc6SPLTTz9hxYoVuqxbtw7btm3D/v37ceLECbi4uKjRYfL3pYwiIyIiIqK4xdLL9rH0shEsvYiIwn5HDxw40PLiwZx8+fIl+DucQ4ND8OC3cWGllkxfGKHkUrFzgFOG4ngwdCxCfHy1I4mIiJKO1ym9zKWTr+k50NXFFQ0aNEDNmrWwY9dObNq0Cc2bNsNnnzbFvcuH4XXtCJ64HcADpy24f2a9ivs5KbnM2aDFatvZ9Xhk2rZ05u8o6lAULT/9BLdv37ZMdSjx9/ePdL9eFlsuvcwePXqEunXrGk57GJvY2dmhRIkSaNasGQYMGIBZs2Zhz5496u/PkJAQFXkMmENERERE0WPpZftYetkIll5ElNLJu5OrVq2qO7mTMWNGTJ06VZ3USmiXazeLsuhyq9YEHuNnw/fkOYS+8NeOICIiSnpeq/R6ETbC6+TxE6hbp44akb1//z6MnzABn7drj/59uuKq0248uXIED8/vxP1zG/Dg7EYt8v+wGBVeYZeF/Xv3zDpM/n0g8uTKgwH9+8PDw0NXfBndt+iSFEovsyNHjqBVq1ZInTq15fVRXCVNmjTqb9DChQujYsWKeOutt/DJJ5+gT58++PPPP9UoMkdHRzVlJRERERGFYell+1h62QiWXkSUUsk7jGWR+vTp01teNMi7kt9++211oiUxhPoHwCl9UUvR5ZS+GC7V+gj3vh8Ov3Mu8mSi7UlERJS0vWrpJWWTFE/3799Hu7Zt0eWrr3Dy5En88ccf+KLjF+jUpjUundkJz8uH4XF+Fx6cW4+HZzfCXUZ4SaFlKbZMOSOjujap/0cqvs5twMNzW3DLcQcG9O2KksVLYO7cua9ceEmSUukl5Hsk0xfKCZZJkyaptb/69u2Ltqave4sWLdCkSRM1yq5GjRooX748ihUrhvz586v1wMyvrV43efPmVSPPOnXqpG5/+fLl2L59O86cOYM7d+6oEXdEREREKQFLL9vH0stGsPQiopRITpbVrl3b8mJBIiO9ZHRXYv++9lqyWo3quvZeO4T4vdC2EhERJS+vUnqZCycZASTFhzyXT5kyRZUv+fLlRdWK5XBo5z94dPUQHl3Yjftn12ql1np4nN+Gx1cP4s7ZrfB03RFWbskIMKuyKzxSim3EDccdmPrnMAzs2x1vVq6ERu80Un8/mUd7Gd3H6JLUSq/XIWWUk5MTVq1ahVGjRuGLL75ArVq11Fqp1q+/4iKlSpVC9+7d8ffff6tpqW31b28iIiKi18HSy/ax9LIRLL2IKKXZtWuXejey+YWCRD6Wdwy/qokTJ+qu73WT6Y3XW0fDOj169NDuJRERke14ldJLIoWXrA1Vv249FMifX02NJ6XKwgUL0bZNK2xZOxcelw/ioeNm3JcRXqbcc9mJOZN/R+O36+DNGpUwuF8n3D61xnT5BjX6K1LpZTrmvuNWTBr5Az5r8T6avFMHxYsWQenSJbFqzSrTffCFr5+v4f2LLimp9IqOFIYPHz7E1atX1euv3bt3q3JswoQJaiRZ06ZNUaZMGd1o/Ngkc+bMKFmypHpstGvXDiNGjMCGDRtw8+ZNFmJERESUZLH0sn0svWwESy8iSinkZNP06dN1U+6kTZsW3bp1Q1BQkLbXq4nr0isuw9KLiIhsUWxLLylKfHx84OzsjHcaNkTpkqUw+MfB6s0ss2bNws+//Iz333sfY0cNxj3nbbh/ZoMp63HHaRsmjh2KKhXK4NcBXTBv0lCsmT8a906ugbtpn0iFlylhI8A24MbJ1Xjotg33XDZj8cwRqFGlIjp83h6PPT3h58vSK77JVNS3bt3Cvn37sGDBAgwdOhQdOnTAe++9hypVqqi/X9OlS2f4+ieqyN++77zzDgYMGICFCxeq675y5Yp6fBERERHZMpZeto+ll41g6UVEKcVXX31leXFgjrzrNy6w9CIiIoqd2JReUkhIvLy81NpdDoXsMX7cn1ixYoWa1u7r3n3wdb++eP+9JpjwvyG4d24j7p/bYPp3A/ZuXoR36r2Jk9sWwt1pE26dWYW7apTXetw1RUZ1GRVfUpjJFIfuZzaptb9un16LZfPGoG7NN3H5ylWO9LIB8hiSNy7JaLHJkyejZcuWyJMnj+HroegiU1ynSZNGjQyT65ERYURERES2hqWX7WPpZSNYehFRcifvCn/33XctLwwk9erVw8WLF7U9Xh9LLyIiotiJ7UgvWUfLw8ND/YH/4QcfYvPmzfim3zf4undf9On1NXr37IUP3muELcum4IF5ysLTG7Bkxh+Y9sdAPHQKG/kl0xnKtIeyz4MzsnaXaVuEwktGecm6XrKv+r9pH9n/3J7FqFalHPbt3wdfP+P7GV1YesU/eVw9efIEFy5cUNNgyjpf33//PRo3bozcuXMbvlaKGCnBcuXKhapVq+Ljjz/GTz/9hHXr1qm/nYmIiIgSC0sv28fSy0aw9CKi+CZT08i7cOVEjyxqLu/UlhNXsibHs2fP8PTpU3VyQn7/eHp64tGjR+pf2ebt7a32k/3lZFFgYCCCg4O1a345FxcXFCpUyPKiQNK1a1d1PXGJpRe9jDyW//vvP6xZsybRI/eDJ16JKLHFtPQyj/KSN7Fcv35dFV7yR/7//jcWvXr2wde9+6niq2f3nvioSSNcObQCD9QoLW2KwuMrcfvEWq28krIrbATXlUP/4vox076ntYJMK8Ieav9X5Zf8a9p2++R6OO5eZLqutWjT4n3T79LVeMHpDZOkO3fuYNOmTfj999/x2WefoU6dOrC3t1cjvYxeR1lHyjBZK6xXr15YtmwZTp48qYpYW/1bn4iIiJIXll62j6WXjWDpRUQvIyeZZK0DWXBc3jV7+PBhbNy4Ua2DMH78eAwZMgQ9e/ZEmzZt0KhRI1SuXFkVTRkzZoSdnV20SZ069UtjdJw5WbJkUe/Eld9fxYoVU4uey+2/+eabqF+/vjre/IJAsmTJknj5fczSi15m0KBBht+fxEpcTe1JRPSqoiu9zG+Skf+r0uuFD54/f4YzJ0+iRtWq+LJTRwz+8Sd83ftr9OnVW5Venb/6Ch9/9C4eum0Pm7bwnHmKQhnNFVZsqRLr9EY8vrALF49swpoF4/DYdYea6lCKrvum/XavmorrR1bj3pl1pv3Xwd1xI+667sSCKSPgdmg5fv6+G2bPnQsf32fqvlm/oSfi5xExLL1sjzwO5Q1a8iasVatWoV27dsiWLZvhc2fESAkmrzVLlSqFMWPG4P79+9q1EhEREcU9ll62j6WXjWDpRZT8yUkWKa3279+v3pU6btw4fPvtt2jfvj0++eQTvP/++2oNgxo1aqB8+fKqPMqfP7/6gz9t2rSWJ9SkHPn9tmPHjnj7XRxV6SULrcuItfgmJ9pkTROj+8DSyza0bt3a8PuTWJk/f752z4iIEkd0pZc5YYWXP3x8fbBz5068WaM6ihUugnbtPsfQIUPxda+v0bd3P/Tp3QdffPEFBvXrAs/z/1nKLjWCyyoyyuuh42Z4XD2CGxf2YcLIQXA7ukKN7gqb6nAjFk0ZivkTfsa90+vhbtrm4bwVHteOYvzoX7Bk1ghMHPEtfvr5Z3g99bIUXeaC7mVh6ZU0yKwCd+/exbFjx9S6cYMHD8Y777yj3mxl9JxqHXnNKa+rZTTY2rVr1ZvHiIiIiOICSy/bx9LLRrD0Ikqa5F3FMvLKzc0Nx48fx7Zt27B06VL1LtO+ffuqMqt69epqMW95F6r5STGxIqOypEBLly4dMmTIgEyZMiFz5szImjWrKtdy5MihfhfJWgtyn2X0Vvbs2dXlsp+MGkufPr26Drkuo9swinzuVapUwfnz57WvXPyIqvQaMGCAtkf8++uvvwzvA0sv28DSi4hILyall5oO+dlz7Nu7H7Xr1kWN4iVQt0QxNG/6EXqant8+atoUn7X5DL169EKnDh0xbFAfPHLZqqY3jFh4hZVeG/DAcROenN+DRxf3YsM/M9Cj0ye4dmwVHpxbh/umffaunIqOnzVTI73um3Lp8Coc2TwfU0d9h3Yt3ses//2AYg5FMXHCRDUFsyrmWHqlCDI99tGjRzFy5Eg0b95cvVlMXtMaPc+aI9MmyhvMpkyZomZLcHd3t9lzA0RERGTbWHrZPpZeNoKlF5Htk7UCZJSSFFqy9kDx4sXVH9BS/siUKvFdasn1lyhRQpVRpUuXVtMGyqLeX331lVoY/I8//sDs2bPVlDCyYPi5c+dw+/Zt9c5WWcsrqsi7aGMao+MlMhWNlH9ye1evXlXl1tmzZ1UReODAAZw5c0ZNWRPfWHrRy7D0IiLSi670MhdJ8lrCxdkV1WvWRN0SxXGsdnW0LVUKOfLlRb6cuVG0YGEUypsPZUuWRceOndD1i8/gcfG/sHJL1vCKWHqZ4rRnKfp0a41543/B9DHfoVyZMti+fAo8nDar466dWIV+3dtixOCeuH92I8YN7YeCefKjeBEHjP75ayyYPAz2+QugaMni+Oeff9T6pCy9Uh55/MprTHmdunXrVrRt21a9scvoOdcceU0tr98rVKigXrdJqUtEREQUUyy9bB9LLxvB0oso8Xl5eal3jcpJaFn3p1WrVqpYkvUBYrqmQHSR0VFFihRR1yl/kH/33XeYMGECli9fjvXr16tC7eDBgzh16hRcXV1x7do1PHjwQBVK8o5WejmWXvQyLL2IiPSiLL38/OFr+lemNLx+47rp92dLVC9WBBvfrIbVNaqjVOEi+PTjD7Bz+xq4ndmFndv+QYO6tVCvXj18/llLXD2xEg/OSMkVufRyP7sBVw+vwLDvuqJ+rap4q2Y1jBrcBzeOrw4rymTNL9O/+1dNQ/XKZbF6/mjcOrkWB7fMxYX9y3Hv1HosnvAL+pUshralS6B4ydLYvmO7uq8+L/xM9z368oulV/Im399Lly6pEuzXX39Vsy4YPQebIzMgyFq0ctJqzZo1nAqRiIiIosXSy/ax9LIRLL2I4p+8C1R+1mQElKxHsWDBAjVC6oMPPoC9vb3lCSs2kXeKyhSAMgJL1uJq3LixWqNLCq1JkyZh9erVarST3G5CjHRK6Vh60ctELL2k0JaCOyHSpEmTSCNCWXoRUWIzKr38/EyR8sjXB08eP8HvI0aisOm10tyqlXG7fm38UrE83q7zJnZsW4Uxv/6A9m2aY/HMP7Bs0WRULlcO7zR8GztWTFPrc7mf3WRQeoXFw8V02fmtpvyHh86bcf+07B9Weklhds90/JKZv6Jxg5rYt2YGbp5Zi3un1+H26bWYN/Yn/F62FLa8WRVvFrVHsw+bwu2iG3x9nsHXdP8jfk7WYemV8ty5cwfTpk1TsyTIG9pktgbr52PryJph7dq1U+uIXbhwQc1qQERERGTG0sv2sfSyESy9iOKe/Ly7uLio0VQyh79MdfI6UxHKH8CyIPY333yDRYsWwdHRUZ00kT+EZUoVKbVs9XdMSsHSi14mYulVsWJF7ZL4d/nyZTXi0/r2WXoRUWIzLL1e+JnyQo142bVnN8qULIXuFUrjTv06uFq3Dr4sWwo/f9sNF8/twLqlU9Dso7fxyQdvYc2CMfi4yVvo2PojnNq+APfProe7Y4TCyxSZ8vC+oxRcm9VUhyqqIJMyLHxk2P0z63HX9O/IH3uhcYM6uHZ8tbrO28fX4s9f+2JiuTI4U6sGllathOL2hfDTjz/imbc3/Hx9o53qkKVXyiWPd3nd7unpiVGjRqlpw62flyNG/m6QN8jIiDE5hoiIiIill+1j6WUjWHoRvTpZw0HWjRo/fjw6deqEhg0bqndwZs6c2fIkFJMUKFAAjRo1Qu/evdUorbVr16rpBt3c3PDkyRMWWkkASy96GZZeRER6RqWXiq8f7t65i4+afYSGxYrBrW4d3KlXE+dqV0fXsmUw7Ps+cL+0H+sXj8c/M0dg79qZGPJDD1w/vgp3T63Dw3Prw6Yp1AosfTbgoTbaS6YzdD+3Sf3/oekydYzjFssUh/fPrMO1I6vwbfd2aNa4Pi7sW2q6jdX4pks7zK5cHqdrVcMpU74uVwaVKlXC3j278ey5t/HnpIWlF5nJ41+mQpQ1cbt164bcuXPrnqetkz59ejVV4rfffotjx45p10BEREQpDUsv28fSy0aw9CJ6OTlJIetcHTp0SD3BfP3116hatWq005NYJ2PGjChevDjq1q2LFi1aqKkN5YSzrOPl7e2t3QolZSy96GVYehER6RmWXn5+ak3RpcuXoWSRwphepQLuv1UbTrWqq4JpSPky+LL9p7jrtA1718/G9uWT8ODcerju/hv3ZXrCMzJF4SY1oiuq4ktNYagi+5n+lX1ltJfpOp9ePgh3x82mj9fjvprmcD1Wzx+DmtXKw2X/Mpw/tAJvV6mEf6tUxumaVXHKlI01KqFu0SL4om173Lt7D76+vpE/Ly0svSgqMgpM1tnt2rUrqlWrFu2b6MqUKaPedCfr8crjioiIiFIGll62j6WXjWDpRWTMy8tLTSUo0xNKaSUFl0wzYn5yiS4ylWHNmjUxfPhwnDx50jIVIdfWSr5YetHLsPQiItIzl17m6QDlXx9fX1y5etX0OqoG3itRDDfr1cH1ujVwqlYVnKpZDf/UqIx6lcvhyOb5uHNiDW6dWIcH5zbh3pl1cJcpDaXMOrdZjdQKG8kVofCSgkuVXKZ9Tf/KSK97puNuHF+Nvev/wl3H/8Ku6/R6PHTcAOfdf6N18/fQr2trtabXqf/moX6xothevSJO1qqGE7Wr4VTtqhhWqRxKFi6CfXv2qqkZ5XOx/rzkXwlLL4oJKcBkRonZs2ejaNGiuudv68jfJvJ3ys8//6z+diEiIqLkjaWX7WPpZSNYehEBN27cwNKlS9UIrnfffVf9cRmTUVzysyP7Dxo0CEuWLMG+fftw5coVdXKDUhaWXvQyLL2IiPTk7yPrYkgiJ/qXL1sGhwL5Mb9aZdyrXxvnatXAyVpVccKUQzWrommJEujeoSXuOcporbByy+PsFtyV/0uRdTZsykKViKWXKsI2mf6Vy2U/KcA24MqRlRj89RfYv2YGTv43H4smD0Pblh+g1UeN8M/MkbhzZj1unVqHDYvG4t1SJXGsZhWcNEWmODxZqwo21qiG6kWL47uBA1T5ENVoL5ZeFFvyc3Lx4kV1kuvDDz+M8m8UKb8aNGigRoC5u7trRxMREVFywtLL9rH0shEsvSilkSlznJyc1LpZffv2RYkSJSxPGFElU6ZMKFu2rBr1NXDgQCxfvlyVW7b6c00Jj6UXvUxMSi852btr1y5s3LjxlSPHBwYGatcYhqUXEdkieR1lXQhJ6fXI0xPf9OuHuoUK4XzdWnCrUx0npFiqI+tnVVWjq6ZXLY/yxYri6y/b4tD6WTiwbha+bN8Mf88YCXfHrarQkmkLw0ZyRS69woqvDbh9ci1unViDB47rce/0eswcMwhN33sLLT5qiO4dPsHaeWNw88QquO5dgqmjvjNd/3D8b0gf9CtSBKdrV8dJmd6wVti/x03pV7Y03q5bD47nzllGe1l/fhKWXvS67t69iz/++ANvvfUWcuTIoXtuN0f+dpFpEnfv3q3WByYiIqLkgaWX7WPpZSNYelFKICeAly1bpkZlZciQQU0/aH6SiCrZs2dH586dsXPnTnXSQqYnZMlFUWHpRS8Tk9JLpidKlSqVbr/YRo7funWrdo1hWHoRkS2KWHpJUSRvTKpZvRr6liuHO3VrwbFODZzV1vM6VbsaztSsjhM1K2NclfIoYF8E+fMWRL58efCh6TXeLed98HD5Tyu2Nmnre+mLL1n36+GFvfBw3YlLx1fhy8+a46dvv8KqBWNweMNsnNs+F447FuLSoX9xaO0sfN2tHQoXLoRPP2iM4/v/RtvGDbC0ciV1P9R9qlMdp6X4Mv1/5ZtVUblYMSxeuIilF8U7mTZdHmdz5sxBgQIFdM/x5sj0h1mzZsWPP/7IdYSJiIiSAZZeto+ll41g6UXJkZubGyZNmoRWrVqhQoUKSJcuneVJwSjyh+Jnn32GKVOmqJLr2rVrquQiiimWXvQyMSm9unfvrtvnVbNmzRrtGsOw9CIiW2QuvaQckshJ+dWrVqFKsWLY8GY1XKlTA6dqVgkbTVVLRlWFTXEo5dfJmtWwqXpl/FihjCqaRvzyNR5fPYqHztu00mu9pfAK+1j7/7kNeHR+F64eXoVVc0fBZf9S/PFjL9SqXgFFHexhn78A8uTOja/af4xO7T5CqWJFMKDn57h8+B+smfMH3itdAodN9+GMGnUWdl9U+WXK0ZpV8U7JkujVs5f6XIymOGTpRfFB/m4593/27gO6iqprA/ASkC7wS/0gQCgBQkkhoffeOyIC0hGUIlawKwgqIKgoooh8IErvTbr0XhIIvYMEAh89obv/vDsz15twAwFSTpL3WWuv5M7MrcnMnZl3zjm7dsno0aP12Mf5+96ujBkzSq1atWT8+PH6v0hERESJD0Mv8zH0MgRDL0rssG6dOnVKVq1aJR9++KF4eno6vgCiFlpA5MiRQ0qXLi0vvPCC/PDDD3Lw4EHrkYieHEMvepSYhF4nT56Url27SuPGjZ+40J3R9evXrUeMwNCLiEykoVfYTQm7eVNCw0Ll4oUL0ue13lLB7T9ysLy/BJbxka1lvXXcLA2XnAotqxA6rfYvJXXz55eWTepI8IG/JCTgTw24zu6cIye2zpK1c8bI2R1ztNVXRAA2T7tAPL19tnw9qJ/MmfClnN89X4J3z5N188bKL998KIM/6C1/jP1c1sz5XnavmCjnAubJsS2zpV2L+vJaoQKy2wq5UOh2UV9f+GvZUsZXuhT1kPp16smFc+cdoZdziy+GXhQfcBFfkyZNom0Bhu7d0ULs9OnTxp6nICIiogcx9DIfQy9DMPSixAonDsaNG6cHbWjJ9bAuwdCvfb9+/TTgwsmGe/fuWY9CFDsYetGjxCT0iisMvYjIRDg+sgMh/DwXcl5aN20uLxdwl5MVysjOsuhC0Fs2YzyvKKHXtrIRLb+2+ftK76JFpUKZ0rJ3+59y4eBaCd45S4J3zJMT22fLpwN6yfq5Y0TH99oxX87unC0h4b//vWO2HNk8Qzq/2ES6dWwm038aIhsXjJPAVb9pBaz8TfYun6jLnQl/nNn//UoqFHSXuf5eGrYhjEMLNAReW/F6rJ+fhW/bfby8ZOfOnXJduzhkSy9KOPh/w1jEmTJlirQPYBeOoXr06PHAxTJERERkJoZe5mPoZQiGXpRYYB1avXq1vPHGG1KhQgXtosPe0Ect/C+jmzAc5AUGBrKrQopzDL3oURh6ERFFhn07O/C6cf267D94UGpWrCL9ixSSM+X9ZZt/RLC1FeFXpMAroiJae3nJDJ/i4pE/r8ye9L2EHFwjZ3fPlXM7I8bv2rp0vLzSsaXsXf2b3j63A6295muLL7QA27VsgnRs00C8SxSVYoULiWfRwlKudAl5OXzaloU/awuxbYt/keqlveSdYh6yHS260OXiA68FLdK85VfvkuJTrJgsXrDA5bheDL0oIeBYaN26dbpf6rwvYBfGMka38EuWLLHuQURERCZi6GU+hl6GYOhFpsI6ExwcLMuXL5e+fftKtmzZHBv2qIWuOypVqiQDBgyQLVu2WI9AFH8YetGjxCT0unbtmnbVunDhwieulStXyp07d6xHjMDQi4hMhH09DYXCCy1Ntm7dJn4lSsmwUiXkaPnSGiJFhEquQi+EYaX1dwRO7xYrKi+1bCh/H1gnF/cuj+jicAdqvkz+4RN5q1c7Ob19pnZ7eA7hF2qXNdbX7rmye+V/ZdXM72X17B8lYMV/5ezueRISMF+Ob54h/Xu0lfy5c8vwkp6yM/z5tpctFRG44XVo14YRr2+rn5fM8i0pfoUKy68/j5MbN65LKEMvMgz2Nd59910pWrRopP0Cu6pWrar7Iuiek4iIiMzC0Mt8DL0MwdCLTLR582apW7eupE2bVlKkSOHYoDtXhgwZ9GT+/v375datW+yykBIUQy96lJiEXu+9995Du2qNSeH+ixYtsh4xAkMvIjKRhl6hYXpy/eq1q7J65SopVaCg/OHrLUHl/GQLgiQNvOzwy6nK+MqWMiXDy0t2lfGRL72KiEchd/l94rcSsn+NnNs9T4Ot4F1z5O+dc2TCdx9Luxfqa4iFLgvP7ZovZ3cs0GXO7lwof2+fHVE7Z2sLsL+3z9FQbNDA7pI7V27JnzOHlMiXT3729pSdZfy0Bdr28OfW11bON/x1RnR3uNjPS/wKFZJhX36h74ktvchUuEBm48aNUqBAgUj7ByjsS7i5ucnixYutpYmIiMgEDL3Mx9DLEAy9yAQIraZOnSpt27bVA6/oTvr6+PjIkCFDZP369bz6kIwSXejVuHFja4m499Zbb7l8DQy9zBCT0Ktr166RlnnSmjlzpvWIERh6EZGJcHyEIAjBEFp6rVq+Qrzy5ZOpvj6yW1tQ+UR0J6ituiJuby0X0Y1gRMjkJbN9vaRdkcKS381N8uXMKU0b1pIzBzbIhf2r5NyueTqOV3D4z7+3zZEJ33wobVs2kAWTvpbzARHdG2prMIz3tR2tviKmnd89T/6cMkpa1q8h7nkLil+dVlKpfT8p7FlCSubNL1+W9JRt/gjk8Brs7hd9ZXP461nl5y1lCxSSd996Uy5fvuxoycbQi0yF8GvNmjU6tlfUsb9Spkwpfn5+us9w//596x5ERESUUBh6mY+hlyEYelFCuXDhgqxYsUIPsNKlS+fYaDtX+vTpxdfXV1vLYGwuIlNFF3qhMAZd+/bt47Tq1av3QKhhF0MvM8Qk9Dp58qR07txZGjZs+MTVqVMn7brIGUMvSgj2vq99otRukW3/xHQsg9v4HT/t3+2xOO2AwL7QBaEBYL69PJbBT8zDfXEhDeA2Hh/rA35ifCXAfJzktafhJ8IJ3NdedzAdj4nbWBaBDH7arXaw7JUrV3RZ7EtDSEiI/rx69aoui8fA60bhcXA//MTjYn8bz3v69Gm9z6lTp/TnpUuX9PWh8JrwE1094z2eP39e74vnwc+zZ8/q85w5c0Y/j4sXL+pz4D7nzp3Txzty5Ii+1mPHjulPPBaWxWPh9WE5vF48L54P98fjQlBQkP7cvXu3/sRrxOvAa0dheSyL94TXgOfF+8H7OnDggL7GXbt26X3xOjAfz2W/biyDz3Pnzp06Ha9n5bJl4p0vr0zx9dLQC10IRnQf6C07EC5Ztb2Mr6z085aPi3uKR9684l6omPhWbyh+DV6U/HnzS4vm9eWvpVPk1I4FcnbnPG3ZhbG59vw1WUYNeUP8vT2lV+eWsmTKKNn31+9yeP0UObxhquz4c7z8MXaItG/VSPLlySNuuf4jBYuWEN96baR278+l2stvSZFixcUtr5u8W7yYbHQEXxGvcbt/aVnp7y3lCxWU/v37yf/CP1e8R/v/BsXQi0yGbUP//v0lb/h6FfUixLJly8ratWv5P0xERJSAGHqZj6GXIRh6UXzDCZEuXbpo94TRdV2YI0cO+eqrr/SEkn3ii8hkDwu9ErpSpUolGTNmZCVw4e/g/HdxFXrFlScJvXCCHHDiGrAtxjScrMbvOOmFn7iN37Gfg2AA7BPu9k9sy7GMffIfJ4Bx4QNOAOMnngPL4vFxchy3Dx8+rPfFCXI8Lk6Y46Q7nnPv3r36ePaJ9aNHj+ptvE8si+l4TiyPIAAn03Ef+PPPP/Unxj6DgIAAfV14Xpy4x8+DBw/qdxUeB693x44d+trmzZun98GBBuDkH07W43nw+DhZiMdFKIHxKPG8f/31l35GCxYs0Mf67bff9Ccu+sBrPHHihF5hD/ib4H1+9913+nPu3Ln6GS1ZskQD0fnz5+trWrdunezZs0eOHz/ueD+DBw/WnwhNYfz48fo5r169WoOHrVu3areX+H3GjBn6mqdPn67va/jw4bqsfdD0+eef6/OiVTXeDwKRUaNG6efz9ttv699s9OjRel+8VvyN3nnnHQ1WMB2fHV7j0qVL9fFwH6hfv77+nb744gu9jRbe+DvPmjVLu9jC+8RngfeG14q/NZ4XWrRooT8/++wz/YnPd9++fVrofgt/s8mTJ+trnDNnjt53ypQp+rfF8+H/Yty4cXpfvDbcD/Nmz56t7x3vA3+XadOm6f8UHh+hDsbJw74yPge8L/yd0a0y7mt3+4XtP+D9YD1AF83Yn8Zz4H8Srw3/Z7g/3hs+202bNunz4PkBf2tAwITPG/+3eB68Bvzt8H+GefhfwmvAz+3bt+trx088JtYDvAe8V3v92bZtmz4P7ou/F/5G+BvgtWBZfF74P8Tz2SGbHXrhf835J/6/8bni8VF4btwHP+39NbxOfAZ4D/hpH1dgeTy/8/YCrxmvDY+BzxPLoKWXT/68MsmnlKAVl47lVcZHtpTxtro0RPnKOJ/iUqKAm+RzyyvetZtLzb6fS92+X0rtvkOkTP22kjd7DsmX9z9SyrOItG1aW7768FUZPLCn5HHLHV55JW9e9/DjnlziljuP5EW55ZT/hN8nZ45cku3/MkvhAgXDl3GT3PndpG6hAlIkfHmvag2lVu9BUqXz21KwQGENvnoVKyI7ypTWwGtrObxOX1nt5yXlw+//7ttWS69Qdm9IiYu9fg4dOvSBYzXcxsVcdthPRERE8Yuhl/kYehmCoRfFB5xAwYFT+fLlJU2aNI4NtHPh6sFvvvlGT9DgpAtRYmJy6MUys0wNvbANBoQpOCG9ZcsW3YfBiXv7ZDpOfuPkObbtCHgQoNgn42HZsmX6E0EGIJzByXCcWMdJduxrIFzCNDwOTpbjhL19ch637da9CHtwch4n1vE75qEFCk4c47XgPvbzI0DCyXMsh8AJrw33xXcKnhcQOoB9Ih/vAffFa8Ky+IkT9vgdPzEP7xefAd4H2IECpmM+nhPvBc+D58Rrs8M8++S/fRv3wU+cDMdP3AfPBfh87GXx0w4Q8F7wPPj88dj4LPATnwV+BywLeD7Aa8J97eVQ9u/4aQcQYH/n4iQn2NOxDArwWp1/4rGJnhb+j/A/jMJ6sHrVSvFyzy+/+njJzjIRLb22I+jy95Ud4T8XlS4lL3kUkEJu+aR4mSpSveNbUrc3Aq+hUqfvEKnZ81Mp/+JrUsS/ilSsVFmDTwTMU/6YIi0bNZIBRQrL2jK+MsHXS7oV8RCP/HmleNEi8n7fTjJmyJsy77/DZOKYT6RmOV95o1gR2VOujJyoUFZ+8ikpeTxKiH/LHlK9+/tSq8dHUtKvkhTNl18Whr+miNZnPrLF30uWht/2L1BQhn76qYaBDL0oMcP36rvvvqu9bzjvQzz33HN6kQUCdCIiIoo/DL3Mx9DLEAy9KK7ghBuuZH711Ve1VZe9UbYLfcR7enrKK6+8oldAEyVmJode7N7QDDHp3hChBloGocVLTCsmJ5zYvSERmQjHRwiCEHpdv3FdNm/eJL6exeTzkkVlt7byiujOcLWft3xavKiUdneXQgUKSpmGbaVu3y+kbp/BUrf3UKnZ40Op2L6f+DbrKN5NOohvk47iVb2JFPXylR49e8qPY76XVnVr62MdLecvh8r5yeHyfrLW30d6FCssHnn+I1UrlJYXaleVgrlyy6/eXnKiYlkJKhfRimuWTynxdC8gPg3aik/Tl6Vy53ekQtteUiSPm8zxLSVb/SPG9dpaxkvmli4p/oULy9jRo8Pf0w0JDX9vN2/eYuhFiRouNmnatOkDFy9myZJFxo4dqxdnEBERUdxj6GU+hl6GYOhFsQ1XkaNbJTc3twe680Ih7OrYsaOeqOWBPyUVDL3oUWISen3wwQfRdvsaXVWuXNnRGic6DL2IyETa0gthUGiYXA+9IUH7g6RKhQrS06OwBJT1lS3+3rLG30faFvaQgnnySNEiJaRax7elbu/BUr/PYKnS5V0p3bKH+DTpJKWbdAz/+bKUbvyyhl4+TTqIf6N24lOrheQr6CmeefPJrvJ+ssMvopvErWV9ZEf44+8r5y9zw5/j3WLFJKCCn/QqUkTeLFpUloUvF4jlynjJn77eUt6jiHjXf0m88dgN20uJWs3Fr0B+bYG21Rrba5e/r/zXu6T4FPGQefPm6AVgCPRuhrGlFyV+2NfAuIAYb9l5fwJjf+F8AlqGExERUdxi6GU+hl6GYOhFsQEHQRgjA2N1IeyyN8B24SRuvXr1tJsZe4wXIqLkJCahV9euXSMtE5Py8fFxdDkXHYZeRGQiu6UXCgFR8Nmz0qxJY2njnl+DpO3htby0l/jlyy8lfMpLzZ4fSe3eQ7WlVZmW3TTcQtjli6BLw66I8EunhZd3k5fFp3EHKdXoJSntW152lfOTnWUjWo+h60S04trk7y2/epeQl4p4yJ/+ftK5SAH5qXQJCSqLVl6lw1+HlyzxLSXVChcRnwbtw5+nQ/hjdpKi/lWlY5HCsiP8MbaEPya6N9xRxleGlvQUX69Ssm37drlx/QZDL0py0AUuxqnE2F7O+xWpU6eW1q1b81iPiIgoDjH0Mh9DL0Mw9KKngf+XmTNn6lhduMrP3vCiEHQVLFhQT+JiMHYiouQsJqEXxs7AjisuEohpoYvDR2HoRUQmihp6YVy7Ht27SxW3PLLe30tDKfzEOF5FPX2keveBUvvVQeLfCoHXy1K6aSdH4KVhV2OEXQi/OjjCL4RePuHz/cpXl8WlS8kuDbusKhsxbtga/1JSo0A+qVCkqFSrWVuaFSsmnxUrKuNLecqM8PqxVHHxLOYl3o3Q0quTeIU/Hm4j4NqGcE5DNC/ZEv6zh6eH1KlZS4+x8J4iujdk6EVJ08iRIyVPnjyR9i8Qfv3+++8co5mIiCgOMPQyH0MvQzD0oif1/fffS6ZMmR4Iu1AYq2vNmjV6cE9ERDELveIKQy8iMpEdeqE1FOrq1asyacJ/pZRbfvnNp6S2stpexldGlSouRXLnkbKN20mNvp9I+Zf6iG/jThHdGaJVl3PwZZXeRijWpJN4I/iq3kx6Fy8uO8v6yHZt7YXAy1cWhf+sXKCADBr8mezaHSCnT5yU+QvmS4vwbXa+kj5S46VXpLh/ZSlQyEMDNe/G7cW7YRspXaykLPQtJdv8vWVbOYznhVZjvlK3cEHp0vFluXLlSkT3hk6BF0MvSooQVteqVSvSPgYufkT3y+j2noiIiGIPQy/zMfQyBEMvehwXLlyQjz76SAoXLuzYyNqVNm1a6devn2zatOmR48sQJTUc04sehaEXEVFkzi29EHrduHFDtu/YLqW9S0kfz6I65tb28FpUuqSUyp9PvPyrSMM3RkiFDq+Lb+N2UlpDL+ewC628wn82tro2tKp04/ZSqv4LUq1YcVnthxZkPtpC62tPD6ntV16qNX9RWrRoITt27JBFCxfI/PnzZeq06dKk82vy2ey/ZOCkBVK1dkMpVb2xeDd+WUpWbyptPYpq0IWxvNC94dbw1znb10d8CrjL2B9+iGjlFV7OgReKoRclVVhvihcvHmlfI3v27PLjjz8aey6EiIgosWHoZT6GXoZg6EWPgv/d48ePy5dffqktu+yNq12FChWSt99+W65du2bdgyj5YehFj8LQi4goMufQC4WQ6OzfZ6VHly5SLk8uWe0f0SJrS/jPlz0KScEinlKt20Cp3u0DKd20s1PYFVEIvNC1IX76NGwrvo3/ne7VsIMUK1tVPihRTD4uXlTK5y8gFWo1kLfGz5L3f18olWo3kqFDh2o3syeOH5PZc+dJ6zc+lA9nrJI3xs0Qv+r1wx/jRe3isLCXn3zlVUJbeWHsMYRoCMDe9Cwqpf1Ky6YNGzXAc35vdjH0oqQMx4PdunV74JixVatW2iKMiIiIng5DL/Mx9DIEQy96GByw9+jRQ9KlS+fYqNqVN29eWb16tR7AEyV3DL3oURh6ERFFFjX00i4Or12TceN+ljz/ySk/ennquF7okvA7H0/Jny+flGv6stToPUhKN+/6YOjV+GXxadxevBq0l2Lla4tfq1fEW4OvzuIbXj712otbEU/JU7CgVK9eVwZOWigfTF0m709fLt0+Hy3VqteU4yeOye7du2XK9BnS6aMR4fOXS8te70ixyvXCH+Nl8a7zgpQsXFjmlS4l28NfFwKv7X7esiy8yuZ3l96v9JRLly65bOWFYuhFycHhw4fFzc0t0n4HgrA9e/ZYSxAREdGTYOhlPoZehmDoRa7s27dPunbtKlmzZnVsTFE4adq6dWtZunQpBycmchJXoVeqVKlk3rx5cu/ePeuZHm7Dhg3y3HPPRXoMhl5mYOhFRBSZq9ALYdG+oH1Szt9fGhfKL1v8fXRsr+X+paRagYLiW6mu1Hr1M/Fr1d0xpte/FdG9oXeDduJZpqpU7vyORIz9he4OO4hP45fFu+4L4l26orwzYa58OH2FfDR9lXw8bbW89/ufUrdlO+3Z4Ndff5Ufx42XfqMmSr8fJotv9cbi2yxiPK8SVRtILfdCstHfO6KlV9nwn2W85euSxSRf3rwyd94cvWjMHqfM+f2hGHpRcoFu8dH1PfZl7X2PLFmyyMiRI409N0JERGQ6hl7mY+hlCIZeZMM4XAcOHJCePXs6NqB2pU+fXurXry+bN2+2liYiZ3EVemXMmFHOnTtnPcujYeD8XLlyRXoMhl5miBp6ubu7y/Lly+OlsGPsfNIJxdCLiBJa1NDLrsuXL8vYn36Swm55ZYw3uhFEiypv6V+siLgXLS61X/tEyr/U94HQC90ZojWWT8N2UqJKA6nW9T3xa9ZZW4BpF4eNO0iJqo2kSIGC0qb3u/L2uNny/vQV2oXhB9NXSbdB30iVKtVk3/79MnzE1/LBf+dK3dadpET1puLdqIN4N3xJPL3KyRfFi8j28NezvYyP7AyvlX7eUqeAuzRr1FBOnDzhCL1cvTeGXpTc/Pzzz5IzZ07H/sczzzwjnTp1kvPnz1tLEBERUUwx9DIfQy9DMPQiwEE4ToynTZvWsfG0q2nTpnqlXkxbmhAlR3HZvWGfPn1i3LJyzJgxkjJlykj3Z+hlhqihV0IXQy8iSmiuQq+wm2FyIzRUjh8/JpUqV5I6BQvK9jKlwstLxniVlDz5Ckj1zm9Klc7vaFeGvk06RbTwatpRvJt20CDMBwFV7dZStfu7GnpFhGKdw+e11+CqWLnq4p73P1LYvaC0eqW/DPhtoXwyY7W8/ets8fUtLRMnTZS3PxgkPYf9LKWqNwy/X0RrMa86rcXbo6is8PeWPWV9ZE34a/rD11t6lCgqxYoWk1kz58rVa1cfCLycbzP0ouTo1KlTkidPnkj7Ifny5ZOzZ89aSxAREVFMMPQyH0MvQzD0St4w5sDAgQMld+7cjo0mKkOGDNK3b1/ZuXOntSQRPQzH9KJHYehFRBRZdC29wm7ekmvXr8nvf0yRgvnyS1/PIrLN31fm+pYU70KFpPwLPaVKl4Hi3fDf0AthF1p6IZzyCZ9eukFbqdHjI/Fr1k1beiH48kEXh406hVd7KVX3BSlRroYULFhIPD1LSu0XOsqrQ3+Ul98eJHVr15UOPV4V7wrVxKfBSxp6oQWZp38FaR6+/DifUtK6aFEp+Z/ckt/NTcr6+Ejx4sWlfsN6snvnLrl+/boj6IoagDH0ouQKF3C9+eabkfZFMEY0exIhIiKKOYZe5mPoZQiGXskTDjqmTp0qOXLkcGwsUWjp1axZMzl48KC1JBHFBEMvehSGXkREkUUXemmF3pSQ8+el3+t9xTNffvmvdzFZXdpXahYsIP51Wkn1Xh9LaQ2j0K1hROjljW4NazaJ6IqwTgup3m2glG7WScfy8kXY1bidBl/aFWLD8GV0jK9WUrJsVSlYwF3c/5NbfPz8xD1vXnHP5y4lqzYJf7xm4T/rSYmy1aWge0EpGf5acv0nj5QqUUK6d+0qs2fP0W7aVq1aLf7+/vLRRx9pV8Ps3pDItdGjR0caZxTdHc6ZM8eaS0RERA/D0Mt8DL0MwdAr+dm3b5+4ublJihQpHBtKVJkyZfT/gd0YEj0+hl70KAy9iIgicxV6hdkVFqZjY+3dt1/KV6gkfgULyYzSxaVJwYLiU7muVHvlIynd9N/xunwadxCfhh2kqH8lKVS0pBT3qSjlX+ojpWs3Fa/KtcWrXFUpVKyU5MpfRJ7PmlOyZM0h/5f1+fCf2cKPhXJI5kyZJXvmLJI/T14pmDe/FAivfDlzSIHc/5Gc2bJLliwR86qUryiTJ06SY8eOy5m/z8rOnTs09Lp46X/yy88/S7WqVWTv3r1y7dq1B94biqEXJXdY7zdt2iTp0qVz7JMgBPvqq6+sJYiIiCg6DL3Mx9DLEAy9kg/0mY5Bg50PMHBlXaVKlWTBggVy9+5da0kielwMvehRogu9qlWrJitXrpStW7dqoWtZe17q1Kll4sSJ2vWPPT9q9e/f37E8Thr9+uuvjuVXrVol7u7ujvnOxdCLiBKay5ZeYfgZ9m/wde2a/PXXavHx9pG6hQpIJ49C2i1hzVc+Er8WEV0Xakuvxu2lePla4lGslAZWaK3lWcxTqlaqJi1bt5JXevaUTz7+UMb+OEZmTJ8mixYtkmXLlsmy5atk2dKlMnfu3PDt5wTdpnoWLyFeVRuIX8O2UrBQEenRrZssXrxY6tevJz/++KOcO3dWxvwwRj748H3ZvXuXXLlyVa7fuBb+e6BUrlxZpk2bJqGhoS5bezH0Ioqwdu1aHdfL3i9JkyaNdrvPCzCJiIiix9DLfAy9DMHQK+nDVbI4CZoqVSrHhhGFgwx0L2Hq/yZRYsLQix4lutBr0qRJ1hIRdu/erRckYJ6Hh4fcv3/fmuPanj17JGXKlLp8oUKF5M6dO9acCO3atYv0fHYx9CKihOYy9HIqhEYotJqaPmOGlPIsLoXzuUvREr5So+eHEaGXjuWF7g07SYU2PaVa14FSs9v74l+joUz743c91rl69ao+BoIo7BfbYZT9+AjawsLnYZmAgACp0aCJ1Oz1idR9/Qsp6lNeOnXqKJf+d1k+/fRTvTABj7lkyRJZvnSZXmRw/Phxve+ZM2ekSZMm8uqrr+q4Xni+qO+JoRfRv44ePSrFihWLtH8yYsQIHp8SERFFg6GX+Rh6GYKhV9KGv6eXl1ekrgzxe79+/fTgnIhiB0MvepToQq/XX3/dWiLC7NmzHfOee+65R17xPH/+fEdIljFjRh2z0VmFChUcj+dcDL2IKKE9KvSyKyw0TK5euSIzZ86UPLlzS+FCnlKjy7tS2gq9dIyuxuHVpJP4Ne8q5Vq/IsUr1JTFC+dqyGW3urLDLlcVFhaqY3Ht2rVLajVoLBVe6i3l2/UTzzJVpW69ejoPQVeXLl00RDt5/IQsXfKnrFmzRsfCRciF6djHxvi4ly5dcvl8DL2IIsN6gZ5H7P0TXMjzxRdfWHOJiIjIGUMv8zH0MgRDr6QJgdaAAQMidWWIatiwoWzYsMFaioiI4svDxvTCVc4YVxEVdbuN4MvPz88xP2o9bPmoV087F0MvIkpoMQ690N1hWJhcvnxFJv0+WQoXLS41Or8t/i17aCuviNDLbvEV8buHfxX547ffHgi77N+jBlK4jWArMCBA6jduKiXrviDe4Y9VrFwNKV++vJz++4zs3LlTOnbsqGN4bdu2TYYPGy5Dhw6VefPmyenTp+XixYvy5ZdfSt26dSUkJOSB50Ax9CJ60IULF6RRo0aOfZT06dPLmDFjrLlERERkY+hlPoZehmDolbSgRcCOHTukePHijo2g/bfFgcOjuskiIqK48bDQKyGKoRcRJbSYh14RoRRabf21Zq0UKVlKqnXqL/6teohvk44aepVGK68mGNurowZfpao1kq9HfvtAd4ZRHzuiwiQs9KaGXnsD98hL7cMfp27r8MfpIMUr1BGfUl6yZesW2b1rl7Rt21aOHTumY+WeOHFCTp48KcHBwXrSHr8PHz5ct/d4LIZeRDGH1pG4aMd5X2Xy5MnWXCIiIgKGXuZj6GUIhl5JB/7H3nzzTXn22WcdG0AUuli5fPmytRQRESUEhl5ERJHFNPTSMbfCbsm1G9dl3dp1UrS4l1R+qY/4t+wuPmjhpa27OkW0+govr/AqVbul9O37unY5GH3YFVFoSRYaGiaXr16RPYF7pEu3HlKiRjPxadRBSlZuIMUKuMsfk/+QTRs3SeOGjSRwd4Ac2L9f9odXYGCgjsWIwhiLPXr0kD59+mh3hwy9iB4PumiuUqWKY18lderUsnz5cmsuERERMfQyH0MvQzD0ShpwtalzX+iofPnyydSpU3lwTURkAHSJ5byNTuiaMmWK9cqIiBJGjEMv7d7wply/fkM2bVgnHsW9pGLLruLf8hUNvbR1V+MOOr6Xn4Zf7aVU/dbyYtt22uIKY3q5ftx/yx7Ta8+eQOnX/00pWa2xPmaJqg3FPb+7vPP2u9qKC70pNGjQQLsMb9q0qfTr20/3tzdt2iQ///yzdoW4ePFixzhiEY/9b/jF/XKih8NxrY+Pj2N/xd3dXVuBEREREUOvxIChlyEYeiVu6K5wwYIFkiZNGsdGD9W4cWP+LYmIDILusNq0aSPVqlVL8HrhhRe09QMRUUJ6vNArTFtPbdu2VYp7FpUCBQuLZ5kq4l23tXg3QeAVEXp5N+kU/rO9eNd/SRo0aaZjazl3ceiqEKj9G3rtkQ8+/EiKla+tY3oVr95IChUoKIULe0i37t1l9OjRetFAixYtNPjCGLq9evXS8YgwjuJXX32lJ+ijC9oYehE9GlpRPv/8845jW3R7iPWYiIgouWPoZT6GXoZg6JW44SDbuTtDhF8zZ86UO3fuWEsQUVKEsUMQokRXOKmG7cDx48fl1KlT1r1cw+D7uA+WdbXtwBW39uNy25LwDpSsKecGjbRuERElXjENvRBKRfy8oV12f/31CPEuWUKyZckshdwLSfFyNcS78cvi3bRzeLUX3yYviW/D9lK1Vl3tdhAny6M+ZtRC6IWLAfbu3SsjR46S/+QvJNlzuUm+/+SV/HndZPjwEfK/i//TZa5du6bfjbt27ZJ58+bJjBkzZM2aNTrGl92yzDlkY0svosd35MgRSZ8+veM497PPPrPmEBERJV8MvczH0MsQDL0Sp8OHD2t/588884xjY1exYkXZsmWLtQQRJWVdunRxrPuuavv27bJv3z4dCyFPnjzWvR509+5d8fDwcNxv0qRJ1pwIFy9elLRp0zrm4+QhJYz7oWFypHYb2Z0ijxxr0dWaSkSUeMW8pVdEIZgKC/959do12bd/n0z49b9Sr249yRv+PVewQGHx9C0vJas2FJ/6bcW3SScpVaG6zJkz55EtvVAY1wthVlBQkIwZM0Zq16gpQwZ/Ln6lfeXzQYPkAlqMhUY8DkItFB4Xrc9Q+D1q2OWqGHoRxdyECRMc+6DYp50+fbo1h4iIKHli6GU+hl6GYOiV+OBkNv5WzgcArVq10gNuIkoevv/+e+1aCWWHUv7+/o5puDr2cUIvBOgpUqSQcuXKRfq+wtXrmGcH7FFDr3v37mk3Trjy3dX3HE7uITjDle9R5+O5cV987+BxokKrMtzXVXc2eFzcH3ASEY/h6kQiuoBFqwDMx4lIDJCOwnQbHgfzcbIzKixrt27DfbCc/bzxLeS7XzTwQh1v3sWaSkSUeMU89LKDpFsShm4Dw0IlVAOnGxIcHCwTJ/5XatepI4ULFpQCed2kQEEPKVysuBQuXEyGDRum2/cYhV5XI0KvX8b/Ip98/JEE7tkjjZs0kW+//VafD4/h/DiPekxXxdCL6PF0797dcdybO3du3TckIiJKrhh6mY+hlyEYeiUuGBg7Q4YMjg0cTlJPnDjR2P8vIop7bm5uuj347bffrCkRHif0wrakcuXKGm4dPXrUmivSo0cPyZQpk2TOnFmfwzn0wrgnGL8EYy5kzZpVmjdvrgGT7ffff5dcuXLpdwzmlypVytEaFd1HFS1aVO+LKlCggF7Na5s9e7Z+J+G+2bNnl969e2sABQjYSpQooTt4K1askHz58ulyefPm1YsCbHgt9erVczwHHidHjhxaCxcu1GXQHRXeg/0aX3rpJZ0OCNuwbO3atbULyJIlS+pyO3futJaIPzfWbpaANO4RoVdKNznWrLM1h4go8Yp56PVg2YGT3eIK3f5u27ZNW2n16N5d2rRqJeXKlpEmTZrIuXPndLmojxG1cAHZgQMH9PsIY3Wh+8I33nhD+vXrp8FZTB7jUcXQi+jx4PyEvR+KatCggTWHiIgo+WHoZT6GXoZg6JU4oIXBBx984NiwoXCSmN0ZElFshF64/y+//OL4acufP794enpKoUKFdJ4deq1fv17HWcCYgp06ddIB/BGc1alTR+djAHK0QMM4g+3atdP5WbJk0fvj5ONzzz2nj4fpL774ogZOo0aN0vtiJw6vG8tg3MIyZcpoGPfaa6/pfLQay5kzp2TMmFEfHy3c7M8A0zEfrbOqVq2q09566y357rvv9IRJypQp9UQmQqyAgAAN9FA9e/aUatWq6fLoKhYnU3HyE7dTpUolvr6++jsKY5vFp39u35H9JWtIQOr88r8JU2V36nxyrGknay4RUeIVG6GX/TsKoRS23fgeCDl/Xr9Xypcvr62fYxJYITzDNh7fp2+//bZeoDFixAi9qAMtkxl6ESUM7LM5B1+rVq2y5hARESUvDL3Mx9DLEAy9zIeTt507d3Zs1FA1atSI1D0XESVfsRV6bdy4UYOm9u3b67zVq1fr9KFDh0qRIkX0dzv06tq1q94eNGiQdk2Ik4yFCxfWaTi5uGDBAv0dYRZaRuF50FILy+IkIuah5s+f7+hCECcD8Xvx4sV13rRp03T5EydOOJZHYGaHXrj93nvv6fcrXpe9zNq1a/WKfLQyQ+suW+vWrTU8W7lypd6uVKmS4zHwPHiNaPWFkAuPZ4deKLz/rVu36knV+Pw+/+fWbTna+OWILg3b9MTOhLb4Otako7UEEVHi9TShV9TSECw0IvxC4Xvgz2VLdbuOE+SPCqxwH4Rep06dkj/++EP69++vXR2iRwW0hD558qTOd3XfxymGXkRPBq0u7f2yWrVquewam4iIKKlj6GU+hl6GYOhlNpwARmsFtKCwN2pokYCDZiIiiGnotWPHDvH29nbU2LFjI4VeaJ1VsGBB/S6Axo0ba2stdBMYNfRC6yvcxvcHlkeh1RemYZBxbKPwvLiNFmEImA4ePKj3xXOiq0PMw+tDq9Xly5frPFxJbwda6FoQj4vwCrdRmzZtihR6IZgCnNy0l1m6dKme3MTjoiWY3eVi2bJldVuKVmqYb49ThiuH7feA5TEdgZ9z6DVu3Dh9jPh28efJGngFFSgn90PDdFpA2gJyrBF3boko8YuN0EvDLuunXbiN7Ty668V+NMbBRGCFsuc7l/N9zp8/r+NZYn8b33loKYzxLvEdydCLKOFgvwwXU2G/DPtqzj0TEBERJRcMvczH0MsQDL3MhXFrmjVr5tiY4YTyZ599pgfmRES2mIZeaAFlb09Qn376aaTQC1064cp2/I4TfhgsHGNi4QRd1NDL7u4P3RN27NgxUiGYgsOHD2vXgujWEMumS5dOAyfA9u2rr77SkA3zcPJi2LBh+h2E1lmY1qFDhwce+9ChQ47QCy2ybM4BFUIvfOf+/PPP2gUixvPCe8RztGjRQpd1DsnQctb5OdBdIz4758fEeIrx7cbmHRKYqYiGXtfXbramigSkKyjHGnawbhERJV6x2dIraiHAuhASIp98/Im2YMaYX64CLxSmo3CfixcvytI/l0qF8uWlVMlS4u7urmN6Xb5yWee7uv/jFEMvoic3ZcoUx8Wg6GEA6xQREVFywtDLfAy9DMHQy0w4qLbHl0HhxPXnn39uzSUi+ldMQy98D+Fkm112l37OoRdaY+FkQokSJTRUwlgmrkIvhEe4PXLkyEjfb2idav/EYwNCqurVq+vyOHGI6fZJP5yswFhdmIer8XEVvT1+2JIlS3QZG7aLYIdeuBDAFjX0gsmTJ2vQ9tFHH+n2E6GfDa85X758uvzgwYOtqRHwPJifkKHXP+Gf30HfOjqO1/mvx1pTIwRkKCRHG7THm7CmEBElTtjWOgdCsVnYluMCB3wnVKhQwdFtrXPAFfUnvoMQem3YsEHq1K4jr/bsJdu3b9cLNbCMq+d53LK//4jo8WE9RBBt75/NnDnTmkNERJQ8MPQyH0MvQzD0Mg925tH1l931Fmr8+PEcw4uIXIqtMb0QeoHd9SBqz549LkOvqVOn6m08PlpGjR49Wrp37y41a9bU+QsXLtQuFBE2YacMv2P5r7/+Wsf0QuD09ttv67wmTZroPLRshXfffVdvY3wxLIPgrW3btjomF8Qk9MJ3Li4cQICHn9gZxDhkaE2Gk6CwbNkynY9gDGEcXhveC06m4MRnQoVe/4Rv64827KAtvI426fRAuBWYsbAcrd+OoRcRJXpxFXphXxqFbTm+23DhRZ/XesvmzZu1xdflq1fk6vVrcj30htwIL2zvUQi80Er5r7/+khbNW8hXX36p3zl4LIRirp7rcYuhF9HTwRi09v4ZusDmMTIRESUnDL3Mx9DLEAy9zIID4RdffNGxAcNYOAy8iOhhYjv0QgCE215eXrrtcRV6oZXYTz/9JPnz59fpKAT12H4BujHMli2bYx5eB0ItnFDEGCvOV+nifhgvBWOOAV7TJ598ot0SOt//nXfe0fkxCb3wuocMGeLoAse5SpYsqScvsQzGarFbfKHwPA0aNNCWagkVel36baYGXvsKV5Q7f5+zpv4r8DkPOVrvJYZeRJToxWVLLxTCKozrOGDAAMmeLbt2qVu+fHmpV7eudO3SRQa8O0A++fhjeW/ge/Laq69Ks6bNpHKlSlKyREm9WGPWrFn6XWA/VtTHf5Ji6EX09OyLqVB2t9pERETJAUMv8zH0MgRDL3PgBCzGsLE3XmnSpJExY8ZYc4mIzHT69GkN2OwWVDaEV0eOHJGgoKAH5uE7EfdDq6+QkBBramTYJiIgQ5eLdreJMTVnzhwN09BCbP/+/fo6VqxYIRkyZNDtqx2wAZ7n+PHjuhy6sEpIN/cfihjHK1Veub5qgzU1Msw/WrctQy8iSvTiMvSyW3vhIoczZ87IH3/8oWNZotVv3bp1xdfHR7y9vMXHG+Ujfn5+0qBefenetZteeIHvDDvwis1i6EX09DDOtX3MjG6siYiIkguGXuZj6GUIhl5mwP8HugZzbpWAFl6m/t8QEZkMYRe2o+PGjbOmiLZkQ0uulClTGvtdd7BsQ23lFfL1T0jjrKmRBWYpKkfqvMjQi4gSvbgMveyygy90dYifaC2MLg6Dz52T4OBgR50/f15bI2M+wi4sG1utu5yLoRfR08M+nX3MnDt3bmsqERFR0sfQy3wMvQzB0MsM6CbM3mgh+MIVa2glQUREj2/r1q2SOXNmbTFbokQJKVq0qP6eKVMmmTJlirWUOf4J396f7PpGxDhejxiva8//ecqR2m0YehFRohcfoZdz2QHYoyouwi67GHoRxQ6M2WofP0+fPt2aSkRElLQx9DIfQy9DMPRKeOiHHGPT2ButLl26WHOIiOhJ4fvt66+/lt69e8tbb70lkyZN0hOZJro8c6EGXnv/4yN3Tv9tTXVtz/PF5UjNFxh6ERERUbI1ceJEx/Ezxo0lIiJKDhh6mY+hlyEYeiUstOZyd3d3bLAaNWrEK0CJiJKR28dPyZ4sxTT0urb0L2tq9PZkLSFHarRm6EVERETJFsaFRbfVOIb28fGRO3fuWHOIiIiSLoZe5mPoZQiGXgkH3adUrFjRsbHC3+HEiRPWXCIiSvLC9w0OV20hu1O6ydmPhkU7jpezPdlLypHqrRh6ERERUbKFMfgyZsyox9G5cuXScfuIiIiSOoZe5mPoZQiGXgnnhx9+cGyosMN+4MABaw4RESV1/9y7J3+/+am28DqMECuG9uYoJYertWToRURERMlavnz59FgaY2KfPXvWmkpERJR0MfQyH0MvQzD0ShiHDx+WdOnSOTZUQ4YMseYQEVFygK4M0cIrMHNRuX3yjDX10fbm9NLWYQy9iIiIKDnr16+f43h66tSp1lQiIqKki6GX+Rh6GYKhV/y7d++eVK5c2bGRwsC7GNuLiCg+XbhwIdq6cuWKtZSZgoODpVevXjJ48OBEuf28deS4BOXz11ZeV2YtsqbGzN7/eMvhKs1F7jP0IiIiouRr/PjxjmPqr776yppKRESUdDH0Mh9DL0Mw9Ip/Y8eOdWyg0qZNK/v377fmEBHFD4Tv9nbIVWG8wdiA8RV2794tYWFh1pTYMW3aNHnmmWckW7ZscunSJZ2G94RBzc+dO6e3jXX/vhyu3lJbeZ165Z3HbrG1N7ePHK7cjKEXERERJWtLly517Lv26dPHmkpERJR0MfQyH0MvQzD0il/o1jBVqlSODdSkSZOM/d8goqQLAVHOnDm1smTJotujlClTSo4cOXRakyZNrCWfzieffKKPGxAQYE2JHbdv35YVK1ZIUFCQYxuK7zN0Gzto0CC9baqz730hu1PllUNlG+q4Xo8rKE9pOVypqYZnRERERMkV9gPt4+rmzZtbU4mIiJIuhl7mY+hlCIZe8euNN95wbJyqV69uTSUiSjjz58/XbZK7u7u2zHJ2//59mTVrlnTt2lVatWolffv2lZ07d1pzI8KzMWPGSPv27aVFixbSs2dP+e233+TWrVsaStmBWps2beTVV1+VEydO6P3++usvvY374L5Dhw7VeXg8jHGIeTt27NBlAc+BaXitgBZduP3222/LzZs35fjx49KgQQN9rjJlyui8iRMn6rKwZcsWHfehZcuW0qVLF5k9e7Y1J35dW75WuzTck72khAUEWVMfT5Cbnxyq2IShFxERESVr6JLbPrb29/e3phIRESVdDL3Mx9DLEAy94s+BAwckRYoU+lnjJ04IExEltIeFXsOHD9d5zz//vHh4eGiXrNh+rV+/Xr/XXnvtNZ2fOXNmKViwoIZcBQoU0MfBdwrm2fdHK7Jdu3bJpk2bdBpavWLZ3Llza2uw1atXy507d8TLy0vnowtDW6NGjXTaBx98oLcXL17seNxr165J586d5dlnn9VpGTJk0Oeyu7lBQPbcc89pK7AiRYroa0TXiAjS4vO7+c65EMc4XpdnLLCmPj48xqEKjRl6ERERUbJ29OhR3fdDlS9f3ppKRESUdDH0Mh9DL0Mw9IofaC1Rr149x4YJLRtM/Z8gouQlutDr7t27+v2AEAmtu0JDQ7WFFEKvF154QQMqT09PvS+6FLx+/boEBwfLnj179P6BgYGObR5aduFqXDzmjz/+qNOKFy+ugRXG5Nq+fbtuJ5809ELhZAemDRgwQJ8LrwePmT9/fp3+xRdf6NhiGEcRARmCsPPnz+vjxbnw7f3Rui9p4HWyQ58n6tbQFpS/jBwq14ihFxERESVrmzdv1n08VGx1zU1ERGQyhl7mY+hlCIZe8ePs2bN64hifM1o3xPb4NkRETyq60Gvt2rU6HdsutOh68803pXv37hoY+fr66vdajx49dBlMQ9eBdveDcPr0aZ2H2r17tzVVZN26ddrSCtPxOCNGjJDLly/rvCcNvaBKlSo67dNPP9XbcPLkSZ2Gatu2rb4HFFqmpU6dWseCiA8hI3/ScbwOlq4n/9y5a019Mvvcy+p4YAy9iIiIKDmbOXOmYz8P3VcTEREldQy9zMfQyxAMveIe/vY4GWxvlKpVq2bNISJKeNGFXjNmzNDpCOrRWgpdEdpVp04dXQbbN4yVlTNnTkeQ1aFDBw2vogu9YOHChdpKzO6S0M3NTQOq6EKvWrVq6bTHDb327dun01B58uSJ9B7QXSNafcW162s2aQuvwExFJHR7oDX1ye0rUE4OlWnA0IuIiIiSNefxsr/88ktrKhERUdLF0Mt8DL0MwdAr7uGkq30yGOPWnDt3zppDRJTwogu9EFRhOsbHOnHihHYXaBe6OrTh+w3dCQ4dOlSXz5gxoxw7duyhoRfgMTCOV6ZMmXSZjz/+WEMvb29vvY0xtwBdFNrfUw8LvapWrarTnEMvbG8xDbVo0aJI7wGFx45L965ekyD3shp6Xfp9tjX16ewrVF4O+tdn6EVERETJGnoMsPfz0NUhERFRUsfQy3wMvQzB0Cvuff75544NEk7KEhGZJLrQC99bPj4+OoZX165dZenSpdpCa/jw4TJv3jwdnwvjZ40bN042bNig8xB4YawshGRXrlxxBP5oDTZx4kQ5cOCAPg62i8uWLZP169eLv7+/LjN48GB9ztq1a+vtQoUK6Q5d79699TbqYaEXui/EtMqVK8vUqVMdLcVefPFFnV62bFl9r3jen376Sa8OjlPh7+V4q+4aeB1v0U3+uXXbmvF09hWuIAf96jH0IiIiomQLF0/ZF06lSZNG9zuJiIiSOoZe5mPoZQiGXnELrQiKFCni2CD9+OOP1hwiIjNEF3oBwqx8+fJp8GVvx3BiYfTo0doqq1y5co5gC5UuXTpp06aNBmKAsAwtXDEPyyEsmzBhgnaZaN8Hj12wYEENygBjfiHMsudnzZpV+vfvr78/LPTCFb722IkojAMGYWFh2vUhXrc9D8+PcCzOhH/nX/pjtuxO6SYHStawJsaOfR6V5GDpugy9iIiIKNnChVT2vh32VZ17ISAiIkqqGHqZj6GXIRh6xa21a9c6NkZp06blzjgRGQdB16FDh+T48eMuu/u7evWqBAYGypw5czRsOnr0qNy8eVPnhYSEyNatW3UgcczDY9iBF9y+fVt27typ9922bZsGUCg8H8K22bNny549exzBlS04OFiWLFmirbLQRSECNtzn4sWLOt9+zXgt9mvG9yyCMzzuypUrI3Uli9eL5RcsWCBz586VvXv3xukVwaFbdklA6vwS8Gw+Cd32YNeOT2N/kcpy0LcOQy8iIiJKtrDfaV94ValSJZf7sEREREkNQy/zMfQyBEOvuNWlSxfHxqhbt27WVCIiSqruXvyfHPCura28LvwwwZoae/YXqyIHfGqL3OPJHSIiIkqeunfv7jjOfv/9962pRERESRtDL/Mx9DIEQ6+4g5YJnp6e+tniKrTly5dbc4iIKEkK/64/3rqHjuN1qGJT+ed27Izj5Wy/Z1U54F2LoRcRERElS+iFIHXq1I7jbPQmQERElBww9DIfQy9DMPSKO+jKEF0a4rNFf+Nnzpyx5hARUVJ0edp87dYQrbHuh4ZZU2PX/uLV5ECpmgy9iIiIKFkaO3as44Sft7e3sedaiIiIYhtDL/Mx9DIEQ6+4g7Fj7A1R/vz55d69e9YcIiJKasJ2BMpujOOVvqBcW7HWmhr7DpSoLgdK1pB/GHoRERFRMlS3bl3HcfawYcOsqUREREkfQy/zMfQyBEOvuNOqVSvHhoj9jBMRJV33r9+Qg/71tFvDkG9/sabGjQOlamjw9Q8vpCAiIqJk5ujRo5IqVSo9xkbXhgEBAdYcIiKipI+hl/kYehmCoVfcuH//vqOfcdTx48etOURElKSEf7+feLmvBl4H/OvL/Zs3rRlx44BXTe3ikKEXERERJSfoOcXLy8txjN2sWTM97iYiIkouGHqZj6GXIRh6xY3g4GDHRihz5szWVCIiSmouz1msXRruK1xR7l25ak2NOwe8a8t+z6oMvYiIiChZ2bx5s6OVV6ZMmThmNhERJTsMvczH0MsQDL3iBrpZsDdCHh4e1lQiIkpKbu45oC28AtK4y5UFy6ypceuATx3ZX6yKuaFX+P7O/RuhLBYrCdY/t25bKzoRUfxCKy+07LKPsRs1asRWXkRElOww9DIfQy9DMPSKG8uXL3dshCpVqmRNJSKipOKfu3flYJmGGnqdGzxKw574cNC3ruwvWtnY0OvOmbOyv0R12edelsViJbH6+81PrTWdiCh+jRs3TsfwwvE1fu7bt8+aQ0RElHww9DIfQy9DMPSKG7NmzXJshBo0aGBNJSKiJCH8O/1M3w808DpYtqHcu3LNmhH3DvrVk/1FKhkbet0+cVoCMxXRz4bFYiWtOtmpn7WmExHFn7CwMClUqJDj+Lp79+7WHCIiouSFoZf5GHoZgqFX3Pjjjz8cG6EWLVpYU4mIKCm4sWGbBKR1l6C8fnL/5i1ravw46F9f9nlUZOjFYrHivY62f01u3LghoaGh1hpPRBS30K1h69atHcfW6dKlk6NHj1pziYiIkheGXuZj6GUIhl5xY8KECY6NULt27aypRESU2N06cFgCnyusJ4CvzFxoTY0/B8s0kH2FKjD0YrFY8V77WneTEydOyJkzZ6w1nogobq1atUpSpkypx9UpUqSQZcviZwxVIiIiEzH0Mh9DL0Mw9Iobv/76KzdCRERJzD+378iR2i/K7pRu8ve7g62p8etQ2Yayr2B5+ecuQy8WixW/xdCLiOLTuXPnpGjRoo7j6vr168vdu3etuURERMkPQy/zMfQyBEOvuPHbb785NkLNmze3phIRUVxDC6j7N0LjpP4eOFRP/AblKyN3g8+7XOZpSu7ft95F9A6VbyT7CpRj6MViseK9GHoRUXxBt4YYG9s+psY5i7Nnz1pziYiIkieGXuZj6GUIhl5xY9q0aY6NUI0aNaypREQU10607aUtoeKiAjNGdGu4N3tJl/Oftk6/OtB6F9E7VKGJ7HMvy9CLxWLFezH0IqL4cP/+fWnfvr12Z2gfU8+dO9eaS0RElHwx9DIfQy9DMPSKGwsWLHBshPz8/KypREQU11ydqE0sFZihkPUuone4YlMJyl+GoReLxYr3YuhFRPHhxx9/dAReGM/ryy+/NPZ8ChERUXxi6GU+hl6GYOgVNzZu3OjYCBUuXNiaSpQ04f+9bNmyRlb37t31alFKPlydqE0sFfBsPutdRO9wpWYSlM+foReLxYr3YuhFRHFt2bJl8swzzziOpVu3bs19eSIiIgtDL/Mx9DIEQ6+4cfjwYcdGKEeOHNZUoqRpyZIljv9306pixYo8UE5mXJ2oTSwVo9CrSnMJyusn/xg6kDtDLxYr6RZDLyKKS9u3b5csWbI49uPLly8vN27csOYSERERQy/zMfQyBEOvuHH16lXHRih16tRy8+ZNaw5R0sPQi0zi6kRtYqkYhV5VW0iQW2mGXiwWK96LoRcRxZUVK1ZImjRpHPvwOXPmlKCgIGsuERERAUMv8zH0MgRDr7jj5ubm2BD98ccf1lSipIehF5nE1YnaxFIxCb2OVGspQXl8GXqxWKx4L4ZeRBQXVq1aJalSpXLsv+M4+sKFC9ZcIiIisjH0Mh9DL0Mw9Io7H3/8sWND5O/vb00lSnoYepFJXJ2oTSwVo9CreivZm9uHoReLxYr3YuhFRLFty5YtkilTJse+O1p4YagAIiIiehBDL/Mx9DIEQ6+4s3//fscgvOiqISQkxJpDlLQw9CKTuDpRm1gqRqFXzdayN5c3Qy+DC+8frfFczWPFc4WvU0H5/CUgjbveDkiTX/bm5t/mSYuhFxHFpl9++UWeffZZx3579uzZZceOHdZcIiIiioqhl/kYehmCoVfcuXXrln6m+GxTpkwpmzdvtuYQJS3RhV4ZM2aU77//Xv/347Lw/GhN6eo1MPRKflydqI1aAekKyJ5sJSQgbQGX8xOqYhR61Woje3N6MfSKgwpIX0iO1Gnrsg5VaubyPq7q79c/0s9hd0o3l/MTcwXl9ZMDpeu6nHeofGPZ6+bncl5C1b4C5eSfm7fkYJkGevuAV025dfj4A8vFVgWkLyjHGnVIkn97FEMvIooNd8P3Yd55551I++zo0vD8+fPWEkREROQKQy/zMfQyBEOvuIO/efXq1R0bo9GjR1tziJKW6EKvGjVqWEvEPQx+bbesdC6GXsmPqxO1znWkdhsJCwiSO8HnJWznHj1R72q5hKgYhV61X5S9OUox9IqDQgu6a3/+9UDdu3xFbqzf4vI+rioph16nXx0Y/pmsfnBe+HsN2x4gp19598F5sVinXxuo64mrea4qvkOvc4NHidz/Rw5XbeFyfmIvhl5E9LSuXbsmVatW1YtC7f11b29vOXXqlLUEERERRYehl/kYehmCoVfcGjlypGNjhJPvRElRdKFXnTp1rCXi3tq1axl6kXJ1otauvXlKy93zkQdGv3X4WKQWXwGp88mZfh/K2Q++jJt6/ws54Fsn0utyPHcMQq+jddrKnuwl5Z87DL3io4426iB3Tv2t4Ymr+a4q2tArVd6Icp7mVAGp87ucrvUYQU909dDHx2uNwXM8Uej1iPeNchVkoStC59uBmYvKrYNHHV0VPlB4jCif+WOFXjH5jB/yPvZkKSZ3z52Xa4tXytV5Sx/5nhNjMfQioqcREBAg1apVc+ynY9+9ZcuWEhwcbC1BRERED8PQy3wMvQzB0CtuXbhwIVI/5evWrbPmECUdDL3IJK5O1Np1suub1lKRHanzomOZ033et6bGnTunz0Z6XXbFKPSq95J2zcjQK+5rT9bi+rc688anjmkn2r4qN9ZtkYC0/wYvCJNuBR1y3I4aemEMqcszFsjdC/+Te1evyeVp8/VvaC+P1oc3A/fJvUtX5M7Z83JxzEQJfM5Ddj+bV4416Sg39x6Qe1eu6Ws5P+wHvc+e/yum050fByHL7SMnHK0XA7MUlavz/pTDVZpL2K69cv/adbm575AcKtfQ8doQ8p77ZIQ+NgLh20dPaLAUunG77M1e8t/HtupxQi+EVBdG/6rv++7F/0nIyJ8lMGP4+7LmX1+zSbvqREB0/0aonO4Zft/wxzkT/vndCf/88J5vHzqmzxkQ/nmEbdmp//c39+zXz+tQhYj3uTe3T/hnOi98+avhn985vb8dOD0q9MLf7sRLr8qdM2fl/tXrcm3JqkhjfoWM+FFOduwnJ9r0knsXLsr11Rsc86LWoYpN5X743xDPdTf874j/H1fLJeZi6EVETwLdGaJXhueee86xj54qVSrp3r0799OJiIgeA0Mv8zH0MgRDr7jXtm1bxwbphRdesKYSJR0Mvcgkrk7U2nWqx9vWUpEdrd/OsQxaecW1O38HR3pddsUo9Ap/rTiZztAr7uvi2ElyY/VGHQPOnnb6lXf0PTpPQ0vBf8JuOm5HDb2C3ErL0QbtZV/B8rK/SCXtVvPCmP/qPARLd/4+JwdL15OgfGVkf9EqcrxVd/1fOFy5mYZkhys1laD84fM8q8qRGq31fvgfQFC0J6eX43nRUil8h1OOVG8Vsczznhr4XJm9OPxxK2sA9Pc7gzX8Csrnr8uc7vWu3NiwTR8fAdS5wd9I6Pbdsvc/Pi5bKj1O6HV5+gJ97n2FKoS/9moStjtILnz3i2P+nTPBcn3FOjlar13451JZ9mQpKseadZbQLbv0Nl7TAe/a4e+/mYZTxxq/LHfPXYh4L+GfZWD6Qvo4odt2y/mvftDlD/rUkVsIynoN0HmPCr3+fuMTXf5AqZq6LFpi3g0+L3uyRQR+lybNkJt7DsiV8PeCzx9jmtn3jVqXJs+Wv9/6TD+L6yvXaZjmarnEXAy9iOhx3b59W9q3by8pUqSItI8+ZswYuXfvnrUUERERxQRDL/Mx9DIEQ6+4t3jxYscGCZ/15cuXrTlESQNDLzKJqxO1dgXl9ddWJ85uHzspAekKOpbByfWz730h578YHWd1qGzDSK/L8dwxCb0atI8IMxh6xWkda9xRAyeEVM7TnyT0iloIRq4t/Ut/1//J4BANXaIuh/Hb7l+7IfuLVX1gXoxDr7t3I/2/BeXxDZ92Tw6Va6S3Ec6ceeMTx3y8X7RSsm9HLYReCJHQMixq/XPnjiP0wvtByzHnrggR6uE1B2aICKsQegV/9rVjPgqtqm6s36rj1jlPRx0sXVcDQufHPFytpdzaf1hbrNnT8Bj426F7xEeFXgjqTnV703EbYd/96zc0fMNtDb3w+E5/b1eF58G2BcEhbh9r2llbqTm3CEwKxdCLiB7H5s2bpXTp0pH2zT08PGTp0qXWEkRERPQ4GHqZj6GXIRh6xb3Q0FDJmDGjY6PUo0cPY/8fiJ4EQy8yiasTtc6FllIYx+ve/y7LrQNHtDWNq+USomISeh1r2EG7tmPoFXcVkL6gdp+HMdiiznuS0At/r2PNukjIqJ/l8h9ztKtBhE328ue/HC33Ll+V/02YJvuLV/s3wAn/f0C3iGiZdeG78do6C/8j+piPEXo5v1Z0eSj37mnrMdwO+fon+d9/p4e/50LaneKJtr20+0B7+agV05Zep3q8o90ToutC50Iwtq9wBV0GoZerAPj6qvXaouvvgZ9rKzn7c3QVeoWMGqeP4/wcaLmG94ix7x4VeqFLSbQ2c9x/4Qr559YtOdX9LZ2P0OviT785lo+ugsP/V26fPCMnO70uJ9v3ljP9PpL74f8TR6q3dLl8Yi2GXkQUE2FhYfLrr79G2jfH7/Xq1dNjYyIiInoyDL3Mx9DLEAy94seCBQscG6U0adLIyZMnrTlEiR9DLzKJqxO1USswY2Ft8WK3ODGlYhR6Ne6oYyUx9IqjSukmlybOkGvL12iIFHW+q9AL429FF3qhyz38HvLNODnoV0+7yDs3aGSk0AvPs69Qee16EK2sri5a/u/jp8or+z0qybnPvtaQC+EXprsKvRAGuQq9nLspjBp64X8pdPMOHccL3Q9iTK8jNSO6UHRVMQ29Tr/2ntwMOigHfes8UPZ7Q1iF7gsjPU54IXTEchd//l1bi/397uc63VXohW4ir85f9sBzoNBq85Gh19VrGoRHva9z94YXRkd85g+r0M07dTywS7/NchQ+UwSdrpZPrMXQi4geBduHChUqSMqUKR374+nSpZPff/9dbt68aS1FRERET4Khl/kYehmCoVf8wOC9JUqUcGyYRo4cac0hSvwYepFJXJ2oTSwVo9CrSScNldBixkSJPfQ6VLGptgK0Q5KodarrG9qVH4JTe9qhys2iDb1Oduqnwc2eLMUc8y+MGhc59HKq/SWqyz+3bms4E3XegeLVNKRBQLbn+eLaAgyhjj0fAdvjhl4ImEI3bpMjNV6QA9619La9rKuKaeiFFpTotnF36vwPLmtVdKGXc2Ecvpv7Dum6gWXvnD0fKfQ63rqH3Nx7wGVAiXpU6IXHRneI9u2oFZPQC1053j5+KtLrQh30ry93Tv39yM80MRVDLyKKDrrw/+yzzyR16tSR9sXLlCmj++lERET09Bh6mY+hlyEYesWf0aNHOzZMqVKlkiNHjlhziBI3hl5kElcnahNLxSj0ato5omURQ69YL7zuu8Hn5dzgUTrWVqTK7avBDgIltLA6VLGJ7Pk/T9kbPv3G6g1yPzTM8TjOoRdCmXtXrsqBkjV0eYRat44cd4Ree7KW0NAELbcQjB0Of1w81v5iVbRrv6AC5TS8QheJB3zqyL2Ll8Jfi0/4/0BhDVrODhwSMT9bCQn+aJj8c+/eY4VeGDvrzum/5XD4ffA60Kpsby5vx/JRK6ahF+rG2s1yddFKCcpTWt8fxss64FvXMd9V6IVQKih/WX2/+Lz+7v+xhO0I1K4X92QvpZ89xjjDZ2WPl3Xr0DE5P/xHfS/4HILc/OSgNWbZo0Kvc0O+1XH99ntU1L8FxuTSv0f4c2P+I0Ov8PeN8dnOD/vB5Xy89lOvvONyXmIshl5EFNW98O+UoKAgKVCgQKR9cLTuwsk4dHVIREREsYOhl/kYehmCoVf8uX37tvj4+Dg2Tg0aNLDmECVuDL3IJK5O1CaWilHo1byLtjJi6BX7daTmC/oeEJIgeHIuBCsIGzHe1tmBQ3UsKIRFGBfuaN2X5PaRf4MU59ALXWheHPNfuRtyUVuI3fhroz6PHXohNLt98Kjc+TtYx4S6E36/ky/30ZDnUNkGcufsOQ2H0GLozqkzcrTRyxHPE/7Y+F+ImH9Wn+/sO4MkbPfexwq9jtRora8rdOsuubFuq4Tt3CN3L1x0dCkYtR4n9ELIdXnafLl34X/6Ou9dviIhw8c45rsKvY427KCtufT9hr8uhEboFtKe//dbn8r9azd0/tFGHXQaQrDrK9frZ4zQ8k54nenzgc57VOiFVlh/v/GJtu7D894N+Z/c2LhN/y6Y/6jQC63r0OLucJXmLuef+3SEhG7b/UArsMRaDL2IyFlISIi0adNGnn322Uj73/7+/hIQEGAtRURERLGFoZf5GHoZgqFX/Fq8eLFj44R+zqdPn27NIUq8GHqRSVydqE0sFZPQ63iLrhqkMPRK2EIAhhZF0XWrF7UC/6+YtiJyNQ+hFAKioLx+D4YjKd00gNmbp7T+HmleeKG1U1A+fwl4gvHp0KIJgRDGGXOefvLlvtqiKiDtv+OWPU3hveM1Bmb4t0vIh5W+p/DPQoMnF+85MHMRl58lWnrpZ+g03lpMC587WvShpZir+ayIYuhFRIBzBl9++aVkz5490n53tmzZZMiQIXLjxg1rSSIiIopNDL3Mx9DLEAy94l+1atUcGyh0c3jq1ClrDsUVjKl2584dLfz+JOsjuuaYO3euzJo1y5rydHAwuHTpUl0HEzuGXmQSVydqoxZO5qP7MtNaX8Qo9GrZTVunMPRiPW0dbdBe7ofdjBT0BKTOL2f6fqhdJzq3EGOxUAy9iJI3HEstXLhQcuTIEWl/O0WKFFKpUiUJDg62liQiIqK4wNDLfAy9DMHQK/5dunRJP2t7I9W1a1drDsUFhFz16tUTLy8vLW9vb6lcubKMGDFCu5yMKZzgyZIli3bfERu++eYb/fv7+vpaUxIvhl5kElcnap3rSM3WEro9QLuEQ5duh8o2dLlcQlSMQq9W3bUlC0Mv1tPWnixFJWx7oNzcs1/+N36K/G/c77pO3Ao6JEEFyru8Dyt5F0MvouRr+/bteiyFizad97Xz5Mkjy5cvl5s3b1pLEhERUVxh6GU+hl6GYOgV/3CF3GuvvebYSKHmzJljzaXYhs87f/78+jmnT59eMmXK5AhH6tevH+MDtNgOvXbt2qVfUL/99ps1JfFi6EUmcXWi1i50l3b33AVryQi3Dh2N1I0bxmzCuEV/vzs4buqdwXLAu1ak1+V47piEXi/00O7f/rnN0IsVC5Uqrxyp01ZOv/KOnOr+VvjvL0rgczHrhpCV/IqhF1Hyg/MYOHaNOm4XziF89tlncvnyZWtJIiIiimsMvczH0MsQDL3iHrrFO3/+vKxcuVI6derk2Dg5F7qDoLjhHHqNHDlSp02bNs3x2ePvYrt48aJ2OfjLL7/I1q1b5dq1a9Yc16EXWpFhHVqwYIGMHj1apk6dqss5hyyBgYGyc+dOuXfvnuzfv19+/fVXbe137tw52bRpkwQFBVlLRsA6iKsl8Ro2b94c6TXg+XCV5eHDh/X/CkHP+PHj9bU+Tqu12MbQi0zi6kStXSe7vmEtFdmR2m0cy5zu8741Ne7cOfV3pNdlV0xCrxNtemoXdAy9WCxWfBdDL6LkB8cyrvavEXaZeo6DiIgoqWLoZT6GXoZg6BU3MF4Txn564YUXpFixYhqWuDohb9fAgQOte1JscxV6IQSxr1acMmWKTkMQ5tw/Pfqm9/T0dJzYcRV67dixQ5577jnHfVBoSTZhwgRrCZHSpUvrIM+4QjJdunSSNm1aOXDggIwZM0aXR1eLNrT4y5kzp+Ox8Bo8PDw05AKsn3gs/E+hexHMt5d78cUXdZmEwNCLTOLqRK1dp155x1oqMoxtZC9z5vUPralx587f5yK9LrtiFHq92EuXY+jFYrHiuxh6ESU/V69e1WMg5/1r7HOjW8NXXnlFzycQERFR/GDoZT6GXoZg6BU7cFId3dX98MMP0qRJE8mYMaNjI+Sqnn/+ealZs6b0799fFi1aZD0KxQXn0Ourr77SVlboUtD+W6xbt05b4iFMwgFc3759NQBr0KCBzq9atar+fV2FXpj+3nvvyezZs7U110cffaSPgfvYEHrhcRBMNWrUSN599125cOHCA6EXDijz5s2r93/11Ve11VizZs10mQoVKuhz2aEXpmFsst9//13efvttvY1CS7KEkFhCL2yH0VoO/xNoGYe6deuWdnGJlnOhoaEaWKOuX7+urezwd7ly5YoWrmjF/w/+Dii0DMTfMiQkRAut91AYxPvs2bO6fUXhf+f06dNy6tQpLZwwRB0/flyOHTsmR48e1Tpy5IgGnIcOHZKDBw9qISDF33Xfvn1aaBm4d+9e2bNnj1ZAQIDW7t27dRuE/0MUAlm0Cty2bZu2BNyyZYsWWg+iheHGjRu1NmzYIOvXr9f1AJ/hmjVrtP766y9ZvXq11qpVq7RF5IoVK7QV4rJly7TQKvLPP//Uvz9q8eLFuj3DAOdo/Th//nytefPmydy5czXURWF9wUUBM2fOlBkzZsj06dO18D//xx9/yOTJk3UdnThxou7QoXUkWjSOGzdOfv75Zxk7dqz8+OOPur1FC8vvvvtORo0apeP0oVydqLUrKH8ZuXsh8vechjTpCzqWQSuq4E+GS8jXP8VRjZVD5RtHel2O545J6NX2Ve2SjqEXi8WK72LoRZQ8Yb3/5JNP9MK7qPvbOO7t2bOn7m8SERFR3GLoZT6GXoZg6PXkcIL85MmTepLVzc3NsdGJWgg7cDCQO3du3SDhBDK6uqP44Rx6OZcdTmHdRDCA20WLFrXuFTHmlr0swgZXoRfuiyAEgQaWR1iGwZ2dH8cOvRBOOYsaeiHowP9KoUKF9DYg4LBfA4IN59ALwQcgbLGXQSiREKILvWrVqmUtEfcQzrgKvVjJr1ydqHWuYw07yO3jp+Telaty+8hxOVylucvlEqJiFHq1e012p3Rj6MViseK9GHoRES5SKly4sKPXDOdq2LChXuCFi8yIiIgo9jH0Mh9DL0Mw9Hp8CEC6du2q3c6huzp7YxO10E1dv379NORCaw60JKH45xx6pU+fXrswRMsptBZBix5AaxTMr1Gjht4G5zAJrV5chV5obYIwM2XKlBq42P8PRYoUsZaICL0wD8Gas6ihF54Dt9EyyYaWRPZrQKsaO/TC89mtl9AiyV4GrXASQnShF7p6RAsdu/VRXBXWsSpVqrh8Da4qTZo02s0k/l4ZMmTQLirxWjNnzqzbQ7TEzJo1q2TLlk3/X7AuY/uIvzUCbrTIy5cvn7i7u0uBAgWkYMGCevCPbQICT1wFW7x4cSlRooSULFlSSpUqpS3zfHx8xNfXV/z8/KRMmTJStmxZKVeunP4/4u+Osf3wPhDGVqtWTf8fERzWrl1bW83VrVtX6tevr60QcVKhcePG2rIULQKbN28uLVu2lFatWknr1q2lTZs22uVl27Zt5aWXXpIOHTroDlHHjh11bMEuXbrodqxbt27So0cP7Z6mV69e2sqwd+/e0qdPH231+Prrr2uL1DfeeEPefPNNDW/RWnHAgAHaLev7778vH3zwgXz44Yfy8ccf61XAn376qQwaNEg+//xzGTJkiAwdOlS++OILbWk5bNgwGT58uHz99dfa3eg333wj3377rbbYQsutn376ScezQ+sutPRCqy90QYqWYGgZhpZiaDmG1mT4v0OLM7RCQ+iJFmwoVydqo1bgcx4SlNdPAjMWdjk/oSpGoVf73rosQy8WixXfxdCLiADHtehlAF35R93Pxj429mXRcwARERHFLoZe5mPoZQiGXo+Gvx126tGiq3z58o5xlKIWWnOhy0Kc7EU3YmQGV2N6RYW/F4IphBM2hJv23xatuFyFXnbghRP2CJ/QPR3mRw298D+D/yFnUUMvdGOH5RCY2NDVnf0a8Brt0Mv5NZgceplQzt0bUvLg6kRtYqkYhV4d+uiy/9y8ZU0xC0MvFivpFkMvIooKvVHgIqqo436h9wtcmIWL00w9F0JERJTYMPQyH0MvQzD0cg0nyTF2D1oUoLWGvUFxLgQUaB2CkAItfjAuEJknJqEX1gO07sEyaE2CcZrQmgW3ETJh7CdXoZfdWgihGMZ+QisX3OdJQi/8v2EdxDS0bMFrQICK22hxhNfA0Ovxi6FX8uPqRG1iqZiEXic7vq7L3r8Rak0xC0MvFivpFkMvIooOunxHbwLoQSHq/jh6K8B4t+zin4iI6Okw9DIfQy9DMPSKDAEJxmVCt2L22ElRC1etoVsxdDeHPst5Qt1sMQm9sH6iWzW02kIh3EJQhe4Q169fr8u4Cr3Q7RweF6EUurxDV3joIu9JQi+8hgkTJujzY3n7NaArPnThBgy9Hr8YeiU/rk7UJpaKUejVub8ue//qNWuKWRh6sVhJtxh6EdHDYJ8b2wh0e43jFed9cnQpju64MSY2ERERPRmGXuZj6GUIhl4R0JXd4MGDdXwee+PhXGjNg64L0cUhxueixANXFKLFFMYkwrhZD4NxgTCWUbt27XTsIudxuK5cuSLvvfeeTrcdP35cxzvC8hjX6Ny5czJq1Cgdw8iG/xk8N9Y1ZwjTMP27776zpkTAdLyG9u3b6xhKmzdvtuaIhIaG6kHkW2+9ZU0RuXXrlj4O6uDBg9bU+MXQi0zi6kRtYqmYhF6nur2ly967eMmaYhaGXixW0i2GXkQUU+j2vWfPnnpBoPO+OXpKwfEMWn4RERHR42HoZT6GXoZIzqEXWgAhwGrdurVjg+FcqVOnlpw5c2rIcfHiReteRBQVujPZuHGjkbVnzx7rVVJy4epEbdQKSOMugZmLSEDq/C7nJ1TFKPTq8Y4ue/f8BWuKWRh6sVhJtxh6EdHjwkWBTZo00W7hnY+10Q3i1KlTtQt3IiIiihmGXuZj6GWI5Bp6TZ48WXx9fR/Y+UahezlclbZz5065ds3M7qOIiMg1Vydqnetw9VYSumWn3D55Rm5s2CoHvGq6XC4hKkahV693ddm7Z89bU8zyz63bErp5h362ZxevkCOzFrBYrCRSx/5ax9CLiB4bet4ICgqShg0bPnDcXapUKVm7dq21JBERET0MQy/zMfQyRHIKvdA93a+//iolS5Z0bCDseuaZZ8TLy0s+++wzdrVARJSIRQ2SnGtvbh+5GxxiLRnh1sEjEpDW3bFMQOp8crLT63Km/8dxVgdK1oj0uhzPHYPQ6/Rr7+myd05H7jLVRGgljRPkLBYraRVDLyJ6EjgnMnPmTPHz89Pjb/tYHGNm9+rVS86fN/OCHiIiIlMw9DIfQy9DJIfQKywsTObOnavvz94w2IWWXt7e3rJ8+XJj/0ZEptu0aZOOnWViodUmx/RKXqIGSc51skt/a6nIDtd8wbHM6d7vWVPjzu1Tf0d6XXbFJPQ60/cDXfb2cfMHgr906ZKcPn2axWIlsQoODrbWciKiJzN8+HAd38v52BwtvxYuXKjDEBAREdGDGHqZj6GXIZJ66DV27FgpUqSI7kDbGwUU+hB/9913Ze/evdypJnpKS5YsibR+mVQIvhh6JS9RgyTnOtXzHWupyI427OBY5szrH1lT486ds+cjvS67YhR6hb8+LHv78HFrChEREVHig1ajvXv3jnSsjlZfdevWTVZjjRMREcUUQy/zMfQyRFIMvW7evCmTJk3S/sHtDYFdOXLk0LALV6kSUexg6EUmiRokOVdQ/jJy9+Ila8kIGNsrMH1BxzIBqfPLucGj5MJ34+OsDldpHul1OZ47JqHXG5/osrcOHLGmEBERESVeaN3l7+8faR8+Q4YMMnr0aF6gSkRE5IShl/kYehkiKYVe+IxPnjwp5cqVc2wA7MqYMaO89tprPPlNFAfiMvQqW7asdj+6YcOGR9bHH3+sV4c635+hV/ITNUiKWscavyx3Tp+V+9dvyO2Tp+VwtZYul0uIikno9fdbn+myN4MOWlOIiIiIEjeEW2+88YakS5cu0r58jRo1tLtkIiIiYuiVGDD0MkRSCb2wI9y+fXsNt+yVH5U+fXr56KOPdNBtIoobcRl6LV261HqWmKlSpUqk+zP0Sn6iBkmuKjBTEdnnXlYCn/NwOT+hKiah19l3B+uyYbuDrClERERESQOGH6hQoUKk/fk8efLInDlzrCWIiIiSL4Ze5mPoZYjEHnrdvn1bxo8fL+7u7o6VHoXWHu3atZP9+/dbSxJRXInL0Avrd0zdunVLihUrFun+DL2Sn6hBUmKqGIVeA4fqsmE7Aq0pREREREnH9evX5Z133ol0QSvG/XrzzTd1KAMiIqLkiqGX+Rh6GSIxh17oyjDqCe5nnnlGChcuLIGBPBlIFF/iekwvHx8fDa8eVVj/o94X0xl6JS9Rg6TEVDEKvd7/QpcN3brLmkJERESU9GzdulVy5coVad++QIECcvbsWWsJIiKi5IWhl/kYehkiMYZeOIE9YsQIyZ49u2NFR+FKsMmTJ8vVq1etJYkoPsR16PU0xdAr+YkaJCWmilHo9eFXumzopu3WFCIiIqKk6cKFC9K7d+9IF7e5ubnJ4sWLrSWIiIiSD4Ze5mPoZYjEFnodPXpUOnToIClSpHCs5BkyZJBevXrJxYsXraWIKD4x9CKTRA2SElPFJPQK/mSELntj7WZrChEREVHS9ssvv8jzzz/v2MfHOYBvv/2W3R0SEVGywtDLfAy9DJFYQi+ctF67dq1kyZLFsXLjaq/cuXPL4cOHraWIKCEw9CKTRA2SElPFJPQ699lIXfb66o3WFCIiIqKk78CBA5ItW7ZI+/o9e/bUcb6JiIiSA4Ze5mPoZYjEEHrh6q2OHTtKmjRpHCs2qk+fPnL58mVrKSJKKAy9yCRRg6TEVDEKvQZ/o8teX7HWmkJERESUPISEhEiTJk0i7e/XqVNHbt26ZS1BRESUdDH0Mh9DL0OYHnoFBwdL48aNHSs0Cq27pk2bZi1BRAmNoReZJGqQlJgqIF1B611E79zQ73TZa3+utqYQERERJR9o2YULYJ2HPPDy8pJDhw5ZSxARESVNDL3Mx9DLECaHXqdPn5Y8efI4VmZ0Z1itWjW5c+eOtQQRmeDSpUuyfv16IysgIMB6lZRcHK33kuz5v2KJsk60e816F9E7/+X3GnpdXbTCmkJERESU/IwcOVKeffZZx/kCnM84c+aMNZeIiCjpYehlPoZehjA19FqwYEGk/rpxFdegQYPkxo0b1hJEREQP+ufOHbl36UqirH/u3bPeRfTODx+jodeVeUutKURERETJ07x58yINg5A/f34GX0RElGQx9DIfQy9DmBZ63b17V8aOHSvp0qVzrMR4fd9//73ci8HJQCIioqQs5OuxEaHX7MXWFCIiIqLka9OmTZI1a1bH+YOcOXOytwciIkqSGHqZj6GXIUwKvTDuzqRJkyL1zZ0hQwZZu5aD9RMREUHIqJ819Lo8Y4E1hYiIiCh5w1jgzj3F5MiRQ891EBERJSUMvczH0MsQJoVeaM2VMmVKx8pbtGhROXLkiDWXiIiILnz3S0ToNWWuNYWIiIiIduzY4Ti3gXJ3d5cLFy5Yc4mIiBI/hl7mY+hlCBNCL7TwGjdunKROndqx4taoUUOuX79uLUFERERw4ftfNfS69NssawoRERERAYIvtPKyzysUKVJEzp49a80lIiJK3Bh6mY+hlyESOvTC57JkyRJJlSqVY6X18vKSsLAwawkiIiKyXRzzXw29/vffadYUIiIiIrKhq8NMmTI5zi+0bNlSxw4nIiJK7Bh6mY+hlyESOvSaNWtWpBZe5cuXl0uXLllziYiIyNnFsZMiQq/xU6wpRERERORs3rx5jnMMqG7dusm9e/esuURERIkTQy/zMfQyREKGXsePH5c8efI4VlYEXmzhRUREFL2L437X0OviT79ZU4iIiIgoKucxw9GzzOTJk605REREiRNDL/Mx9DJEQoVeN2/elBIlSjhW1CxZsrCvbSIiokdACy+EXhd++K81hYiIiIiiwjkYnBB85plnHOcddu7cac0lIiJKfBh6mY+hlyESKvR6/fXXJUWKFPq8CLz27NljzSEiIqLo/G/C1IjQ67vx1hQiIiIicgVdGtauXdtxgrB06dJy584day4REVHiwtDLfAy9DJEQodfUqVMdKyjG85oyheOSEBHR47ly5YoMGTIk2sKYkXEN35n28w0dOlS+/fZbWbhwoVy7ds1aIvZdmjRDQ6+QkT9bU4iIiIgoOvv27ZNs2bI5zkFwfC8iIkqsGHqZj6GXIeI79Lp7965kz57dsYL27t3bmkNERBRzFy9elO7duzsqY8aMUrNmTcftH3/80VryyX344Yd6oiQ6hw4d0i5z2rZtK6+99pq0atVKMmfOLBUqVIiz7/1Lk2dp6HV++NO/PyIiIqLkYNmyZY7xvfBz9+7d1hwiIqLEg6GX+Rh6GSI+Qy98Bl27dnWsnEWLFpXLly9bc4mIiJ6cu7v7Q1sO44re+/fvW7cedPv2beu3CGit9dxzzz107AeEXjhxEhAQYE0ROX36tGTNmlVWr15tTXk8eI23bt2ybj3o8h9zIkKvL763phARERHRw+Di2w4dOjjOReTKlYvnIoiIKNFh6GU+hl6GiM/Q68SJEzp+F54rXbp0HESWiIhiTXShV3BwsLRs2VI8PDx0mTZt2sjJkyd1HoKwzz77TIoVKyaenp5SuHBhPSGCkyCNGzfWVlylSpWS8uXLy59//qn3ceYq9IIyZcrITz/9pL+vWLFC8uTJI6GhoXobMJZEvnz5rFsiP/zwg3z00UfSr18/KVmypOTNm1efc9u2bdYS/7o8bZ6GXuc+/8aaQkRERESPgouKChQo4DhZiK6piYiIEhOGXuZj6GWI+Aq98P5feuklx4rZoEEDYz8TIiJKfFyFXriqt1ChQvL+++/rbYRcCLOaNm2qt5cuXaqBlw3z7e4MT506JalSpXrsll4hISGSKVMmOXbsmN7GGF9Y5vr163obEHphTEvbsGHD9Ltx2rRp1hSRF198UapVq/bAd+XlGQs09Ar+bKQ1hYiIiIhiAhca2eck0qRJIxcuXLDmEBERmY+hl/kYehkivkIvdPOEK+bxPLlz52ZXAkREFKtchV7r1q2TDBkyOFp2waZNm3Qwc1i/fr12bxMUFKS3ncU09MJ3G1qSYRwxjOlVsGBBGTRokLVEzEMvdKXo3MXivHnzNJCL2iXjlVmLIkKvj4ZZU4iIiIgoJrCvVatWLccJQ1xkxItxiYgosWDoZT6GXoaIr9DLeSyvDz/80JpKREQUO1yFXn/88YcGVxUrVpQqVapolStXToMw2+eff67dCSK4mjt3rrYOg8cJvTp27Chvv/22lC1bVjp37mzNjRDT0AtdIjpbuXKldsn4QOg1Z4mGXmff/8KaQkREREQxhe6jsR+GcxMYh/X8+fPWHCIiIrMx9DIfQy9DxEfohRN29nPg5OCRI0esOURERLEjutALY0neuHHDmuIavqfGjx+v31UVKlTQbg6fpHtDBFtosfXXX3/pbXAVeuH3qKFXpUqVrFsRogu9rs5bqqHX3wM+t6YQERERUUxhPw9judonDV9//XVrDhERkdkYepmPoZch4iP0mjhxomOF7NGjhzWViIgo9rgKvTZv3ixp06aVAwcOWFMebvv27RpGIcw6c+aMhl6YFp2ooRe+63v37q3BmQ3jhmEZ5zEj1q5d++Sh18IVEaHXW59aU4iIiIjocezdu1f383COAj8PHjxozSEiIjIXQy/zMfQyRFyHXugmyt/fXx8fJ/gCAwOtOURERLHHVeiF76CmTZtKzZo1Zfny5bJr1y5ZsWKFzJgxQ+fj9rRp02TPnj06rtfXX3/t6OYmLCxMf8f4XPv27ZPg4GC9j7OooRdcunRJ8ufPL+PGjdPbWAYnU0aMGKHPgzHFGjduLOnTp9f58Dih17XFqzT0OtP/I2sKERERET2uhg0bOk4cYj+NiIjIdAy9zMfQyxBxHXqdPXtWu5bC4+fOnVsuX75szSEiIoo96KZm+vTp1q1/oQubd999VzJmzKitvtD9IMbxAoRQhQsX1umokiVLyunTp3Ue4EKNXLly6bwxY8ZYU/+F7nrxeFEv6ED4hunoIhEQYOXIkUMfBz8xloTzGF6jRo3SQdWdoYtELy+vB0OvP1dr6HW6zwfWFCIiIiJ6XLjwyT5x6NxKn4iIyFQMvczH0MsQcR16rV69WsfxwuO3bNnS2M+BiIiStps3b+qFF7dv37amRECodPXqVS1X31F37tzReU8Lz3vlypUHQqzHdW352ojQ69UB1hQiIiIielwYYxUXReFcBVruo9U/ERGRyRh6mY+hlyHiOvT64IMPHCujqyvwiYiIKOaur1ynodepHu9YU4iIiIjoSfTr189xvqJnz568SJeIiIzG0Mt8DL0MEdehF7pvsldG50H8iYiI6PFdX70xIvTq+oY1hYiIiIiexJYtW7SVF85XoKts9AxARERkKoZe5mPoZYi4DL3QlRMG77cfm4iIiJ7OjbWbNfQ62bGfNYWIiIiIngTGIM+UKZOes3j++edj/SJgIiKi2MTQy3wMvQwRl6EXWnbZK2Lp0qWtqURERPSkbqzfGhF6te9tTSEiIiKiJ3Hv3j0pWLCgnrPAWOS7du2y5hAREZmHoZf5GHoZIi5Dr6NHjzpWxKpVq1pTiYiI6EmFbtquodeJF3taU4iIiIjoSfXv399x3mLgwIHWVCIiIvMw9DIfQy9DxGXotXPnTseKWK9ePWsqERERPanQLTs19Dreurs1hYiIiIie1Lp16xznLYoVK2ZNJSIiMg9DL/Mx9DJEXIZegYGBjhWxfPny1lQiIiJ6UqHbdkeEXs27WlOIiIiI6Eldv35dUqRIoect8PPu3bvWHCIiIrMw9DIfQy9DxGXohce2V8RChQpZU4mIiOhJhe0I1NDrWJOO1hQiIiIiehrPP/+849xFcHCwNZWIiMgsDL3Mx9DLEHEZet26dcuxImbKlMmaSkRERE8qbPdeDb2ONmhvTSEiIiKip4FuDe1zF+ixhoiIyEQMvczH0MsQcRl6QdasWR0rI7oNICIioid3M3C/hl5H6ra1phARERHR06hcubLjvMWaNWusqURERGZh6GU+hl6GiOvQy9/f37Eybt++3ZpKZI7z58/Lpk2btEJCQqypRERmurn3YEToVfMFawoRERERPY06deo4zlssXbrUmkpERGQWhl7mY+hliLgOvQYPHuxYGd944w1rKpE5unXr5vgffeWVV6ypRERmurXvkIZeh6u1tKYQERER0dOoV6+e45hwyZIl1lQiIiKzMPQyH0MvQ8R16BUUFCSpUqXSx3d3d5ewsDBrDlHCu3v3ruTNm1cyZswo6dKlEzc3N7lz5441N2K9xf9saGhopHXYnnbv3j29jfs4L3Px4kW5cOGC/m67cuWKrm+uuvnE42EMPLh586acOXPG8dhw9epVOXnypN7feToRJT+3Dh7V0OtQ5WbWFCIiIiJ6GjVr1nScRFy+fLk1lYiIyCwMvczH0MsQcR164eR/zpw59fEzZMggR48eteYQJbw5c+bo/yb6cK9evbr+PmPGDGuuaHBl//8iiLJlyZJFp02fPl1vf/DBB3obXXj269dPf2/UqJHOQ0iFaSlTptTpqVOnlpEjR0baJmAd9PT0lMOHD+t6+Nxzz8nx48fl0qVL0qpVK8d9UR4eHlyPiJKxW4ePR4Re5RtbU4iIiIjoaVSoUMFxvMUxvYiIyFQMvczH0MsQcR164YS/n5+fY4UcN26cNYcoYeF/0z64mThxYqQAzG5N9bihV/HixR0BVc+ePXVe165d9XbmzJk1WEOLMtweMGCAzgesg2nSpHGsi/h59uxZbf3l4+OjrwnBWY0aNXQ+XjcRJU+3j53U0OugfwNrChERERE9DRzH4TgLtWvXLmsqERGRWRh6mY+hlyHiOvSC4cOHO1ZIBGDsno1MYP/vo1UVuhfE/2W2bNkka9ascu7cOV3mcUMvBFfffvutdkd4+/ZtbemIll3p06eXgIAAXXbbtm2SNm1ayZ49u6MrRXsdRCi2Z88e7XbR3mag20TA46GLQzw3umMkouTpzskzGnod8KplTSEiIiKip4FjQByPoYKDg62pREREZmHoZT6GXoaIj9ALYQJO+tsr5cqVK605RAln0aJF+v9YtWpV7S4QVadOHZ22cOFCXeZxQ69ChQppYGXD42B67ty5dUwvuHz5suTJk0enY8w7wDr47LPPSmBgoN62Yd357rvvdKwxLG8XwrXEAts+1P379+X8+fOyfv16mTlzpvz888/yxRdfaOH3WbNmycaNG/Uzx7L2/Ygosjunz0aEXiWqW1OIiIiI6EnduHHDcZyFXjt4DEJERKZi6GU+hl6GiI/QC3r06OFYKVu2bGlNJUo46DLQ/p+MWmXLltVlnEOv06dP6zQEMgioMC1q6IWuCJ39+eefOh2hF1p/AUIvO8TauXOnTsM6iG4PDx06pLdtvXv31uUQpv3www/y22+/aeBmcuiF0A/hFT6TBg0aiJeXl+TIkUNbvOG9xKSwLO6D+zZs2FA+/vhjHS+NrUSJRO78fU5Dr/3FqlhTiIiIiOhJLViwwHEc4u/vb00lIiIyD0Mv8zH0MkR8hV4YDPaZZ57R58HVU3/99Zc1hyj+HThwwPEl8eKLL+q4W6iXXnrJMR2tsLA+5MqVS2+jZRige0J7mUeFXugmEQEVulC0W3Xt3btXMmTIoHXz5k2dFl3oVaJECX1cu3Xk8ePHtWtD00IvdL24ZcsWefPNNzXgsz+f2K58+fLJwIEDZceOHY6uIYmSm7vBIRp67StcyZpCRERERE8KJw3t443333/fmkpERGQehl7mY+hliPgKvaBdu3aOFTN//vw6jhJRQhg2bJj+Hz7//PMPrJt2KyyMRYdgxcPDQ2+ji85mzZpJ5syZHf/Hjwq9wA7ScP+aNWs6Wjxhui260AtjfGHZChUqyFdffeVYV00Kva5fvy4VK1bU1xWfha4o7dCQKDm5G3IxIvQqUM6aQkRERERPAr1UoIcJ+xjDvlCRiIjIRAy9zMfQyxDxGXqdOnXK8Vxo7YWu2ogSQo0aNfT/EN3mRTVkyBCdV61aNb29a9cuKVq0qE5Da8VOnTrJ4MGD9XZMQi+MY9WrVy8NqrAMukbEbUy3RRd6oYUXgjncD/M//PBDadGihTGh1+7du3W7gdeXEJU3b145cuSI9WqIkod7Fy9p6BWUj93vEBERET2NkydPak8aOLbImjVrnJ4PISIieloMvczH0MsQ8Rl64TPo27evY+XMlCmTY5wkIpNhLCl0LXjp0iVryuMLDQ3Vx8DPx4GrD48ePaotqkyC0A7dNtrrc0IVDk6f5u9CFBfCAvdpMBUn9UzuyD9jqfYVrij3b96y3gERERFR0rds2TJJkSKFHleULFlSbt3ivhAREZmLoZf5GHoZIj5DLxtaZ9graOvWra2pRJSYzJ8/37EeJ3StXr3aelVEZmDoRURERGS+Nm3aOI4p+vfvb00lIiIyE0Mv8zH0MkRChF7OKyiuqkLXcKZ+PkTkGrortdfjhKy0adNKSEiI9aqIzBAp9Ho2n1z4foJcW7FOTnbsp9MO+tWTqwuWh9cy2ZuzlLXMrxHLdO7/731dFUMvIiIioqd29uxZx3jLOC+BXjmIiIhMxtDLfAy9DJEQoRc+i+7du+v4SHhejFW0Zs0aay4RJRYbNmxwbD8SorJnzy6BgYHWqyEyh3Potb9oZWuqSOj2AJ32v1+nWlNEjjXrLPs8Klq3wu+7c4/sTunmuP8DxdCLiIiI6KkNHz7ccVxRtWpVayoREZG5GHqZj6GXIRIi9AKMa+Th4eFYUdFaA2MEEVHicu3aNalUqZJjXY6vql27toSFhVmvgsgszqHX3lze1tTw9eXP1Trt3KCR1hSRw5Wbyd6cXtYtkesr1jru67IYehERERE9NV9fX8exxS+//GJNJSIiMhdDL/Mx9DJEQoVecOTIEX1Oe2X19/eXq1evWnOJKLG4ffu2bNmyRd544w3JnTu3Y52O7cJ4gAMGDJBt27bJnTt3rGcnMk/UMb32FSovR2q2lj3ZSujtgHQF5FD5xlq7U+X9d5ka/y4TbT0T5WcsFUMvIiIiSi6WLFmiXRriGANdHLK7dCIiSgwYepmPoZchEjL0gmnTpsmzzz7rWGFLlSrFHU6iRODSpUty4cIF69a/7t69K5s2bZK33npL6tevr+s0uiG0+8uPSWHZHDly6H0bNGggAwcOlK1bt8q9e/esZ/kXXkN8b7eIHiVq6BWrxZZeRERERE/s+vXr4u7u7jj2GDRokDWHiIjIbAy9zMfQyxAJHXrBggULHFdZoYoWLSo3b9605hKRiRYvXixp0qSR5cuXW1Ncu3//voZVCMOCg4Nl7dq1Mn36dBk7dqwMGTJEvvjiC/npp59k5syZsn79ejl37pwui/vgvg+DKzRTpUolK1assKYQmeHuuRAJ/nhYnFXAs/kkIK27y3lPWiGjfpZ/wtc9IiIioqRs4cKFjvHFcXHe5cuXrTlERERmY+hlPoZehjAh9MLJ7TFjxkQKvjBeD7svIzLXokWLHOtr8eLFpX///rJjxw5rbtxB14b9+vUTT09Px/Mz9KLkJnTbbrm577B1i4iIiIhiAsMpuLm5OY4j0DuFqedqiIiIomLoZT6GXoYwIfSyocWHfcUVqkyZMnLq1ClrLhGZxDn0cq48efJI9+7dZfLkybJx40Yduw9dIT4u3OfkyZOyefNmbRmGoMvDw8PlczL0IiIiIiKiR/n0008dxxD58uWTsLAwaw4REZH5GHqZj6GXIUwKvfAZjRo1yrHyojJkyCAHDhywliAiU0QXejkXQuyUKVNqF4QYuw8tOFEIsNB3vnP17dtX59WqVUvSp0+v98F9nVuARlcMvcg0d89fkHODRyWquvD9r+zekIiIiJKsK1eu6HGGfQyB7taJiIgSE4Ze5mPoZQiTQi9Al4aDBw+OdKI7Z86cMmnSJHY7QGSQLVu2ONbRhK6dO3dar4rIDGGB+2R3ijyJqvYVrij3b96y3gERERFR0nHt2jUpVaqU4/ihdOnScuPGDWsuERFR4sDQy3wMvQxhWuhlGz9+vGTMmNGxIqOVyDfffCO3bvGEHJEp/vzzTylZsqRjPY3vwoHr8uXLrVdDZA6GXkRERETmGDlypGMohcyZM3MYBSIiSpQYepmPoZchTA294PDhw5IlSxbHyoyd1GbNmllzicgE9+7d07G78ubN61hX47rQ//6yZcv0uYlMFJuhV2CWYnKyY18JyFDY5fzYKoZeRERElBQtWbIk0tjhb7/9tjWHiIgocWHoZT6GXoYwOfSCQ4cOSZUqVRwrNMrd3V3mzp1rLUFECeHIkSPaTYgN27iDBw/K9OnT5fXXXxdfX99I6+3TFLof6d+/v0ydOlX27dtnPWOES5cuyYkTJ6xbRGaIrdALQdTdi5f0MUO37ZbdqfK6XC42iqEXERERJTUYx6tgwYKO4wpcRIshFYiIiBIjhl7mY+hlCNNDL7h8+bI0bdpUuzi0V2xUnz595OLFi9ZSRBSfFi5cqOPtLV26VG7fvm1NjezmzZsSEBAgv/76q7z33nvStm1bXZdr164tFStWjFSYhnkoLDthwgTZs2dPtH3th4WFafidKVMmWb16tTVV5OTJkzJv3jytBQsWyKJFi/TqTnTFiNeK7hBXrFghq1at0vv99ddfsnbtWlm3bp1s2LBBW61t2rRJxyzbunWrbN++XXbs2CG7du2S3bt36/vB69q7d68GcPv379ewDwE9WqcePXpUjh07JsePH9fXgq5Tzpw5o9va4OBgOXfunJw/f14uXLig2y+EdtjG4YAcIeL169clNDRU3x+6c8VniwNztmpLXGIr9Dr/1Q/WI0a4OHaSBKTJ73JZVEBadzk/4ke5fyNUzn741WOFZAy9iIiIKCm5evWq+Pj4OM4fZMuWTffViYiIEiuGXuZj6GWIxBB6AT6/WbNmSZo0aRwrNwqvPSgoyFqKiOILQi+sgylSpJDixYtrUBRTWJ/v378fqR5nG4nwqlChQo5uSpxDrx49ekTaRqCwXHSF1x9dpUyZMtpKlSpVtIWAPrpKnTp1tIXtW3SVNm3aSJU+fXrJmjWrBo9ubm5SoEAB8fDwEE9PTx3rDK3jypUrJ5UqVZLq1atrqFi/fn1p0qSJtGjRQtq0aSPt27eXTp06Sbdu3aRXr156IcEbb7wh77zzjrz//vvyySefyODBg+WLL76QESNG6LiKP/zwg/z0008aZE6aNEn++OMPmTFjhgaQ+J/A32blypWyZs0aDRARHCIwRFB44MABbSGIMBDfPSEhIRr6IehDQJqUxEbotd+zGlYW6xEt4TeP1m/ncnnUoYpNJHyFspb9R/7361SXy7kqhl5ERESUlLRr185xPID9aVyoRkRElJgx9DIfQy9DJJbQy4aTpuiSACer7ZUcJ4Bx8hbvhYjiB1pR2eugXUWKFNEwBcEIWkTdvXvXWvrJoaUTWluNGjVKwxqEO1GfF6GKDa2q0HIM09HF4tixY/X1fPfddxrafP311/LVV19pkPP555/LZ599Jh9//LF88MEHMnDgQA183nzzTe2iESHQa6+9Jj179tRgqEuXLtKxY0fd3qDV2gsvvCAtW7bUbVLjxo2lYcOGUrduXQ2YatSoIVWrVtXQqXz58lKmTBkNory9vaVkyZIaTuHzKly4sHbZijHR8uTJI7ly5ZLs2bPL888/r4NsZ8yYUdKlS6ehGMK2qO89KRW263agiPdrh3v4DNCiD2M84vsKYR8+IwR++N7C54bPL3/+/PpZogsbfK74fIsVK6ahbIkSJTQMxOeP/ws/Pz/9m5QtW1b/PvifqVy5sv7NEBLWrFlT/4516tSRevXqSYMGDaRRo0YaGuLv3bx5c/3bt27dWv/n8f+AEyv43+jatatsmRzzsCm6ujJvqfVfHb4Pcevf1pR3zgRLUF6/R97HduG78S6XjVoMvYiIiCipeOuttyLtZ2L/HxfaERERJWYMvczH0MsQiS30ApxIHzp0qJ70tFd0FE4Mf//99+zykCge2C29HlYILNDaCEEAgqWJEydqSyB0Ixi11q9fr10Qjh8/XlsZvfjii+Lv769XZbp6bBTCkClTplivKAK2Dc7LfPrpp8Zuf58UujpEl4foAhGtpNA1IrZ7aDl19uxZOX36tI5zhlZVuKIV3TCipRW6Z0SAiK4b0QoL3Tqie0d094i/y+LFi2X+/PkyZ84cmTlzpkybNk1+//13bdGF7iZ/+eUXbeVlh4gIItEC7Msvv5QhQ4bIoEGDtHWYqwCxd+/e2poMLfEQCqGFmXN4iEATXVsiOETAhKDJDhBr1aqlIWK1atU0lEI4hTCxQoUKGlghuEKAhSALwSK6sUG4hZALASNCL4SMRYsWdQSNaCmIABUhWb58+RyhI74HETzmyJFDv2MQsCGAROCGEPK5557T/zv8b+M7B/+fCOgQ1KF1IP7n8PO91i+5DJZiWgd868o/TgHUscYvy+2TZ6xbItdWrJXdqdwi3edIzdbW3PB9jijdYV74fsIjuzpk6EVERESJHc4VjB49OtJFsn379rXmEhERJW4MvczH0MsQiTH0smGsHJywtFd2u3DCEid1iSjuxCT0clUP61LQ+eA0JoUgxhkCr6iPgdsIYihxwXdm1IraJaZdCAGjFk54uCqEha4KLQqjFsZUc1XoitFVIYS068auPS6DpRMv95WzH37pqANetR5YJiB1frl7/oL1SYhcXbBMdqd0kyM1WuODiZgY/vPM6x9Hut/VJasi5oULGT5Grq/aYN0KF7785ZmLHM97smO/SPdFMfQiIiKixO7nn3/W4wr7WAAXSmEfkIiIKClg6GU+hl6GSMyhF+BE4+TJk7U7K3ulR6GLLHRF5dztGRHFHozV5LzOxXfFJPByLrT4Ioovrsb0Chn1szU3siN1Xoy03PE2Pa05InfPhciezEUj5qXKK+eH/WDNCd+vuH1HDpVrqPP2F6si98P+HRftQPFqsidrCbm+cr015UHHmneJ9LwMvYiIiCgxQxeGzt2Bo/vqGzduWHOJiIgSP4Ze5mPoZYjEHnrZ0L0Xus9CN1T2yo9C11MYkwfjC+HqfyKKPegWD2MlOa9zcV3oVg5XcDqL2qVhdPXtt99a9yCKW65Cr4vjfrfmRnZ5+nzHMoGZisjtE6etOaJBmfNjoG6s3WzNFQndHiB7spWQsB0B1hSR//06JdLyVxettOZEdrxV90jLMfQiIiKixAgtuX788cdIgRe6wMY5AiIioqSEoZf5GHoZIqmEXrarV69qCy97A2AXxlupU6eOXL582VqSiGIDDjIxFld8hV84oHWGsaRi0i1itmzZdKwrovjgKvRCt4Wne70r54d+Kxe+GWctGS58/yAof1ld5tzQ76yJ4evWhf9JwLP5Hnic/YUrWktEuHXoqMj9iIHZ7128JIEZCkVaHo9xst1r+rx2nX51wANjfDH0IiIiosQIF7Y5d2no5ubGwIuIiJIkhl7mY+hliKQWegFOwqMFSr169RwbArvSpk0rzZs3l7Vr11pLE9GTOHr0qISGhlq3IrZxaFGJ7kb79OkjpUuX1rA56jr4uJUhQwbtmgQDUM+fP996tggjR450eZ+olTVrVgkMDLTuRRT3XIVeUevKvKXW0hEtugIyFJI7Z4KtKSKnur7p8n6ok136a1gWlbbySunm8j6PKoZeRERElNigtxfnC+D8/f3l0qVL1lwiIqKkhaGX+Rh6GSIphl7OEH5VqVJFuzm0Nwoo7Bij5dfixYu5U0z0BBYtWqTbDvy8fv26NTUy9KGPdfD777+XAQMGSIcOHaRu3bq6TpYrV04LXY9UrVpVateuLU2aNNEv7X79+sl3330nO3bsiHbg6VGjRkVap6OrAgUKsIUXxbuYhF7HW3azlha5GXRQ/vffadYtayyv//N0eT8UWm9dX7nOWjrC/es3ZF+Bci6Xj0kx9CIiIqLEAsfwTZs2jbTfX716dbbwIiKiJI2hl/kYehkiqYdecP/+fTly5IiUKVPGsWGwC90g4P1/8cUXcvv2beseRPQoCLvsdQjB0tSpU605D4dtIdZJjLFnF24/zjbyhx9+iNSFSXSFFl6nTp2y7kUUf2ISemEsLgf8/zutAwc8q7m8j3MFpM4ntw4cse4hcn7YGJfLxbQYehEREVFigHMWRYsWjbTfX6NGDbl1i/sxRESUtDH0Mh9DL0Mkh9DLdufOHVm1apW0bNnS5QnzXLlySceOHWX9+vXG/r2ITGGHXs6F/vMbN24sw4cPlw0bNsi1a9espWMPWnjFZAwvBF7obpEoIcQk9EKdHz7Guse/ri1bE+MuCg9Xbi63j56Um7v2yj73iHHBnrQYehEREZHpMJawu7t7pP3+119/XY/1iYiIkjqGXuZj6GWI5BR6Odu1a5e0adNG37O9sbALJ9TRNcK8efPkzJkzDMCIXHAVekUtjKHn7e0tbdu2la+++kpmzJihXYquW7dOtmzZ4qjNmzfrASzmoSvE999/X7p166bjhjl7nC4NsW0jSigxDb0CMxWR+9f+7R70n9t35HC1Fi6Xjeti6EVERESmQq8s6O0hZcqUjn3+Z599Vo8xiIiIkguGXuZj6GWI5Bp6Af4mYWFh8ssvv0i6dOkcGw27EH5hev369TUkI6J/xST0iq7Q0hIHrM4VdZmlS5dazxQhpl0aZs6cmV0aUoKLaeiFur7i37G5Lv78m8tl4qMYehEREZGpcBGdc28PGTNmlJ07d/ICVSIiSlYYepmPoZchknPo5Qzh18KFC6V169Yuu07DyXZPT0959dVXZc2aNda9iJKvEydOPLCexEZh/Zs/f771LBFi2sIrU6ZMsmPHDuteRAnncUKvw9Vayu3jpyRs1x4Jyuvvcpn4KIZeREREZJpNmzaJj49PpH3+cuXK8aJUIiJKlhh6mY+hlyEYej0IJ/PRtRoGx3XVAgXl4eEh3377rezdu1fu3r1r3ZMoeVmwYIFkyZLF5TryJIX1bfbs2dajR8B65mrZqJU3b145fvy4dS+ihPU4oZcpxdCLiIiITIHuDEeOHCmpUqVy7O/j90aNGsnly5etpYiIiJIXhl7mY+hlCIZe0bt165acPHlSu1KIrlu11KlTS44cOWTQoEFy8eJF655EycexY8c0BHa1fjxuFS9e3HrUCJMmTYp0oBtdoUvDw4cPW/ciSngMvYiIiIieTEhIiBQpUiTSMTh6g/juu+/k/v371lJERETJD0Mv8zH0MgRDr5g5d+6czJo1Szp06KD9h9sbGOdCAObl5SVdu3aV6dOny40bN6x7EyVt6B70zz//lB49esjzzz/vcv2ISfXp08d6xIiuTFx1NRq12KUhmYihFxEREdHjGz58uJ6XcN7f9/b2lq1bt1pLEBERJV8MvczH0MsQDL0eH7pTwBhDFStWfGjXbuiqrWXLljJ16lTZv3+/thwjSuoQgM2cOVN69uwp5cuXl4IFC8YoCMP6gsGobQMGDHC5nHOhS0N0R0pkGoZeRERERDG3e/duHavLeV8/Xbp00qtXL7l37561FBERUfLG0Mt8DL0MwdDryWEsLwRgv/32m7bwsjc6UQutVdKkSSNZs2aVLl26yNq1a9ktAyULOEC9efOmXL9+XdcV/O9jHLBhw4ZpqOVcI0aMcGwnERDb26Xoil0akskYehERERHFzHvvvae9pjjv6yPwQs8Ppp5HISIiSggMvczH0MsQDL1iD8b/mj17trz++utSuHBhx0bIVaGFGFrBoCvE8ePHy5EjR6xHIaKxY8e6XG/sYpeGZDqGXkREREQPhyEB0HWhc5fmuFh04MCBesEcERERRcbQy3wMvQzB0Ctu4O+NrtrefPNN8ff3j1H3bu7u7jqm0cKFCyUoKEiuXr1qPRpR8oF1p0qVKi7XERS2UwiYiYiIiIgocUGPJ3v37pVGjRpF2sdPkSKF9p6C1l1ERETkGkMv8zH0MgRDr7iHbhCvXbsmf/75p9SpU8excYqucKUbundAaxYEZp9++qkO3Gvq/xBRbMKBcPr06V2uG40bN2arSCIiIiKiRAjHxb1799bWXM77+Bjb95tvvpHbt29bSxIREZErDL3Mx9DLEAy94h+6asAVbBMmTJBXX31Vr2jDjr690YquEAR4enpKw4YNtUXYuHHjNAwLDQ21Hpko8evfv3+k//v69evLr7/+KsePH2fwS0RERESUyFy5ckUGDRok+fPnj7Sfjws9e/XqJYcOHbKWJCIioodh6GU+hl6GYOhlBgRhf/zxh26w/Pz89G8RkyAM9eyzz2qLsAEDBsisWbNk8+bNcvDgQTl//rxeTUeUWFy8eFH/n0uUKKHhV3BwsDWHiIiIiIgSkxs3bsjUqVMlT548DxzDlilTRv766y9rSSIiIooJhl7mY+hlCIZe5rlz545cv35dzpw5I5MnT9aNWM6cOR0btUcVwrK0adPKc889p2OJVa5cWQcDXrBggVy6dMl6FiLznD17VuvWrVvWFCIiIiIiSmyWLl2qx6IYq8v5WBXHqIsWLWJXhkRERE+AoZf5GHoZgqFX4hESEqLdGc6YMUO+/PJLadeunZQsWVK7hbA3eDGpzJkzi4eHh1SqVElatGghr7zyigwePFh+++03WblypQQGBmoLG3YlR0RJCbZp6CZz+/btcvLkSWtqwtu3b58EBARYt54evsfxfYFCK2KMk0dEREQU13DxJnovwUWXGKc66jEojmFx/oGIiIieDEMv8zH0MgRDr8Tv5s2bOkbY559/riFWuXLlpGjRopIjR47HDsSiFh7Dx8dHGjVqJD169JBPP/1UfvzxR5k5c6asWrVKNmzYoCeQ9+zZI4cPH5ZTp05pt4p4TUREpsB2qWnTppI9e3YpVKiQ5MqVSwoWLKghWELr0KGDtGzZ0roV8VrDwsKsW48P7w8nlnLnzq2thNGl0GeffWbUFdUI+hjGERERJQ3Yx1ixYoUeh7o6nsS4XezJgYiI6Okx9DIfQy9DMPRKeu7du6eh07Vr1/TvuXHjRhk+fLg0b95cDzrsjWNsFLqrwBhMadKkkXTp0kmGDBm0ywr8T82ZM8d6RURECQffvwi8atWqJVevXtVACdtHjH1owgmY0NBQHfPC9sYbb2go9KQQemGbj25y8T7xWOheCBctmACtz3BhhvN7JiIiosQJF1/iApuo41HjOLF79+5y4cIF9iBCREQUSxh6mY+hlyEYeiU/ONGIrr127typV+RNmzZNxo4dKx9++KF07dpVGjZsqK270EIg6sHL4xRamb3++uvazQURUULBNsjPz09bwz4MxpPDMjhBM2zYsEjfh2jNim0lun795JNP5LXXXnOMkYiTOYMGDdKuYnG/K1eu6HRYt26dzJ07Vw4dOiTvvfee9OzZU7799lsNpGyYP336dP0dXQJh29u7d28NqTD4Ox776NGjOt+G725Mv3jxojXlXwi9vvvuO+tWBIRg+I53tnr1at1Gv/rqqzJ//nxraoQJEyboxRN4z5iPIG7Xrl3W3Ah3797VVr/9+vXT1/v7779H2t7v2LFDu81F0IjX+tZbb8np06f1am/sd3zwwQf6Hp0/CyIiIjIfvtu///577S4/6phdOAZ88803tct8IiIiil0MvczH0MsQDL3oYXACEydbEY798ssvjmAMrSaqVq2qXVggIPP09NSuwnCVH1oU2BtgVMWKFY0aP4eIkhd8/7Zu3VpbeqHrQFcQYBUpUkS7GRw5cqRu37DtQstZQKCDbV316tV1PEUEPQhrsH3MkiWLvPjiizpOBU7+1K5d29E94RdffKHbRjw2Qq+BAwdqt4P9+/fX+dCpUydp1aqV/o7nxncyQrWPP/5YwyhfX1/tntAZtscIx1x1Wegq9ML98Tg2jA2ZL18+effddzV8wrYbr9/eV8F7R7eL6NoW09u0aSNZs2aVLVu26Hwsh/vhvQ0YMEC/G/Ae+/Tp43iMcePG6XdD6dKl5aWXXtL3g3Ep8VnhPeKzwDSGXkREROZDt8THjh2TESNGaHfRzsd7KEzDPo19URARERHFPoZe5mPoZQiGXvQ0cEIYwRhaBKCLLpy8xP8QTuDaG2EUTpbiqn8iooSA1lfe3t461hWuPkYXe87QAqtLly6OcaawXStevLhMmTJFbyP0SpUqlY5l6Kxv377SrFkzx/3QXWKxYsU0lAKEXuhW1nmMrhMnTmhXsDbn0AsQJAUFBVm3RPbu3avfz877EWXLlpXJkydbtyKLGnrhNWfKlMkRWKG1WsaMGWXhwoV6G9DazM3NTbfjgNCrWrVqjtAPz41xHTEwPaZt3rxZsmXLpo9lw3vMmzevtiADhF642nvbtm2RXjueC++R3RsSERElDriAsUmTJpI+ffpIx3gofNejNTe7MSQiIop7DL3Mx9DLEAy9KK6gy0SM82VvjDHWF1obICAjIopvGN8K3Qi2aNFCAxt02YftEbrpw0kcdNE3fvx4R/n7+0vHjh31vgi9sD2LGtRgbCq02rLvg7ALLZ7QJSAg9EKA5AwBWdq0aR3jiT0q9IKSJUtqV4eArmlz5crlspUXIPTC+8PjoFUZQrdly5Y59kMQWKHrWnR5aL/ur776Sk9a2V0z4jUjtHKGcRoLFCigwRjui5Zjzt0ZAsaORGsvwP0LFy7sCNJsDL2IiIjMFxISohfRoJU7xm+2j+nsKlWqlHZxiK6LiYiIKH4w9DIfQy9DMPSiuISWBe7u7o4NMqpevXpy5MgRawkiovi3cuVKDXmWLl2qYRi2TQh6cBWzcw0ZMkSXR+iF1llRv8vRirVmzZoP3A/jdgFCL8x3htALAZp9AUBMQi90Q1i/fn19fozDhS5mo9uvcG7phcAJ3Q0tXrxYbwNaYj3zzDPSoEGDSK8ZLdbsIAqfBcbrcobPDCEaWvSiO8Py5cs7WoLZsNP9wgsv6O8IvXBCzA73bAy9iIiIzIT9hu3bt2s3ztjvcT6GQ+GiHewjzJ4927oHERERxSeGXuZj6GUIhl4U13CCtE6dOo6NMgpdbdmtFoiIEkKZMmW0xRJCKLT0ihryOIsu9CpRooSOuxWd2Aq9Tp06pa23EDKhm0a0uopO1O4N33//ffHy8nK0ysK4WmjphW4Wo4MTWvhsnE2cOFFbbqEbwx9++EEDraitzTAG2DvvvKO/M/QiIiJKHLBPggt2MN4nLgpyPm6zC2OaogtDtJAnIiKihMHQy3wMvQzB0IviA06Sjho1Sq8OtDfOKJzoxclcIqK4gpDJeewpOHr0qHa5umjRIr2N7v3QXd/58+f1NiCssQOb6EKvQYMGaXeGOAlkQxBkd+n3JKEXulWcNm2adetfL774ovz000/apWLUbgWdRQ290GUhxhnDwPOA8czQ+gvdzTpDCGW/P4ReaKXrPPZZ3bp1tWtIvH5st9HF4saNG625Ivv27ZOcOXM6ArvoQi+0NMN9o46rRkRERPHn0qVL2sUxuiZ+/vnnIx2jodAqvEqVKtpl/fHjx617ERERUUJi6GU+hl6GYOhF8QknmnFC195Ao3CQNWvWrAfGfSEiig0Il9DSCcEPuvBDt34IZ/C7vd1BiIQu/vLmzavjeOEEEMKjY8eO6fzoQi98Z9oBUfv27bXbwfz588uGDRt0/pOEXvYFAhhjbMyYMdZU0XG5UqRIIYMHD7amuBY19IKFCxfqfffv36+3d+/ercv5+flJ586dpVq1anpiy265hfeE6RUqVJC+fftqqzhPT89I43agZRzCK7zvrl27apD29ddfW3OjD73wmRcvXlyqVq2q43/xwgciIqL4gQtO0P18z549tZW78zEZCkEXWnu1bdtW9uzZY92LiIiITMHQy3wMvQzB0IviG070olUFTsA6H2D5+Pjw5CcRxTp8/+IkD07eoGXX2rVrtWUWwidnCL4Q6iBcwjJo9WUvg+3WuXPn9PeonO+3Zs0avZ891hVaT7n6XsVj2fsFaInl3OoJ3QadPHlSx9Byfs6DBw/qdhNjbTwMBp6PehEBXg8eyw7aAF3PolUWPhN8NhjbzIbQC902Xrx4Uf766y/ZtWvXA49pf67btm3TzwvLOn+mWB6fs6v9H3wueB+bNm1iN0lERERxDPsi3bt314sN0cWxfQzmXLgQBt/52D8gIiIiMzH0Mh9DL0Mw9KKEgPUBXVyVK1fOsbFGobuxt99+W7vbICKif40ePVo8PDweGEcrLiD0eti4YURERGQuXOSydOlSef311zXMcr7Y0K5nn31WqlevrvsXdktwIiIiMhtDL/Mx9DIEQy9KSLjCH+PK2P+DdqHbLbRyeNi4NURESR0CLnRDNHXqVO0+EC2u4gNDLyIiosQD5xrQonvz5s0adGXLli3SsZVdadKk0e6escyRI0esexMREVFiwdDLfAy9DMHQixIa1g10i1W/fn3HhhuVKlUqKVGihOzbt89akogoeUH3gS1btpQWLVpoV4DxBV0goTUuERERmQvdF2PcToyTmSVLlmi7LsT0fv366VilYWFh1r2JiIgosWHoZT6GXoZg6EWmQKuvadOmSf78+R0bcBQGWe7UqZMcPXrUWpKIiIiIHhe6O+vcubOMHDky3lqOElHswTkFrLtYh3FBTK5cuSIdN9mF7gwxXvIHH3ygY45ynC4iIqKkgaGX+Rh6GYKhF5kGVyy+9dZb2pWXvSFHPfPMMzJ06FAJDg62liQiIiKiRzl16pS24MS+lPO+VY4cOaRv376yfPlybQFy69Yt6x5EZAJ09X7ixAlZtWqV9O/fX4/Xnddh58qUKZOUKlVKj6M4RhcREVHSxNDLfAy9DMHQi0yE9QX90mMDbm/MUThZgz7qhw0bpi3DiIiIiCh648aNk8yZM0fan4paaBWSMWNGbTWCcAxjCd6/f996BCKKb+je/c0335Q8efLIc889p+uoq3UXhaBr8uTJEhISwuCaiIgoiWPoZT6GXoZg6EWmW79+vTRv3vyBgz0PDw8ZMmSIXL161VqSiIiIiGD79u1St27dSPtOqIYNG0rbtm0lX758D8xzrpw5c+p4qx9//LGsXLlSbty4YT0yEcWma9euaUuuL774Qlq1aiXu7u4PtMp0rgIFCkiXLl30pNfhw4etRyEiIqLkgKGX+Rh6GYKhFyUGWH8WLFggXl5eDwzQjCuTf/zxR20ZRkRERJScXbx4UT799NNI+0o4gY6Qa9KkSdZSEQIDA+X999+XMmXK6HFA1H0s58qQIYOekJ8xY4bs3btXzp8/r11SE1HMhYWFycmTJ2Xz5s3ac0XVqlXl2WefdbnOoXDRH9bNsmXL6vhcWPeIiIgo+WLoZT6GXoZg6EWJyc2bN2Xt2rXa1Ye9kUfhZE7WrFnlvffe45XIRERElCytWbNGcufO/UArkT59+sjly5etpR6ELqMx/9ChQ9qyK2/evJHuH7XSpEmjxw9okdKjRw/5888/5fbt29ajEZEzdDk4bdo0adGihXYhiu4KHxYwo3Csg0AaLbmwbrJbdyIiIgKGXuZj6GUIhl6UGOHEypQpU6RSpUoPnNhBdzyvvvqq7Nq1y1qaiIiIKGnCMQa6MmzTpk2kfSL8Xr16dQ3CHhfG80IAhn2t119/XXx8fB55kj5t2rQ6ttCLL74ogwcPlkWLFrEVPiUraPkYFBSk6w0CK7SMLFmypKRKlcrlOmNX6tSpxd/fX/r27Su//fabPgZbURIREZErDL3Mx9DLEAy9KDHDSZmpU6fqSRZXJ2NwsLlz505efUxERERJzpEjR+S111574KR6jhw55PPPP4/V1iHBwcEyevRoqVmzpo6riuOHqBceRS3ML1q0qPTr109DsH379klISIjuvxElVgikLly4IAcPHpR169bJ0KFDpU6dOpIuXTqX64FzYZ3Ili2blChRQsfWw3HMw1phEhERETlj6GU+hl6GYOhFSQH6x9+4caMUK1bMsfG3C/3kFypUSBYuXGgtTURERJR4Xb9+Xdq1a6fjmjrv8+CE+gsvvKDjbcUVHNOEhoZqeIUxwRCu+fn56dhDzq/FVaE1GLqjLliwoLRv317GjRun3beZepxEZLty5YoGVJ06ddJuPfF/nD59+kcGv3YVKVJEuw5F8Itx99DlIREREdHjYuhlPoZehmDoRUkJ1rOVK1fqASnGm7C/COxCFyMffvihHDhwwLoHERERUeKA7gIHDhwo2bNnf2Afp2nTprJixYoE6xYNrVU2bdok48ePl/79+0vVqlV17KKor9NVZc6cWby8vKRZs2Z63zFjxsiqVav0OIWBGMUXjAuMIHfOnDkyYsQI7S69Vq1aki9fPpf/t64qU6ZMUqFCBXnllVfk22+/1fHuTp8+zf9jIiIiihUMvczH0MsQDL0oqcIVyF27dtX/66hXYeI2Tg5t2LBBr9wkIiIiMhVabn3//fcPdJ+G1uylS5eWtWvXWkuaBd0Ybt26VT777DMNwQoXLixZsmSJcesYFLqCa9y4sbYoW7ZsmYYSx44d0/08tPRnmEAxhUD40qVLcuLECf0/wv/TV199pePQ4X8zJq0V7UKrxdy5c2s3hQhrR40apeMJcywuIiIiiksMvczH0MsQDL0oKcN6h4PbSZMmSd68eR1fDHZhHDD832OwaZw4ISIiIjLFzZs3dR8FwU/UfRg3NzdtDZVYuknDPhla0iDAQxdvY8eO1TGNEBxEfW8PKwR96NYR3cvhvmgh1rFjRw0d1qxZw4uZyAGtDxFsIXRt0KCBtthCK0m0QEydOrXL/6/oCkEtxqd7/fXXZcmSJdp6C4/PbgqJiIgoPjH0Mh9DL0Mw9KLkAieOcJDapUsX7UbH/pKwCydQcKXmzz//rH3tExEREcU3HDPs3LlTevfuLTlz5nxgf6VUqVIyYcIE3a9JKrDftW3bNpkxY4YMGzZMunXrJlWqVHHZjeOjCuEEAjF8TvXq1dP9PnRtjf07dDW3f/9+Dd8o8UILQnT1uXv3bv2bYn344osvpF+/ftKiRQsdYy5HjhyP1aLQLvzPlS9fXsfM++ijj/TCuc2bN/MYmYiIiIzA0Mt8DL0MwdCLkiP8n+MEiIeHh14xbH9h2IUWYDhJghMwuIqTiIiIKC7dvn1bduzYIa1atXqgmzWcvM+fP7+2Zrpz5451j+Th7NmzMnPmTHn77belevXq2p0cPgsEW67Gb41podVPzZo1pXPnzvLxxx/LuHHjdEw0BI5BQUFy9OhRPU7CPmNoaCi7rYtjd+/elWvXrmmYdfz4cW0NiPVh/vz5MnLkSA2B69evr90QpkqVyuXfNCaF/xkEWwULFhRvb29p2bKlDBkyRMMzdJlJREREZDKGXuZj6GUIhl6UnOFKXxxQ44DXVT/+OKjGVdboNgcH30RERESxbd68eVKkSBGXXa5hDCwc3LLbvojjKYSDV69e1YDi1KlTsmXLFvnpp5+kZ8+e4u/vr2MtRf0MH6ewP4hgBD0A4BgJAQm6UUTQVqZMGR3/acCAAdo9I4KSQ4cOsYu7R8Df7cKFC9oya9GiRdrq7pNPPpEePXpIw4YNNXxCCIljUYSZ6H4Qf4PHGWMrusLjvvDCCxqcYSxf/M/gtVy/fp1BJhERESU6DL3Mx9DLEAy9iCLgqtIxY8ZIrVq1XF5BigNvXF382muvydy5c9k1DhERET0xdOk3fPhwPeEfdZ8DVadOHfnjjz+0lRHFHIKM4OBg2b59u7YS+vHHH+WDDz6QDh06aJeJCEGepqWQq0JLvEyZMom7u7v4+vpqC7LWrVtrqPPOO+9owIPu97755hsN6NBlHrpyXLhwoaxcuVI2btwou3bt0q4XT5w4oeOeodUTWj8lBBy34v8O/6NnzpyRw4cPS2BgoAaMf/31lyxevFh+//13+eGHH+Tzzz/XVngIHV966SUNsSpXrqxjreHzeP7552P980YhIMZ4vQgimzZtKq+88oq22EMYide3d+9e/QyJiIiIkhKGXuZj6GUIhl5ED0KXNjh4xsE6ujq0v1CcC1egdu3aVa8axckVjC9AREREFB2Mw4WW42+99ZbLVl0YcxRd+KFFDMUdtMwKCAiQOXPmyLfffiv9+/eX5s2bS+nSpfUCp0KFCkmePHm01VGGDBmi3ReMj8L/CV5HgQIFJF26dNryD8dseI0lS5bU1/y0haAO3QbmypVL36+r1xEfhfeKdQCvA++3ePHiUrZsWQ0QBw4cKOPHj9fQDUEcERERUXLE0Mt8DL0MwdCLKHq4QhRjO+DqYPtLJWqhBRiuYq1QoYJMmTIl2Y21QURERA+H44DRo0friXxX41BhGloEnT59ml2uJSD8ndB9IlrzY0xXtLhCwHLs2DHZunWrji2GcdXeeOMNDWLKlSunx0+x0Q1fUi8EWugiEvvLGLeub9++2vpt4sSJsnz5ch1H7eTJk3ohGY5H0f0g/hamHkMTERERJQSGXuZj6GUIhl5EMYPxIxYsWKAnOnDlKbqysb9onAsBWLNmzfTK4YMHD1r3JiLToQUGTmwSEcUWjF/UuXNnbanjap8BLXVGjBih4wxR4oVuCNEVIHoKwFixaI2ErgunT58uEyZMkO+//16GDRum3Ry++eab2ptA+/btdX+xdu3aUrFiRW1tVaxYMQ2GcuTIoeNaxUW3gDEtjI1mtyqzW135+flJpUqVpG7duhr6de/eXbs2RBeH3333nZ6EmT17tqxYsUJDwgMHDsjZs2fZRScRERFRLGHoZT6GXoZg6EX0+LA+o+shnLRAdzDp06d3fOlELZwg+PXXXzUAw1XDRGQGtOQ8cuSIjtHXpk0bx3qM70RcfY51Fl1gERHFFLo6RmsVdMOWO3fuB/YJUBkzZhQfHx8dE4mtuuhR8D104cIFDdQQHuFYDa3PDh06pF00Yuwy1LZt2564ENQhoMJxIS7yIiIiIiIzMfQyH0MvQzD0Ino6OAGB7ojQsgtXwtpfPlEL4zBgjAIM7j1u3Di5dOmS9QhEFF9wghljuGDQe5yQftjYJVhnMa7f0KFDtZslIqKHWbJkifj7+0umTJlcblPQ2gstYtCqC922ERERERERPQ6GXuZj6GUIhl5EsQdXeO/atUtGjhwpDRo00JPm9pdR1MLYBrjSu0ePHhqCYSwD3J+IYg+ujkdLrnfffVeqVav2yAH60ZWTq+noZgrdUGFdxXgjRES4eAXd13Xp0kXy5s3rctuBburwPY/ukRmeExERERHR02DoZT6GXoZg6EUUdzBG0JQpU7RVScGCBbVLI/vLyVW5ubnpWA8bNmzQK8FxfyKKGXzP4jts37598tNPP0mVKlUkRYoULtc1FILQMxqsAAAX10lEQVRnrHNofYmg+ty5c9r64rfffpPy5cs7vhtd3a9ly5Y68D6+QxlWEyUfGLdpy5YtGmRFF6KjpRfGZ8J2iF2kEhERERFRbGHoZT6GXoZg6EUUP27cuKFjMMyfP19PmGOAcPuLKmo988wzkjlzZu0uEQPgr1q1iuN+ELmA79adO3fKJ598ouPn5cyZU9KkSeNyvUJh3SpTpoz88MMPcvz4cR1nz1VodffuXW3R9ccff0iRIkWifSx8f5YqVUp+/vlnhtRESRi+u2vXrq3bmFSpUrncJqCl6Ndff83uC4mIiIiIKE4w9DIfQy9DMPQiShjo5mjt2rUyYsQIadWqla5/9heXq8KV42XLltUQDPdZunQpu1mjZOXatWvaChKBVc+ePaVSpUrRdkdoV/r06bVbw/fff1+7OTx79qz1aDGH7++tW7fKoEGDpEKFCpIyZUqXz4V1tGHDhjJ8+HDZvn27dW8iSoy2bdsmw4YNkyZNmuhYXK7WeWwL8L382Wefyfr16zUsJyIiIiIiiisMvczH0MsQDL2IzIDWJugyqV+/flK8eHHJli1btCfXnQvdJr766qs6XsiBAwfk/PnzcufOHetRiRInBFwnTpzQsGnIkCFSsWLFaFtXOBfG3sI6gS5Fp02bJmFhYdYjxh604sAYYcWKFXtol6XZs2eX9957T1uihYSEsBtEIkNh3cQ6inX1ww8/1HG4XK3TKIzV6eHhIX379pUjR45Yj0BERERERBT3/r+9ewGyui77AD6KgEFGI2KEFzQIFUsSpjTFSLuXE9DUMFpjoJlZMmamZZbWRF6mTNOyqzqWJQmZOk55qSxroryhhKKkJcIoiGMqQnhhfu98f++yL/luAt74Hfh8Zp5x3LO75+w5/3P28P/u8zxCr/YJvRoh9IL2JLRKeJVukZxcX1sX2OrKWLeEZTnpP2nSpHLhhRfW/SPQuowGTBfXtGnTyl577VW222672jn1bDu5VlfGgB599NHlV7/6VVm4cGEdJfpSyG3O9WVvz7Bhw3q8bamEdQnAsicsYxCBNjzyyCPlrLPOqt1aCbqeLVgfOnRoHV2YoGv58uVd3wEAAOClI/Rqn9CrEUIvaF9eP7J/6Morr6yj0w455JC6JP/ZdhetruwdGjJkSBk7dmz56Ec/Wke0ZU9RRjdlnxG8VNJNsWDBgjqa85xzzilHHXVUefe7310Do3XpaswevNGjR5cpU6aUM888s1xzzTV1XGELv19zG2699dY6evTAAw/s/r3aU/Xu3bsGYOnqvPjii2tHG/DiynN0/vz59R+JGY86atSoZw3Vs1czow0Tis2ePbvZ9/EAAMCmQ+jVPqFXI4Re0LmyP+S6664rn/vc5+pfqucv0XOiLkHX6l+Cz1b5vHSFfeQjHynf/e5362inf/zjH2Xp0qVl5cqVXdcC6+7pp58ujz76aA2j/v73v5dZs2bVvTgJgta2f2vNytjA7bffvoa7xxxzTLn22ms76pjMbb300kvrjq8dd9xxrQH1brvtVsc45uT64sWL6/0IPHfpxMzrUH6vZefW8OHDe3zura4EYIMHDy777bdf7ZLO1wMAALRE6NU+oVcjhF6wcchrTPYg5TmdjpN0hB1wwAGlT58+3b8Q11YJwfr371/HPGVk3P7771/3m6QzJ98bninjwX7729+WU089tUycOLGeWM5owq233rp2ZvV0nP23SjiUADdjDrM3K9+70/dg5XmZEDBh8re+9a2y++679/izr66MV8uI0tyPGdn4xz/+ses7AWuT14srrrii/iFHfofl/e3aukjzhx8nn3xyuf322+s4YLv3AACAVgm92if0aoTQCzZuTzzxRLnrrrvKr3/96/Ltb3+7fOYznynjx48vI0eOrAv5V/+yXJfKScS3vOUt9YTiCSecULvDskdp7ty5ZdmyZV3XyMYgv7MefvjhMmfOnPoYZxdVTgx/7GMfq91LGQ2WcGZduwpXV0KdESNG1M6vz372s+V73/teDc0Scm0KJ5tzv2ZU6c9//vP6XHzzm9+81nBwq622qt0nU6dOLeeff3657bbbapcnbMqy+zJdXHlt+sQnPlG7ndf2Rx55/dljjz3KkUceWbu58rtRyAUAAHQKoVf7hF6NEHrBpisnznMCPeFV9oS97nWvq9026dJZnw6x1TVo0KB6Ej/fa83dYXfeeWfdW5SxbdkjtmLFCicaN5CMzXv88cfra31Gf6UDad68ebWjKAHUpz71qRps5hjo6TFel8qJ5YzZTMdXAq53vOMddbxYRnEam/n/JTC+6KKL6n6zjCjNaMee7tc16xWveEWZNGlSmT59ej1xn+eW+5aNVV6zFi1aVEP4c889t+7aWpfnSb9+/eqY1De+8Y3lm9/8Zn3NAwAA6FRCr/YJvRoh9AJWSxCVMYYPPPBA3cd01VVXlZNOOqm87W1vW6cTjP+tevfuXb9+4MCBZciQIWWnnXYqu+yySx2fmM6hU045pXa+JCBLdxHPz/Lly2uYlTGBP/nJT8qXv/zl+mZon332qSFUgpXsrkmwlXGWCal6etzWtdLx9b73va9eTzoK58+fX09Q57FMpyHrLgHYggUL6v142GGH1VGjPd3na1b2heUxyJi2PA7nnHNOufvuu7u+I3Sm/EFGxqaOGzeuvmZlJ+DaRhWm8nkf/vCHy2WXXVa7KvOHFq2+BwcAAFgfQq/2Cb0aIfQC1lVOxs+aNavMnDmz7ifK/qWMOszusIRYzycYW7MydjEdZ2PGjClvf/vby4QJE+ov809+8pPl85//fPnqV79azjrrrDrq7ZJLLqkBQTqVssvsnnvuqX/Nn9eyhD+dIoFjdj8tXLiw7pbJ/ZxdajNmzKg/Z37edM8dd9xx5YgjjigHHXRQDTjSlfWGN7yhDBs2rHbaJQDp6T59rpXH4rWvfW29nlxnRvKdeeaZ5Ze//GW5+eab/c54kaUzL52SF198cTn++ONr11zC454eq2dWgrAEBnne5PmaMZUJw/I9oQU5FnNM5jU8x2jGFI4dO7b7fenaKq9Pe++9dznqqKO6R39m7CEAAMDGSOjVPqFXI4RewAvpwQcfLH/4wx/q/rCEM/vuu2/tLtphhx1qKJOxbM9ldOLzqexMynWnEyb7XHKbMkrugx/8YJkyZUod6Xf00UeXY489tgZ5J554Yt1flXDttNNOK2eccUY9Ifud73ynfP/73y/nnXdeHQmZ8CeXp8MpYdwxxxxTd8Uceuih5eCDDy4f+MAHajCVTrlcZ0ZsZYRkQqQ174/n22m1vpX7P3uiEoqk8y672nbdddd6svnjH/94/VmvvfZao8Aall1GX/ziF+sxlWMpx9Hmm2/e4+P9zMrItwTVOW6zTy1dnRmP2EkhMZ0lx1aOsQRcv/nNb+qxl2Mwx2JPx+gzK7sD85qVUYX5Y4jsA8yxK+ACAAA2JUKv9gm9GiH0Al5sOTGZLqYlS5aU++67r55kTzfT5ZdfXjuYpk6dWsOh3Xbb7QXvVNpUK6/no0ePLuPHjy+f/vSna5B1xRVXlNmzZ9f7P117OQmdEYTZl5P9bnSeNTsE03mXgDbdYOmA6em46KkSCicAzdjRBAoJgS+44IK6P0lXGOsrx8wdd9xR/zGWY+lNb3pTPbZyjOVY6+kY7KnyxwAJdROQZVRrfnc88sgj9kECAACbLKFX+4RejRB6Aa3JDpYEM3/+85/r2KuMMEx3VQKyadOm1a6qnEw95JBDysSJE+tJ/oy42n333evJ1Ve96lV1r8v6nGBtoRJU5LanEyzhw1vf+tby/ve/v46QXD3a8Wtf+1rd2ZQ3OpdeemntmrjhhhvKvHnz6ut5dkLZX0N2qc2dO7fuyktokNGUOabSEdbTsfffKs+hjC595zvfWbsA0/3405/+tPzpT3+qe+PsbNs05bUmQVSOhexkzLGRYyTHyvoErqnsfEw3cP7wId2yP/jBD+prf8JcAAAA/o/Qq31Cr0YIvYCNXTqZMqpv/vz5tRsm4xevvPLKuicpJ1jPPvvs2iFz+umn11DpK1/5Sh0dl5ApIw8z+jAhW8Y1HnbYYWXy5Mnl8MMPr3tkMmYr4xATBnz961+vgVS+549//OMaOKSb7aqrriq///3v656udFqlCyKBQW5TOq2MleOllOfBD3/4wxqmprtyu+22KwMGDCi9evXqfvO8PpV9cuko/NKXvlSP+exVyvH9wAMP1AB75cqVXddMy/I+NY9VHrM8dv/85z+7O3JPPfXUerzsueeez+mPCTKeMKMMt91223q8ZFdjdhTmtdjxAQAAsG6EXu0TejVC6AUAm6aMosvIuIxHTGfYjBkz6l677KFLELb6zfT6VAKOdPtsvfXWdQdTOhczpu5DH/pQOf744+s+vKuvvrqGbwKPl15GmSaUzN6+7Cg87rjj6v7BjEMdPnx4DUEHDhxYQ6p13RPXU2V/YXYmZhfiX/7yl3qdS5cu9ZgDAAA8R0Kv9gm9GiH0AgB6kj18f/3rX2sH12mnnVY7HjOGbtSoUWXQoEE14Fr9hvu5Vt6DJBjbZ5996jjPQw89tHZYpnsynZMXXXRR7czMSMV0HuV9i+7I/31fmRGA2c+X7rp0TV122WX1H0EZBXvSSSfVx2vSpEll//33ryFUxqdmV1ZPj8P61pAhQ8q+++5bR2eecMIJNUBLmHnXXXfZEQgAAPAiEHq1T+jVCKEXAPBcrFixou6U+9GPflTHgB5wwAE1wNphhx3KNttsU17+8pc/57GJa6t0ImWH1H777VcmTJhQR4+maymj+BLAzJw5s/zud78rt956a7nzzjvL3XffXe67776yaNGiOr4vgV46j/K+JyP9EiBlJ14Ctfxc//73v2tXUvaWPfnkk7UrbtWqVd3v5/LffCwBTz4nn5uvyddnpOpjjz1Wv2c66TLGNNeT68v15vpzOxJYpQMqOwxzGzP6dPUuw+nTp9dRqRmbmtGRU6dOrd1yCQd33HHHHu+TF6L69u1bd78lIBs6dGgdgfne9763duldeOGF5aabbqo/JwAAAC8toVf7hF6NEHoBAC+UhEAJfBYvXty9Fyo77c4///wa3uSN+dixY+sYvRcrEHtmZUxfnz59ylZbbVVe+cpX1tGLCeUS7OS9T25LgqSddtqpvOY1r6l7pzLqb8SIETVY23XXXWv4M3LkyNox9frXv77+N/+fy/I5CfvyNfn6fJ8ERgn/MuIxXVG5nlxfOuRy/RkfmVAwoyBz257PKMHnUhlhuNdee9VdXdlj+LOf/azceOONtVMr4WACuoR3CfoAAADY8IRe7RN6NULoBQBsCOmgStfT3/72t9qVdckll9SdX6ecckrdLXbEEUfU8Xzvete7akCTcCnBUbqRVr/R39QrHW+5TxK4ZS/XuHHjyoEHHlgOPvjg2h02bdq02jGW0YezZs0q99xzTw2zAAAA6CxCr/YJvRoh9AIAOk26yebOnVvDshkzZtSRhgnLsg9sypQpZfz48bWjLEFZAqGdd965dnSt2XGVbqe8B0rXVbrA+vfvXzuvttxyyxqspQOrd+/edQ9WutLSjbXmHrP8fy7L5+Rz83X5+gRR6eLK98yowHSX5Xqe2WGWLrB0hOW2re4sGzNmTB0TOXHixDJ58uQ6NjIdcmeccUa54IIL6ujDW265pY5HtDsLAABg0yH0ap/QqxFCLwBgY5bdW9m5lR1b2d/10EMPlQcffLB2meV90MKFC8u9995b92tl91d2bGXMX/ZszZs3r+7aypjGdKTNmTOn3HbbbbUSuuXj+Zx8/vz58+vXp5sqox3zPVfvEcv1rN4lluvP7Uhwlx1guW25jQAAAPDfCL3aJ/RqhNALAAAAAADaJfRqn9CrEUIvAAAAAABol9CrfUKvRgi9AAAAAACgXUKv9gm9GiH0AgAAAACAdgm92if0aoTQCwAAAAAA2iX0ap/QqxFCLwAAAAAAaJfQq31Cr0YIvQAAAAAAoF1Cr/YJvRoh9AIAAAAAgHYJvdon9GqE0AsAAAAAANol9Gqf0KsRQi8AAAAAAGiX0Kt9Qq9GCL0AAAAAAKBdQq/2Cb0aIfQCAAAAAIB2Cb3aJ/RqhNALAAAAAADaJfRqn9CrEUIvAAAAAABol9CrfUKvRgi9AAAAAACgXUKv9gm9GiH0AgAAAACAdgm92if0aoTQCwAAAAAA2iX0ap/QqxFCLwAAAAAAaJfQq31Cr0YIvQAAAAAAoF1Cr/YJvRoh9AIAAAAAgHYJvdon9GqE0AsAAAAAANol9Gqf0KsRQi8AAAAAAGiX0Kt9Qq9GCL0AAAAAAKBdQq/2Cb0aIfQCAAAAAIB2Cb3aJ/RqhNALAAAAAADaJfRqn9CrEUIvAAAAAABol9CrfUKvRgi9AAAAAACgXUKv9gm9GiH0AgAAAACAdgm92if0aoTQCwAAAAAA2iX0ap/QqxFCLwAAAAAAaJfQq31Cr0YIvQAAAAAAoF1Cr/YJvRoh9AIAAAAAgHYJvdon9GqE0AsAAAAAANol9Gqf0KsR999/f3foNXjwYKEXAAAAAAA05LzzzusOvSZPntz1UVoi9GrEQw89VAYNGlSfLAMHDixLlizpugQAAAAAANjQpk2b1h16feELX+j6KC0RejVi2bJlZciQIfXJ0r9//7Jw4cKuSwAAAAAAgA1typQp3aFXur5oj9CrEU899VQZOnRofbL06tWr3HHHHV2XAAAAAAAAG9qYMWO6Q6/rrruu66O0ROjVkPHjx3c/YU466aSujwIAAAAAABvS/fff333+fosttigrV67suoSWCL0acv3113c/abbZZpva/QUAAAAAAGxY06dP7z5/P3bs2K6P0hqhV2O233777ifOzJkzuz4KAAAAAABsKO95z3u6z92feOKJXR+lNUKvxhx11FHdT5y99967rFq1qusSAAAAAADgpXb55Zd3n7fv1atXmTNnTtcltEbo1ZgFCxaUvn371ifPZpttVnd7tX6bAQAAAABgY/Svf/2rDBs2rDv00uXVNqFXg84+++yaFucJ1K9fv3L11Vd3XQIAAAAAALwUli1bViZOnNgdeL361a8uixcv7rqUFgm9GvTkk0+WffbZp/uJlLr++uu7LgUAAAAAAF5MOU9/+OGHd5+j7927d7n55pu7LqVVQq9GPfroo2XPPffsfkINGDCgfOMb37DjCwAAAAAAXkQZaThu3Lju8/Op008/vetSWib0atiNN95Ydtlll+4nVUYeppXylltu6foMAAAAAADghbB8+fJy7rnnlsGDB3efl99iiy3KkUceWZ5++umuz6JlQq/GPfzww2X48OFls802636SpUaNGlV+8YtflEceeaSsWLGiPPHEE+Wpp55SSimllFJKKaWUUkoppdRaKuMLV65cWR5//PEyf/78cuyxx5aXvexl/3EePiMNzzzzzK6z9XQCoVcHeOyxx8rJJ59cNt988/94wqX69etXdt555zJy5MgyevToMmbMGKWUUkoppZRSSimllFJKPUulsWTEiBFl22237fHc+x577FGuv/76rrP0dAqhVwdJ2nzQQQeVLbfc8v89AZVSSimllFJKKaWUUkop9fwqk9fOOOOM2gVG5xF6daAlS5bUpXnDhg0r/fv3ry2Xffr0qbNFlVJKKaWUUkoppZRSSin17JXRhX379q3T1AYMGFAmTJhQrrnmmrJq1aquM/F0IqFXh1u6dGm59957y+23315uuummcsMNNyillFJKKaWUUkoppZRS6llq9uzZdbraokWL6l4vNg5CLwAAAAAAADqe0AsAAAAAAICOJ/QCAAAAAACg4wm9AAAAAAAA6HhCLwAAAAAAADqe0AsAAAAAAICOJ/QCAAAAAACg4wm9AAAAAAAA6HhCLwAAAAAAADqe0AsAAAAAAICOJ/QCAAAAAACg4wm9AAAAAAAA6HhCLwAAAAAAADqe0AsAAAAAAICOJ/QCAAAAAACg4wm9AAAAAAAA6HhCLwAAAAAAADqe0AsAAAAAAICOJ/QCAAAAAACg4wm9AAAAAAAA6HhCLwAAAAAAADqe0AsAAAAAAICOJ/QCAAAAAACg4wm9AAAAAAAA6HhCLwAAAAAAADqe0AsAAAAAAICOJ/QCAAAAAACg4wm9AAAAAAAA6HCl/A/PrYEPIL0bcwAAAABJRU5ErkJggg==;" vertex="1" parent="1">
          <mxGeometry x="400" y="350" width="1725" height="859" as="geometry" />
        </mxCell>
      </root>
    </mxGraphModel>
  </diagram>
</mxfile>
